<svg xmlns="http://www.w3.org/2000/svg" width="80" height="80" viewBox="0 0 80 80">
  <g id="Group_1241" data-name="Group 1241" transform="translate(-50 -495)">
    <rect id="Rectangle_881" data-name="Rectangle 881" width="80" height="80" rx="22" transform="translate(50 495)" fill="#fff"/>
    <g id="Cloudy_day" data-name="Cloudy day" transform="translate(64.005 507)">
      <g id="Group_499" data-name="Group 499" transform="translate(20.234 2)">
        <path id="Path_3619" data-name="Path 3619" d="M20.714,7.143A1.714,1.714,0,0,1,19,5.428V3.714a1.714,1.714,0,1,1,3.428,0V5.428A1.714,1.714,0,0,1,20.714,7.143Z" transform="translate(-8.089 -2)" fill="#ffb300"/>
        <path id="Path_3620" data-name="Path 3620" d="M20.714,7.143A1.714,1.714,0,0,1,19,5.428V3.714a1.714,1.714,0,1,1,3.428,0V5.428A1.714,1.714,0,0,1,20.714,7.143Z" transform="translate(-8.089 -2)" fill="#ffb300"/>
        <path id="Path_3621" data-name="Path 3621" d="M15.479,9.193a1.714,1.714,0,0,1-1.212-.5l-1.13-1.126a1.715,1.715,0,1,1,2.424-2.426l1.128,1.128a1.714,1.714,0,0,1-1.212,2.928Z" transform="translate(-12.635 -0.118)" fill="#ffb300"/>
        <path id="Path_3622" data-name="Path 3622" d="M30.379,14.428h-1.6a1.714,1.714,0,1,1,0-3.428h1.6a1.714,1.714,0,0,1,0,3.428Z" transform="translate(-2.326 4.428)" fill="#ffb300"/>
        <path id="Path_3623" data-name="Path 3623" d="M26.42,9.192a1.714,1.714,0,0,1-1.21-2.928l1.128-1.126a1.715,1.715,0,1,1,2.424,2.426l-1.13,1.125A1.714,1.714,0,0,1,26.42,9.192Z" transform="translate(-4.014 -0.117)" fill="#ffb300"/>
      </g>
      <path id="Path_3624" data-name="Path 3624" d="M24.215,6A10.285,10.285,0,0,0,14.12,14.374a1.731,1.731,0,0,0,.466,1.481,1.817,1.817,0,0,0,1.49.531,10.9,10.9,0,0,1,1.282-.1,12,12,0,0,1,10.935,7.1,1.714,1.714,0,0,0,1.2.974,1.627,1.627,0,0,0,.363.039,1.714,1.714,0,0,0,1.133-.429A10.252,10.252,0,0,0,24.215,6Z" transform="translate(8.644 2.857)" fill="#ffd54f"/>
      <path id="Path_3625" data-name="Path 3625" d="M47.543,25.015a12.13,12.13,0,0,0-6.91-4.429,15.412,15.412,0,0,0-28.98-.814,1.8,1.8,0,0,1-1.147,1.049A11.963,11.963,0,0,0,2.12,34,12.215,12.215,0,0,0,14.36,44.284H37.638A12.217,12.217,0,0,0,49.879,34a11.946,11.946,0,0,0-2.336-8.984Z" transform="translate(0 5.713)" fill="#29b6f6"/>
      <path id="Path_3626" data-name="Path 3626" d="M41.112,20.694a12.111,12.111,0,0,0-8.043-4.628,1.577,1.577,0,0,0-.2-.014c-.387-.022-9.191,0-11.192,7.254a1.736,1.736,0,0,1-1.371,1.282c-2.936.413-9.959,2.724-9.257,15.376H31.207A12.217,12.217,0,0,0,43.448,29.68a11.946,11.946,0,0,0-2.336-8.986Z" transform="translate(6.431 10.034)" fill="#039be5"/>
    </g>
  </g>
</svg>
