<svg xmlns="http://www.w3.org/2000/svg" width="36" height="34.609" viewBox="0 0 36 34.609">
  <g id="Group_1222" data-name="Group 1222" transform="translate(-0.001 -0.603)">
    <g id="Group_1221" data-name="Group 1221" transform="translate(0.001 0.603)">
      <path id="Path_3951" data-name="Path 3951" d="M17.7,2.359A15.769,15.769,0,0,0,6.485,29.214c-.5.642-1.271,1.626-2.327,2.982A1.7,1.7,0,0,0,6.84,34.287s1.422-1.826,2.285-2.928a15.717,15.717,0,0,0,17.158,0c.861,1.1,2.284,2.928,2.284,2.928A1.7,1.7,0,0,0,31.249,32.2c-1.056-1.357-1.826-2.341-2.327-2.983A15.77,15.77,0,0,0,17.7,2.359ZM4.969,18.131A12.734,12.734,0,1,1,17.7,30.868,12.749,12.749,0,0,1,4.969,18.131Z" transform="translate(0.297 -0.332)" fill="#404040"/>
      <path id="Path_3952" data-name="Path 3952" d="M18.043,14.895l.008-4.422a1.013,1.013,0,1,0-2.025,0l-.008,4.394A2.4,2.4,0,0,0,14.8,16.107L7.47,16.093a1.013,1.013,0,0,0,0,2.025l7.427.013a2.381,2.381,0,1,0,3.15-3.236Z" transform="translate(0.997 0.765)" fill="#404040"/>
      <path id="Path_3953" data-name="Path 3953" d="M1.827,2.394a6.181,6.181,0,0,0-.32,8.431l8.755-8.683A6.184,6.184,0,0,0,1.827,2.394Z" transform="translate(-0.001 -0.603)" fill="#404040"/>
      <path id="Path_3954" data-name="Path 3954" d="M30.732,2.394A6.186,6.186,0,0,0,22.3,2.143l8.752,8.683A6.185,6.185,0,0,0,30.732,2.394Z" transform="translate(3.444 -0.603)" fill="#404040"/>
    </g>
  </g>
</svg>
