<svg xmlns="http://www.w3.org/2000/svg" width="29.279" height="57" viewBox="0 0 29.279 57">
  <g id="_011-high_temperature" data-name="011-high temperature" transform="translate(-124.5 0)">
    <path id="Path_3596" data-name="Path 3596" d="M151.553,22.377H147.1a2.227,2.227,0,1,1,0-4.453h4.453a2.227,2.227,0,0,1,0,4.453Zm-3.744,30.679a13.7,13.7,0,0,0,2.005-16.994,3.271,3.271,0,0,1-.488-1.737V31.283h2.227a2.227,2.227,0,0,0,0-4.453h-2.227a4.458,4.458,0,0,0-4.453,4.453v3.042a7.721,7.721,0,0,0,1.164,4.1,9.241,9.241,0,0,1-7.975,14.124,9.308,9.308,0,0,1-9.108-9.066,9.208,9.208,0,0,1,1.392-5.054,7.739,7.739,0,0,0,1.167-4.1V11.245a6.837,6.837,0,0,1,6.629-6.791h.05a6.689,6.689,0,0,1,6.546,5.338,4.47,4.47,0,0,0,4.364,3.568h2.45a2.227,2.227,0,0,0,0-4.453l-2.45,0A11.15,11.15,0,0,0,138.193,0h-.083a10.983,10.983,0,0,0-7.82,3.371,11.228,11.228,0,0,0-3.229,7.873v23.08a3.289,3.289,0,0,1-.493,1.745A13.709,13.709,0,0,0,138,57h.194A13.594,13.594,0,0,0,147.809,53.056Z" transform="translate(0 0)" fill="#094fb9"/>
    <path id="Path_3597" data-name="Path 3597" d="M222.5,114.4a2.783,2.783,0,1,1,2.783,2.783A2.783,2.783,0,0,1,222.5,114.4Zm5.01-9.463V82.227a2.227,2.227,0,1,0-4.453,0v22.711a2.227,2.227,0,0,0,4.453,0Z" transform="translate(-87.09 -71.094)" fill="#29b6f6"/>
  </g>
</svg>
