<svg xmlns="http://www.w3.org/2000/svg" width="47.22" height="57.43" viewBox="0 0 47.22 57.43">
  <g id="Group_733" data-name="Group 733" transform="translate(-45.513)">
    <path id="Path_3829" data-name="Path 3829" d="M56.841,10.1V2.243a2.243,2.243,0,0,1,4.487,0V10.1a2.243,2.243,0,0,1-4.487,0ZM69.179,8.246A2.243,2.243,0,0,0,71.423,6V2.243a2.243,2.243,0,0,0-4.487,0V6A2.243,2.243,0,0,0,69.179,8.246Zm20.19,8.583a2.243,2.243,0,0,0,2.243-2.243V2.243a2.243,2.243,0,1,0-4.487,0V14.586A2.243,2.243,0,0,0,89.37,16.829Zm-10.1-4.487A2.243,2.243,0,0,0,81.518,10.1V2.243a2.243,2.243,0,1,0-4.487,0V10.1A2.243,2.243,0,0,0,79.274,12.343ZM48.989,16.829a2.243,2.243,0,0,0,2.243-2.243V2.243a2.243,2.243,0,1,0-4.487,0V14.586A2.243,2.243,0,0,0,48.989,16.829Zm20.132,5.107A19.3,19.3,0,0,1,88.178,36.447a2.455,2.455,0,0,1-.383,2,2.507,2.507,0,0,1-1.789,1.068c-2.266.262-4.977.459-8.056.584a2.243,2.243,0,0,0,.09,4.485l.093,0c3.19-.13,6.013-.335,8.39-.61A7.005,7.005,0,0,0,92.541,35.4,23.656,23.656,0,0,0,71.423,17.555V16.162a2.243,2.243,0,1,0-4.487,0v1.382A23.665,23.665,0,0,0,45.705,35.387a7.006,7.006,0,0,0,6.026,8.58,147.874,147.874,0,0,0,15.2.777V50.7a2.243,2.243,0,1,1-4.487,0,2.243,2.243,0,0,0-4.487,0,6.73,6.73,0,1,0,13.46,0V42.51a2.243,2.243,0,0,0-2.243-2.243,153.948,153.948,0,0,1-16.933-.757,2.516,2.516,0,0,1-1.8-1.072,2.45,2.45,0,0,1-.382-2,19.3,19.3,0,0,1,19.054-14.5" transform="translate(0)" fill="#094fb9"/>
    <path id="Path_3830" data-name="Path 3830" d="M188.1,241.87a2.244,2.244,0,0,1-2.209-1.87,12.311,12.311,0,0,0-2.7-5.258,2.243,2.243,0,0,1,3.316-3.022,16.8,16.8,0,0,1,3.809,7.534,2.245,2.245,0,0,1-2.215,2.617ZM175.958,240a11.563,11.563,0,0,1,2.671-5.114,2.243,2.243,0,0,0-3.256-3.086,16.073,16.073,0,0,0-3.839,7.453,2.243,2.243,0,1,0,4.424.747Z" transform="translate(-111.858 -205.079)" fill="#29b6f6"/>
  </g>
</svg>
