<svg id="barometer" xmlns="http://www.w3.org/2000/svg" width="51" height="51" viewBox="0 0 51 51">
  <g id="Group_497" data-name="Group 497" transform="translate(0 0)">
    <g id="Group_496" data-name="Group 496" transform="translate(0 0)">
      <path id="Path_3615" data-name="Path 3615" d="M210.07,158.127c-.094.035-2.326.876-4.789,1.924-4.662,1.984-5.926,2.9-6.506,3.484a5.977,5.977,0,0,0,8.452,8.452c.58-.58,1.5-1.843,3.484-6.506,1.048-2.463,1.889-4.695,1.924-4.789a1.992,1.992,0,0,0-2.566-2.566Zm-5.66,11.043a1.992,1.992,0,0,1-2.818-2.816,30.189,30.189,0,0,1,5.606-2.788A30.172,30.172,0,0,1,204.41,169.17Z" transform="translate(-177.402 -142.261)" fill="#29b6f6"/>
      <path id="Path_3616" data-name="Path 3616" d="M43.531,7.469A25.5,25.5,0,0,0,7.469,43.531a25.51,25.51,0,0,0,31.226,3.794,1.992,1.992,0,0,0-2.064-3.408,21.5,21.5,0,0,1-26.5-3.376H44.725c.047,0,.093,0,.139-.007a1.991,1.991,0,0,0,1.816-.878A25.437,25.437,0,0,0,43.531,7.469Zm.4,29.088H7.172c-.04,0-.079,0-.119.006a21.365,21.365,0,0,1-2.976-9.071h2.9a1.992,1.992,0,0,0,0-3.984h-2.9A21.419,21.419,0,0,1,8.95,11.767l2.041,2.041a1.992,1.992,0,1,0,2.817-2.818L11.767,8.95A21.42,21.42,0,0,1,23.508,4.077v2.9a1.992,1.992,0,0,0,3.984,0v-2.9A21.419,21.419,0,0,1,39.233,8.95l-2.041,2.04a1.992,1.992,0,0,0,2.817,2.818l2.041-2.041a21.42,21.42,0,0,1,4.872,11.741h-2.9a1.992,1.992,0,0,0,0,3.984h2.895A21.43,21.43,0,0,1,43.928,36.557Z" transform="translate(0 0)" fill="#094fb9"/>
    </g>
  </g>
</svg>
