<svg xmlns="http://www.w3.org/2000/svg" width="52" height="52" viewBox="0 0 52 52">
  <g id="_005-windy" data-name="005-windy" transform="translate(0)">
    <path id="Path_3608" data-name="Path 3608" d="M43.773,52a8.265,8.265,0,0,1-7.443-4.719A2.031,2.031,0,0,1,40,45.547,4.167,4.167,0,1,0,43.773,39.6l-33.312.01A10.568,10.568,0,0,1,2.7,36.642,9.654,9.654,0,0,1,0,29.809a9.365,9.365,0,0,1,3.605-7.4A10.927,10.927,0,0,1,13.784,9.151a13,13,0,0,1,25.2,1.47,14.322,14.322,0,0,1,1.651.247,2.031,2.031,0,1,1-.835,3.976,10.343,10.343,0,0,0-2.122-.219c-.13,0-.271,0-.432.01a2.031,2.031,0,0,1-2.113-1.958,8.938,8.938,0,0,0-17.753-1.113,2.032,2.032,0,0,1-2.256,1.692,6.978,6.978,0,0,0-.856-.053,6.86,6.86,0,0,0-6.391,9.342,2.031,2.031,0,0,1-.951,2.537,5.321,5.321,0,0,0-2.865,4.727c0,2.647,1.676,5.738,6.4,5.738l33.312-.01a8.231,8.231,0,0,1,0,16.463Z" transform="translate(0 0)" fill="#094fb9"/>
    <path id="Path_3609" data-name="Path 3609" d="M270.4,182.219l-17.372-.008a2.031,2.031,0,0,1,0-4.062h0l17.371.008a3.047,3.047,0,1,0-2.755-4.347,2.031,2.031,0,1,1-3.674-1.734,7.107,7.107,0,1,1,6.429,10.143Z" transform="translate(-225.508 -150.938)" fill="#29b6f6"/>
  </g>
</svg>
