<svg xmlns="http://www.w3.org/2000/svg" width="56.04" height="40.575" viewBox="0 0 56.04 40.575">
  <g id="view" transform="translate(-5.961 -7)">
    <path id="Path_3617" data-name="Path 3617" d="M29.02,47.575C13.841,47.575,1.9,29.449,1.4,28.678a2.629,2.629,0,0,1,0-2.782C1.9,25.126,13.841,7,29.02,7S56.141,25.126,56.642,25.9a2.629,2.629,0,0,1,0,2.782C56.141,29.449,44.2,47.575,29.02,47.575ZM5.321,27.287c3.024,4.089,12.631,15.779,23.7,15.779s20.675-11.69,23.7-15.779C49.695,23.2,40.088,11.508,29.02,11.508S8.345,23.2,5.321,27.287Z" transform="translate(4.961 0)" fill="#094fb9"/>
    <path id="Path_3618" data-name="Path 3618" d="M22.271,33.542A11.271,11.271,0,1,1,33.542,22.271,11.271,11.271,0,0,1,22.271,33.542Zm0-18.033a6.762,6.762,0,1,0,6.762,6.762A6.762,6.762,0,0,0,22.271,15.508Z" transform="translate(11.711 5.017)" fill="#29b6f6"/>
  </g>
</svg>
