<svg xmlns="http://www.w3.org/2000/svg" xmlns:xlink="http://www.w3.org/1999/xlink" width="48" height="48" viewBox="0 0 48 48">
  <defs>
    <linearGradient id="linear-gradient" x1="0.5" x2="0.5" y2="1" gradientUnits="objectBoundingBox">
      <stop offset="0" stop-color="#00a6f9"/>
      <stop offset="1" stop-color="#0071e2"/>
    </linearGradient>
  </defs>
  <g id="Group_1224" data-name="Group 1224" transform="translate(-30 -628)">
    <rect id="Rectangle_641" data-name="Rectangle 641" width="48" height="48" rx="18" transform="translate(30 628)" fill="url(#linear-gradient)"/>
    <g id="Group_819" data-name="Group 819" transform="translate(40.286 636.571)">
      <g id="Group_818" data-name="Group 818" transform="translate(0 0)">
        <g id="Group_817" data-name="Group 817" transform="translate(0 0)">
          <path id="Path_3840" data-name="Path 3840" d="M56.893,8.343a.259.259,0,0,0-.006-.069V8.248c-.006-.032-.006-.057-.013-.088,0-.013-.006-.019-.006-.032s-.013-.044-.019-.069c0-.006-.006-.013-.006-.019-.013-.032-.019-.057-.032-.088,0-.006-.006-.013-.006-.019a.74.74,0,0,0-.095-.17c-.006-.006-.006-.013-.013-.019l-.057-.076c-.006-.006-.013-.013-.013-.019a.381.381,0,0,0-.05-.05c-.006-.006-.019-.013-.025-.025s-.044-.038-.063-.057a.087.087,0,0,0-.025-.019c-.019-.013-.032-.025-.05-.038s-.019-.013-.025-.019-.006-.006-.013-.006L44.072.151A1.092,1.092,0,0,0,42.987.138L30.525,7.132c-.006,0-.006.006-.013.006s-.019.013-.025.019l-.057.038c-.006.006-.019.013-.025.019-.025.019-.044.038-.063.05s-.019.013-.025.025a.381.381,0,0,0-.05.05l-.019.019c-.019.025-.038.044-.057.069-.006.006-.013.013-.013.019a.358.358,0,0,0-.05.082h0a.006.006,0,0,1-.006.006c-.013.019-.019.038-.032.057s-.006.019-.013.032a.138.138,0,0,1-.019.032l-.019.038c-.006.006-.006.019-.013.025a.117.117,0,0,0-.013.044c0,.006-.006.013-.006.019S30,7.813,30,7.832a.023.023,0,0,1-.006.019c-.006.019-.006.038-.013.057V7.92c0,.019-.006.038-.006.057v.1l-.177,14.278a1.076,1.076,0,0,0,.523.94l12.361,7.41a1.1,1.1,0,0,0,.555.151,1.056,1.056,0,0,0,.53-.139l12.468-6.994a1.088,1.088,0,0,0,.555-.933l.107-14.4V8.343ZM43.5,2.327,53.651,8.349,43.365,14.126,33.218,8.1ZM32.115,9.964l10.153,6.029V27.937l-10.3-6.174Zm12.31,17.911V16.012l10.292-5.777-.088,11.913Z" transform="translate(-29.794 0)" fill="#fff" stroke="#fff" stroke-width="0.6"/>
        </g>
      </g>
    </g>
  </g>
</svg>
