<svg xmlns="http://www.w3.org/2000/svg" xmlns:xlink="http://www.w3.org/1999/xlink" width="48" height="48" viewBox="0 0 48 48">
  <defs>
    <linearGradient id="linear-gradient" x1="0.5" x2="0.5" y2="1" gradientUnits="objectBoundingBox">
      <stop offset="0" stop-color="#00a6f9"/>
      <stop offset="1" stop-color="#0071e2"/>
    </linearGradient>
  </defs>
  <g id="Group_1212" data-name="Group 1212" transform="translate(2155 -6860)">
    <rect id="Rectangle_877" data-name="Rectangle 877" width="48" height="48" rx="18" transform="translate(-2155 6860)" fill="url(#linear-gradient)"/>
    <g id="info" transform="translate(-2145.572 6869.429)">
      <g id="LINE_57_" transform="translate(13.456 11.667)">
        <g id="Group_862" data-name="Group 862" transform="translate(0 0)">
          <path id="Path_3884" data-name="Path 3884" d="M31.112,35.241a1.076,1.076,0,0,1-1.122-1.024V26.133a1.126,1.126,0,0,1,2.243,0v8.085a1.076,1.076,0,0,1-1.122,1.024Z" transform="translate(-29.99 -25.109)" fill="#fff" stroke="#fff" stroke-width="1"/>
        </g>
      </g>
      <g id="POINT_1_" transform="translate(13.167 6.774)">
        <g id="Group_863" data-name="Group 863" transform="translate(0 0)">
          <path id="Path_3885" data-name="Path 3885" d="M31.4,21.938a1.406,1.406,0,0,1-.994-2.4,1.451,1.451,0,0,1,1.988-.007,1.415,1.415,0,0,1,.416,1,1.421,1.421,0,0,1-1.41,1.41Z" transform="translate(-29.99 -19.136)" fill="#fff" stroke="#fff" stroke-width="1"/>
        </g>
      </g>
      <g id="CIRCLE_3_" transform="translate(0 0)">
        <g id="Group_864" data-name="Group 864">
          <path id="Path_3886" data-name="Path 3886" d="M20.539,35.179a14.465,14.465,0,0,1-3.759-.494A14.581,14.581,0,1,1,27.092,7.553a14.579,14.579,0,0,1-6.554,27.626Zm.071-26.9a12.331,12.331,0,0,0-3.247,24.239,12.241,12.241,0,0,0,3.176.417h0A12.337,12.337,0,0,0,26.089,9.56,12.31,12.31,0,0,0,20.609,8.279Z" transform="translate(-5.999 -6.036)" fill="#fff" stroke="#fff" stroke-width="0.7"/>
        </g>
      </g>
    </g>
  </g>
</svg>
