<svg id="settings" xmlns="http://www.w3.org/2000/svg" xmlns:xlink="http://www.w3.org/1999/xlink" width="50" height="50" viewBox="0 0 50 50">
  <defs>
    <linearGradient id="linear-gradient" x1="0.5" y1="1" x2="0.5" gradientUnits="objectBoundingBox">
      <stop offset="0" stop-color="#00a6f9"/>
      <stop offset="1" stop-color="#0071e2"/>
    </linearGradient>
  </defs>
  <path id="Path_3758" data-name="Path 3758" d="M27.93,50H22.07a1.465,1.465,0,0,1-1.446-1.228l-.9-5.488A18.875,18.875,0,0,1,15.8,41.656l-4.452,3.18a1.465,1.465,0,0,1-1.887-.156L5.32,40.537a1.465,1.465,0,0,1-.156-1.887L8.344,34.2a18.875,18.875,0,0,1-1.628-3.922l-5.488-.9A1.465,1.465,0,0,1,0,27.93V22.07a1.465,1.465,0,0,1,1.228-1.446l5.488-.9A18.875,18.875,0,0,1,8.344,15.8L5.164,11.35A1.465,1.465,0,0,1,5.32,9.463L9.463,5.32a1.465,1.465,0,0,1,1.887-.156L15.8,8.344a18.875,18.875,0,0,1,3.922-1.628l.9-5.488A1.465,1.465,0,0,1,22.07,0H27.93a1.465,1.465,0,0,1,1.446,1.228l.9,5.488A18.875,18.875,0,0,1,34.2,8.344l4.452-3.18a1.465,1.465,0,0,1,1.887.156L44.68,9.463a1.465,1.465,0,0,1,.156,1.887L41.656,15.8a18.879,18.879,0,0,1,1.628,3.922l5.488.9A1.465,1.465,0,0,1,50,22.07V27.93a1.465,1.465,0,0,1-1.228,1.446l-5.488.9A18.87,18.87,0,0,1,41.656,34.2l3.18,4.452a1.465,1.465,0,0,1-.156,1.887L40.537,44.68a1.465,1.465,0,0,1-1.887.156L34.2,41.656a18.877,18.877,0,0,1-3.922,1.628l-.9,5.488A1.465,1.465,0,0,1,27.93,50ZM48.535,27.93h0Z" fill="url(#linear-gradient)"/>
  <path id="Path_3759" data-name="Path 3759" d="M161.254,171.508a10.254,10.254,0,1,1,10.254-10.254A10.266,10.266,0,0,1,161.254,171.508Z" transform="translate(-136.254 -136.254)" fill="#fff"/>
</svg>
