<svg xmlns="http://www.w3.org/2000/svg" xmlns:xlink="http://www.w3.org/1999/xlink" width="56" height="56" viewBox="0 0 56 56">
  <defs>
    <linearGradient id="linear-gradient" x1="0.5" y1="1" x2="0.5" gradientUnits="objectBoundingBox">
      <stop offset="0" stop-color="#1da02f"/>
      <stop offset="1" stop-color="#5dc345"/>
    </linearGradient>
  </defs>
  <g id="Group_1076" data-name="Group 1076" transform="translate(-30 -1515)">
    <rect id="Rectangle_805" data-name="Rectangle 805" width="56" height="56" rx="18" transform="translate(30 1515)" opacity="0.9" fill="url(#linear-gradient)"/>
    <g id="Group_1075" data-name="Group 1075" transform="translate(-25.5 1523)">
      <path id="Path_3900" data-name="Path 3900" d="M210.255,253.931a2.754,2.754,0,0,0-1.181,5.243v4.216h2.361v-4.216a2.754,2.754,0,0,0-1.18-5.243Z" transform="translate(-126.679 -233.946)" fill="#fff" stroke="#fff" stroke-width="0.7"/>
      <path id="Path_3901" data-name="Path 3901" d="M91.643,13.682V8.067a8.067,8.067,0,0,0-16.134,0v5.615a13.576,13.576,0,1,0,16.134,0ZM77.87,8.067a5.706,5.706,0,0,1,11.412,0v4.21a13.558,13.558,0,0,0-11.412,0Zm5.706,27.742A11.215,11.215,0,1,1,94.791,24.594,11.228,11.228,0,0,1,83.576,35.809Z" fill="#fff" stroke="#fff" stroke-width="0.7"/>
    </g>
  </g>
</svg>
