<svg xmlns="http://www.w3.org/2000/svg" width="20.803" height="37" viewBox="0 0 20.803 37"><g transform="translate(1024 -747.5)"><path d="M23.274,8a5.044,5.044,0,0,0-5.038,5.038V25.6a9.909,9.909,0,1,0,10.075.009V13.038A5.044,5.044,0,0,0,23.274,8ZM31.4,34.093a8.125,8.125,0,1,1-11.865-7.211,1,1,0,0,0,.48-.789V13.038a3.261,3.261,0,1,1,6.521,0V26.1a.991.991,0,0,0,.482.79A8.056,8.056,0,0,1,31.4,34.093Z" transform="translate(-1036.872 740)" fill="#fff" stroke="#fff" stroke-width="1"/><g transform="translate(-1018.146 769.231)" fill="none" stroke="#fff" stroke-width="2.7"><circle cx="4.615" cy="4.615" r="4.615" stroke="none"/><circle cx="4.615" cy="4.615" r="3.265" fill="none"/></g></g></svg>