<svg xmlns="http://www.w3.org/2000/svg" width="27.852" height="38.87" viewBox="0 0 27.852 38.87">
  <g id="Group_1075" data-name="Group 1075" transform="translate(-69.65 0.35)">
    <path id="Path_3900" data-name="Path 3900" d="M210.255,253.931a2.754,2.754,0,0,0-1.181,5.243v4.216h2.361v-4.216a2.754,2.754,0,0,0-1.18-5.243Z" transform="translate(-126.679 -233.946)" fill="#fff" stroke="#fff" stroke-width="0.7"/>
    <path id="Path_3901" data-name="Path 3901" d="M91.643,13.682V8.067a8.067,8.067,0,0,0-16.134,0v5.615a13.576,13.576,0,1,0,16.134,0ZM77.87,8.067a5.706,5.706,0,0,1,11.412,0v4.21a13.558,13.558,0,0,0-11.412,0Zm5.706,27.742A11.215,11.215,0,1,1,94.791,24.594,11.228,11.228,0,0,1,83.576,35.809Z" fill="#fff" stroke="#fff" stroke-width="0.7"/>
  </g>
</svg>
