<svg xmlns="http://www.w3.org/2000/svg" width="30.6" height="30.6" viewBox="0 0 30.6 30.6">
  <path id="Customize" d="M36.929,32.643H22.848a4.265,4.265,0,0,0-8.267,0H9.071a1.071,1.071,0,0,0,0,2.143h5.509a4.265,4.265,0,0,0,8.267,0H36.929a1.071,1.071,0,0,0,0-2.143ZM18.714,35.857a2.143,2.143,0,1,1,2.143-2.143A2.145,2.145,0,0,1,18.714,35.857ZM36.929,21.929H31.419a4.265,4.265,0,0,0-8.267,0H9.071a1.071,1.071,0,0,0,0,2.143H23.152a4.265,4.265,0,0,0,8.267,0h5.509a1.071,1.071,0,0,0,0-2.143Zm-9.643,3.214A2.143,2.143,0,1,1,29.429,23,2.145,2.145,0,0,1,27.286,25.143ZM9.071,13.357h5.509a4.265,4.265,0,0,0,8.267,0H36.929a1.071,1.071,0,0,0,0-2.143H22.848a4.265,4.265,0,0,0-8.267,0H9.071a1.071,1.071,0,0,0,0,2.143Zm9.643-3.214a2.143,2.143,0,1,1-2.143,2.143A2.145,2.145,0,0,1,18.714,10.143Z" transform="translate(-7.7 -7.7)" fill="#fff" stroke="#fff" stroke-width="0.6"/>
</svg>
