<svg xmlns="http://www.w3.org/2000/svg" width="38.6" height="38.6" viewBox="0 0 38.6 38.6">
  <g id="Group_843" data-name="Group 843" transform="translate(0.3 0.3)">
    <g id="Group_826" data-name="Group 826" transform="translate(9.45 9.45)">
      <g id="Group_825" data-name="Group 825">
        <path id="Path_3852" data-name="Path 3852" d="M91.486,78.015A9.583,9.583,0,0,0,84.75,75.2a9.375,9.375,0,0,0-6.735,2.815A9.55,9.55,0,0,0,84.75,94.3a9.375,9.375,0,0,0,6.735-2.815A9.583,9.583,0,0,0,94.3,84.75,9.375,9.375,0,0,0,91.486,78.015Zm-1.81,11.661a7.04,7.04,0,1,1,2.011-4.926A6.953,6.953,0,0,1,89.676,89.676Z" transform="translate(-75.2 -75.2)" fill="#fff" stroke="#fff" stroke-width="0.6"/>
      </g>
    </g>
    <g id="Group_828" data-name="Group 828" transform="translate(31.516 17.693)">
      <g id="Group_827" data-name="Group 827">
        <path id="Path_3853" data-name="Path 3853" d="M255.977,140.8h-3.87a1.307,1.307,0,1,0,0,2.614h3.87a1.307,1.307,0,1,0,0-2.614Z" transform="translate(-250.8 -140.8)" fill="#fff" stroke="#fff" stroke-width="0.6"/>
      </g>
    </g>
    <g id="Group_830" data-name="Group 830" transform="translate(17.693 31.516)">
      <g id="Group_829" data-name="Group 829">
        <path id="Path_3854" data-name="Path 3854" d="M142.107,250.8a1.331,1.331,0,0,0-1.307,1.307v3.87a1.307,1.307,0,1,0,2.614,0v-3.87A1.331,1.331,0,0,0,142.107,250.8Z" transform="translate(-140.8 -250.8)" fill="#fff" stroke="#fff" stroke-width="0.6"/>
      </g>
    </g>
    <g id="Group_832" data-name="Group 832" transform="translate(27.47 27.47)">
      <g id="Group_831" data-name="Group 831">
        <path id="Path_3855" data-name="Path 3855" d="M223.551,221.742l-2.765-2.765a1.28,1.28,0,0,0-1.809,1.809l2.765,2.765a1.28,1.28,0,0,0,1.81-1.81Z" transform="translate(-218.6 -218.6)" fill="#fff" stroke="#fff" stroke-width="0.6"/>
      </g>
    </g>
    <g id="Group_834" data-name="Group 834" transform="translate(17.693)">
      <g id="Group_833" data-name="Group 833">
        <path id="Path_3856" data-name="Path 3856" d="M142.107,0A1.331,1.331,0,0,0,140.8,1.307v3.87a1.307,1.307,0,1,0,2.614,0V1.307A1.331,1.331,0,0,0,142.107,0Z" transform="translate(-140.8)" fill="#fff" stroke="#fff" stroke-width="0.6"/>
      </g>
    </g>
    <g id="Group_836" data-name="Group 836" transform="translate(27.52 5.202)">
      <g id="Group_835" data-name="Group 835">
        <path id="Path_3857" data-name="Path 3857" d="M223.951,41.777a1.274,1.274,0,0,0-1.81,0l-2.765,2.765a1.28,1.28,0,1,0,1.81,1.81l2.765-2.765A1.274,1.274,0,0,0,223.951,41.777Z" transform="translate(-219 -41.4)" fill="#fff" stroke="#fff" stroke-width="0.6"/>
      </g>
    </g>
    <g id="Group_838" data-name="Group 838" transform="translate(0 17.693)">
      <g id="Group_837" data-name="Group 837">
        <path id="Path_3858" data-name="Path 3858" d="M5.177,140.8H1.307A1.331,1.331,0,0,0,0,142.107a1.3,1.3,0,0,0,1.307,1.307h3.87a1.307,1.307,0,1,0,0-2.614Z" transform="translate(0 -140.8)" fill="#fff" stroke="#fff" stroke-width="0.6"/>
      </g>
    </g>
    <g id="Group_840" data-name="Group 840" transform="translate(5.152 27.47)">
      <g id="Group_839" data-name="Group 839">
        <path id="Path_3859" data-name="Path 3859" d="M45.951,218.977a1.274,1.274,0,0,0-1.81,0l-2.765,2.765a1.28,1.28,0,0,0,1.81,1.81l2.765-2.765A1.274,1.274,0,0,0,45.951,218.977Z" transform="translate(-41 -218.6)" fill="#fff" stroke="#fff" stroke-width="0.6"/>
      </g>
    </g>
    <g id="Group_842" data-name="Group 842" transform="translate(5.152 5.202)">
      <g id="Group_841" data-name="Group 841">
        <path id="Path_3860" data-name="Path 3860" d="M45.951,44.542l-2.765-2.765a1.28,1.28,0,0,0-1.81,1.81l2.765,2.765a1.28,1.28,0,1,0,1.81-1.81Z" transform="translate(-41 -41.4)" fill="#fff" stroke="#fff" stroke-width="0.6"/>
      </g>
    </g>
  </g>
</svg>
