<svg xmlns="http://www.w3.org/2000/svg" width="32.701" height="32.7" viewBox="0 0 32.701 32.7">
  <g id="Group_844" data-name="Group 844" transform="translate(0.35 0.343)">
    <path id="Path_3861" data-name="Path 3861" d="M28.252,5.758l-11.876,0L14.386.007H3.75A3.754,3.754,0,0,0,0,3.757V22.506a3.754,3.754,0,0,0,3.75,3.75H14.925L16.914,32l11.334,0A3.754,3.754,0,0,0,32,28.258L32,9.508a3.754,3.754,0,0,0-3.749-3.751ZM1.875,22.506V3.757A1.877,1.877,0,0,1,3.75,1.882h9.3l7.788,22.5H3.75A1.877,1.877,0,0,1,1.875,22.506Zm18.333,3.75-2.3,2.883-1-2.883Zm9.915,2a1.877,1.877,0,0,1-1.875,1.875l-8.733,0,3.7-4.63L17.025,7.631l11.226,0a1.877,1.877,0,0,1,1.875,1.875Z" fill="#fff" stroke="#fff" stroke-width="0.7"/>
    <path id="Path_3862" data-name="Path 3862" d="M65.469,127.037v1.875h3.47a3.594,3.594,0,1,1-.991-3.54l1.293-1.358a5.469,5.469,0,1,0,1.7,3.96v-.937H65.469Z" transform="translate(-56.25 -114.843)" fill="#fff" stroke="#fff" stroke-width="0.7"/>
  </g>
</svg>
