<svg xmlns="http://www.w3.org/2000/svg" width="37.629" height="32.498" viewBox="0 0 37.629 32.498">
  <g id="Group_846" data-name="Group 846" transform="translate(0.315 -34.724)">
    <path id="Path_3865" data-name="Path 3865" d="M170.829,39.332a1.086,1.086,0,0,0,1.086-1.086V36.06a1.086,1.086,0,1,0-2.172,0v2.187A1.086,1.086,0,0,0,170.829,39.332Z" transform="translate(-157.455 0)" fill="#fff" stroke="#fff" stroke-width="0.5"/>
    <path id="Path_3866" data-name="Path 3866" d="M3.522,134.209l-1.894-1.093A1.086,1.086,0,0,0,.543,135l1.894,1.093a1.086,1.086,0,1,0,1.086-1.881Z" transform="translate(0 -90.902)" fill="#fff" stroke="#fff" stroke-width="0.5"/>
    <path id="Path_3867" data-name="Path 3867" d="M2.437,314.013.543,315.107a1.086,1.086,0,1,0,1.086,1.881l1.894-1.093a1.086,1.086,0,1,0-1.086-1.881Z" transform="translate(0 -258.704)" fill="#fff" stroke="#fff" stroke-width="0.5"/>
    <path id="Path_3868" data-name="Path 3868" d="M314.951,136.09,316.844,135a1.086,1.086,0,0,0-1.086-1.881l-1.894,1.093a1.086,1.086,0,1,0,1.086,1.881Z" transform="translate(-290.641 -90.902)" fill="#fff" stroke="#fff" stroke-width="0.5"/>
    <path id="Path_3869" data-name="Path 3869" d="M88.933,136.2a8.163,8.163,0,0,0-7.575-5.088,8.685,8.685,0,1,0-12.6,10.869,6.129,6.129,0,0,0,5.169,9.4c17.085-.018,16.15.044,16.448-.049A7.6,7.6,0,0,0,88.933,136.2ZM66.915,134.66a6.513,6.513,0,0,1,12.177-3.218,8.144,8.144,0,0,0-5.852,7.732,6.014,6.014,0,0,0-2.972,1.18A6.519,6.519,0,0,1,66.915,134.66Zm23.054,14.532c-.387.031-10.241.013-16.037.019a3.957,3.957,0,0,1-2.661-6.871,3.908,3.908,0,0,1,3.025-1.013,1.086,1.086,0,0,0,1.174-1.232,5.973,5.973,0,0,1,11.677-2.408,1.086,1.086,0,0,0,1.268.779,5.43,5.43,0,1,1,1.555,10.727Z" transform="translate(-60.056 -84.412)" fill="#fff" stroke="#fff" stroke-width="0.5"/>
  </g>
</svg>
