<svg xmlns="http://www.w3.org/2000/svg" xmlns:xlink="http://www.w3.org/1999/xlink" width="56" height="56" viewBox="0 0 56 56">
  <defs>
    <linearGradient id="linear-gradient" x1="0.5" x2="0.5" y2="1" gradientUnits="objectBoundingBox">
      <stop offset="0" stop-color="#ffd24d"/>
      <stop offset="1" stop-color="#fdaf00"/>
    </linearGradient>
  </defs>
  <rect id="Rectangle_806" data-name="Rectangle 806" width="56" height="56" rx="18" fill="url(#linear-gradient)"/>
  <path id="Path_3899" data-name="Path 3899" d="M33.3,12.585a1.771,1.771,0,0,0-1.528-1.22l-9.638-.875-3.811-8.92a1.775,1.775,0,0,0-3.264,0l-3.811,8.919-9.639.875A1.777,1.777,0,0,0,.606,14.47l7.285,6.389L5.743,30.322a1.772,1.772,0,0,0,2.639,1.917L16.7,27.27l8.31,4.969a1.774,1.774,0,0,0,2.641-1.917L25.5,20.859l7.285-6.388A1.776,1.776,0,0,0,33.3,12.585Zm0,0" transform="translate(11.5 11.008)" fill="none" stroke="#fff" stroke-width="3.5"/>
</svg>
