<svg xmlns="http://www.w3.org/2000/svg" width="32.216" height="36.615" viewBox="0 0 32.216 36.615">
  <g id="Group_819" data-name="Group 819" transform="translate(-29.494 0.315)">
    <g id="Group_818" data-name="Group 818" transform="translate(29.794 0)">
      <g id="Group_817" data-name="Group 817" transform="translate(0 0)">
        <path id="Path_3840" data-name="Path 3840" d="M61.41,9.733a.3.3,0,0,0-.007-.081V9.623c-.007-.037-.007-.066-.015-.1,0-.015-.007-.022-.007-.037s-.015-.052-.022-.081c0-.007-.007-.015-.007-.022-.015-.037-.022-.066-.037-.1,0-.007-.007-.015-.007-.022a.864.864,0,0,0-.11-.2c-.007-.007-.007-.015-.015-.022l-.066-.088c-.007-.007-.015-.015-.015-.022a.445.445,0,0,0-.059-.059c-.007-.007-.022-.015-.029-.029s-.052-.044-.074-.066a.1.1,0,0,0-.029-.022c-.022-.015-.037-.029-.059-.044s-.022-.015-.029-.022-.007-.007-.015-.007L46.452.176A1.274,1.274,0,0,0,45.186.161L30.647,8.321c-.007,0-.007.007-.015.007s-.022.015-.029.022l-.066.044c-.007.007-.022.015-.029.022-.029.022-.052.044-.074.059s-.022.015-.029.029a.444.444,0,0,0-.059.059l-.022.022c-.022.029-.044.052-.066.081-.007.007-.015.015-.015.022a.417.417,0,0,0-.059.1h0a.007.007,0,0,1-.007.007c-.015.022-.022.044-.037.066s-.007.022-.015.037a.161.161,0,0,1-.022.037l-.022.044c-.007.007-.007.022-.015.029a.136.136,0,0,0-.015.052c0,.007-.007.015-.007.022s-.007.037-.015.059a.027.027,0,0,1-.007.022c-.007.022-.007.044-.015.066V9.24c0,.022-.007.044-.007.066v.118l-.206,16.658a1.256,1.256,0,0,0,.611,1.1l14.421,8.645a1.28,1.28,0,0,0,.647.177,1.232,1.232,0,0,0,.618-.162l14.546-8.16a1.269,1.269,0,0,0,.647-1.089l.125-16.8V9.733ZM45.789,2.714,57.628,9.741l-12,6.74L33.789,9.454ZM32.5,11.624l11.846,7.034V32.594l-12.015-7.2Zm14.362,20.9V18.68l12.008-6.74-.1,13.9Z" transform="translate(-29.794 0)" fill="#fff" stroke="#fff" stroke-width="0.6"/>
      </g>
    </g>
  </g>
</svg>
