<svg xmlns="http://www.w3.org/2000/svg" width="36.965" height="35.558" viewBox="0 0 36.965 35.558">
  <path id="Path_3899" data-name="Path 3899" d="M33.3,12.585a1.771,1.771,0,0,0-1.528-1.22l-9.638-.875-3.811-8.92a1.775,1.775,0,0,0-3.264,0l-3.811,8.919-9.639.875A1.777,1.777,0,0,0,.606,14.47l7.285,6.389L5.743,30.322a1.772,1.772,0,0,0,2.639,1.917L16.7,27.27l8.31,4.969a1.774,1.774,0,0,0,2.641-1.917L25.5,20.859l7.285-6.388A1.776,1.776,0,0,0,33.3,12.585Zm0,0" transform="translate(1.787 1.258)" fill="none" stroke="#fff" stroke-width="3.5"/>
</svg>
