<svg xmlns="http://www.w3.org/2000/svg" width="34.599" height="34.6" viewBox="0 0 34.599 34.6">
  <g id="Group_845" data-name="Group 845" transform="translate(0.298 0.3)">
    <path id="Path_3863" data-name="Path 3863" d="M17,0A17,17,0,1,0,34,17,17.019,17.019,0,0,0,17,0Zm0,31.563A14.563,14.563,0,1,1,31.564,17,14.58,14.58,0,0,1,17,31.563Z" fill="#fff" stroke="#fff" stroke-width="0.6"/>
    <path id="Path_3864" data-name="Path 3864" d="M104.7,51.585H96.708V42.852a1.218,1.218,0,0,0-2.437,0V52.8a1.218,1.218,0,0,0,1.218,1.218H104.7a1.218,1.218,0,1,0,0-2.437Z" transform="translate(-78.954 -34.87)" fill="#fff" stroke="#fff" stroke-width="0.6"/>
  </g>
</svg>
