<svg xmlns="http://www.w3.org/2000/svg" width="52.01" height="52" viewBox="0 0 52.01 52">
  <g id="Cloudy_day" data-name="Cloudy day" transform="translate(-1.995 -2)">
    <g id="Group_499" data-name="Group 499" transform="translate(21.754 2)">
      <path id="Path_3619" data-name="Path 3619" d="M20.857,7.571A1.857,1.857,0,0,1,19,5.714V3.857a1.857,1.857,0,1,1,3.714,0V5.714A1.857,1.857,0,0,1,20.857,7.571Z" transform="translate(-7.18 -2)" fill="#ffb300"/>
      <path id="Path_3620" data-name="Path 3620" d="M20.857,7.571A1.857,1.857,0,0,1,19,5.714V3.857a1.857,1.857,0,1,1,3.714,0V5.714A1.857,1.857,0,0,1,20.857,7.571Z" transform="translate(-7.18 -2)" fill="#ffb300"/>
      <path id="Path_3621" data-name="Path 3621" d="M15.716,9.573A1.857,1.857,0,0,1,14.4,9.027l-1.224-1.22a1.857,1.857,0,1,1,2.626-2.628L17.027,6.4a1.857,1.857,0,0,1-1.313,3.172Z" transform="translate(-12.635 0.259)" fill="#ffb300"/>
      <path id="Path_3622" data-name="Path 3622" d="M30.655,14.714H28.926a1.857,1.857,0,1,1,0-3.714h1.729a1.857,1.857,0,0,1,0,3.714Z" transform="translate(-0.264 5.713)" fill="#ffb300"/>
      <path id="Path_3623" data-name="Path 3623" d="M26.563,9.572A1.857,1.857,0,0,1,25.252,6.4l1.222-1.22A1.857,1.857,0,1,1,29.1,7.808L27.876,9.026A1.857,1.857,0,0,1,26.563,9.572Z" transform="translate(-2.289 0.259)" fill="#ffb300"/>
    </g>
    <path id="Path_3624" data-name="Path 3624" d="M25.058,6a11.142,11.142,0,0,0-10.936,9.072,1.876,1.876,0,0,0,.505,1.6,1.968,1.968,0,0,0,1.614.576,11.807,11.807,0,0,1,1.389-.11,13,13,0,0,1,11.846,7.7,1.857,1.857,0,0,0,1.3,1.055,1.762,1.762,0,0,0,.394.043,1.857,1.857,0,0,0,1.227-.464A11.107,11.107,0,0,0,25.058,6Z" transform="translate(10.373 3.428)" fill="#ffd54f"/>
    <path id="Path_3625" data-name="Path 3625" d="M51.338,26.266a13.14,13.14,0,0,0-7.486-4.8,16.7,16.7,0,0,0-31.395-.882,1.946,1.946,0,0,1-1.242,1.136A12.96,12.96,0,0,0,2.131,36,13.233,13.233,0,0,0,15.39,47.141H40.609A13.235,13.235,0,0,0,53.87,36a12.942,12.942,0,0,0-2.531-9.733Z" transform="translate(0 6.856)" fill="#29b6f6"/>
    <path id="Path_3626" data-name="Path 3626" d="M43.621,21.081a13.12,13.12,0,0,0-8.713-5.014,1.708,1.708,0,0,0-.217-.015c-.42-.024-9.957,0-12.125,7.859A1.881,1.881,0,0,1,21.08,25.3c-3.181.448-10.789,2.951-10.028,16.658H32.891A13.235,13.235,0,0,0,46.152,30.815a12.942,12.942,0,0,0-2.531-9.735Z" transform="translate(7.717 12.041)" fill="#039be5"/>
  </g>
</svg>
