<svg width="38" height="38" viewBox="0 0 38 38" fill="none" xmlns="http://www.w3.org/2000/svg">
<rect width="38" height="38" rx="6" fill="url(#paint0_linear)"/>
<path d="M17.9999 26.3334C18.4049 26.3334 18.7333 26.005 18.7333 25.6C18.7333 25.195 18.4049 24.8667 17.9999 24.8667C17.5949 24.8667 17.2666 25.195 17.2666 25.6C17.2666 26.005 17.5949 26.3334 17.9999 26.3334Z" stroke="white" stroke-width="2" stroke-linecap="round" stroke-linejoin="round"/>
<path d="M26.0668 26.3334C26.4718 26.3334 26.8002 26.005 26.8002 25.6C26.8002 25.195 26.4718 24.8667 26.0668 24.8667C25.6618 24.8667 25.3335 25.195 25.3335 25.6C25.3335 26.005 25.6618 26.3334 26.0668 26.3334Z" stroke="white" stroke-width="2" stroke-linecap="round" stroke-linejoin="round"/>
<path d="M12.1333 10.9333H15.0666L17.032 20.7526C17.099 21.0902 17.2827 21.3935 17.5508 21.6094C17.819 21.8252 18.1545 21.9399 18.4986 21.9333H25.6266C25.9708 21.9399 26.3063 21.8252 26.5744 21.6094C26.8426 21.3935 27.0262 21.0902 27.0933 20.7526L28.2666 14.6H15.8" stroke="white" stroke-width="2" stroke-linecap="round" stroke-linejoin="round"/>
<path d="M10.3 15.7V20.1" stroke="white" stroke-width="1.5" stroke-linecap="round" stroke-linejoin="round"/>
<path d="M8.1001 17.9H12.5001" stroke="white" stroke-width="1.5" stroke-linecap="round" stroke-linejoin="round"/>
<defs>
<linearGradient id="paint0_linear" x1="0" y1="0" x2="39.7661" y2="1.94808" gradientUnits="userSpaceOnUse">
<stop stop-color="#AE2B88"/>
<stop offset="1" stop-color="#C54586"/>
</linearGradient>
</defs>
</svg>
