<svg xmlns="http://www.w3.org/2000/svg" width="69.003" height="69" viewBox="0 0 69.003 69">
  <g id="Group_622" data-name="Group 622" transform="translate(-2503.172 -3709.036)">
    <path id="Path_3734" data-name="Path 3734" d="M292.6,274.536a33.005,33.005,0,1,1-33-33c.437,0,.872.008,1.3.028A33,33,0,0,1,292.6,274.536Z" transform="translate(2278.073 3469)" fill="#ff4e4e" stroke="#fff" stroke-width="3"/>
    <path id="Path_3737" data-name="Path 3737" d="M335.022,428.113a1.88,1.88,0,0,1-1.058-.326,15.612,15.612,0,0,0-17.871,0,1.885,1.885,0,0,1-2.12-3.119,19.563,19.563,0,0,1,22.111,0,1.886,1.886,0,0,1-1.062,3.445Z" transform="translate(2212.646 3332.656)" fill="#fff"/>
    <path id="Path_3738" data-name="Path 3738" d="M315.032,348.914a1.885,1.885,0,0,1-1.885-1.885v-1.014a1.885,1.885,0,0,1,3.771,0v1.014A1.885,1.885,0,0,1,315.032,348.914Z" transform="translate(2212.646 3390.954)" fill="#fff"/>
    <path id="Path_3739" data-name="Path 3739" d="M396.563,348.914a1.885,1.885,0,0,1-1.885-1.885v-1.014a1.885,1.885,0,1,1,3.771,0v1.014A1.885,1.885,0,0,1,396.563,348.914Z" transform="translate(2151.009 3390.954)" fill="#fff"/>
  </g>
</svg>
