<svg xmlns="http://www.w3.org/2000/svg" width="30.188" height="28" viewBox="0 0 30.188 28">
  <g id="Group_581" data-name="Group 581" transform="translate(0 -18.558)">
    <path id="Path_3714" data-name="Path 3714" d="M29.9,43.377,16.979,19.685a2.147,2.147,0,0,0-.791-.824,2.125,2.125,0,0,0-2.187,0,2.148,2.148,0,0,0-.791.824L.287,43.377A2.008,2.008,0,0,0,.32,45.5a2.155,2.155,0,0,0,1.851,1.06H28.017a2.155,2.155,0,0,0,1.851-1.06A2.007,2.007,0,0,0,29.9,43.377ZM17.248,41.695a.538.538,0,0,1-.16.4.517.517,0,0,1-.379.16H13.479a.517.517,0,0,1-.379-.16.536.536,0,0,1-.16-.4V38.5a.537.537,0,0,1,.16-.4.516.516,0,0,1,.379-.16h3.23a.517.517,0,0,1,.379.16.538.538,0,0,1,.16.4v3.2ZM17.215,35.4a.377.377,0,0,1-.177.278.684.684,0,0,1-.4.109H13.529a.726.726,0,0,1-.4-.109.323.323,0,0,1-.168-.278l-.286-7.689a.4.4,0,0,1,.168-.353.65.65,0,0,1,.4-.185h3.7a.649.649,0,0,1,.4.185.37.37,0,0,1,.168.32Z" fill="#c92727"/>
  </g>
</svg>
