<svg xmlns="http://www.w3.org/2000/svg" width="31.472" height="28" viewBox="0 0 31.472 28">
  <path id="Path_3713" data-name="Path 3713" d="M28.975,2.74A8.463,8.463,0,0,0,22.68,0a7.917,7.917,0,0,0-4.945,1.707,10.117,10.117,0,0,0-2,2.088,10.112,10.112,0,0,0-2-2.088A7.916,7.916,0,0,0,8.792,0,8.463,8.463,0,0,0,2.5,2.74,9.838,9.838,0,0,0,0,9.458a11.714,11.714,0,0,0,3.121,7.668,66.558,66.558,0,0,0,7.814,7.334c1.083.923,2.31,1.969,3.584,3.083a1.848,1.848,0,0,0,2.433,0c1.274-1.114,2.5-2.161,3.585-3.084a66.528,66.528,0,0,0,7.813-7.334,11.713,11.713,0,0,0,3.121-7.668A9.836,9.836,0,0,0,28.975,2.74Zm0,0" fill="#5dc345"/>
</svg>
