<svg width="25" height="25" viewBox="0 0 25 25" fill="none" xmlns="http://www.w3.org/2000/svg">
<path fill-rule="evenodd" clip-rule="evenodd" d="M0.974976 2.22155C0.974976 1.53309 1.53309 0.974976 2.22155 0.974976H9.98013C10.6686 0.974976 11.2267 1.53309 11.2267 2.22155V9.98013C11.2267 10.6686 10.6686 11.2267 9.98013 11.2267H2.22155C1.53309 11.2267 0.974976 10.6686 0.974976 9.98013V2.22155ZM2.22155 2.00157C2.10006 2.00157 2.00157 2.10006 2.00157 2.22155V9.98013C2.00157 10.1016 2.10006 10.2001 2.22155 10.2001H9.98013C10.1016 10.2001 10.2001 10.1016 10.2001 9.98013V2.22155C10.2001 2.10006 10.1016 2.00157 9.98013 2.00157H2.22155ZM13.7482 2.1979C13.7482 1.5225 14.2958 0.974976 14.9712 0.974976H22.7771C23.4525 0.974976 24 1.5225 24 2.1979V10.0038C24 10.6792 23.4525 11.2267 22.7771 11.2267H14.9712C14.2958 11.2267 13.7482 10.6792 13.7482 10.0038V2.1979ZM14.9712 2.00157C14.8627 2.00157 14.7748 2.08947 14.7748 2.1979V10.0038C14.7748 10.1122 14.8627 10.2001 14.9712 10.2001H22.7771C22.8855 10.2001 22.9734 10.1122 22.9734 10.0038V2.1979C22.9734 2.08947 22.8855 2.00157 22.7771 2.00157H14.9712ZM0.974976 14.9712C0.974976 14.2958 1.5225 13.7482 2.1979 13.7482H10.0038C10.6792 13.7482 11.2267 14.2958 11.2267 14.9712V22.7771C11.2267 23.4525 10.6792 24 10.0038 24H2.1979C1.5225 24 0.974976 23.4525 0.974976 22.7771V14.9712ZM2.1979 14.7748C2.08947 14.7748 2.00157 14.8627 2.00157 14.9712V22.7771C2.00157 22.8855 2.08947 22.9734 2.1979 22.9734H10.0038C10.1122 22.9734 10.2001 22.8855 10.2001 22.7771V14.9712C10.2001 14.8627 10.1122 14.7748 10.0038 14.7748H2.1979ZM13.7482 14.9712C13.7482 14.2958 14.2958 13.7482 14.9712 13.7482H22.7771C23.4525 13.7482 24 14.2958 24 14.9712V22.7771C24 23.4525 23.4525 24 22.7771 24H14.9712C14.2958 24 13.7482 23.4525 13.7482 22.7771V14.9712ZM14.9712 14.7748C14.8627 14.7748 14.7748 14.8627 14.7748 14.9712V22.7771C14.7748 22.8855 14.8627 22.9734 14.9712 22.9734H22.7771C22.8855 22.9734 22.9734 22.8855 22.9734 22.7771V14.9712C22.9734 14.8627 22.8855 14.7748 22.7771 14.7748H14.9712Z" fill="white" stroke="white" stroke-linecap="round" stroke-linejoin="round"/>
</svg>
