<svg width="27" height="32" viewBox="0 0 27 32" fill="none" xmlns="http://www.w3.org/2000/svg">
<path fill-rule="evenodd" clip-rule="evenodd" d="M17.8224 5.59427C17.7839 5.67612 17.7369 5.77619 17.6941 5.85025C17.5811 6.04614 17.3936 6.20558 17.2587 6.31075C17.1035 6.43183 16.921 6.5533 16.7402 6.66508C16.3776 6.88937 15.9792 7.101 15.7205 7.22894C15.4015 7.38666 15.015 7.25593 14.8573 6.93695C14.6996 6.61797 14.8303 6.23153 15.1493 6.07381C15.3817 5.95892 15.7428 5.76683 16.0624 5.56914C16.2228 5.46994 16.3621 5.37586 16.4662 5.29465C16.5492 5.22991 16.5811 5.19519 16.5866 5.19049C16.6 5.16471 16.6228 5.11722 16.6635 5.03066L16.6663 5.02472C16.7108 4.93013 16.7679 4.80862 16.8352 4.67692C16.9711 4.4111 17.1612 4.07699 17.4141 3.77893C17.6645 3.48369 18.0138 3.17941 18.4783 3.04677C18.9666 2.90729 19.4885 2.98396 20.0102 3.28519C20.502 3.56911 20.8455 3.93362 21.0393 4.36561C21.2311 4.79306 21.251 5.23017 21.1947 5.62107C21.0893 6.35277 20.6951 7.03478 20.4744 7.4168C20.4687 7.42665 20.4631 7.4363 20.4576 7.44575C20.3575 7.61921 20.3034 7.89176 20.3044 8.22033C20.3054 8.5383 20.3575 8.83373 20.3999 8.99183C20.492 9.33555 20.288 9.68884 19.9443 9.78094C19.6005 9.87304 19.2472 9.66906 19.1551 9.32535C19.0863 9.06831 19.0171 8.66206 19.0158 8.22424C19.0145 7.79702 19.0771 7.25963 19.3417 6.80144C19.5805 6.3877 19.8524 5.90163 19.9193 5.43731C19.9505 5.22078 19.9308 5.04281 19.8636 4.89307C19.7984 4.74788 19.6637 4.57311 19.3659 4.40117C19.0981 4.24655 18.9347 4.25655 18.8321 4.28584C18.7057 4.32196 18.5584 4.42187 18.3968 4.61248C18.2375 4.80026 18.1 5.03365 17.9827 5.26322C17.9251 5.37609 17.8754 5.48161 17.8299 5.57837L17.8295 5.57926C17.8272 5.58418 17.8248 5.58919 17.8224 5.59427Z" fill="url(#paint0_linear)"/>
<path fill-rule="evenodd" clip-rule="evenodd" d="M17.8224 5.59427C17.7839 5.67612 17.7369 5.77619 17.6941 5.85025C17.5811 6.04614 17.3936 6.20558 17.2587 6.31075C17.1035 6.43183 16.921 6.5533 16.7402 6.66508C16.3776 6.88937 15.9792 7.101 15.7205 7.22894C15.4015 7.38666 15.015 7.25593 14.8573 6.93695C14.6996 6.61797 14.8303 6.23153 15.1493 6.07381C15.3817 5.95892 15.7428 5.76683 16.0624 5.56914C16.2228 5.46994 16.3621 5.37586 16.4662 5.29465C16.5492 5.22991 16.5811 5.19519 16.5866 5.19049C16.6 5.16471 16.6228 5.11722 16.6635 5.03066L16.6663 5.02472C16.7108 4.93013 16.7679 4.80862 16.8352 4.67692C16.9711 4.4111 17.1612 4.07699 17.4141 3.77893C17.6645 3.48369 18.0138 3.17941 18.4783 3.04677C18.9666 2.90729 19.4885 2.98396 20.0102 3.28519C20.502 3.56911 20.8455 3.93362 21.0393 4.36561C21.2311 4.79306 21.251 5.23017 21.1947 5.62107C21.0893 6.35277 20.6951 7.03478 20.4744 7.4168C20.4687 7.42665 20.4631 7.4363 20.4576 7.44575C20.3575 7.61921 20.3034 7.89176 20.3044 8.22033C20.3054 8.5383 20.3575 8.83373 20.3999 8.99183C20.492 9.33555 20.288 9.68884 19.9443 9.78094C19.6005 9.87304 19.2472 9.66906 19.1551 9.32535C19.0863 9.06831 19.0171 8.66206 19.0158 8.22424C19.0145 7.79702 19.0771 7.25963 19.3417 6.80144C19.5805 6.3877 19.8524 5.90163 19.9193 5.43731C19.9505 5.22078 19.9308 5.04281 19.8636 4.89307C19.7984 4.74788 19.6637 4.57311 19.3659 4.40117C19.0981 4.24655 18.9347 4.25655 18.8321 4.28584C18.7057 4.32196 18.5584 4.42187 18.3968 4.61248C18.2375 4.80026 18.1 5.03365 17.9827 5.26322C17.9251 5.37609 17.8754 5.48161 17.8299 5.57837L17.8295 5.57926C17.8272 5.58418 17.8248 5.58919 17.8224 5.59427Z" fill="#9E035D"/>
<path fill-rule="evenodd" clip-rule="evenodd" d="M9.06245 9.10646C9.95205 7.56562 11.9223 7.03769 13.4631 7.9273L20.0532 11.7321C21.594 12.6217 22.122 14.5919 21.2324 16.1328L15.4552 26.1391C15.2773 26.4473 14.8832 26.5529 14.5751 26.3749C14.2669 26.197 14.1613 25.803 14.3392 25.4948L20.1164 15.4885C20.6502 14.564 20.3334 13.3818 19.4089 12.848L12.8188 9.04327C11.8943 8.50951 10.7122 8.82626 10.1784 9.75077L2.7268 22.6574C2.19304 23.5819 2.50979 24.764 3.4343 25.2978L10.0243 29.1025C10.9489 29.6363 12.131 29.3196 12.6648 28.395L13.1996 27.4687C13.3775 27.1606 13.7716 27.055 14.0797 27.2329C14.3879 27.4108 14.4935 27.8049 14.3156 28.113L13.7807 29.0394C12.8911 30.5802 10.9209 31.1081 9.38004 30.2185L2.78999 26.4138C1.24915 25.5241 0.721223 23.5539 1.61083 22.0131L9.06245 9.10646Z" fill="url(#paint1_linear)"/>
<path fill-rule="evenodd" clip-rule="evenodd" d="M9.06245 9.10646C9.95205 7.56562 11.9223 7.03769 13.4631 7.9273L20.0532 11.7321C21.594 12.6217 22.122 14.5919 21.2324 16.1328L15.4552 26.1391C15.2773 26.4473 14.8832 26.5529 14.5751 26.3749C14.2669 26.197 14.1613 25.803 14.3392 25.4948L20.1164 15.4885C20.6502 14.564 20.3334 13.3818 19.4089 12.848L12.8188 9.04327C11.8943 8.50951 10.7122 8.82626 10.1784 9.75077L2.7268 22.6574C2.19304 23.5819 2.50979 24.764 3.4343 25.2978L10.0243 29.1025C10.9489 29.6363 12.131 29.3196 12.6648 28.395L13.1996 27.4687C13.3775 27.1606 13.7716 27.055 14.0797 27.2329C14.3879 27.4108 14.4935 27.8049 14.3156 28.113L13.7807 29.0394C12.8911 30.5802 10.9209 31.1081 9.38004 30.2185L2.78999 26.4138C1.24915 25.5241 0.721223 23.5539 1.61083 22.0131L9.06245 9.10646Z" fill="#9E035D"/>
<path fill-rule="evenodd" clip-rule="evenodd" d="M11.9772 10.5053C12.3053 10.4722 12.6024 10.5744 12.7859 10.6803C12.9913 10.7989 13.0617 11.0616 12.9431 11.2671C12.8245 11.4725 12.5618 11.5429 12.3564 11.4243C12.2919 11.3871 12.174 11.3489 12.0633 11.36C11.9795 11.3685 11.8714 11.4052 11.7696 11.5815L7.04468 19.7653C6.92606 19.9708 6.66336 20.0412 6.45792 19.9225C6.25247 19.8039 6.18208 19.5412 6.3007 19.3358L11.0256 11.152C11.2674 10.7332 11.6221 10.541 11.9772 10.5053ZM16.2756 16.663C16.3942 16.4576 16.6569 16.3872 16.8624 16.5058L19.0943 17.7944C19.2998 17.913 19.3702 18.1757 19.2515 18.3812C19.1329 18.5866 18.8702 18.657 18.6648 18.5384L16.4328 17.2498C16.2274 17.1312 16.157 16.8685 16.2756 16.663ZM15.2439 21.0272C15.3625 20.8218 15.6252 20.7514 15.8307 20.87L16.9466 21.5143C17.1521 21.6329 17.2225 21.8956 17.1039 22.1011C16.9852 22.3065 16.7225 22.3769 16.5171 22.2583L15.4011 21.614C15.1957 21.4954 15.1253 21.2327 15.2439 21.0272ZM12.195 23.7308C12.3136 23.5254 12.5763 23.455 12.7818 23.5736L15.0137 24.8622C15.2192 24.9808 15.2895 25.2435 15.1709 25.449C15.0523 25.6544 14.7896 25.7248 14.5842 25.6062L12.3522 24.3176C12.1468 24.199 12.0764 23.9363 12.195 23.7308ZM5.59884 21.4105C5.80429 21.5291 5.87468 21.7918 5.75606 21.9973L4.89699 23.4852C4.77837 23.6907 4.51567 23.7611 4.31023 23.6425C4.10478 23.5238 4.03439 23.2611 4.153 23.0557L5.01208 21.5677C5.13069 21.3623 5.3934 21.2919 5.59884 21.4105Z" fill="url(#paint2_linear)"/>
<path fill-rule="evenodd" clip-rule="evenodd" d="M11.9772 10.5053C12.3053 10.4722 12.6024 10.5744 12.7859 10.6803C12.9913 10.7989 13.0617 11.0616 12.9431 11.2671C12.8245 11.4725 12.5618 11.5429 12.3564 11.4243C12.2919 11.3871 12.174 11.3489 12.0633 11.36C11.9795 11.3685 11.8714 11.4052 11.7696 11.5815L7.04468 19.7653C6.92606 19.9708 6.66336 20.0412 6.45792 19.9225C6.25247 19.8039 6.18208 19.5412 6.3007 19.3358L11.0256 11.152C11.2674 10.7332 11.6221 10.541 11.9772 10.5053ZM16.2756 16.663C16.3942 16.4576 16.6569 16.3872 16.8624 16.5058L19.0943 17.7944C19.2998 17.913 19.3702 18.1757 19.2515 18.3812C19.1329 18.5866 18.8702 18.657 18.6648 18.5384L16.4328 17.2498C16.2274 17.1312 16.157 16.8685 16.2756 16.663ZM15.2439 21.0272C15.3625 20.8218 15.6252 20.7514 15.8307 20.87L16.9466 21.5143C17.1521 21.6329 17.2225 21.8956 17.1039 22.1011C16.9852 22.3065 16.7225 22.3769 16.5171 22.2583L15.4011 21.614C15.1957 21.4954 15.1253 21.2327 15.2439 21.0272ZM12.195 23.7308C12.3136 23.5254 12.5763 23.455 12.7818 23.5736L15.0137 24.8622C15.2192 24.9808 15.2895 25.2435 15.1709 25.449C15.0523 25.6544 14.7896 25.7248 14.5842 25.6062L12.3522 24.3176C12.1468 24.199 12.0764 23.9363 12.195 23.7308ZM5.59884 21.4105C5.80429 21.5291 5.87468 21.7918 5.75606 21.9973L4.89699 23.4852C4.77837 23.6907 4.51567 23.7611 4.31023 23.6425C4.10478 23.5238 4.03439 23.2611 4.153 23.0557L5.01208 21.5677C5.13069 21.3623 5.3934 21.2919 5.59884 21.4105Z" fill="#9E035D"/>
<path fill-rule="evenodd" clip-rule="evenodd" d="M12.4388 6.90569C13.0911 5.77574 14.536 5.3886 15.6659 6.04097L20.5857 8.88139C21.7156 9.53376 22.1028 10.9786 21.4504 12.1086L20.9419 12.9893C20.764 13.2975 20.3699 13.4031 20.0618 13.2251C19.7536 13.0472 19.648 12.6532 19.8259 12.345L20.3344 11.4643C20.631 10.9506 20.455 10.2939 19.9414 9.99736L15.0216 7.15694C14.508 6.86041 13.8513 7.03639 13.5547 7.55L13.0462 8.43074C12.8683 8.7389 12.4743 8.84449 12.1661 8.66657C11.8579 8.48865 11.7524 8.0946 11.9303 7.78643L12.4388 6.90569Z" fill="url(#paint3_linear)"/>
<path fill-rule="evenodd" clip-rule="evenodd" d="M12.4388 6.90569C13.0911 5.77574 14.536 5.3886 15.6659 6.04097L20.5857 8.88139C21.7156 9.53376 22.1028 10.9786 21.4504 12.1086L20.9419 12.9893C20.764 13.2975 20.3699 13.4031 20.0618 13.2251C19.7536 13.0472 19.648 12.6532 19.8259 12.345L20.3344 11.4643C20.631 10.9506 20.455 10.2939 19.9414 9.99736L15.0216 7.15694C14.508 6.86041 13.8513 7.03639 13.5547 7.55L13.0462 8.43074C12.8683 8.7389 12.4743 8.84449 12.1661 8.66657C11.8579 8.48865 11.7524 8.0946 11.9303 7.78643L12.4388 6.90569Z" fill="#9E035D"/>
<defs>
<linearGradient id="paint0_linear" x1="17.4783" y1="1.82336" x2="23.0143" y2="5.42165" gradientUnits="userSpaceOnUse">
<stop stop-color="#AE2B88"/>
<stop offset="1" stop-color="#C54586"/>
</linearGradient>
<linearGradient id="paint1_linear" x1="10.6732" y1="6.31653" x2="23.1886" y2="14.0907" gradientUnits="userSpaceOnUse">
<stop stop-color="#AE2B88"/>
<stop offset="1" stop-color="#C54586"/>
</linearGradient>
<linearGradient id="paint2_linear" x1="11.6699" y1="10.036" x2="21.2226" y2="15.9932" gradientUnits="userSpaceOnUse">
<stop stop-color="#AE2B88"/>
<stop offset="1" stop-color="#C54586"/>
</linearGradient>
<linearGradient id="paint3_linear" x1="13.62" y1="4.85974" x2="22.2433" y2="11.41" gradientUnits="userSpaceOnUse">
<stop stop-color="#AE2B88"/>
<stop offset="1" stop-color="#C54586"/>
</linearGradient>
</defs>
</svg>
