<svg width="27" height="27" viewBox="0 0 27 27" fill="none" xmlns="http://www.w3.org/2000/svg">
<path fill-rule="evenodd" clip-rule="evenodd" d="M19.885 1.24116C19.6269 1.15448 18.4582 1.08859 17.2673 2.68845C16.918 3.1577 16.7224 3.69188 16.6352 4.2414L19.8029 2.62302C20.0002 2.52224 20.2368 2.53806 20.4189 2.6642C22.027 3.77813 25.2088 7.45472 25.8859 13.5951C25.9813 14.4602 26.0438 15.3048 26.0792 16.1224C26.1755 18.3436 26.0723 20.3667 25.8859 22.0592C25.6603 24.1072 25.3113 25.6858 25.0391 26.5544C24.9517 26.8333 24.6764 27.009 24.3866 26.9707L1.34559 23.9305C1.06455 23.8934 0.847577 23.6651 0.82484 23.3826L0.00194677 13.1565C-0.0175742 12.9139 0.111047 12.6835 0.327772 12.5727L15.377 4.88416C15.3914 3.9314 15.6234 2.88275 16.3025 1.97032C17.7449 0.0325131 19.4289 -0.180784 20.268 0.101042C20.5828 0.206784 20.7523 0.54773 20.6466 0.862565C20.5408 1.1774 20.1999 1.3469 19.885 1.24116ZM15.4833 6.18046L2.62492 12.7497L24.8401 15.4646C24.8047 14.8964 24.7554 14.3164 24.6904 13.7269C24.093 8.30965 21.4367 5.01921 20.0152 3.86513L16.6147 5.60244C16.6645 6.04624 16.761 6.45367 16.8674 6.78578C17.1059 6.73151 17.3537 6.70289 17.6078 6.70289C19.4591 6.70289 20.9521 8.21383 20.9521 10.0681C20.9521 11.9223 19.4591 13.4332 17.6078 13.4332C15.7565 13.4332 14.2635 11.9223 14.2635 10.0681C14.2635 8.89818 14.8571 7.86679 15.7588 7.26371C15.652 6.94981 15.5536 6.58198 15.4833 6.18046ZM24.8963 16.6831L1.25989 13.7946L1.60686 18.1064L24.7528 21.3121C24.8798 19.9427 24.9469 18.3775 24.8963 16.6831ZM24.6215 22.5081L1.70567 19.3343L1.98469 22.8017L24.0296 25.7105C24.2244 24.969 24.4479 23.8728 24.6215 22.5081ZM17.6078 7.9056C17.3028 7.9056 17.0141 7.96962 16.7529 8.0846C15.9963 8.41768 15.4662 9.17965 15.4662 10.0681C15.4662 11.2666 16.4293 12.2305 17.6078 12.2305C18.7863 12.2305 19.7494 11.2666 19.7494 10.0681C19.7494 8.86947 18.7863 7.9056 17.6078 7.9056Z" fill="url(#paint0_linear)"/>
<path fill-rule="evenodd" clip-rule="evenodd" d="M19.885 1.24116C19.6269 1.15448 18.4582 1.08859 17.2673 2.68845C16.918 3.1577 16.7224 3.69188 16.6352 4.2414L19.8029 2.62302C20.0002 2.52224 20.2368 2.53806 20.4189 2.6642C22.027 3.77813 25.2088 7.45472 25.8859 13.5951C25.9813 14.4602 26.0438 15.3048 26.0792 16.1224C26.1755 18.3436 26.0723 20.3667 25.8859 22.0592C25.6603 24.1072 25.3113 25.6858 25.0391 26.5544C24.9517 26.8333 24.6764 27.009 24.3866 26.9707L1.34559 23.9305C1.06455 23.8934 0.847577 23.6651 0.82484 23.3826L0.00194677 13.1565C-0.0175742 12.9139 0.111047 12.6835 0.327772 12.5727L15.377 4.88416C15.3914 3.9314 15.6234 2.88275 16.3025 1.97032C17.7449 0.0325131 19.4289 -0.180784 20.268 0.101042C20.5828 0.206784 20.7523 0.54773 20.6466 0.862565C20.5408 1.1774 20.1999 1.3469 19.885 1.24116ZM15.4833 6.18046L2.62492 12.7497L24.8401 15.4646C24.8047 14.8964 24.7554 14.3164 24.6904 13.7269C24.093 8.30965 21.4367 5.01921 20.0152 3.86513L16.6147 5.60244C16.6645 6.04624 16.761 6.45367 16.8674 6.78578C17.1059 6.73151 17.3537 6.70289 17.6078 6.70289C19.4591 6.70289 20.9521 8.21383 20.9521 10.0681C20.9521 11.9223 19.4591 13.4332 17.6078 13.4332C15.7565 13.4332 14.2635 11.9223 14.2635 10.0681C14.2635 8.89818 14.8571 7.86679 15.7588 7.26371C15.652 6.94981 15.5536 6.58198 15.4833 6.18046ZM24.8963 16.6831L1.25989 13.7946L1.60686 18.1064L24.7528 21.3121C24.8798 19.9427 24.9469 18.3775 24.8963 16.6831ZM24.6215 22.5081L1.70567 19.3343L1.98469 22.8017L24.0296 25.7105C24.2244 24.969 24.4479 23.8728 24.6215 22.5081ZM17.6078 7.9056C17.3028 7.9056 17.0141 7.96962 16.7529 8.0846C15.9963 8.41768 15.4662 9.17965 15.4662 10.0681C15.4662 11.2666 16.4293 12.2305 17.6078 12.2305C18.7863 12.2305 19.7494 11.2666 19.7494 10.0681C19.7494 8.86947 18.7863 7.9056 17.6078 7.9056Z" fill="#9E035D"/>
<defs>
<linearGradient id="paint0_linear" x1="0" y1="0" x2="27.3338" y2="1.29635" gradientUnits="userSpaceOnUse">
<stop stop-color="#AE2B88"/>
<stop offset="1" stop-color="#C54586"/>
</linearGradient>
</defs>
</svg>
