<svg width="16" height="31" viewBox="0 0 16 31" fill="none" xmlns="http://www.w3.org/2000/svg">
<path fill-rule="evenodd" clip-rule="evenodd" d="M15.0196 0.50993C15.0939 0.85793 14.872 1.20026 14.524 1.27455L11.1711 1.9903L10.11 6.34867H14.3895C14.5672 6.34867 14.737 6.42204 14.8588 6.55144C14.9805 6.68083 15.0434 6.85477 15.0326 7.03212L14.7368 11.8929L13.4703 29.8982C13.4466 30.2357 13.1659 30.4973 12.8276 30.4973H2.20627C1.86792 30.4973 1.58722 30.2356 1.56354 29.8981L0.275562 11.5401L0.00119155 7.03212C-0.00960358 6.85477 0.0533175 6.68083 0.175078 6.55144C0.296839 6.42204 0.46663 6.34867 0.644308 6.34867H8.78369L10.0148 1.29225C10.0733 1.05186 10.2644 0.866217 10.5063 0.814565L14.255 0.0143298C14.603 -0.0599579 14.9453 0.16193 15.0196 0.50993ZM8.46995 7.63728H1.32903L1.53646 11.0452C2.18317 11.2612 3.36716 11.5502 4.7054 11.5502C5.69912 11.5502 6.55637 11.3156 7.50082 11.0535L7.52811 11.0459C7.56795 11.0349 7.60795 11.0238 7.64812 11.0126L8.46995 7.63728ZM7.29946 12.4447L6.8909 14.1227C6.80672 14.4684 7.01876 14.817 7.3645 14.9011C7.71024 14.9853 8.05876 14.7733 8.14294 14.4275L8.71884 12.0622C9.3434 11.9086 9.96009 11.7985 10.6408 11.7985C11.9013 11.7985 12.8835 12.0547 13.4196 12.2537L12.227 29.2087H2.80695L1.629 12.4189C2.41282 12.6342 3.50509 12.8388 4.7054 12.8388C5.66933 12.8388 6.51842 12.6524 7.29946 12.4447ZM13.5048 10.9226C12.8048 10.7059 11.8153 10.5099 10.6408 10.5099C10.0772 10.5099 9.55276 10.5736 9.05827 10.6681L9.79621 7.63728H13.7048L13.5048 10.9226ZM8.74007 14.7674C8.88734 14.6763 9.06507 14.6484 9.23318 14.6899L12.0447 15.3834C12.3852 15.4674 12.596 15.8084 12.519 16.1505L11.8942 18.9247C11.8561 19.0936 11.7517 19.2401 11.6044 19.3311C11.4571 19.4222 11.2794 19.4501 11.1113 19.4087L8.29978 18.7151C7.95925 18.6311 7.74847 18.2902 7.82553 17.948L8.45031 15.1739C8.48835 15.0049 8.59279 14.8584 8.74007 14.7674ZM9.56297 16.0985L9.22137 17.6152L10.7815 18.0001L11.1231 16.4833L9.56297 16.0985ZM6.15791 16.7845C6.32896 16.8413 6.46841 16.9671 6.54242 17.1314L7.79199 19.9056C7.92958 20.211 7.81012 20.571 7.5172 20.7335L5.01807 22.1206C4.86049 22.2081 4.67349 22.2255 4.50245 22.1688C4.3314 22.112 4.19195 21.9862 4.11793 21.8219L2.86837 19.0477C2.73078 18.7423 2.85024 18.3823 3.14316 18.2198L5.64229 16.8327C5.79986 16.7452 5.98687 16.7278 6.15791 16.7845ZM4.28669 19.0589L5.00518 20.654L6.37367 19.8944L5.65518 18.2993L4.28669 19.0589ZM9.4657 21.7355C9.75027 21.9492 9.80778 22.353 9.59414 22.6376L8.37635 24.2598L9.62315 25.4461L10.7503 23.9446C10.964 23.66 11.3679 23.6025 11.6524 23.8161C11.937 24.0298 11.9945 24.4337 11.7809 24.7182L10.2189 26.7988C10.1085 26.9459 9.94047 27.0388 9.75717 27.0541C9.57387 27.0694 9.39279 27.0056 9.25953 26.8788L7.07279 24.7982C6.836 24.5729 6.80542 24.206 7.00165 23.9446L8.56361 21.864C8.77724 21.5794 9.18112 21.5219 9.4657 21.7355Z" fill="url(#paint0_linear)"/>
<path fill-rule="evenodd" clip-rule="evenodd" d="M15.0196 0.50993C15.0939 0.85793 14.872 1.20026 14.524 1.27455L11.1711 1.9903L10.11 6.34867H14.3895C14.5672 6.34867 14.737 6.42204 14.8588 6.55144C14.9805 6.68083 15.0434 6.85477 15.0326 7.03212L14.7368 11.8929L13.4703 29.8982C13.4466 30.2357 13.1659 30.4973 12.8276 30.4973H2.20627C1.86792 30.4973 1.58722 30.2356 1.56354 29.8981L0.275562 11.5401L0.00119155 7.03212C-0.00960358 6.85477 0.0533175 6.68083 0.175078 6.55144C0.296839 6.42204 0.46663 6.34867 0.644308 6.34867H8.78369L10.0148 1.29225C10.0733 1.05186 10.2644 0.866217 10.5063 0.814565L14.255 0.0143298C14.603 -0.0599579 14.9453 0.16193 15.0196 0.50993ZM8.46995 7.63728H1.32903L1.53646 11.0452C2.18317 11.2612 3.36716 11.5502 4.7054 11.5502C5.69912 11.5502 6.55637 11.3156 7.50082 11.0535L7.52811 11.0459C7.56795 11.0349 7.60795 11.0238 7.64812 11.0126L8.46995 7.63728ZM7.29946 12.4447L6.8909 14.1227C6.80672 14.4684 7.01876 14.817 7.3645 14.9011C7.71024 14.9853 8.05876 14.7733 8.14294 14.4275L8.71884 12.0622C9.3434 11.9086 9.96009 11.7985 10.6408 11.7985C11.9013 11.7985 12.8835 12.0547 13.4196 12.2537L12.227 29.2087H2.80695L1.629 12.4189C2.41282 12.6342 3.50509 12.8388 4.7054 12.8388C5.66933 12.8388 6.51842 12.6524 7.29946 12.4447ZM13.5048 10.9226C12.8048 10.7059 11.8153 10.5099 10.6408 10.5099C10.0772 10.5099 9.55276 10.5736 9.05827 10.6681L9.79621 7.63728H13.7048L13.5048 10.9226ZM8.74007 14.7674C8.88734 14.6763 9.06507 14.6484 9.23318 14.6899L12.0447 15.3834C12.3852 15.4674 12.596 15.8084 12.519 16.1505L11.8942 18.9247C11.8561 19.0936 11.7517 19.2401 11.6044 19.3311C11.4571 19.4222 11.2794 19.4501 11.1113 19.4087L8.29978 18.7151C7.95925 18.6311 7.74847 18.2902 7.82553 17.948L8.45031 15.1739C8.48835 15.0049 8.59279 14.8584 8.74007 14.7674ZM9.56297 16.0985L9.22137 17.6152L10.7815 18.0001L11.1231 16.4833L9.56297 16.0985ZM6.15791 16.7845C6.32896 16.8413 6.46841 16.9671 6.54242 17.1314L7.79199 19.9056C7.92958 20.211 7.81012 20.571 7.5172 20.7335L5.01807 22.1206C4.86049 22.2081 4.67349 22.2255 4.50245 22.1688C4.3314 22.112 4.19195 21.9862 4.11793 21.8219L2.86837 19.0477C2.73078 18.7423 2.85024 18.3823 3.14316 18.2198L5.64229 16.8327C5.79986 16.7452 5.98687 16.7278 6.15791 16.7845ZM4.28669 19.0589L5.00518 20.654L6.37367 19.8944L5.65518 18.2993L4.28669 19.0589ZM9.4657 21.7355C9.75027 21.9492 9.80778 22.353 9.59414 22.6376L8.37635 24.2598L9.62315 25.4461L10.7503 23.9446C10.964 23.66 11.3679 23.6025 11.6524 23.8161C11.937 24.0298 11.9945 24.4337 11.7809 24.7182L10.2189 26.7988C10.1085 26.9459 9.94047 27.0388 9.75717 27.0541C9.57387 27.0694 9.39279 27.0056 9.25953 26.8788L7.07279 24.7982C6.836 24.5729 6.80542 24.206 7.00165 23.9446L8.56361 21.864C8.77724 21.5794 9.18112 21.5219 9.4657 21.7355Z" fill="#9E035D"/>
<defs>
<linearGradient id="paint0_linear" x1="0" y1="0" x2="15.7613" y2="0.380624" gradientUnits="userSpaceOnUse">
<stop stop-color="#AE2B88"/>
<stop offset="1" stop-color="#C54586"/>
</linearGradient>
</defs>
</svg>
