<svg width="200" height="200" viewBox="0 0 200 200" fill="none" xmlns="http://www.w3.org/2000/svg">
<circle cx="101" cy="100" r="75" fill="#E8D3E8" fill-opacity="0.3"/>
<path d="M138.301 145.807L100.21 108.167L92.6673 115.801L130.759 153.44L138.301 145.807Z" fill="#EC9EC5"/>
<path d="M152.852 155.92L123.217 126.637C123.052 126.474 122.786 126.476 122.623 126.641L111.406 137.992C111.243 138.157 111.245 138.423 111.41 138.586L141.045 167.869C141.21 168.032 141.476 168.031 141.639 167.866L152.855 156.514C153.018 156.349 153.017 156.083 152.852 155.92Z" fill="#9E035D"/>
<path d="M66.4495 127.097C92.6551 127.097 113.899 105.853 113.899 79.6477C113.899 53.4421 92.6551 32.1982 66.4495 32.1982C40.2439 32.1982 19 53.4421 19 79.6477C19 105.853 40.2439 127.097 66.4495 127.097Z" fill="#9E035D"/>
<path d="M66.4494 119.355C88.3791 119.355 106.157 101.578 106.157 79.6479C106.157 57.7182 88.3791 39.9407 66.4494 39.9407C44.5197 39.9407 26.7422 57.7182 26.7422 79.6479C26.7422 101.578 44.5197 119.355 66.4494 119.355Z" fill="#F0ECF3"/>
<g clip-path="url(#clip0)">
<path d="M169.919 59.5029C169.096 55.2739 164.963 52.4871 160.734 53.3101L129.977 59.2952C125.748 60.1182 122.961 64.2516 123.784 68.4806L128.273 91.5479C129.096 95.7769 133.23 98.5637 137.459 97.7407L168.215 91.7556C172.444 90.9326 175.231 86.7992 174.408 82.5702L169.919 59.5029ZM135.318 66.2362C137.433 65.8247 139.499 67.2181 139.911 69.3326C140.322 71.4471 138.929 73.5138 136.814 73.9253C134.7 74.3367 132.633 72.9434 132.222 70.8289C131.81 68.7144 133.204 66.6476 135.318 66.2362ZM170.563 83.3183C170.975 85.4328 169.581 87.4995 167.467 87.911L137.479 93.7465C135.749 94.0832 134.569 92.1183 135.498 90.7405L141.071 82.4737C141.691 81.5551 142.844 81.3307 143.763 81.95L145.14 82.8789C146.059 83.4982 147.212 83.2737 147.832 82.3552L158.05 67.1993C158.669 66.2808 159.822 66.0563 160.741 66.6756L167.63 71.3202C168.089 71.6298 168.356 71.9769 168.468 72.5536L170.563 83.3183Z" fill="#9E035D"/>
</g>
<defs>
<clipPath id="clip0">
<rect width="47" height="47" fill="white" transform="translate(121.54 56.947) rotate(-11.0121)"/>
</clipPath>
</defs>
</svg>
