<svg width="351" height="231" viewBox="0 0 351 231" fill="none" xmlns="http://www.w3.org/2000/svg">
<g clip-path="url(#clip0)">
<rect x="228" y="29" width="123" height="173" rx="4.20243" fill="white"/>
<path opacity="0.4" d="M228 31.8016C228 30.2543 229.254 29 230.802 29H348.198C349.746 29 351 30.2543 351 31.8016V151.571H228V31.8016Z" fill="#E6EAEE"/>
<rect x="233.603" y="157.174" width="93.8542" height="11.2065" rx="2.10121" fill="#F4F6F8"/>
<rect x="233.603" y="171.883" width="67.9393" height="8.40486" rx="2.10121" fill="#F4F6F8"/>
<rect x="233.603" y="185.891" width="49.7287" height="9.10526" rx="2.10121" fill="#F4F6F8"/>
</g>
<rect x="123" y="11" width="148" height="209" rx="5.07692" fill="white"/>
<path opacity="0.6" d="M123 14.3846C123 12.5153 124.515 11 126.385 11H267.615C269.485 11 271 12.5153 271 14.3846V159.077H123V14.3846Z" fill="#E6EAEE"/>
<rect x="129.769" y="165.846" width="113.385" height="13.5385" rx="2.53846" fill="#F4F6F8"/>
<rect x="129.769" y="183.615" width="82.0769" height="10.1538" rx="2.53846" fill="#F4F6F8"/>
<rect x="129.769" y="200.539" width="60.0769" height="11" rx="2.53846" fill="#F4F6F8"/>
<rect width="163" height="230" rx="5.58857" fill="white"/>
<path opacity="0.8" d="M0 3.72571C0 1.66806 1.66806 0 3.72571 0H159.274C161.332 0 163 1.66806 163 3.72571V162.937H0V3.72571Z" fill="#E6EAEE"/>
<rect x="7.45142" y="170.451" width="124.811" height="14.9029" rx="2.79429" fill="#F4F6F8"/>
<rect x="7.45142" y="190.011" width="90.3486" height="11.1771" rx="2.79429" fill="#F4F6F8"/>
<rect x="7.45142" y="208.64" width="66.1314" height="12.1086" rx="2.79429" fill="#F4F6F8"/>
<defs>
<clipPath id="clip0">
<rect width="122.571" height="173" fill="white" transform="translate(228 29)"/>
</clipPath>
</defs>
</svg>
