<svg width="18" height="17" viewBox="0 0 18 17" fill="none" xmlns="http://www.w3.org/2000/svg">
<path d="M7.00004 15.6667C7.36823 15.6667 7.66671 15.3682 7.66671 15C7.66671 14.6319 7.36823 14.3334 7.00004 14.3334C6.63185 14.3334 6.33337 14.6319 6.33337 15C6.33337 15.3682 6.63185 15.6667 7.00004 15.6667Z" stroke="white" stroke-width="1.7" stroke-linecap="round" stroke-linejoin="round"/>
<path d="M14.3333 15.6667C14.7015 15.6667 15 15.3682 15 15C15 14.6319 14.7015 14.3334 14.3333 14.3334C13.9651 14.3334 13.6666 14.6319 13.6666 15C13.6666 15.3682 13.9651 15.6667 14.3333 15.6667Z" stroke="white" stroke-width="1.7" stroke-linecap="round" stroke-linejoin="round"/>
<path d="M1.66663 1.66663H4.33329L6.11996 10.5933C6.18092 10.9002 6.3479 11.1759 6.59166 11.3722C6.83541 11.5684 7.14042 11.6726 7.45329 11.6666H13.9333C14.2462 11.6726 14.5512 11.5684 14.7949 11.3722C15.0387 11.1759 15.2057 10.9002 15.2666 10.5933L16.3333 4.99996H4.99996" stroke="white" stroke-width="1.7" stroke-linecap="round" stroke-linejoin="round"/>
</svg>
