<svg width="30" height="24" viewBox="0 0 30 24" fill="none" xmlns="http://www.w3.org/2000/svg">
<path fill-rule="evenodd" clip-rule="evenodd" d="M23.4222 0.0256973C23.6611 -0.0464316 23.9197 0.0364958 24.0721 0.234101L29.4271 7.17636C29.5237 7.30163 29.567 7.45991 29.5478 7.61693L27.6578 23.0106C27.6208 23.3122 27.3647 23.5387 27.0609 23.5387H21.706C21.3981 23.5387 21.1399 23.3061 21.1079 22.9998C21.066 22.5979 20.8689 21.9638 20.4223 21.4419C19.9938 20.9412 19.3184 20.5203 18.2411 20.5203C17.1638 20.5203 16.4884 20.9412 16.0599 21.4419C15.6133 21.9638 15.4162 22.5979 15.3742 22.9998C15.3423 23.3061 15.0841 23.5387 14.7761 23.5387H5.6413C5.30918 23.5387 5.03994 23.2695 5.03994 22.9374C5.03994 22.5627 4.83147 21.485 3.96526 20.655C3.11046 19.8359 2.23001 19.8454 2.00146 19.9001C1.83329 19.9404 1.65593 19.9064 1.51464 19.8067C1.37335 19.707 1.28183 19.5513 1.26342 19.3793L0.0034441 7.60765C-0.0273241 7.32019 0.150813 7.05152 0.427577 6.96796L12.7642 3.24343C12.9956 3.17356 13.2464 3.24907 13.4008 3.43513C13.6525 3.73849 14.1628 4.18529 14.8275 4.46977C15.4807 4.74938 16.2575 4.86314 17.0927 4.56302C17.9445 4.25695 18.3373 3.76979 18.518 3.32101C18.7089 2.8467 18.6814 2.36547 18.6062 2.09225C18.5197 1.77762 18.6999 1.4514 19.0123 1.35709L23.4222 0.0256973ZM19.8598 2.35754C19.8856 2.77877 19.8329 3.27505 19.6337 3.77008C19.3208 4.54739 18.6636 5.27654 17.4995 5.69487C16.3187 6.11917 15.2228 5.94724 14.3542 5.57545C13.6837 5.28845 13.1334 4.87703 12.7527 4.50321L4.67386 6.9423H27.7276L23.373 1.29687L19.8598 2.35754ZM28.2712 8.145H1.27054L2.39829 18.6814C3.06855 18.7197 3.96917 18.993 4.79737 19.7866C5.66066 20.6139 6.04236 21.6191 6.17897 22.336H14.2779C14.4151 21.8096 14.686 21.1976 15.1461 20.6599C15.7939 19.9029 16.7984 19.3176 18.2411 19.3176C19.6837 19.3176 20.6883 19.9029 21.3361 20.6599C21.7962 21.1976 22.0671 21.8096 22.2043 22.336H26.5289L28.2712 8.145ZM17.9261 11.4652C17.19 11.4652 16.6375 12.0307 16.6375 12.6749C16.6375 13.319 17.19 13.8846 17.9261 13.8846C18.6622 13.8846 19.2147 13.319 19.2147 12.6749C19.2147 12.0307 18.6622 11.4652 17.9261 11.4652ZM15.4348 12.6749C15.4348 11.3186 16.5746 10.2625 17.9261 10.2625C19.2776 10.2625 20.4174 11.3186 20.4174 12.6749C20.4174 14.0311 19.2776 15.0873 17.9261 15.0873C16.5746 15.0873 15.4348 14.0311 15.4348 12.6749ZM10.3662 15.0873C9.28216 15.0873 8.44761 15.9231 8.44761 16.9006C8.44761 17.8782 9.28216 18.714 10.3662 18.714C11.4503 18.714 12.2848 17.8782 12.2848 16.9006C12.2848 15.9231 11.4503 15.0873 10.3662 15.0873ZM7.2449 16.9006C7.2449 15.211 8.6668 13.8846 10.3662 13.8846C12.0656 13.8846 13.4875 15.211 13.4875 16.9006C13.4875 18.5903 12.0656 19.9167 10.3662 19.9167C8.6668 19.9167 7.2449 18.5903 7.2449 16.9006Z" fill="url(#paint0_linear)"/>
<path fill-rule="evenodd" clip-rule="evenodd" d="M23.4222 0.0256973C23.6611 -0.0464316 23.9197 0.0364958 24.0721 0.234101L29.4271 7.17636C29.5237 7.30163 29.567 7.45991 29.5478 7.61693L27.6578 23.0106C27.6208 23.3122 27.3647 23.5387 27.0609 23.5387H21.706C21.3981 23.5387 21.1399 23.3061 21.1079 22.9998C21.066 22.5979 20.8689 21.9638 20.4223 21.4419C19.9938 20.9412 19.3184 20.5203 18.2411 20.5203C17.1638 20.5203 16.4884 20.9412 16.0599 21.4419C15.6133 21.9638 15.4162 22.5979 15.3742 22.9998C15.3423 23.3061 15.0841 23.5387 14.7761 23.5387H5.6413C5.30918 23.5387 5.03994 23.2695 5.03994 22.9374C5.03994 22.5627 4.83147 21.485 3.96526 20.655C3.11046 19.8359 2.23001 19.8454 2.00146 19.9001C1.83329 19.9404 1.65593 19.9064 1.51464 19.8067C1.37335 19.707 1.28183 19.5513 1.26342 19.3793L0.0034441 7.60765C-0.0273241 7.32019 0.150813 7.05152 0.427577 6.96796L12.7642 3.24343C12.9956 3.17356 13.2464 3.24907 13.4008 3.43513C13.6525 3.73849 14.1628 4.18529 14.8275 4.46977C15.4807 4.74938 16.2575 4.86314 17.0927 4.56302C17.9445 4.25695 18.3373 3.76979 18.518 3.32101C18.7089 2.8467 18.6814 2.36547 18.6062 2.09225C18.5197 1.77762 18.6999 1.4514 19.0123 1.35709L23.4222 0.0256973ZM19.8598 2.35754C19.8856 2.77877 19.8329 3.27505 19.6337 3.77008C19.3208 4.54739 18.6636 5.27654 17.4995 5.69487C16.3187 6.11917 15.2228 5.94724 14.3542 5.57545C13.6837 5.28845 13.1334 4.87703 12.7527 4.50321L4.67386 6.9423H27.7276L23.373 1.29687L19.8598 2.35754ZM28.2712 8.145H1.27054L2.39829 18.6814C3.06855 18.7197 3.96917 18.993 4.79737 19.7866C5.66066 20.6139 6.04236 21.6191 6.17897 22.336H14.2779C14.4151 21.8096 14.686 21.1976 15.1461 20.6599C15.7939 19.9029 16.7984 19.3176 18.2411 19.3176C19.6837 19.3176 20.6883 19.9029 21.3361 20.6599C21.7962 21.1976 22.0671 21.8096 22.2043 22.336H26.5289L28.2712 8.145ZM17.9261 11.4652C17.19 11.4652 16.6375 12.0307 16.6375 12.6749C16.6375 13.319 17.19 13.8846 17.9261 13.8846C18.6622 13.8846 19.2147 13.319 19.2147 12.6749C19.2147 12.0307 18.6622 11.4652 17.9261 11.4652ZM15.4348 12.6749C15.4348 11.3186 16.5746 10.2625 17.9261 10.2625C19.2776 10.2625 20.4174 11.3186 20.4174 12.6749C20.4174 14.0311 19.2776 15.0873 17.9261 15.0873C16.5746 15.0873 15.4348 14.0311 15.4348 12.6749ZM10.3662 15.0873C9.28216 15.0873 8.44761 15.9231 8.44761 16.9006C8.44761 17.8782 9.28216 18.714 10.3662 18.714C11.4503 18.714 12.2848 17.8782 12.2848 16.9006C12.2848 15.9231 11.4503 15.0873 10.3662 15.0873ZM7.2449 16.9006C7.2449 15.211 8.6668 13.8846 10.3662 13.8846C12.0656 13.8846 13.4875 15.211 13.4875 16.9006C13.4875 18.5903 12.0656 19.9167 10.3662 19.9167C8.6668 19.9167 7.2449 18.5903 7.2449 16.9006Z" fill="#9E035D"/>
<defs>
<linearGradient id="paint0_linear" x1="0" y1="0" x2="30.8831" y2="1.89943" gradientUnits="userSpaceOnUse">
<stop stop-color="#AE2B88"/>
<stop offset="1" stop-color="#C54586"/>
</linearGradient>
</defs>
</svg>
