<svg width="29" height="29" viewBox="0 0 29 29" fill="none" xmlns="http://www.w3.org/2000/svg">
<path fill-rule="evenodd" clip-rule="evenodd" d="M14.3466 0C14.6787 0 14.9479 0.269235 14.9479 0.601353V6.02217L16.8937 4.07643C17.1285 3.84159 17.5093 3.84159 17.7441 4.07643C17.9789 4.31127 17.9789 4.69203 17.7441 4.92687L14.9479 7.72305V12.9208L18.7565 9.11222L18.7566 4.80128C18.7566 4.46916 19.0258 4.19992 19.3579 4.19993C19.69 4.19993 19.9593 4.46917 19.9593 4.80129L19.9592 7.90951L23.7923 4.07643C24.0272 3.84158 24.4079 3.84158 24.6428 4.07643C24.8776 4.31127 24.8776 4.69202 24.6428 4.92687L20.8028 8.76687L23.8947 8.78167C24.2269 8.78326 24.4948 9.05379 24.4932 9.3859C24.4916 9.71801 24.2211 9.98596 23.889 9.98437L19.6058 9.96386L15.8244 13.7452H20.9701L23.8485 10.8669C24.0833 10.632 24.4641 10.632 24.6989 10.8669C24.9337 11.1017 24.9337 11.4825 24.6989 11.7173L22.671 13.7452H28.0918C28.4239 13.7452 28.6931 14.0145 28.6931 14.3466C28.6931 14.6787 28.4239 14.9479 28.0918 14.9479H22.671L24.6989 16.9758C24.9337 17.2107 24.9337 17.5914 24.6989 17.8263C24.4641 18.0611 24.0833 18.0611 23.8485 17.8263L20.9701 14.9479H15.7984L19.607 18.7565H23.51C23.8422 18.7565 24.1114 19.0257 24.1114 19.3578C24.1114 19.69 23.8422 19.9592 23.51 19.9592H20.8097L24.6428 23.7923C24.8776 24.0271 24.8776 24.4079 24.6428 24.6427C24.408 24.8776 24.0272 24.8776 23.7924 24.6427L19.9593 20.8096V23.8919C19.9593 24.224 19.69 24.4932 19.3579 24.4932C19.0258 24.4932 18.7566 24.224 18.7566 23.8919V19.6069L14.9479 15.7983V20.9463L17.7971 23.4393C18.047 23.658 18.0723 24.0379 17.8536 24.2879C17.6349 24.5378 17.255 24.5631 17.0051 24.3444L14.9479 22.5444V28.0918C14.9479 28.4239 14.6787 28.6931 14.3466 28.6931C14.0145 28.6931 13.7452 28.4239 13.7452 28.0918V22.5444L11.6881 24.3444C11.4381 24.5631 11.0582 24.5378 10.8395 24.2879C10.6208 24.0379 10.6461 23.658 10.8961 23.4393L13.7452 20.9463V15.7723L9.93663 19.5809V23.51C9.93663 23.8422 9.66739 24.1114 9.33528 24.1114C9.00316 24.1114 8.73392 23.8422 8.73392 23.51V20.7836L4.90083 24.6167C4.66598 24.8516 4.28523 24.8516 4.05039 24.6167C3.81554 24.3819 3.81554 24.0011 4.05039 23.7663L7.87432 19.9423L5.18686 19.9592C4.85475 19.9613 4.58383 19.6937 4.58175 19.3616C4.57967 19.0295 4.84721 18.7586 5.17933 18.7565L9.08463 18.732L12.8687 14.9479L7.74734 14.9479L4.92872 18.1782C4.71037 18.4285 4.33049 18.4543 4.08024 18.236C3.82999 18.0176 3.80414 17.6378 4.02249 17.3875L6.15116 14.9479L0.601353 14.9479C0.269235 14.9479 -5.12049e-08 14.6787 0 14.3466C5.12049e-08 14.0145 0.269235 13.7452 0.601353 13.7452L6.041 13.7452L4.04646 11.7133C3.81381 11.4763 3.81734 11.0956 4.05435 10.8629C4.29136 10.6303 4.6721 10.6338 4.90475 10.8708L7.72632 13.7452L12.8948 13.7452L9.11223 9.96267H4.80128C4.46916 9.96267 4.19993 9.69344 4.19993 9.36132C4.19993 9.0292 4.46916 8.75997 4.80128 8.75997H7.90952L4.07642 4.92687C3.84158 4.69203 3.84158 4.31127 4.07642 4.07643C4.31127 3.84159 4.69202 3.84159 4.92687 4.07643L8.75161 7.90118L8.73393 4.80471C8.73204 4.4726 8.99973 4.20183 9.33184 4.19994C9.66395 4.19804 9.93472 4.46573 9.93662 4.79785L9.96125 9.11081L13.7452 12.8948V7.72787L10.8727 4.93263C10.6347 4.70101 10.6295 4.32029 10.8611 4.08227C11.0927 3.84425 11.4734 3.83905 11.7115 4.07067L13.7452 6.04971V0.601353C13.7452 0.269235 14.0145 0 14.3466 0Z" fill="url(#paint0_linear)"/>
<path fill-rule="evenodd" clip-rule="evenodd" d="M14.3466 0C14.6787 0 14.9479 0.269235 14.9479 0.601353V6.02217L16.8937 4.07643C17.1285 3.84159 17.5093 3.84159 17.7441 4.07643C17.9789 4.31127 17.9789 4.69203 17.7441 4.92687L14.9479 7.72305V12.9208L18.7565 9.11222L18.7566 4.80128C18.7566 4.46916 19.0258 4.19992 19.3579 4.19993C19.69 4.19993 19.9593 4.46917 19.9593 4.80129L19.9592 7.90951L23.7923 4.07643C24.0272 3.84158 24.4079 3.84158 24.6428 4.07643C24.8776 4.31127 24.8776 4.69202 24.6428 4.92687L20.8028 8.76687L23.8947 8.78167C24.2269 8.78326 24.4948 9.05379 24.4932 9.3859C24.4916 9.71801 24.2211 9.98596 23.889 9.98437L19.6058 9.96386L15.8244 13.7452H20.9701L23.8485 10.8669C24.0833 10.632 24.4641 10.632 24.6989 10.8669C24.9337 11.1017 24.9337 11.4825 24.6989 11.7173L22.671 13.7452H28.0918C28.4239 13.7452 28.6931 14.0145 28.6931 14.3466C28.6931 14.6787 28.4239 14.9479 28.0918 14.9479H22.671L24.6989 16.9758C24.9337 17.2107 24.9337 17.5914 24.6989 17.8263C24.4641 18.0611 24.0833 18.0611 23.8485 17.8263L20.9701 14.9479H15.7984L19.607 18.7565H23.51C23.8422 18.7565 24.1114 19.0257 24.1114 19.3578C24.1114 19.69 23.8422 19.9592 23.51 19.9592H20.8097L24.6428 23.7923C24.8776 24.0271 24.8776 24.4079 24.6428 24.6427C24.408 24.8776 24.0272 24.8776 23.7924 24.6427L19.9593 20.8096V23.8919C19.9593 24.224 19.69 24.4932 19.3579 24.4932C19.0258 24.4932 18.7566 24.224 18.7566 23.8919V19.6069L14.9479 15.7983V20.9463L17.7971 23.4393C18.047 23.658 18.0723 24.0379 17.8536 24.2879C17.6349 24.5378 17.255 24.5631 17.0051 24.3444L14.9479 22.5444V28.0918C14.9479 28.4239 14.6787 28.6931 14.3466 28.6931C14.0145 28.6931 13.7452 28.4239 13.7452 28.0918V22.5444L11.6881 24.3444C11.4381 24.5631 11.0582 24.5378 10.8395 24.2879C10.6208 24.0379 10.6461 23.658 10.8961 23.4393L13.7452 20.9463V15.7723L9.93663 19.5809V23.51C9.93663 23.8422 9.66739 24.1114 9.33528 24.1114C9.00316 24.1114 8.73392 23.8422 8.73392 23.51V20.7836L4.90083 24.6167C4.66598 24.8516 4.28523 24.8516 4.05039 24.6167C3.81554 24.3819 3.81554 24.0011 4.05039 23.7663L7.87432 19.9423L5.18686 19.9592C4.85475 19.9613 4.58383 19.6937 4.58175 19.3616C4.57967 19.0295 4.84721 18.7586 5.17933 18.7565L9.08463 18.732L12.8687 14.9479L7.74734 14.9479L4.92872 18.1782C4.71037 18.4285 4.33049 18.4543 4.08024 18.236C3.82999 18.0176 3.80414 17.6378 4.02249 17.3875L6.15116 14.9479L0.601353 14.9479C0.269235 14.9479 -5.12049e-08 14.6787 0 14.3466C5.12049e-08 14.0145 0.269235 13.7452 0.601353 13.7452L6.041 13.7452L4.04646 11.7133C3.81381 11.4763 3.81734 11.0956 4.05435 10.8629C4.29136 10.6303 4.6721 10.6338 4.90475 10.8708L7.72632 13.7452L12.8948 13.7452L9.11223 9.96267H4.80128C4.46916 9.96267 4.19993 9.69344 4.19993 9.36132C4.19993 9.0292 4.46916 8.75997 4.80128 8.75997H7.90952L4.07642 4.92687C3.84158 4.69203 3.84158 4.31127 4.07642 4.07643C4.31127 3.84159 4.69202 3.84159 4.92687 4.07643L8.75161 7.90118L8.73393 4.80471C8.73204 4.4726 8.99973 4.20183 9.33184 4.19994C9.66395 4.19804 9.93472 4.46573 9.93662 4.79785L9.96125 9.11081L13.7452 12.8948V7.72787L10.8727 4.93263C10.6347 4.70101 10.6295 4.32029 10.8611 4.08227C11.0927 3.84425 11.4734 3.83905 11.7115 4.07067L13.7452 6.04971V0.601353C13.7452 0.269235 14.0145 0 14.3466 0Z" fill="#9E035D"/>
<defs>
<linearGradient id="paint0_linear" x1="0" y1="0" x2="30.0267" y2="1.47096" gradientUnits="userSpaceOnUse">
<stop stop-color="#AE2B88"/>
<stop offset="1" stop-color="#C54586"/>
</linearGradient>
</defs>
</svg>
