<svg xmlns="http://www.w3.org/2000/svg" width="44" height="44" viewBox="0 0 44 44">
  <g id="Group_1017" data-name="Group 1017" transform="translate(0)">
    <path id="Path_3897" data-name="Path 3897" d="M30.014,44H10.289A10.312,10.312,0,0,1,9.125,23.445,9.369,9.369,0,0,1,24.4,18.35a9.436,9.436,0,0,1,2.765,4.1,7.92,7.92,0,0,1,7.384,7.9,7.6,7.6,0,0,1-.156,1.525A6.854,6.854,0,0,1,30.014,44ZM10.289,26.816a6.873,6.873,0,0,0,0,13.746H30.014a3.416,3.416,0,0,0,1.58-6.445,1.719,1.719,0,0,1-.8-2.147,4.443,4.443,0,0,0-4.148-6.1c-.068,0-.508.063-.586.073a1.719,1.719,0,0,1-1.908-1.432,5.987,5.987,0,0,0-5.854-5,5.876,5.876,0,0,0-5.926,5.655,1.719,1.719,0,0,1-1.788,1.657c-.108,0-.2-.007-.289-.007Zm29.238.684a6.856,6.856,0,0,0,2-11.7,7.6,7.6,0,0,0,.156-1.525,7.92,7.92,0,0,0-7.384-7.9A9.388,9.388,0,0,0,25.425,0a9.312,9.312,0,0,0-9.167,7.37A10.153,10.153,0,0,0,11.24,9.384a10.446,10.446,0,0,0-3.659,5.24,1.719,1.719,0,1,0,3.288,1,6.915,6.915,0,0,1,6.553-4.884c.086,0,.181,0,.289.007A1.719,1.719,0,0,0,19.5,9.092a5.876,5.876,0,0,1,5.926-5.655,5.987,5.987,0,0,1,5.854,5A1.718,1.718,0,0,0,33.187,9.87c.078-.01.518-.073.586-.073a4.443,4.443,0,0,1,4.148,6.1,1.719,1.719,0,0,0,.8,2.147,3.417,3.417,0,0,1-.394,6.233A1.719,1.719,0,1,0,39.527,27.5Z" transform="translate(0 0)" fill="#094fb9"/>
    <path id="Path_3898" data-name="Path 3898" d="M229.234,148.156a1.719,1.719,0,0,1-1.719-1.719,2.067,2.067,0,0,0-2.062-2.067,1.719,1.719,0,0,1,0-3.437,5.508,5.508,0,0,1,5.5,5.5A1.719,1.719,0,0,1,229.234,148.156Zm-6.016,15.384a5.508,5.508,0,0,0-5.5-5.5,1.719,1.719,0,0,0,0,3.438,2.067,2.067,0,0,1,2.063,2.067,1.719,1.719,0,0,0,3.438,0Z" transform="translate(-197.438 -128.822)" fill="#29b6f6"/>
  </g>
</svg>
