<svg xmlns="http://www.w3.org/2000/svg" width="46.009" height="46" viewBox="0 0 46.009 46">
  <g id="Cloudy_day" data-name="Cloudy day" transform="translate(-1.995 -2)">
    <g id="Group_499" data-name="Group 499" transform="translate(19.474 2)">
      <path id="Path_3619" data-name="Path 3619" d="M20.643,6.928A1.643,1.643,0,0,1,19,5.286V3.643a1.643,1.643,0,1,1,3.286,0V5.286A1.643,1.643,0,0,1,20.643,6.928Z" transform="translate(-8.544 -2)" fill="#ffb300"/>
      <path id="Path_3620" data-name="Path 3620" d="M20.643,6.928A1.643,1.643,0,0,1,19,5.286V3.643a1.643,1.643,0,1,1,3.286,0V5.286A1.643,1.643,0,0,1,20.643,6.928Z" transform="translate(-8.544 -2)" fill="#ffb300"/>
      <path id="Path_3621" data-name="Path 3621" d="M15.36,9A1.643,1.643,0,0,1,14.2,8.52L13.116,7.441a1.643,1.643,0,1,1,2.323-2.324L16.52,6.2A1.643,1.643,0,0,1,15.359,9Z" transform="translate(-12.635 -0.306)" fill="#ffb300"/>
      <path id="Path_3622" data-name="Path 3622" d="M30.241,14.286H28.712a1.643,1.643,0,1,1,0-3.286h1.529a1.643,1.643,0,0,1,0,3.286Z" transform="translate(-3.357 3.785)" fill="#ffb300"/>
      <path id="Path_3623" data-name="Path 3623" d="M26.349,9A1.643,1.643,0,0,1,25.189,6.2L26.27,5.117a1.643,1.643,0,1,1,2.323,2.324L27.51,8.519A1.643,1.643,0,0,1,26.349,9Z" transform="translate(-4.876 -0.306)" fill="#ffb300"/>
    </g>
    <path id="Path_3624" data-name="Path 3624" d="M23.793,6a9.857,9.857,0,0,0-9.674,8.025,1.659,1.659,0,0,0,.447,1.419,1.741,1.741,0,0,0,1.428.509,10.445,10.445,0,0,1,1.229-.1A11.5,11.5,0,0,1,27.7,22.664a1.643,1.643,0,0,0,1.15.933,1.559,1.559,0,0,0,.348.038,1.643,1.643,0,0,0,1.086-.411A9.825,9.825,0,0,0,23.793,6Z" transform="translate(7.78 2.571)" fill="#ffd54f"/>
    <path id="Path_3625" data-name="Path 3625" d="M45.645,24.389a11.624,11.624,0,0,0-6.622-4.245,14.77,14.77,0,0,0-27.772-.78,1.722,1.722,0,0,1-1.1,1.005A11.465,11.465,0,0,0,2.115,33a11.706,11.706,0,0,0,11.729,9.857H36.153A11.708,11.708,0,0,0,47.884,33a11.448,11.448,0,0,0-2.239-8.61Z" transform="translate(0 5.142)" fill="#29b6f6"/>
    <path id="Path_3626" data-name="Path 3626" d="M39.857,20.5a11.606,11.606,0,0,0-7.708-4.435,1.512,1.512,0,0,0-.192-.013c-.371-.021-8.808,0-10.726,6.952a1.664,1.664,0,0,1-1.314,1.229c-2.814.4-9.544,2.61-8.871,14.736H30.365A11.708,11.708,0,0,0,42.1,29.112,11.448,11.448,0,0,0,39.857,20.5Z" transform="translate(5.788 9.031)" fill="#039be5"/>
  </g>
</svg>
