<svg width="21" height="30" viewBox="0 0 21 30" fill="none" xmlns="http://www.w3.org/2000/svg">
<path fill-rule="evenodd" clip-rule="evenodd" d="M1.18123 0.601353C1.18123 0.269235 1.45046 0 1.78258 0H12.8074C13.085 0 13.3265 0.189989 13.3918 0.459764C13.4985 0.900137 14.0247 2.21233 15.208 3.43343C16.2902 4.55019 17.6894 4.58695 18.1982 4.48193C18.3753 4.44538 18.5594 4.49045 18.6996 4.60465C18.8398 4.71885 18.9212 4.89006 18.9212 5.07087V13.1973C18.9212 13.5294 18.6519 13.7986 18.3198 13.7986C17.9877 13.7986 17.7184 13.5294 17.7184 13.1973V5.72215C16.7875 5.71379 15.4437 5.40496 14.3443 4.2704C13.2647 3.15637 12.6469 1.9604 12.367 1.20271H2.38394V13.1973C2.38394 13.5294 2.1147 13.7986 1.78258 13.7986C1.45046 13.7986 1.18123 13.5294 1.18123 13.1973V0.601353ZM3.7513 2.0316C4.08342 2.0316 4.35265 2.30083 4.35265 2.63295V5.28216H6.90125C7.23336 5.28216 7.5026 5.55139 7.5026 5.88351C7.5026 6.21563 7.23336 6.48486 6.90125 6.48486H3.7513C3.41918 6.48486 3.14995 6.21563 3.14995 5.88351V2.63295C3.14995 2.30083 3.41918 2.0316 3.7513 2.0316ZM8.86996 2.0316C9.20208 2.0316 9.47131 2.30083 9.47131 2.63295V5.28216H12.0199C12.352 5.28216 12.6213 5.55139 12.6213 5.88351C12.6213 6.21563 12.352 6.48486 12.0199 6.48486H8.86996C8.53784 6.48486 8.26861 6.21563 8.26861 5.88351V2.63295C8.26861 2.30083 8.53784 2.0316 8.86996 2.0316ZM3.7513 7.31376C4.08342 7.31376 4.35265 7.58299 4.35265 7.91511V10.5643H6.90125C7.23336 10.5643 7.5026 10.8335 7.5026 11.1657C7.5026 11.4978 7.23336 11.767 6.90125 11.767H3.7513C3.41918 11.767 3.14995 11.4978 3.14995 11.1657V7.91511C3.14995 7.58299 3.41918 7.31376 3.7513 7.31376ZM8.86996 7.31376C9.20208 7.31376 9.47131 7.58299 9.47131 7.91511V10.5643H12.0199C12.352 10.5643 12.6213 10.8335 12.6213 11.1657C12.6213 11.4978 12.352 11.767 12.0199 11.767H8.86996C8.53784 11.767 8.26861 11.4978 8.26861 11.1657V7.91511C8.26861 7.58299 8.53784 7.31376 8.86996 7.31376ZM13.5949 7.31376C13.927 7.31376 14.1962 7.58299 14.1962 7.91511V10.5643H16.7448C17.0769 10.5643 17.3462 10.8335 17.3462 11.1657C17.3462 11.4978 17.0769 11.767 16.7448 11.767H13.5949C13.2628 11.767 12.9935 11.4978 12.9935 11.1657V7.91511C12.9935 7.58299 13.2628 7.31376 13.5949 7.31376ZM0 14.8225C0 14.4904 0.269235 14.2212 0.601353 14.2212H19.501C19.8331 14.2212 20.1024 14.4904 20.1024 14.8225V19.6984C20.1024 20.0305 19.8331 20.2997 19.501 20.2997H18.9212V28.9509C18.9212 29.283 18.6519 29.5522 18.3198 29.5522H1.78258C1.45046 29.5522 1.18123 29.283 1.18123 28.9509V20.2997H0.601353C0.269235 20.2997 0 20.0305 0 19.6984V14.8225ZM2.38394 20.2997V28.3495H17.7184V20.2997H2.38394ZM18.8997 19.097H1.20271V15.4239H18.8997V19.097Z" fill="url(#paint0_linear)"/>
<path fill-rule="evenodd" clip-rule="evenodd" d="M1.18123 0.601353C1.18123 0.269235 1.45046 0 1.78258 0H12.8074C13.085 0 13.3265 0.189989 13.3918 0.459764C13.4985 0.900137 14.0247 2.21233 15.208 3.43343C16.2902 4.55019 17.6894 4.58695 18.1982 4.48193C18.3753 4.44538 18.5594 4.49045 18.6996 4.60465C18.8398 4.71885 18.9212 4.89006 18.9212 5.07087V13.1973C18.9212 13.5294 18.6519 13.7986 18.3198 13.7986C17.9877 13.7986 17.7184 13.5294 17.7184 13.1973V5.72215C16.7875 5.71379 15.4437 5.40496 14.3443 4.2704C13.2647 3.15637 12.6469 1.9604 12.367 1.20271H2.38394V13.1973C2.38394 13.5294 2.1147 13.7986 1.78258 13.7986C1.45046 13.7986 1.18123 13.5294 1.18123 13.1973V0.601353ZM3.7513 2.0316C4.08342 2.0316 4.35265 2.30083 4.35265 2.63295V5.28216H6.90125C7.23336 5.28216 7.5026 5.55139 7.5026 5.88351C7.5026 6.21563 7.23336 6.48486 6.90125 6.48486H3.7513C3.41918 6.48486 3.14995 6.21563 3.14995 5.88351V2.63295C3.14995 2.30083 3.41918 2.0316 3.7513 2.0316ZM8.86996 2.0316C9.20208 2.0316 9.47131 2.30083 9.47131 2.63295V5.28216H12.0199C12.352 5.28216 12.6213 5.55139 12.6213 5.88351C12.6213 6.21563 12.352 6.48486 12.0199 6.48486H8.86996C8.53784 6.48486 8.26861 6.21563 8.26861 5.88351V2.63295C8.26861 2.30083 8.53784 2.0316 8.86996 2.0316ZM3.7513 7.31376C4.08342 7.31376 4.35265 7.58299 4.35265 7.91511V10.5643H6.90125C7.23336 10.5643 7.5026 10.8335 7.5026 11.1657C7.5026 11.4978 7.23336 11.767 6.90125 11.767H3.7513C3.41918 11.767 3.14995 11.4978 3.14995 11.1657V7.91511C3.14995 7.58299 3.41918 7.31376 3.7513 7.31376ZM8.86996 7.31376C9.20208 7.31376 9.47131 7.58299 9.47131 7.91511V10.5643H12.0199C12.352 10.5643 12.6213 10.8335 12.6213 11.1657C12.6213 11.4978 12.352 11.767 12.0199 11.767H8.86996C8.53784 11.767 8.26861 11.4978 8.26861 11.1657V7.91511C8.26861 7.58299 8.53784 7.31376 8.86996 7.31376ZM13.5949 7.31376C13.927 7.31376 14.1962 7.58299 14.1962 7.91511V10.5643H16.7448C17.0769 10.5643 17.3462 10.8335 17.3462 11.1657C17.3462 11.4978 17.0769 11.767 16.7448 11.767H13.5949C13.2628 11.767 12.9935 11.4978 12.9935 11.1657V7.91511C12.9935 7.58299 13.2628 7.31376 13.5949 7.31376ZM0 14.8225C0 14.4904 0.269235 14.2212 0.601353 14.2212H19.501C19.8331 14.2212 20.1024 14.4904 20.1024 14.8225V19.6984C20.1024 20.0305 19.8331 20.2997 19.501 20.2997H18.9212V28.9509C18.9212 29.283 18.6519 29.5522 18.3198 29.5522H1.78258C1.45046 29.5522 1.18123 29.283 1.18123 28.9509V20.2997H0.601353C0.269235 20.2997 0 20.0305 0 19.6984V14.8225ZM2.38394 20.2997V28.3495H17.7184V20.2997H2.38394ZM18.8997 19.097H1.20271V15.4239H18.8997V19.097Z" fill="#9E035D"/>
<defs>
<linearGradient id="paint0_linear" x1="0" y1="0" x2="21.0638" y2="0.70192" gradientUnits="userSpaceOnUse">
<stop stop-color="#AE2B88"/>
<stop offset="1" stop-color="#C54586"/>
</linearGradient>
</defs>
</svg>
