<svg xmlns="http://www.w3.org/2000/svg" width="140" height="140" viewBox="0 0 140 140">
  <path id="Rectangle_505" data-name="Rectangle 505" d="M20,0H140a0,0,0,0,1,0,0V140a0,0,0,0,1,0,0H20A20,20,0,0,1,0,120V20A20,20,0,0,1,20,0Z" fill="#9dadbe"/>
  <g id="charity" transform="translate(38 11.07)" opacity="0.7">
    <g id="Group_644" data-name="Group 644" transform="translate(15.3 31.93)">
      <g id="Group_643" data-name="Group 643" transform="translate(0 0)">
        <path id="Path_3801" data-name="Path 3801" d="M129.935,34.322a8.866,8.866,0,0,0-6.127-2.392,9.771,9.771,0,0,0-6.884,2.86l-.806.806-.806-.806a9.774,9.774,0,0,0-6.884-2.86,8.866,8.866,0,0,0-6.127,2.392,9.15,9.15,0,0,0-.2,13.137l14.019,14.019,14.019-14.019A9.15,9.15,0,0,0,129.935,34.322Z" transform="translate(-99.418 -31.93)" fill="#fff"/>
      </g>
    </g>
    <g id="Group_646" data-name="Group 646" transform="translate(0 34.401)">
      <g id="Group_645" data-name="Group 645" transform="translate(0 0)">
        <path id="Path_3802" data-name="Path 3802" d="M27.086,99.687,27.075,85.8c0-6.708-3.436-10.641-7.988-12.123a9.049,9.049,0,0,1-3.467-2.453c-1.923-2-3.979-4.742-6.642-4.708l0-.01a3.507,3.507,0,0,0-2.491,1.079c-1.766,1.766-1.053,4.465.471,5.988L11.9,78.516A2.462,2.462,0,0,1,11.9,82L5.215,75.31A7.709,7.709,0,0,1,3.047,71a6.041,6.041,0,0,1,5.333-6.9l-1-4.035C7.306,45.087,0,46.917,0,50.44V76.73a6.123,6.123,0,0,0,1.782,4.333c12.232,12.346,10.53,8.368,10.53,18.624Z" transform="translate(0 -47.986)" fill="#fff"/>
      </g>
    </g>
    <g id="Group_648" data-name="Group 648" transform="translate(36.914 34.401)">
      <g id="Group_647" data-name="Group 647" transform="translate(0 0)">
        <path id="Path_3803" data-name="Path 3803" d="M266.945,50.441c0-3.523-7.305-5.352-7.381,9.623l-1,4.035A6.041,6.041,0,0,1,263.9,71a7.707,7.707,0,0,1-2.168,4.311L255.041,82a2.462,2.462,0,0,1,0-3.482l4.948-4.948c1.523-1.523,2.237-4.222.471-5.988a3.507,3.507,0,0,0-2.491-1.079l0,.01c-2.663-.034-4.719,2.705-6.642,4.708a9.053,9.053,0,0,1-3.467,2.453c-4.551,1.481-7.988,5.414-7.988,12.123l-.011,13.891h14.774c0-10.255-1.7-6.278,10.53-18.624a6.123,6.123,0,0,0,1.782-4.333Z" transform="translate(-239.859 -47.987)" fill="#fff"/>
      </g>
    </g>
  </g>
</svg>
