<svg xmlns="http://www.w3.org/2000/svg" width="140" height="140" viewBox="0 0 140 140">
  <path id="Rectangle_508" data-name="Rectangle 508" d="M20,0H140a0,0,0,0,1,0,0V140a0,0,0,0,1,0,0H20A20,20,0,0,1,0,120V20A20,20,0,0,1,20,0Z" fill="#5dc345"/>
  <g id="layer1" transform="translate(35.942 -245.595)" opacity="0.7">
    <path id="path13638" d="M33.678,280.6a1.178,1.178,0,0,0-.483.13,110.451,110.451,0,0,1-31.13,9.214A1.167,1.167,0,0,0,1.058,291.1v24.488c0,15,8.213,23.9,16.311,28.849a48.084,48.084,0,0,0,16.179,6.14,1.138,1.138,0,0,0,.346,0,48.084,48.084,0,0,0,16.179-6.14c8.1-4.949,16.311-13.847,16.311-28.849V291.1a1.166,1.166,0,0,0-1.007-1.164,110.453,110.453,0,0,1-31.13-9.214A1.169,1.169,0,0,0,33.678,280.6Zm.043,14a21,21,0,1,1-20.993,20.993A21.008,21.008,0,0,1,33.722,294.6Zm-4.668,10.5v5.84H23.225a1.167,1.167,0,0,0-1.171,1.162v7a1.167,1.167,0,0,0,1.171,1.162h5.828v5.84a1.166,1.166,0,0,0,1.173,1.162h6.99a1.167,1.167,0,0,0,1.171-1.162v-5.84h5.83a1.167,1.167,0,0,0,1.171-1.162v-7a1.166,1.166,0,0,0-1.171-1.162h-5.83V305.1a1.167,1.167,0,0,0-1.171-1.162H30.166a1.174,1.174,0,0,0-1.113,1.162Z" transform="translate(0 0)" fill="#fff"/>
  </g>
</svg>
