<svg width="38" height="38" viewBox="0 0 38 38" fill="none" xmlns="http://www.w3.org/2000/svg">
<path fill-rule="evenodd" clip-rule="evenodd" d="M18.8032 18.7523C19.0124 18.4645 19.4153 18.4006 19.7032 18.6098L29.2571 25.5511C29.545 25.7603 29.6088 26.1632 29.3996 26.4511L27.6 28.928C27.3909 29.2159 26.9879 29.2797 26.7001 29.0705L19.6231 23.9288C19.3904 23.7597 19.2979 23.4569 19.3966 23.1866L20.3218 20.6521L18.9458 19.6523C18.6579 19.4431 18.5941 19.0402 18.8032 18.7523ZM21.4061 21.4398L20.7737 23.172L26.9362 27.6493L27.9784 26.2149L21.4061 21.4398Z" fill="url(#paint0_linear)"/>
<path fill-rule="evenodd" clip-rule="evenodd" d="M18.8032 18.7523C19.0124 18.4645 19.4153 18.4006 19.7032 18.6098L29.2571 25.5511C29.545 25.7603 29.6088 26.1632 29.3996 26.4511L27.6 28.928C27.3909 29.2159 26.9879 29.2797 26.7001 29.0705L19.6231 23.9288C19.3904 23.7597 19.2979 23.4569 19.3966 23.1866L20.3218 20.6521L18.9458 19.6523C18.6579 19.4431 18.5941 19.0402 18.8032 18.7523ZM21.4061 21.4398L20.7737 23.172L26.9362 27.6493L27.9784 26.2149L21.4061 21.4398Z" fill="#9E035D"/>
<path fill-rule="evenodd" clip-rule="evenodd" d="M16.5819 20.3221L17.5816 18.9461C17.7908 18.6582 18.1937 18.5944 18.4816 18.8035C18.7695 19.0127 18.8333 19.4156 18.6242 19.7035L11.6828 29.2574C11.4737 29.5453 11.0708 29.6091 10.7829 29.3999L8.30595 27.6003C8.01806 27.3912 7.95425 26.9882 8.1634 26.7004L13.3051 19.6234C13.4742 19.3907 13.7771 19.2982 14.0473 19.3969L16.5819 20.3221ZM15.7941 21.4064L14.062 20.774L9.58463 26.9365L11.0191 27.9787L15.7941 21.4064Z" fill="url(#paint1_linear)"/>
<path fill-rule="evenodd" clip-rule="evenodd" d="M16.5819 20.3221L17.5816 18.9461C17.7908 18.6582 18.1937 18.5944 18.4816 18.8035C18.7695 19.0127 18.8333 19.4156 18.6242 19.7035L11.6828 29.2574C11.4737 29.5453 11.0708 29.6091 10.7829 29.3999L8.30595 27.6003C8.01806 27.3912 7.95425 26.9882 8.1634 26.7004L13.3051 19.6234C13.4742 19.3907 13.7771 19.2982 14.0473 19.3969L16.5819 20.3221ZM15.7941 21.4064L14.062 20.774L9.58463 26.9365L11.0191 27.9787L15.7941 21.4064Z" fill="#9E035D"/>
<path fill-rule="evenodd" clip-rule="evenodd" d="M16.9121 16.5817L18.2881 17.5815C18.576 17.7906 18.6398 18.1935 18.4307 18.4814C18.2215 18.7693 17.8186 18.8331 17.5307 18.624L7.9768 11.6827C7.68892 11.4735 7.6251 11.0706 7.83426 10.7827L9.63386 8.30576C9.84301 8.01788 10.2459 7.95406 10.5338 8.16322L17.6108 13.3049C17.8435 13.474 17.936 13.7769 17.8373 14.0471L16.9121 16.5817ZM15.8278 15.794L16.4602 14.0618L10.2977 9.58445L9.25548 11.0189L15.8278 15.794Z" fill="url(#paint2_linear)"/>
<path fill-rule="evenodd" clip-rule="evenodd" d="M16.9121 16.5817L18.2881 17.5815C18.576 17.7906 18.6398 18.1935 18.4307 18.4814C18.2215 18.7693 17.8186 18.8331 17.5307 18.624L7.9768 11.6827C7.68892 11.4735 7.6251 11.0706 7.83426 10.7827L9.63386 8.30576C9.84301 8.01788 10.2459 7.95406 10.5338 8.16322L17.6108 13.3049C17.8435 13.474 17.936 13.7769 17.8373 14.0471L16.9121 16.5817ZM15.8278 15.794L16.4602 14.0618L10.2977 9.58445L9.25548 11.0189L15.8278 15.794Z" fill="#9E035D"/>
<path fill-rule="evenodd" clip-rule="evenodd" d="M18.7523 18.4305C18.4644 18.2213 18.4006 17.8184 18.6097 17.5305L25.551 7.97662C25.6515 7.83837 25.8027 7.74569 25.9715 7.71896C26.1403 7.69222 26.3128 7.73363 26.451 7.83407L28.9279 9.63367C29.2158 9.84283 29.2796 10.2458 29.0705 10.5336L23.9288 17.6106C23.7597 17.8433 23.4568 17.9358 23.1866 17.8371L20.652 16.9119L19.6522 18.2879C19.4431 18.5758 19.0402 18.6396 18.7523 18.4305ZM21.4397 15.8276L23.1719 16.46L27.6493 10.2975L26.2148 9.2553L21.4397 15.8276Z" fill="url(#paint3_linear)"/>
<path fill-rule="evenodd" clip-rule="evenodd" d="M18.7523 18.4305C18.4644 18.2213 18.4006 17.8184 18.6097 17.5305L25.551 7.97662C25.6515 7.83837 25.8027 7.74569 25.9715 7.71896C26.1403 7.69222 26.3128 7.73363 26.451 7.83407L28.9279 9.63367C29.2158 9.84283 29.2796 10.2458 29.0705 10.5336L23.9288 17.6106C23.7597 17.8433 23.4568 17.9358 23.1866 17.8371L20.652 16.9119L19.6522 18.2879C19.4431 18.5758 19.0402 18.6396 18.7523 18.4305ZM21.4397 15.8276L23.1719 16.46L27.6493 10.2975L26.2148 9.2553L21.4397 15.8276Z" fill="#9E035D"/>
<path fill-rule="evenodd" clip-rule="evenodd" d="M19.0098 18.0766C18.7114 17.8598 18.2938 17.926 18.077 18.2244C17.8602 18.5228 17.9263 18.9404 18.2247 19.1572C18.5231 19.374 18.9408 19.3079 19.1576 19.0095C19.3744 18.7111 19.3082 18.2934 19.0098 18.0766ZM17.0345 17.467C17.6696 16.5928 18.8931 16.399 19.7672 17.0341C20.6414 17.6692 20.8352 18.8927 20.2001 19.7669C19.565 20.641 18.3415 20.8348 17.4673 20.1997C16.5932 19.5646 16.3994 18.3411 17.0345 17.467Z" fill="url(#paint4_linear)"/>
<path fill-rule="evenodd" clip-rule="evenodd" d="M19.0098 18.0766C18.7114 17.8598 18.2938 17.926 18.077 18.2244C17.8602 18.5228 17.9263 18.9404 18.2247 19.1572C18.5231 19.374 18.9408 19.3079 19.1576 19.0095C19.3744 18.7111 19.3082 18.2934 19.0098 18.0766ZM17.0345 17.467C17.6696 16.5928 18.8931 16.399 19.7672 17.0341C20.6414 17.6692 20.8352 18.8927 20.2001 19.7669C19.565 20.641 18.3415 20.8348 17.4673 20.1997C16.5932 19.5646 16.3994 18.3411 17.0345 17.467Z" fill="#9E035D"/>
<path fill-rule="evenodd" clip-rule="evenodd" d="M17.8808 26.1325V27.6844H19.1575V26.1325C19.1575 26.1335 19.1574 26.134 19.1573 26.134C19.1564 26.1342 19.1497 26.0926 19.1009 26.0461C19.054 26.0014 18.9061 25.894 18.5191 25.894C18.1322 25.894 17.9842 26.0014 17.9374 26.0461C17.8885 26.0926 17.8818 26.1342 17.8809 26.134C17.8808 26.134 17.8808 26.1335 17.8808 26.1325ZM17.0486 25.113C17.3866 24.7911 17.8799 24.6053 18.5191 24.6053C19.1583 24.6053 19.6517 24.7911 19.9897 25.113C20.3165 25.4244 20.4461 25.816 20.4461 26.1294V28.3287C20.4461 28.6846 20.1576 28.973 19.8018 28.973H17.2365C16.8806 28.973 16.5922 28.6846 16.5922 28.3287V26.1294C16.5922 25.816 16.7218 25.4244 17.0486 25.113Z" fill="url(#paint5_linear)"/>
<path fill-rule="evenodd" clip-rule="evenodd" d="M17.8808 26.1325V27.6844H19.1575V26.1325C19.1575 26.1335 19.1574 26.134 19.1573 26.134C19.1564 26.1342 19.1497 26.0926 19.1009 26.0461C19.054 26.0014 18.9061 25.894 18.5191 25.894C18.1322 25.894 17.9842 26.0014 17.9374 26.0461C17.8885 26.0926 17.8818 26.1342 17.8809 26.134C17.8808 26.134 17.8808 26.1335 17.8808 26.1325ZM17.0486 25.113C17.3866 24.7911 17.8799 24.6053 18.5191 24.6053C19.1583 24.6053 19.6517 24.7911 19.9897 25.113C20.3165 25.4244 20.4461 25.816 20.4461 26.1294V28.3287C20.4461 28.6846 20.1576 28.973 19.8018 28.973H17.2365C16.8806 28.973 16.5922 28.6846 16.5922 28.3287V26.1294C16.5922 25.816 16.7218 25.4244 17.0486 25.113Z" fill="#9E035D"/>
<path fill-rule="evenodd" clip-rule="evenodd" d="M18.1574 10.4649C18.3759 10.3166 18.6627 10.3166 18.8812 10.4649L22.6668 13.0349C22.9612 13.2347 23.0378 13.6354 22.838 13.9298C22.6381 14.2242 22.2374 14.3009 21.943 14.101L18.5193 11.7767L16.3574 13.2443C16.063 13.4442 15.6623 13.3676 15.4625 13.0732C15.2626 12.7788 15.3392 12.3781 15.6336 12.1782L18.1574 10.4649ZM13.7295 14.6907C14.0556 14.8331 14.2046 15.2129 14.0623 15.539L12.4336 19.2707V21.0641C12.7646 21.0911 13.0247 21.3683 13.0247 21.7062C13.0247 22.0621 12.7362 22.3505 12.3804 22.3505H11.7893C11.4334 22.3505 11.145 22.0621 11.145 21.7062V19.1362C11.145 19.0475 11.1633 18.9598 11.1988 18.8785L12.8813 15.0235C13.0236 14.6974 13.4034 14.5484 13.7295 14.6907ZM24.0414 15.7323C24.3767 15.6133 24.7451 15.7887 24.8641 16.124L25.8565 18.9208C25.881 18.99 25.8936 19.0628 25.8936 19.1362V21.7062C25.8936 22.0621 25.6051 22.3505 25.2493 22.3505H23.1461C22.7903 22.3505 22.5018 22.0621 22.5018 21.7062C22.5018 21.3504 22.7903 21.0619 23.1461 21.0619H24.605V19.2472L23.6496 16.5549C23.5306 16.2196 23.706 15.8513 24.0414 15.7323ZM13.1455 25.7805C13.4975 25.8326 13.7406 26.1602 13.6885 26.5122L12.4267 35.0402C12.3746 35.3922 12.047 35.6354 11.695 35.5833C11.343 35.5312 11.0998 35.2036 11.1519 34.8516L12.4138 26.3236C12.4659 25.9715 12.7935 25.7284 13.1455 25.7805ZM23.9037 26.2073C24.2565 26.1611 24.58 26.4097 24.6262 26.7625L25.6875 34.8622C25.7337 35.215 25.4851 35.5385 25.1323 35.5848C24.7795 35.631 24.456 35.3824 24.4098 35.0296L23.3485 26.9299C23.3023 26.5771 23.5509 26.2536 23.9037 26.2073Z" fill="url(#paint6_linear)"/>
<path fill-rule="evenodd" clip-rule="evenodd" d="M18.1574 10.4649C18.3759 10.3166 18.6627 10.3166 18.8812 10.4649L22.6668 13.0349C22.9612 13.2347 23.0378 13.6354 22.838 13.9298C22.6381 14.2242 22.2374 14.3009 21.943 14.101L18.5193 11.7767L16.3574 13.2443C16.063 13.4442 15.6623 13.3676 15.4625 13.0732C15.2626 12.7788 15.3392 12.3781 15.6336 12.1782L18.1574 10.4649ZM13.7295 14.6907C14.0556 14.8331 14.2046 15.2129 14.0623 15.539L12.4336 19.2707V21.0641C12.7646 21.0911 13.0247 21.3683 13.0247 21.7062C13.0247 22.0621 12.7362 22.3505 12.3804 22.3505H11.7893C11.4334 22.3505 11.145 22.0621 11.145 21.7062V19.1362C11.145 19.0475 11.1633 18.9598 11.1988 18.8785L12.8813 15.0235C13.0236 14.6974 13.4034 14.5484 13.7295 14.6907ZM24.0414 15.7323C24.3767 15.6133 24.7451 15.7887 24.8641 16.124L25.8565 18.9208C25.881 18.99 25.8936 19.0628 25.8936 19.1362V21.7062C25.8936 22.0621 25.6051 22.3505 25.2493 22.3505H23.1461C22.7903 22.3505 22.5018 22.0621 22.5018 21.7062C22.5018 21.3504 22.7903 21.0619 23.1461 21.0619H24.605V19.2472L23.6496 16.5549C23.5306 16.2196 23.706 15.8513 24.0414 15.7323ZM13.1455 25.7805C13.4975 25.8326 13.7406 26.1602 13.6885 26.5122L12.4267 35.0402C12.3746 35.3922 12.047 35.6354 11.695 35.5833C11.343 35.5312 11.0998 35.2036 11.1519 34.8516L12.4138 26.3236C12.4659 25.9715 12.7935 25.7284 13.1455 25.7805ZM23.9037 26.2073C24.2565 26.1611 24.58 26.4097 24.6262 26.7625L25.6875 34.8622C25.7337 35.215 25.4851 35.5385 25.1323 35.5848C24.7795 35.631 24.456 35.3824 24.4098 35.0296L23.3485 26.9299C23.3023 26.5771 23.5509 26.2536 23.9037 26.2073Z" fill="#9E035D"/>
<path fill-rule="evenodd" clip-rule="evenodd" d="M9.3609 34.9459C9.3609 34.5901 9.64937 34.3016 10.0052 34.3016H27.0281C27.384 34.3016 27.6724 34.5901 27.6724 34.9459C27.6724 35.3018 27.384 35.5902 27.0281 35.5902H10.0052C9.64937 35.5902 9.3609 35.3018 9.3609 34.9459Z" fill="url(#paint7_linear)"/>
<path fill-rule="evenodd" clip-rule="evenodd" d="M9.3609 34.9459C9.3609 34.5901 9.64937 34.3016 10.0052 34.3016H27.0281C27.384 34.3016 27.6724 34.5901 27.6724 34.9459C27.6724 35.3018 27.384 35.5902 27.0281 35.5902H10.0052C9.64937 35.5902 9.3609 35.3018 9.3609 34.9459Z" fill="#9E035D"/>
<defs>
<linearGradient id="paint0_linear" x1="19.1819" y1="18.2311" x2="28.895" y2="27.7396" gradientUnits="userSpaceOnUse">
<stop stop-color="#AE2B88"/>
<stop offset="1" stop-color="#C54586"/>
</linearGradient>
<linearGradient id="paint1_linear" x1="19.0029" y1="19.1823" x2="9.49436" y2="28.8953" gradientUnits="userSpaceOnUse">
<stop stop-color="#AE2B88"/>
<stop offset="1" stop-color="#C54586"/>
</linearGradient>
<linearGradient id="paint2_linear" x1="18.0519" y1="19.0027" x2="8.3389" y2="9.49418" gradientUnits="userSpaceOnUse">
<stop stop-color="#AE2B88"/>
<stop offset="1" stop-color="#C54586"/>
</linearGradient>
<linearGradient id="paint3_linear" x1="18.231" y1="18.0518" x2="27.7395" y2="8.33872" gradientUnits="userSpaceOnUse">
<stop stop-color="#AE2B88"/>
<stop offset="1" stop-color="#C54586"/>
</linearGradient>
<linearGradient id="paint4_linear" x1="18.1844" y1="15.8842" x2="21.3793" y2="18.4533" gradientUnits="userSpaceOnUse">
<stop stop-color="#AE2B88"/>
<stop offset="1" stop-color="#C54586"/>
</linearGradient>
<linearGradient id="paint5_linear" x1="16.5922" y1="24.6053" x2="20.6273" y2="24.7798" gradientUnits="userSpaceOnUse">
<stop stop-color="#AE2B88"/>
<stop offset="1" stop-color="#C54586"/>
</linearGradient>
<linearGradient id="paint6_linear" x1="11.1449" y1="10.3536" x2="26.6034" y2="10.7962" gradientUnits="userSpaceOnUse">
<stop stop-color="#AE2B88"/>
<stop offset="1" stop-color="#C54586"/>
</linearGradient>
<linearGradient id="paint7_linear" x1="9.3609" y1="34.3016" x2="22.2994" y2="43.3086" gradientUnits="userSpaceOnUse">
<stop stop-color="#AE2B88"/>
<stop offset="1" stop-color="#C54586"/>
</linearGradient>
</defs>
</svg>
