<svg width="36" height="36" viewBox="0 0 36 36" fill="none" xmlns="http://www.w3.org/2000/svg">
<path fill-rule="evenodd" clip-rule="evenodd" d="M2.30005 4C2.30005 3.06112 3.06117 2.3 4.00005 2.3H14.5807C15.5196 2.3 16.2807 3.06112 16.2807 4V14.5806C16.2807 15.5195 15.5196 16.2806 14.5807 16.2806H4.00005C3.06116 16.2806 2.30005 15.5195 2.30005 14.5806V4ZM4.00005 3.7C3.83436 3.7 3.70005 3.83432 3.70005 4V14.5806C3.70005 14.7463 3.83436 14.8806 4.00005 14.8806H14.5807C14.7464 14.8806 14.8807 14.7463 14.8807 14.5806V4C14.8807 3.83432 14.7464 3.7 14.5807 3.7H4.00005ZM19.7194 3.96774C19.7194 3.04668 20.4661 2.3 21.3871 2.3H32.0323C32.9534 2.3 33.7001 3.04668 33.7001 3.96774V14.6129C33.7001 15.534 32.9534 16.2806 32.0323 16.2806H21.3871C20.4661 16.2806 19.7194 15.534 19.7194 14.6129V3.96774ZM21.3871 3.7C21.2393 3.7 21.1194 3.81988 21.1194 3.96774V14.6129C21.1194 14.7608 21.2393 14.8806 21.3871 14.8806H32.0323C32.1802 14.8806 32.3 14.7608 32.3 14.6129V3.96774C32.3 3.81988 32.1802 3.7 32.0323 3.7H21.3871ZM2.30005 21.3871C2.30005 20.466 3.04672 19.7194 3.96779 19.7194H14.613C15.534 19.7194 16.2807 20.466 16.2807 21.3871V32.0323C16.2807 32.9533 15.534 33.7 14.613 33.7H3.96779C3.04672 33.7 2.30005 32.9533 2.30005 32.0323V21.3871ZM3.96779 21.1194C3.81992 21.1194 3.70005 21.2392 3.70005 21.3871V32.0323C3.70005 32.1801 3.81992 32.3 3.96779 32.3H14.613C14.7608 32.3 14.8807 32.1801 14.8807 32.0323V21.3871C14.8807 21.2392 14.7608 21.1194 14.613 21.1194H3.96779ZM19.7194 21.3871C19.7194 20.466 20.4661 19.7194 21.3871 19.7194H32.0323C32.9534 19.7194 33.7001 20.466 33.7001 21.3871V32.0323C33.7001 32.9533 32.9534 33.7 32.0323 33.7H21.3871C20.4661 33.7 19.7194 32.9533 19.7194 32.0323V21.3871ZM21.3871 21.1194C21.2393 21.1194 21.1194 21.2392 21.1194 21.3871V32.0323C21.1194 32.1801 21.2393 32.3 21.3871 32.3H32.0323C32.1802 32.3 32.3 32.1801 32.3 32.0323V21.3871C32.3 21.2392 32.1802 21.1194 32.0323 21.1194H21.3871Z" fill="#B02386"/>
</svg>
