<svg xmlns="http://www.w3.org/2000/svg" width="44" height="44" viewBox="0 0 44 44">
  <g id="_036-dew_point" data-name="036-dew point" transform="translate(0)">
    <path id="Path_3605" data-name="Path 3605" d="M20.883,17.273H17.445a1.719,1.719,0,1,1,0-3.438h3.438a1.719,1.719,0,0,1,0,3.438Zm-2.89,23.682a10.571,10.571,0,0,0,1.548-13.118,2.525,2.525,0,0,1-.377-1.341V24.148h1.719a1.719,1.719,0,0,0,0-3.438H19.164a3.441,3.441,0,0,0-3.438,3.438V26.5a5.959,5.959,0,0,0,.9,3.162,7.133,7.133,0,0,1-6.055,10.9h-.1a7.185,7.185,0,0,1-7.031-7,7.106,7.106,0,0,1,1.074-3.9,5.972,5.972,0,0,0,.9-3.166V8.68a5.278,5.278,0,0,1,5.117-5.242h.039a5.164,5.164,0,0,1,5.053,4.121,3.45,3.45,0,0,0,3.368,2.754h1.892a1.719,1.719,0,0,0,0-3.438l-1.892,0A8.608,8.608,0,0,0,10.57,0h-.064A8.478,8.478,0,0,0,4.469,2.6,8.667,8.667,0,0,0,1.977,8.68V26.5a2.539,2.539,0,0,1-.38,1.347A10.582,10.582,0,0,0,10.422,44h.15a10.494,10.494,0,0,0,7.421-3.045ZM41.938,11.334c0-.653,0-2.641-3.98-7.694a3.685,3.685,0,0,0-5.79,0c-3.98,5.053-3.98,7.041-3.98,7.694a6.875,6.875,0,1,0,13.75,0ZM35.257,5.766c2.56,3.25,3.243,5.029,3.243,5.567a3.438,3.438,0,1,1-6.875,0c0-.539.683-2.317,3.243-5.567a.247.247,0,0,1,.389,0ZM44,33.687a11.336,11.336,0,0,0-1.971-5.4,46.684,46.684,0,0,0-3.455-4.926h0a4.475,4.475,0,0,0-7.023,0A46.671,46.671,0,0,0,28.1,28.284a11.336,11.336,0,0,0-1.971,5.4,8.937,8.937,0,1,0,17.875,0Zm-8.124-8.2c3.455,4.378,4.687,7.107,4.687,8.2a5.5,5.5,0,1,1-11,0c0-1.093,1.231-3.822,4.687-8.2a1.038,1.038,0,0,1,1.627,0Z" transform="translate(0)" fill="#094fb9"/>
    <path id="Path_3606" data-name="Path 3606" d="M98,180.594a2.148,2.148,0,1,1,2.148,2.148A2.148,2.148,0,0,1,98,180.594Zm3.867-7.3v-10.57a1.719,1.719,0,0,0-3.437,0v10.57a1.719,1.719,0,0,0,3.437,0Z" transform="translate(-89.578 -147.164)" fill="#29b6f6"/>
  </g>
</svg>
