<svg xmlns="http://www.w3.org/2000/svg" width="90" height="90" viewBox="0 0 90 90">
  <rect id="Rectangle_522" data-name="Rectangle 522" width="90" height="90" rx="30" fill="#29b6f6" opacity="0.12"/>
  <g id="_036-dew_point" data-name="036-dew point" transform="translate(20 20)">
    <path id="Path_3605" data-name="Path 3605" d="M23.731,19.629H19.824a1.953,1.953,0,1,1,0-3.906h3.906a1.953,1.953,0,0,1,0,3.906ZM20.447,46.54a12.013,12.013,0,0,0,1.759-14.907,2.87,2.87,0,0,1-.428-1.524V27.441h1.953a1.953,1.953,0,0,0,0-3.906H21.778a3.911,3.911,0,0,0-3.906,3.906V30.11A6.772,6.772,0,0,0,18.893,33.7a8.106,8.106,0,0,1-6.881,12.391H11.9A8.165,8.165,0,0,1,3.908,38.14a8.075,8.075,0,0,1,1.221-4.433,6.787,6.787,0,0,0,1.024-3.6V9.864a6,6,0,0,1,5.815-5.957h.044a5.868,5.868,0,0,1,5.743,4.682,3.921,3.921,0,0,0,3.828,3.13h2.15a1.953,1.953,0,0,0,0-3.906l-2.15,0A9.781,9.781,0,0,0,12.011,0h-.073a9.634,9.634,0,0,0-6.86,2.957A9.849,9.849,0,0,0,2.246,9.864V30.11a2.885,2.885,0,0,1-.432,1.53A12.025,12.025,0,0,0,11.844,50h.17a11.925,11.925,0,0,0,8.433-3.46Zm27.21-33.661c0-.742,0-3-4.523-8.744a4.187,4.187,0,0,0-6.579,0c-4.523,5.742-4.523,8-4.523,8.744a7.813,7.813,0,1,0,15.625,0ZM40.065,6.553c2.909,3.693,3.685,5.715,3.685,6.327a3.906,3.906,0,1,1-7.812,0c0-.612.776-2.633,3.685-6.327a.281.281,0,0,1,.442,0ZM50,38.281c0-1.6-.733-3.607-2.239-6.14a53.05,53.05,0,0,0-3.926-5.6h0a5.085,5.085,0,0,0-7.981,0,53.035,53.035,0,0,0-3.926,5.6c-1.507,2.533-2.239,4.542-2.239,6.14a10.156,10.156,0,1,0,20.312,0Zm-9.232-9.318c3.927,4.975,5.326,8.076,5.326,9.318a6.25,6.25,0,1,1-12.5,0c0-1.242,1.4-4.343,5.326-9.318a1.179,1.179,0,0,1,1.849,0Z" transform="translate(0)" fill="#094fb9"/>
    <path id="Path_3606" data-name="Path 3606" d="M98,183.266a2.441,2.441,0,1,1,2.441,2.441A2.441,2.441,0,0,1,98,183.266Zm4.395-8.3V162.953a1.953,1.953,0,0,0-3.906,0v12.012a1.953,1.953,0,0,0,3.906,0Z" transform="translate(-88.43 -145.277)" fill="#29b6f6"/>
  </g>
</svg>
