<svg width="200" height="200" viewBox="0 0 200 200" fill="none" xmlns="http://www.w3.org/2000/svg">
<circle cx="101" cy="100" r="75" fill="#E8D3E8" fill-opacity="0.3"/>
<path d="M115.061 64.4195C114.745 64.1011 114.564 63.6728 114.556 63.2241C114.548 62.7754 114.714 62.3411 115.019 62.0119L126.271 49.8675C126.43 49.6955 126.623 49.5575 126.837 49.4618C127.051 49.3661 127.282 49.3146 127.517 49.3106C127.751 49.3065 127.984 49.3499 128.201 49.4381C128.418 49.5264 128.616 49.6576 128.781 49.824L129.752 50.8021C129.917 50.9685 130.047 51.1666 130.134 51.3845C130.221 51.6024 130.262 51.8356 130.257 52.07C130.251 52.3045 130.198 52.5353 130.101 52.7487C130.004 52.9621 129.864 53.1537 129.691 53.3118L117.468 64.4781C117.137 64.7809 116.701 64.9438 116.253 64.9329C115.804 64.922 115.377 64.738 115.061 64.4195Z" fill="#9E035D"/>
<path d="M107.939 60.2801C107.67 60.1609 107.457 59.9423 107.345 59.6701C107.234 59.3978 107.232 59.093 107.34 58.8192L111.322 48.7204C111.378 48.5773 111.463 48.4472 111.571 48.3377C111.679 48.2283 111.808 48.1418 111.95 48.0835C112.092 48.0252 112.245 47.9962 112.399 47.9984C112.553 48.0006 112.704 48.0338 112.845 48.0961L113.671 48.4624C113.812 48.5247 113.938 48.6148 114.043 48.7272C114.148 48.8397 114.229 48.9722 114.281 49.1168C114.334 49.2614 114.356 49.415 114.348 49.5686C114.339 49.7221 114.3 49.8723 114.231 50.0101L109.424 59.7427C109.293 60.0066 109.066 60.2099 108.789 60.31C108.512 60.4102 108.208 60.3995 107.939 60.2801Z" fill="#9E035D"/>
<path d="M100.693 61.9306C99.7757 62.0958 98.8551 61.3084 98.606 60.1456L94.1898 39.4996C93.9263 38.2657 94.517 37.0922 95.4905 36.9168L96.8472 36.6726C97.8206 36.4973 98.7841 37.3914 98.967 38.6394L102.027 59.5296C102.199 60.7065 101.611 61.7654 100.693 61.9306Z" fill="#9E035D"/>
<path d="M172.074 81.3606L152.597 78.8498C152.269 78.8148 151.938 78.8806 151.649 79.0385C151.359 79.1963 151.124 79.4387 150.976 79.7333L145.797 89.9596L124.117 133.319C123.887 133.777 123.501 134.138 123.028 134.337C122.556 134.536 122.028 134.56 121.539 134.405L62.6932 115.622C62.5309 115.57 62.3586 115.558 62.1905 115.585C62.0224 115.613 61.8633 115.68 61.7262 115.782C61.5892 115.883 61.4782 116.015 61.4023 116.168C61.3265 116.32 61.2879 116.489 61.2898 116.659L61.3167 119.103C61.32 119.442 61.4305 119.773 61.6323 120.046C61.8341 120.319 62.117 120.522 62.4407 120.625L124.701 140.498C125.395 140.719 126.018 141.12 126.508 141.66C126.997 142.2 127.334 142.86 127.486 143.572L127.507 143.67C128.049 146.644 125.117 149.087 122.228 148.21L53.9576 126.39C53.6074 126.279 53.3058 126.051 53.1026 125.745C52.8993 125.439 52.8068 125.072 52.8402 124.707L58.1832 66.3606C58.21 66.0598 58.2998 65.7679 58.4468 65.5041C58.5938 65.2402 58.7946 65.0102 59.0362 64.829C59.2778 64.6478 59.5548 64.5194 59.8493 64.4522C60.1438 64.385 60.449 64.3805 60.7454 64.4389L142.532 80.4384L147.8 69.9695C147.952 69.6736 148.192 69.4315 148.486 69.2759C148.78 69.1203 149.114 69.0586 149.444 69.0992L173.296 72.1536C173.507 72.1801 173.711 72.2484 173.896 72.3545C174.081 72.4605 174.244 72.6022 174.373 72.7713C174.503 72.9404 174.598 73.1336 174.653 73.3397C174.708 73.5458 174.721 73.7607 174.692 73.972L173.879 79.9711C173.823 80.3941 173.601 80.7776 173.263 81.0379C172.925 81.2983 172.497 81.4143 172.074 81.3606Z" fill="#9E035D"/>
<path d="M61.4814 105.632L68.1458 107.759L74.5385 75.343L64.3074 73.772L61.4814 105.632Z" fill="#F0ECF3"/>
<path d="M113.771 122.322L120.435 124.449L137.67 88.15L130.329 86.3718L113.771 122.322Z" fill="#F0ECF3"/>
<path d="M88.1387 114.141L94.2904 116.104L107.468 81.8992L97.4002 79.8157L88.1387 114.141Z" fill="#F0ECF3"/>
<path d="M80.3406 76.6299L90.4081 78.7135L81.4738 112.013L74.8096 109.886L80.3406 76.6299Z" fill="#F0ECF3"/>
<path d="M124.014 84.9213L113.947 82.8376L101.468 118.395L107.62 120.359L124.014 84.9213Z" fill="#F0ECF3"/>
<path d="M62.7672 147.455C67.0765 147.455 70.5699 143.962 70.5699 139.653C70.5699 135.343 67.0765 131.85 62.7672 131.85C58.4578 131.85 54.9644 135.343 54.9644 139.653C54.9644 143.962 58.4578 147.455 62.7672 147.455Z" fill="#D974A7"/>
<path d="M111.468 163C115.778 163 119.271 159.507 119.271 155.197C119.271 150.888 115.778 147.395 111.468 147.395C107.159 147.395 103.666 150.888 103.666 155.197C103.666 159.507 107.159 163 111.468 163Z" fill="#D974A7"/>
<path d="M175.578 71.8308L155.022 69.2573C154.908 69.243 154.804 69.3238 154.79 69.4378L153.544 79.3899C153.53 79.5039 153.611 79.6078 153.725 79.6221L174.281 82.1956C174.394 82.2098 174.498 82.129 174.513 82.0151L175.759 72.0629C175.773 71.949 175.692 71.845 175.578 71.8308Z" fill="#D974A7"/>
</svg>
