<svg width="50" height="14" viewBox="0 0 50 14" fill="none" xmlns="http://www.w3.org/2000/svg">
<path fill-rule="evenodd" clip-rule="evenodd" d="M48 0H0L5 7L0 14H48C49.1046 14 50 13.1046 50 12V2C50 0.895431 49.1046 0 48 0Z" fill="#00B3ED"/>
<path d="M9.56 10H13.32V8.984H10.648V7.504H12.84V6.488H10.648V5.256H13.32V4.24H9.56V10ZM13.7988 10H15.1428L16.4148 8.016L17.6788 10H19.0148L17.0868 7.088L18.9668 4.24H17.6228L16.4148 6.16L15.1908 4.24H13.8548L15.7348 7.088L13.7988 10ZM19.6538 10H20.7418V8.048H22.0858C22.1391 8.048 22.2138 8.04533 22.3098 8.04C22.4058 8.03467 22.4911 8.02667 22.5658 8.016C23.0778 7.936 23.4538 7.72533 23.6938 7.384C23.9338 7.04 24.0538 6.62667 24.0538 6.144C24.0538 5.65867 23.9351 5.24533 23.6978 4.904C23.4604 4.56267 23.0831 4.352 22.5658 4.272C22.4911 4.25867 22.4058 4.25067 22.3098 4.248C22.2164 4.24267 22.1418 4.24 22.0858 4.24H19.6538V10ZM20.7418 7.032V5.256H22.0378C22.0938 5.256 22.1551 5.25867 22.2218 5.264C22.2884 5.26933 22.3498 5.28 22.4058 5.296C22.5524 5.336 22.6658 5.404 22.7458 5.5C22.8258 5.59333 22.8804 5.69867 22.9098 5.816C22.9418 5.93067 22.9578 6.04 22.9578 6.144C22.9578 6.248 22.9418 6.35867 22.9098 6.476C22.8804 6.59067 22.8258 6.696 22.7458 6.792C22.6658 6.88533 22.5524 6.952 22.4058 6.992C22.3498 7.008 22.2884 7.01867 22.2218 7.024C22.1551 7.02933 22.0938 7.032 22.0378 7.032H20.7418ZM24.8569 10H25.9449V8.048H27.1569L28.1049 10H29.3369L28.2969 7.864C28.6249 7.71467 28.8662 7.48933 29.0209 7.188C29.1782 6.884 29.2569 6.536 29.2569 6.144C29.2569 5.65867 29.1382 5.24533 28.9009 4.904C28.6635 4.56267 28.2862 4.352 27.7689 4.272C27.6942 4.25867 27.6089 4.25067 27.5129 4.248C27.4195 4.24267 27.3449 4.24 27.2889 4.24H24.8569V10ZM25.9449 7.032V5.256H27.2409C27.2969 5.256 27.3582 5.25867 27.4249 5.264C27.4915 5.26933 27.5529 5.28 27.6089 5.296C27.7555 5.336 27.8689 5.404 27.9489 5.5C28.0289 5.59333 28.0835 5.69867 28.1129 5.816C28.1449 5.93067 28.1609 6.04 28.1609 6.144C28.1609 6.248 28.1449 6.35867 28.1129 6.476C28.0835 6.59067 28.0289 6.696 27.9489 6.792C27.8689 6.88533 27.7555 6.952 27.6089 6.992C27.5529 7.008 27.4915 7.01867 27.4249 7.024C27.3582 7.02933 27.2969 7.032 27.2409 7.032H25.9449ZM30.2163 10H33.9763V8.984H31.3043V7.504H33.4963V6.488H31.3043V5.256H33.9763V4.24H30.2163V10ZM37.111 10.12C37.4043 10.12 37.6883 10.0827 37.963 10.008C38.2403 9.93333 38.4883 9.82133 38.707 9.672C38.9257 9.52 39.099 9.32933 39.227 9.1C39.3577 8.868 39.423 8.59733 39.423 8.288C39.423 7.99733 39.3683 7.75733 39.259 7.568C39.1523 7.37867 39.015 7.22667 38.847 7.112C38.6817 6.99467 38.5083 6.904 38.327 6.84C38.1457 6.77333 37.9803 6.72 37.831 6.68L36.831 6.408C36.7083 6.376 36.5883 6.336 36.471 6.288C36.3537 6.24 36.2563 6.17733 36.179 6.1C36.1017 6.02 36.063 5.91733 36.063 5.792C36.063 5.656 36.1097 5.53867 36.203 5.44C36.299 5.34133 36.4217 5.26667 36.571 5.216C36.723 5.16267 36.8843 5.13867 37.055 5.144C37.3163 5.152 37.5563 5.22933 37.775 5.376C37.9937 5.52267 38.135 5.736 38.199 6.016L39.375 5.816C39.2363 5.27467 38.967 4.86 38.567 4.572C38.167 4.284 37.6683 4.136 37.071 4.128C36.6763 4.12533 36.3163 4.18667 35.991 4.312C35.6657 4.43733 35.4057 4.628 35.211 4.884C35.0163 5.14 34.919 5.46133 34.919 5.848C34.919 6.12267 34.9643 6.35067 35.055 6.532C35.1483 6.71067 35.2643 6.85467 35.403 6.964C35.5417 7.07333 35.6843 7.15733 35.831 7.216C35.9803 7.27467 36.111 7.32 36.223 7.352L37.719 7.792C37.943 7.85867 38.0923 7.94267 38.167 8.044C38.2417 8.14267 38.279 8.25067 38.279 8.368C38.279 8.528 38.2243 8.66267 38.115 8.772C38.0083 8.88133 37.871 8.964 37.703 9.02C37.535 9.076 37.3617 9.104 37.183 9.104C36.863 9.104 36.5777 9.01467 36.327 8.836C36.0763 8.65733 35.911 8.40267 35.831 8.072L34.695 8.24C34.7537 8.62933 34.8923 8.96533 35.111 9.248C35.3323 9.528 35.6137 9.744 35.955 9.896C36.299 10.0453 36.6843 10.12 37.111 10.12ZM42.5954 10.12C42.8887 10.12 43.1727 10.0827 43.4474 10.008C43.7247 9.93333 43.9727 9.82133 44.1914 9.672C44.41 9.52 44.5834 9.32933 44.7114 9.1C44.842 8.868 44.9074 8.59733 44.9074 8.288C44.9074 7.99733 44.8527 7.75733 44.7434 7.568C44.6367 7.37867 44.4994 7.22667 44.3314 7.112C44.166 6.99467 43.9927 6.904 43.8114 6.84C43.63 6.77333 43.4647 6.72 43.3154 6.68L42.3154 6.408C42.1927 6.376 42.0727 6.336 41.9554 6.288C41.838 6.24 41.7407 6.17733 41.6634 6.1C41.586 6.02 41.5474 5.91733 41.5474 5.792C41.5474 5.656 41.594 5.53867 41.6874 5.44C41.7834 5.34133 41.906 5.26667 42.0554 5.216C42.2074 5.16267 42.3687 5.13867 42.5394 5.144C42.8007 5.152 43.0407 5.22933 43.2594 5.376C43.478 5.52267 43.6194 5.736 43.6834 6.016L44.8594 5.816C44.7207 5.27467 44.4514 4.86 44.0514 4.572C43.6514 4.284 43.1527 4.136 42.5554 4.128C42.1607 4.12533 41.8007 4.18667 41.4754 4.312C41.15 4.43733 40.89 4.628 40.6954 4.884C40.5007 5.14 40.4034 5.46133 40.4034 5.848C40.4034 6.12267 40.4487 6.35067 40.5394 6.532C40.6327 6.71067 40.7487 6.85467 40.8874 6.964C41.026 7.07333 41.1687 7.15733 41.3154 7.216C41.4647 7.27467 41.5954 7.32 41.7074 7.352L43.2034 7.792C43.4274 7.85867 43.5767 7.94267 43.6514 8.044C43.726 8.14267 43.7634 8.25067 43.7634 8.368C43.7634 8.528 43.7087 8.66267 43.5994 8.772C43.4927 8.88133 43.3554 8.964 43.1874 9.02C43.0194 9.076 42.846 9.104 42.6674 9.104C42.3474 9.104 42.062 9.01467 41.8114 8.836C41.5607 8.65733 41.3954 8.40267 41.3154 8.072L40.1794 8.24C40.238 8.62933 40.3767 8.96533 40.5954 9.248C40.8167 9.528 41.098 9.744 41.4394 9.896C41.7834 10.0453 42.1687 10.12 42.5954 10.12Z" fill="white"/>
</svg>
