<svg width="20" height="20" viewBox="0 0 20 20" fill="none" xmlns="http://www.w3.org/2000/svg">
<path d="M15.9205 6.06089C15.5784 5.72455 15.1722 5.45775 14.7252 5.27572C14.2782 5.09369 13.799 5 13.3151 5C12.8312 5 12.3521 5.09369 11.905 5.27572C11.458 5.45775 11.0518 5.72455 10.7098 6.06089L9.99982 6.75857L9.28988 6.06089C8.5989 5.38184 7.66172 5.00035 6.68453 5.00035C5.70733 5.00035 4.77016 5.38184 4.07917 6.06089C3.38819 6.73994 3 7.66092 3 8.62124C3 9.58157 3.38819 10.5026 4.07917 11.1816L4.78911 11.8793L9.99982 17L15.2105 11.8793L15.9205 11.1816C16.2627 10.8454 16.5342 10.4463 16.7194 10.007C16.9047 9.56765 17 9.09678 17 8.62124C17 8.14571 16.9047 7.67484 16.7194 7.23552C16.5342 6.79621 16.2627 6.39706 15.9205 6.06089Z" fill="url(#paint0_linear)"/>
<path d="M15.9205 6.06089C15.5784 5.72455 15.1722 5.45775 14.7252 5.27572C14.2782 5.09369 13.799 5 13.3151 5C12.8312 5 12.3521 5.09369 11.905 5.27572C11.458 5.45775 11.0518 5.72455 10.7098 6.06089L9.99982 6.75857L9.28988 6.06089C8.5989 5.38184 7.66172 5.00035 6.68453 5.00035C5.70733 5.00035 4.77016 5.38184 4.07917 6.06089C3.38819 6.73994 3 7.66092 3 8.62124C3 9.58157 3.38819 10.5026 4.07917 11.1816L4.78911 11.8793L9.99982 17L15.2105 11.8793L15.9205 11.1816C16.2627 10.8454 16.5342 10.4463 16.7194 10.007C16.9047 9.56765 17 9.09678 17 8.62124C17 8.14571 16.9047 7.67484 16.7194 7.23552C16.5342 6.79621 16.2627 6.39706 15.9205 6.06089Z" fill="url(#paint1_linear)" fill-opacity="0.8"/>
<path d="M15.9205 6.06089C15.5784 5.72455 15.1722 5.45775 14.7252 5.27572C14.2782 5.09369 13.799 5 13.3151 5C12.8312 5 12.3521 5.09369 11.905 5.27572C11.458 5.45775 11.0518 5.72455 10.7098 6.06089L9.99982 6.75857L9.28988 6.06089C8.5989 5.38184 7.66172 5.00035 6.68453 5.00035C5.70733 5.00035 4.77016 5.38184 4.07917 6.06089C3.38819 6.73994 3 7.66092 3 8.62124C3 9.58157 3.38819 10.5026 4.07917 11.1816L4.78911 11.8793L9.99982 17L15.2105 11.8793L15.9205 11.1816C16.2627 10.8454 16.5342 10.4463 16.7194 10.007C16.9047 9.56765 17 9.09678 17 8.62124C17 8.14571 16.9047 7.67484 16.7194 7.23552C16.5342 6.79621 16.2627 6.39706 15.9205 6.06089Z" fill="url(#paint2_linear)"/>
<defs>
<linearGradient id="paint0_linear" x1="3" y1="17" x2="14.8588" y2="3.16471" gradientUnits="userSpaceOnUse">
<stop stop-color="#6C2891"/>
<stop offset="1" stop-color="#E02EA1"/>
</linearGradient>
<linearGradient id="paint1_linear" x1="17" y1="5" x2="5.14118" y2="18.8353" gradientUnits="userSpaceOnUse">
<stop stop-color="#F17E7E"/>
<stop offset="1" stop-color="#B02386"/>
</linearGradient>
<linearGradient id="paint2_linear" x1="10" y1="5" x2="10" y2="17" gradientUnits="userSpaceOnUse">
<stop stop-color="#B02386"/>
<stop offset="1" stop-color="#B02386" stop-opacity="0"/>
</linearGradient>
</defs>
</svg>
