<svg width="30" height="21" viewBox="0 0 30 21" fill="none" xmlns="http://www.w3.org/2000/svg">
<path fill-rule="evenodd" clip-rule="evenodd" d="M19.3117 1.86501C17.4553 2.47081 15.8395 3.49498 14.9754 4.99898C14.2749 6.21797 14.0695 7.61075 14.1126 8.88401C14.1335 9.49992 14.2123 10.0772 14.3156 10.5781C15.0428 9.38937 16.1145 7.81476 17.2412 6.63826C18.8342 4.97476 20.7706 3.64207 21.5554 3.17377C21.8406 3.00359 22.2097 3.09684 22.3799 3.38204C22.5501 3.66724 22.4568 4.03641 22.1716 4.20659C21.4531 4.63536 19.6094 5.90417 18.1098 7.47011C16.8967 8.73693 15.7237 10.5401 15.0452 11.701C15.9436 11.8773 17.2965 12.0293 18.5532 11.8418C19.566 11.6907 20.4107 11.3229 21.2372 10.4973C22.0855 9.64999 22.9353 8.29977 23.8907 6.13828C24.9049 3.8436 26.1726 2.40601 27.2409 1.58978C26.6095 1.48743 25.7715 1.37252 24.7004 1.26068C23.1714 1.10101 21.1623 1.26113 19.3117 1.86501ZM14.4765 12.8099C15.4618 13.0336 17.14 13.2687 18.7307 13.0314C19.973 12.8461 21.0613 12.3729 22.0871 11.3483C23.0912 10.3454 24.0132 8.83621 24.9907 6.62449C26.4865 3.2404 28.4707 2.08224 29.1028 1.91723C29.3589 1.85036 29.5412 1.62383 29.5517 1.3593C29.5623 1.09477 29.3986 0.85447 29.1486 0.767442C28.7549 0.630423 27.4053 0.333879 24.8253 0.0644726C23.1329 -0.112259 20.9539 0.0640207 18.9386 0.72164C16.9292 1.37734 15.0013 2.53978 13.9325 4.39979C13.0866 5.872 12.8625 7.50683 12.9106 8.92478C12.9537 10.1937 13.2157 11.3255 13.4809 12.0766C12.9882 13.1921 12.6347 14.6019 12.3891 15.9081C12.3258 16.2447 12.2692 16.5771 12.2189 16.899C12.0453 16.5276 11.8456 16.1358 11.6182 15.7321C11.9783 15.1244 12.27 14.2473 12.2113 13.2336C12.139 11.9858 11.5394 10.5929 10.0123 9.28819C8.44355 7.94792 6.4793 7.56681 4.71988 7.60515C2.96082 7.64348 1.3385 8.10106 0.363822 8.52014C0.182736 8.59801 0.0513057 8.75967 0.0120527 8.95284C-0.0272003 9.14601 0.0307081 9.34615 0.167043 9.48852C0.689472 10.0341 1.91895 11.4514 2.65718 12.7362C3.62685 14.4238 5.03599 16.3418 7.26348 16.7295C8.59753 16.9616 9.86352 16.7157 10.6453 16.457C11.4166 17.8568 11.8124 19.0603 11.9329 19.6262C11.9953 19.9195 12.2643 20.1221 12.5635 20.1009C12.8627 20.0797 13.1005 19.8413 13.121 19.5421C13.1732 18.7792 13.3153 17.4907 13.5711 16.1304C13.7921 14.9552 14.0918 13.7602 14.4765 12.8099ZM10.8578 14.5036C10.5316 14.0227 10.1658 13.5358 9.75742 13.056C7.58209 10.5005 4.76888 9.60959 3.5632 9.48369C3.23288 9.4492 2.93714 9.68902 2.90264 10.0193C2.86815 10.3497 3.10797 10.6454 3.43829 10.6799C4.3803 10.7783 6.89336 11.5469 8.84159 13.8356C9.28065 14.3514 9.66757 14.8773 10.0062 15.3945C9.37076 15.5698 8.43498 15.7126 7.46969 15.5446C5.83134 15.2594 4.66325 13.8134 3.7 12.137C3.11662 11.1217 2.27438 10.0586 1.64361 9.32921C2.48341 9.0637 3.58369 8.8329 4.74608 8.80757C6.3317 8.77302 7.96482 9.12079 9.23104 10.2026C10.5389 11.32 10.9594 12.4195 11.0106 13.3032C11.0365 13.7505 10.9688 14.1585 10.8578 14.5036Z" fill="url(#paint0_linear)"/>
<path fill-rule="evenodd" clip-rule="evenodd" d="M19.3117 1.86501C17.4553 2.47081 15.8395 3.49498 14.9754 4.99898C14.2749 6.21797 14.0695 7.61075 14.1126 8.88401C14.1335 9.49992 14.2123 10.0772 14.3156 10.5781C15.0428 9.38937 16.1145 7.81476 17.2412 6.63826C18.8342 4.97476 20.7706 3.64207 21.5554 3.17377C21.8406 3.00359 22.2097 3.09684 22.3799 3.38204C22.5501 3.66724 22.4568 4.03641 22.1716 4.20659C21.4531 4.63536 19.6094 5.90417 18.1098 7.47011C16.8967 8.73693 15.7237 10.5401 15.0452 11.701C15.9436 11.8773 17.2965 12.0293 18.5532 11.8418C19.566 11.6907 20.4107 11.3229 21.2372 10.4973C22.0855 9.64999 22.9353 8.29977 23.8907 6.13828C24.9049 3.8436 26.1726 2.40601 27.2409 1.58978C26.6095 1.48743 25.7715 1.37252 24.7004 1.26068C23.1714 1.10101 21.1623 1.26113 19.3117 1.86501ZM14.4765 12.8099C15.4618 13.0336 17.14 13.2687 18.7307 13.0314C19.973 12.8461 21.0613 12.3729 22.0871 11.3483C23.0912 10.3454 24.0132 8.83621 24.9907 6.62449C26.4865 3.2404 28.4707 2.08224 29.1028 1.91723C29.3589 1.85036 29.5412 1.62383 29.5517 1.3593C29.5623 1.09477 29.3986 0.85447 29.1486 0.767442C28.7549 0.630423 27.4053 0.333879 24.8253 0.0644726C23.1329 -0.112259 20.9539 0.0640207 18.9386 0.72164C16.9292 1.37734 15.0013 2.53978 13.9325 4.39979C13.0866 5.872 12.8625 7.50683 12.9106 8.92478C12.9537 10.1937 13.2157 11.3255 13.4809 12.0766C12.9882 13.1921 12.6347 14.6019 12.3891 15.9081C12.3258 16.2447 12.2692 16.5771 12.2189 16.899C12.0453 16.5276 11.8456 16.1358 11.6182 15.7321C11.9783 15.1244 12.27 14.2473 12.2113 13.2336C12.139 11.9858 11.5394 10.5929 10.0123 9.28819C8.44355 7.94792 6.4793 7.56681 4.71988 7.60515C2.96082 7.64348 1.3385 8.10106 0.363822 8.52014C0.182736 8.59801 0.0513057 8.75967 0.0120527 8.95284C-0.0272003 9.14601 0.0307081 9.34615 0.167043 9.48852C0.689472 10.0341 1.91895 11.4514 2.65718 12.7362C3.62685 14.4238 5.03599 16.3418 7.26348 16.7295C8.59753 16.9616 9.86352 16.7157 10.6453 16.457C11.4166 17.8568 11.8124 19.0603 11.9329 19.6262C11.9953 19.9195 12.2643 20.1221 12.5635 20.1009C12.8627 20.0797 13.1005 19.8413 13.121 19.5421C13.1732 18.7792 13.3153 17.4907 13.5711 16.1304C13.7921 14.9552 14.0918 13.7602 14.4765 12.8099ZM10.8578 14.5036C10.5316 14.0227 10.1658 13.5358 9.75742 13.056C7.58209 10.5005 4.76888 9.60959 3.5632 9.48369C3.23288 9.4492 2.93714 9.68902 2.90264 10.0193C2.86815 10.3497 3.10797 10.6454 3.43829 10.6799C4.3803 10.7783 6.89336 11.5469 8.84159 13.8356C9.28065 14.3514 9.66757 14.8773 10.0062 15.3945C9.37076 15.5698 8.43498 15.7126 7.46969 15.5446C5.83134 15.2594 4.66325 13.8134 3.7 12.137C3.11662 11.1217 2.27438 10.0586 1.64361 9.32921C2.48341 9.0637 3.58369 8.8329 4.74608 8.80757C6.3317 8.77302 7.96482 9.12079 9.23104 10.2026C10.5389 11.32 10.9594 12.4195 11.0106 13.3032C11.0365 13.7505 10.9688 14.1585 10.8578 14.5036Z" fill="#9E035D"/>
<defs>
<linearGradient id="paint0_linear" x1="0" y1="0" x2="30.84" y2="2.22101" gradientUnits="userSpaceOnUse">
<stop stop-color="#AE2B88"/>
<stop offset="1" stop-color="#C54586"/>
</linearGradient>
</defs>
</svg>
