<svg width="31" height="21" viewBox="0 0 31 21" fill="none" xmlns="http://www.w3.org/2000/svg">
<path fill-rule="evenodd" clip-rule="evenodd" d="M15.4059 1.33469C16.2707 1.5056 17.4647 1.86945 18.6919 2.57628C19.94 3.29515 20.9748 4.41228 21.6626 5.33187C20.7315 5.17591 19.7221 5.08837 18.6314 5.08837C17.9827 5.08837 17.3291 5.15042 16.6754 5.26491C16.6289 4.69039 16.5257 3.9494 16.3176 3.32018C16.1293 2.75088 15.7532 1.98488 15.4059 1.33469ZM15.4887 5.52847C15.455 5.00648 15.3662 4.27376 15.1757 3.69781C14.9104 2.89554 14.1498 1.51755 13.7875 0.908954C13.6769 0.723113 13.6746 0.492178 13.7814 0.304159C13.8883 0.11614 14.088 0 14.3042 0C15.1273 0 17.1785 0.316729 19.2922 1.53407C21.2869 2.68294 22.7505 4.66269 23.3608 5.71206C27.4292 6.8664 29.6475 9.35927 30.3557 10.8889C30.4344 11.0587 30.4294 11.2555 30.3424 11.4212C28.9908 13.9944 26.4455 15.6492 23.5715 16.4399C23.3862 16.5639 23.1803 16.7035 22.9607 16.8524C21.9267 17.5534 20.5855 18.4627 19.6233 18.9477C18.8327 19.3461 17.8113 19.6316 16.9041 19.8175C15.9975 20.0034 15.1421 20.1024 14.6648 20.1024C14.4002 20.1024 14.1666 19.9293 14.0895 19.6762C14.0125 19.423 14.11 19.1491 14.3298 19.0017C14.7235 18.7375 15.3412 18.2625 15.8893 17.7142C16.2117 17.3916 16.4808 17.0722 16.6722 16.7773C14.169 16.3675 11.7735 15.3751 9.94201 13.7752C8.99591 12.9487 8.06724 12.1655 7.17893 11.4361C4.56692 13.5055 2.37451 15.7662 1.06368 17.3415C0.878868 17.5636 0.562227 17.6229 0.309597 17.4826C0.0569668 17.3424 -0.0602283 17.0423 0.0304928 16.768C0.382185 15.7046 1.08188 13.012 1.08188 10.7781C1.08188 8.55869 0.388819 6.61432 0.0627232 5.95697C-0.0584793 5.71265 -8.01086e-05 5.41735 0.204988 5.23756C0.410061 5.05776 0.710453 5.03848 0.936827 5.19059C1.98842 5.89721 4.34336 7.59321 7.19848 9.90084C9.72111 7.99848 12.6047 6.30019 15.4887 5.52847ZM6.22356 10.6597C4.5363 12.0139 3.0273 13.4375 1.81423 14.7053C2.07005 13.497 2.28458 12.0778 2.28458 10.7781C2.28458 9.46679 2.06688 8.24453 1.80429 7.27156C2.94851 8.10202 4.48558 9.26149 6.22356 10.6597ZM8.15851 10.6847C10.6964 8.80179 13.5151 7.20987 16.2426 6.57981C17.0547 6.39221 17.8537 6.29108 18.6314 6.29108C19.9176 6.29108 21.0736 6.42044 22.107 6.64007C21.7206 7.59541 21.2755 9.12478 21.2755 10.7781C21.2755 12.521 21.9228 14.3533 22.4403 15.477C20.888 15.8037 19.2348 15.8769 17.6172 15.6941C15.0128 15.3998 12.5393 14.447 10.7332 12.8694C9.85433 12.1016 8.99012 11.3706 8.15851 10.6847ZM20.6539 16.9445C20.0866 17.3103 19.5367 17.6445 19.082 17.8736C18.4307 18.2019 17.5298 18.4614 16.6647 18.6389C16.6898 18.6142 16.7149 18.5894 16.7399 18.5644C17.202 18.1022 17.6812 17.5348 17.9568 16.936C18.8543 17.0114 19.7597 17.0144 20.6539 16.9445ZM23.6259 15.1716C23.147 14.1842 22.4782 12.3986 22.4782 10.7781C22.4782 9.20906 22.9385 7.75013 23.2833 6.94283C26.6153 7.95748 28.4522 9.92221 29.1291 11.1308C27.998 13.0803 26.0049 14.441 23.6259 15.1716ZM17.2557 7.75163C17.19 7.42606 16.8729 7.21533 16.5473 7.28096C15.8923 7.413 14.2618 7.89483 12.749 8.80971C12.0304 9.24429 11.5234 9.55201 11.1663 9.78162C10.8193 10.0048 10.5694 10.1814 10.3975 10.3546C10.1636 10.5903 10.1651 10.9711 10.4009 11.205C10.6367 11.4389 11.0174 11.4374 11.2513 11.2016C11.3199 11.1325 11.4667 11.0184 11.8168 10.7933C12.1568 10.5746 12.6476 10.2766 13.3713 9.83885C14.7433 9.00914 16.238 8.57023 16.785 8.45995C17.1106 8.39432 17.3213 8.0772 17.2557 7.75163ZM24.7616 9.19872C25.0225 9.19872 25.2421 9.41318 25.2421 9.68774C25.2421 9.96229 25.0225 10.1767 24.7616 10.1767C24.5007 10.1767 24.2812 9.96229 24.2812 9.68774C24.2812 9.41318 24.5007 9.19872 24.7616 9.19872ZM26.4448 9.68774C26.4448 8.75791 25.6957 7.99602 24.7616 7.99602C23.8276 7.99602 23.0785 8.75791 23.0785 9.68774C23.0785 10.6176 23.8276 11.3795 24.7616 11.3795C25.6957 11.3795 26.4448 10.6176 26.4448 9.68774Z" fill="url(#paint0_linear)"/>
<path fill-rule="evenodd" clip-rule="evenodd" d="M15.4059 1.33469C16.2707 1.5056 17.4647 1.86945 18.6919 2.57628C19.94 3.29515 20.9748 4.41228 21.6626 5.33187C20.7315 5.17591 19.7221 5.08837 18.6314 5.08837C17.9827 5.08837 17.3291 5.15042 16.6754 5.26491C16.6289 4.69039 16.5257 3.9494 16.3176 3.32018C16.1293 2.75088 15.7532 1.98488 15.4059 1.33469ZM15.4887 5.52847C15.455 5.00648 15.3662 4.27376 15.1757 3.69781C14.9104 2.89554 14.1498 1.51755 13.7875 0.908954C13.6769 0.723113 13.6746 0.492178 13.7814 0.304159C13.8883 0.11614 14.088 0 14.3042 0C15.1273 0 17.1785 0.316729 19.2922 1.53407C21.2869 2.68294 22.7505 4.66269 23.3608 5.71206C27.4292 6.8664 29.6475 9.35927 30.3557 10.8889C30.4344 11.0587 30.4294 11.2555 30.3424 11.4212C28.9908 13.9944 26.4455 15.6492 23.5715 16.4399C23.3862 16.5639 23.1803 16.7035 22.9607 16.8524C21.9267 17.5534 20.5855 18.4627 19.6233 18.9477C18.8327 19.3461 17.8113 19.6316 16.9041 19.8175C15.9975 20.0034 15.1421 20.1024 14.6648 20.1024C14.4002 20.1024 14.1666 19.9293 14.0895 19.6762C14.0125 19.423 14.11 19.1491 14.3298 19.0017C14.7235 18.7375 15.3412 18.2625 15.8893 17.7142C16.2117 17.3916 16.4808 17.0722 16.6722 16.7773C14.169 16.3675 11.7735 15.3751 9.94201 13.7752C8.99591 12.9487 8.06724 12.1655 7.17893 11.4361C4.56692 13.5055 2.37451 15.7662 1.06368 17.3415C0.878868 17.5636 0.562227 17.6229 0.309597 17.4826C0.0569668 17.3424 -0.0602283 17.0423 0.0304928 16.768C0.382185 15.7046 1.08188 13.012 1.08188 10.7781C1.08188 8.55869 0.388819 6.61432 0.0627232 5.95697C-0.0584793 5.71265 -8.01086e-05 5.41735 0.204988 5.23756C0.410061 5.05776 0.710453 5.03848 0.936827 5.19059C1.98842 5.89721 4.34336 7.59321 7.19848 9.90084C9.72111 7.99848 12.6047 6.30019 15.4887 5.52847ZM6.22356 10.6597C4.5363 12.0139 3.0273 13.4375 1.81423 14.7053C2.07005 13.497 2.28458 12.0778 2.28458 10.7781C2.28458 9.46679 2.06688 8.24453 1.80429 7.27156C2.94851 8.10202 4.48558 9.26149 6.22356 10.6597ZM8.15851 10.6847C10.6964 8.80179 13.5151 7.20987 16.2426 6.57981C17.0547 6.39221 17.8537 6.29108 18.6314 6.29108C19.9176 6.29108 21.0736 6.42044 22.107 6.64007C21.7206 7.59541 21.2755 9.12478 21.2755 10.7781C21.2755 12.521 21.9228 14.3533 22.4403 15.477C20.888 15.8037 19.2348 15.8769 17.6172 15.6941C15.0128 15.3998 12.5393 14.447 10.7332 12.8694C9.85433 12.1016 8.99012 11.3706 8.15851 10.6847ZM20.6539 16.9445C20.0866 17.3103 19.5367 17.6445 19.082 17.8736C18.4307 18.2019 17.5298 18.4614 16.6647 18.6389C16.6898 18.6142 16.7149 18.5894 16.7399 18.5644C17.202 18.1022 17.6812 17.5348 17.9568 16.936C18.8543 17.0114 19.7597 17.0144 20.6539 16.9445ZM23.6259 15.1716C23.147 14.1842 22.4782 12.3986 22.4782 10.7781C22.4782 9.20906 22.9385 7.75013 23.2833 6.94283C26.6153 7.95748 28.4522 9.92221 29.1291 11.1308C27.998 13.0803 26.0049 14.441 23.6259 15.1716ZM17.2557 7.75163C17.19 7.42606 16.8729 7.21533 16.5473 7.28096C15.8923 7.413 14.2618 7.89483 12.749 8.80971C12.0304 9.24429 11.5234 9.55201 11.1663 9.78162C10.8193 10.0048 10.5694 10.1814 10.3975 10.3546C10.1636 10.5903 10.1651 10.9711 10.4009 11.205C10.6367 11.4389 11.0174 11.4374 11.2513 11.2016C11.3199 11.1325 11.4667 11.0184 11.8168 10.7933C12.1568 10.5746 12.6476 10.2766 13.3713 9.83885C14.7433 9.00914 16.238 8.57023 16.785 8.45995C17.1106 8.39432 17.3213 8.0772 17.2557 7.75163ZM24.7616 9.19872C25.0225 9.19872 25.2421 9.41318 25.2421 9.68774C25.2421 9.96229 25.0225 10.1767 24.7616 10.1767C24.5007 10.1767 24.2812 9.96229 24.2812 9.68774C24.2812 9.41318 24.5007 9.19872 24.7616 9.19872ZM26.4448 9.68774C26.4448 8.75791 25.6957 7.99602 24.7616 7.99602C23.8276 7.99602 23.0785 8.75791 23.0785 9.68774C23.0785 10.6176 23.8276 11.3795 24.7616 11.3795C25.6957 11.3795 26.4448 10.6176 26.4448 9.68774Z" fill="#9E035D"/>
<defs>
<linearGradient id="paint0_linear" x1="30.4114" y1="0" x2="-1.31554" y2="2.35131" gradientUnits="userSpaceOnUse">
<stop stop-color="#AE2B88"/>
<stop offset="1" stop-color="#C54586"/>
</linearGradient>
</defs>
</svg>
