<svg width="27" height="26" viewBox="0 0 27 26" fill="none" xmlns="http://www.w3.org/2000/svg">
<path fill-rule="evenodd" clip-rule="evenodd" d="M2.33933 0.57532C2.37457 0.248074 2.6508 0 2.97994 0H9.59751C9.84275 0 10.0667 0.139223 10.1753 0.359134C10.2947 0.601193 11.1638 1.57732 13.4902 1.57732C15.8313 1.57732 16.3392 0.606928 16.3681 0.489929C16.4391 0.202185 16.6972 0 16.9936 0H23.2219C23.555 0 23.8332 0.253926 23.8636 0.585659L25.8099 21.8795C25.8423 22.2338 25.5813 22.5474 25.2269 22.5798C24.8725 22.6122 24.559 22.3511 24.5266 21.9968L24.3279 19.8221H7.26189C6.90605 19.8221 6.61759 19.5337 6.61759 19.1778C6.61759 18.822 6.90605 18.5335 7.26189 18.5335H24.2101L22.6338 1.28861H17.4092C16.9184 2.08735 15.6802 2.86593 13.4902 2.86593C11.2103 2.86593 9.84514 2.03573 9.25139 1.28861H3.67848L5.52056 24.0541H25.5575C25.9134 24.0541 26.2018 24.3426 26.2018 24.6984C26.2018 25.0543 25.9134 25.3427 25.5575 25.3427H4.92628C4.81729 25.3427 4.71007 25.3151 4.61467 25.2624L0.332716 22.8964C0.105611 22.7709 -0.024063 22.5214 0.00371866 22.2635L2.33933 0.57532ZM4.18726 23.554L2.88886 7.50753L1.33078 21.9756L4.18726 23.554ZM8.9532 6.95359C8.9532 5.32516 10.5062 3.54897 13.4902 3.54897C14.9773 3.54897 16.1857 3.98002 17.0372 4.6126C17.869 5.23051 18.4165 6.09198 18.4165 6.95359C18.4165 8.1503 17.7541 8.86794 17.2847 9.10569C17.1945 9.1514 17.0948 9.17521 16.9936 9.17521H10.7653C10.6952 9.17521 10.6256 9.16378 10.5592 9.14135C10.0502 8.96948 8.9532 8.30139 8.9532 6.95359ZM13.4902 4.83758C11.0244 4.83758 10.2418 6.21603 10.2418 6.95359C10.2418 7.23356 10.3522 7.4436 10.5056 7.60726C10.6327 7.7429 10.7805 7.83552 10.8889 7.8866H16.7898C16.8342 7.84383 16.8852 7.78425 16.9338 7.70645C17.0333 7.54715 17.1278 7.30362 17.1278 6.95359C17.1278 6.63221 16.8968 6.11352 16.2688 5.64702C15.6606 5.19519 14.728 4.83758 13.4902 4.83758Z" fill="url(#paint0_linear)"/>
<path fill-rule="evenodd" clip-rule="evenodd" d="M2.33933 0.57532C2.37457 0.248074 2.6508 0 2.97994 0H9.59751C9.84275 0 10.0667 0.139223 10.1753 0.359134C10.2947 0.601193 11.1638 1.57732 13.4902 1.57732C15.8313 1.57732 16.3392 0.606928 16.3681 0.489929C16.4391 0.202185 16.6972 0 16.9936 0H23.2219C23.555 0 23.8332 0.253926 23.8636 0.585659L25.8099 21.8795C25.8423 22.2338 25.5813 22.5474 25.2269 22.5798C24.8725 22.6122 24.559 22.3511 24.5266 21.9968L24.3279 19.8221H7.26189C6.90605 19.8221 6.61759 19.5337 6.61759 19.1778C6.61759 18.822 6.90605 18.5335 7.26189 18.5335H24.2101L22.6338 1.28861H17.4092C16.9184 2.08735 15.6802 2.86593 13.4902 2.86593C11.2103 2.86593 9.84514 2.03573 9.25139 1.28861H3.67848L5.52056 24.0541H25.5575C25.9134 24.0541 26.2018 24.3426 26.2018 24.6984C26.2018 25.0543 25.9134 25.3427 25.5575 25.3427H4.92628C4.81729 25.3427 4.71007 25.3151 4.61467 25.2624L0.332716 22.8964C0.105611 22.7709 -0.024063 22.5214 0.00371866 22.2635L2.33933 0.57532ZM4.18726 23.554L2.88886 7.50753L1.33078 21.9756L4.18726 23.554ZM8.9532 6.95359C8.9532 5.32516 10.5062 3.54897 13.4902 3.54897C14.9773 3.54897 16.1857 3.98002 17.0372 4.6126C17.869 5.23051 18.4165 6.09198 18.4165 6.95359C18.4165 8.1503 17.7541 8.86794 17.2847 9.10569C17.1945 9.1514 17.0948 9.17521 16.9936 9.17521H10.7653C10.6952 9.17521 10.6256 9.16378 10.5592 9.14135C10.0502 8.96948 8.9532 8.30139 8.9532 6.95359ZM13.4902 4.83758C11.0244 4.83758 10.2418 6.21603 10.2418 6.95359C10.2418 7.23356 10.3522 7.4436 10.5056 7.60726C10.6327 7.7429 10.7805 7.83552 10.8889 7.8866H16.7898C16.8342 7.84383 16.8852 7.78425 16.9338 7.70645C17.0333 7.54715 17.1278 7.30362 17.1278 6.95359C17.1278 6.63221 16.8968 6.11352 16.2688 5.64702C15.6606 5.19519 14.728 4.83758 13.4902 4.83758Z" fill="#9E035D"/>
<defs>
<linearGradient id="paint0_linear" x1="0" y1="0" x2="27.4151" y2="1.38855" gradientUnits="userSpaceOnUse">
<stop stop-color="#AE2B88"/>
<stop offset="1" stop-color="#C54586"/>
</linearGradient>
</defs>
</svg>
