<svg width="28" height="28" viewBox="0 0 28 28" fill="none" xmlns="http://www.w3.org/2000/svg">
<path fill-rule="evenodd" clip-rule="evenodd" d="M16.9398 0.516165C17.4479 0.191982 18.2175 0 19.3449 0C20.4768 0 21.2805 0.193693 21.8192 0.498667C22.3092 0.776061 22.7082 1.24029 22.6608 1.78579V3.49033C22.6608 3.60041 22.6331 3.70405 22.5845 3.79469H26.4166C26.7724 3.79469 27.0609 4.08316 27.0609 4.439V26.4166C27.0609 26.7724 26.7724 27.0609 26.4166 27.0609H0.644307C0.288466 27.0609 0 26.7724 0 26.4166V17.8785C0 17.7678 0.0285575 17.6589 0.0829155 17.5624L2.67152 12.9662V11.554C2.67152 11.3838 2.73886 11.2206 2.85884 11.0998C3.01979 10.9379 3.25539 10.8161 3.49767 10.7202C3.7593 10.6167 4.09899 10.5167 4.52561 10.4289C5.35077 10.259 6.53377 10.1282 8.1717 10.1196V4.439C8.1717 4.08316 8.46017 3.79469 8.81601 3.79469H16.2625C16.2139 3.70405 16.1863 3.60041 16.1863 3.49033V1.75109C16.1863 1.33206 16.4054 0.857047 16.9398 0.516165ZM16.6577 5.08331H9.46031V10.1393C10.6925 10.1857 11.6141 10.3073 12.2835 10.4544C12.6731 10.54 12.9858 10.636 13.2288 10.7352C13.454 10.8273 13.6758 10.9444 13.8303 11.0998C13.9503 11.2206 14.0176 11.3838 14.0176 11.554V12.9502L14.7079 14.0533V12.3624C14.6753 11.7386 14.7858 10.2681 15.4678 8.89563C15.8648 8.09686 16.1661 7.48952 16.3709 6.9839C16.5759 6.47751 16.6577 6.13388 16.6577 5.86201V5.08331ZM15.9965 16.1124L16.591 17.0624C16.6571 17.1681 16.6912 17.2907 16.689 17.4154L16.6219 21.2661H22.3725L22.4596 13.4633H15.9965V16.1124ZM15.9914 12.1746H22.4832C22.5096 11.6663 22.4332 10.52 21.9109 9.4691C21.2362 8.11132 20.9604 6.5516 20.9033 5.91999C20.9016 5.90071 20.9007 5.88137 20.9007 5.86201V4.13463H17.9463V5.86201C17.9463 6.3807 17.7924 6.90668 17.5653 7.46755C17.3399 8.02413 17.0165 8.67491 16.6323 9.44799L16.6218 9.4691C16.1031 10.5129 15.9876 11.649 15.9914 12.1746ZM17.4749 2.84602H21.3721V1.76058C21.3497 1.73346 21.2973 1.68398 21.1844 1.62004C20.9085 1.46385 20.3502 1.28861 19.3449 1.28861C18.3351 1.28861 17.8475 1.46556 17.6328 1.60254C17.5136 1.67861 17.482 1.73793 17.4749 1.75857V2.84602ZM17.4731 1.76646C17.4729 1.76637 17.4731 1.76401 17.4745 1.75962C17.4741 1.76435 17.4734 1.76654 17.4731 1.76646ZM21.3871 1.78373C21.3868 1.78383 21.385 1.781 21.3828 1.77497C21.3864 1.78062 21.3875 1.78364 21.3871 1.78373ZM22.1893 5.08331V5.83178C22.2429 6.3793 22.4924 7.7436 23.0649 8.89563C23.7484 10.271 23.817 11.7433 23.7605 12.3783L23.6109 25.7723H25.7723V5.08331H22.1893ZM22.3222 25.7723L22.3581 22.5547H16.5994L16.5433 25.7723H22.3222ZM15.2545 25.7723L15.3973 17.584L13.4025 14.3963L11.3461 18.0475V25.7723H15.2545ZM10.0575 25.7723V18.5228H1.28861V25.7723H10.0575ZM1.74666 17.2342H10.3252L12.271 13.7795H3.69241L1.74666 17.2342ZM3.96013 12.4909H12.729V11.9231C12.5708 11.8595 12.3356 11.7852 12.0071 11.713C11.3334 11.565 10.3013 11.4338 8.80627 11.4112C8.65696 11.409 8.50309 11.4078 8.34456 11.4078C6.67809 11.4078 5.5318 11.5374 4.78541 11.691C4.41189 11.7679 4.14721 11.849 3.97177 11.9185C3.96783 11.92 3.96395 11.9216 3.96013 11.9231V12.4909ZM10.2146 6.33635C10.2146 5.9805 10.5031 5.69204 10.8589 5.69204H13.2162C13.572 5.69204 13.8605 5.9805 13.8605 6.33635C13.8605 6.5715 13.7345 6.77724 13.5463 6.88974C13.7345 7.00224 13.8605 7.20797 13.8605 7.44313C13.8605 7.79897 13.572 8.08744 13.2162 8.08744H10.8589C10.5031 8.08744 10.2146 7.79897 10.2146 7.44313C10.2146 7.20797 10.3406 7.00224 10.5288 6.88974C10.3406 6.77724 10.2146 6.5715 10.2146 6.33635Z" fill="url(#paint0_linear)"/>
<path fill-rule="evenodd" clip-rule="evenodd" d="M16.9398 0.516165C17.4479 0.191982 18.2175 0 19.3449 0C20.4768 0 21.2805 0.193693 21.8192 0.498667C22.3092 0.776061 22.7082 1.24029 22.6608 1.78579V3.49033C22.6608 3.60041 22.6331 3.70405 22.5845 3.79469H26.4166C26.7724 3.79469 27.0609 4.08316 27.0609 4.439V26.4166C27.0609 26.7724 26.7724 27.0609 26.4166 27.0609H0.644307C0.288466 27.0609 0 26.7724 0 26.4166V17.8785C0 17.7678 0.0285575 17.6589 0.0829155 17.5624L2.67152 12.9662V11.554C2.67152 11.3838 2.73886 11.2206 2.85884 11.0998C3.01979 10.9379 3.25539 10.8161 3.49767 10.7202C3.7593 10.6167 4.09899 10.5167 4.52561 10.4289C5.35077 10.259 6.53377 10.1282 8.1717 10.1196V4.439C8.1717 4.08316 8.46017 3.79469 8.81601 3.79469H16.2625C16.2139 3.70405 16.1863 3.60041 16.1863 3.49033V1.75109C16.1863 1.33206 16.4054 0.857047 16.9398 0.516165ZM16.6577 5.08331H9.46031V10.1393C10.6925 10.1857 11.6141 10.3073 12.2835 10.4544C12.6731 10.54 12.9858 10.636 13.2288 10.7352C13.454 10.8273 13.6758 10.9444 13.8303 11.0998C13.9503 11.2206 14.0176 11.3838 14.0176 11.554V12.9502L14.7079 14.0533V12.3624C14.6753 11.7386 14.7858 10.2681 15.4678 8.89563C15.8648 8.09686 16.1661 7.48952 16.3709 6.9839C16.5759 6.47751 16.6577 6.13388 16.6577 5.86201V5.08331ZM15.9965 16.1124L16.591 17.0624C16.6571 17.1681 16.6912 17.2907 16.689 17.4154L16.6219 21.2661H22.3725L22.4596 13.4633H15.9965V16.1124ZM15.9914 12.1746H22.4832C22.5096 11.6663 22.4332 10.52 21.9109 9.4691C21.2362 8.11132 20.9604 6.5516 20.9033 5.91999C20.9016 5.90071 20.9007 5.88137 20.9007 5.86201V4.13463H17.9463V5.86201C17.9463 6.3807 17.7924 6.90668 17.5653 7.46755C17.3399 8.02413 17.0165 8.67491 16.6323 9.44799L16.6218 9.4691C16.1031 10.5129 15.9876 11.649 15.9914 12.1746ZM17.4749 2.84602H21.3721V1.76058C21.3497 1.73346 21.2973 1.68398 21.1844 1.62004C20.9085 1.46385 20.3502 1.28861 19.3449 1.28861C18.3351 1.28861 17.8475 1.46556 17.6328 1.60254C17.5136 1.67861 17.482 1.73793 17.4749 1.75857V2.84602ZM17.4731 1.76646C17.4729 1.76637 17.4731 1.76401 17.4745 1.75962C17.4741 1.76435 17.4734 1.76654 17.4731 1.76646ZM21.3871 1.78373C21.3868 1.78383 21.385 1.781 21.3828 1.77497C21.3864 1.78062 21.3875 1.78364 21.3871 1.78373ZM22.1893 5.08331V5.83178C22.2429 6.3793 22.4924 7.7436 23.0649 8.89563C23.7484 10.271 23.817 11.7433 23.7605 12.3783L23.6109 25.7723H25.7723V5.08331H22.1893ZM22.3222 25.7723L22.3581 22.5547H16.5994L16.5433 25.7723H22.3222ZM15.2545 25.7723L15.3973 17.584L13.4025 14.3963L11.3461 18.0475V25.7723H15.2545ZM10.0575 25.7723V18.5228H1.28861V25.7723H10.0575ZM1.74666 17.2342H10.3252L12.271 13.7795H3.69241L1.74666 17.2342ZM3.96013 12.4909H12.729V11.9231C12.5708 11.8595 12.3356 11.7852 12.0071 11.713C11.3334 11.565 10.3013 11.4338 8.80627 11.4112C8.65696 11.409 8.50309 11.4078 8.34456 11.4078C6.67809 11.4078 5.5318 11.5374 4.78541 11.691C4.41189 11.7679 4.14721 11.849 3.97177 11.9185C3.96783 11.92 3.96395 11.9216 3.96013 11.9231V12.4909ZM10.2146 6.33635C10.2146 5.9805 10.5031 5.69204 10.8589 5.69204H13.2162C13.572 5.69204 13.8605 5.9805 13.8605 6.33635C13.8605 6.5715 13.7345 6.77724 13.5463 6.88974C13.7345 7.00224 13.8605 7.20797 13.8605 7.44313C13.8605 7.79897 13.572 8.08744 13.2162 8.08744H10.8589C10.5031 8.08744 10.2146 7.79897 10.2146 7.44313C10.2146 7.20797 10.3406 7.00224 10.5288 6.88974C10.3406 6.77724 10.2146 6.5715 10.2146 6.33635Z" fill="#9E035D"/>
<defs>
<linearGradient id="paint0_linear" x1="0" y1="0" x2="28.3186" y2="1.38728" gradientUnits="userSpaceOnUse">
<stop stop-color="#AE2B88"/>
<stop offset="1" stop-color="#C54586"/>
</linearGradient>
</defs>
</svg>
