<svg width="17" height="25" viewBox="0 0 17 25" fill="none" xmlns="http://www.w3.org/2000/svg">
<path fill-rule="evenodd" clip-rule="evenodd" d="M8.33304 0C8.51241 0 8.68242 0.080073 8.79666 0.218363C10.1043 1.80134 12.0586 4.47574 13.6895 7.3771C15.306 10.2528 16.6661 13.4562 16.6661 16.0647C16.6661 19.2829 15.4758 21.401 13.7856 22.6968C12.1225 23.9718 10.046 24.3978 8.33304 24.3978C6.62003 24.3978 4.54353 23.9718 2.88052 22.6968C1.19032 21.401 0 19.2829 0 16.0647C0 13.4562 1.36003 10.2528 2.97653 7.3771C4.60747 4.47574 6.56174 1.80134 7.86942 0.218363C7.98366 0.0800731 8.15367 0 8.33304 0ZM4.02494 7.96645C2.4199 10.8217 1.20271 13.7901 1.20271 16.0647C1.20271 18.9505 2.25051 20.6983 3.61229 21.7423C5.00126 22.8072 6.7906 23.1951 8.33304 23.1951C9.87547 23.1951 11.6648 22.8072 13.0538 21.7423C14.4156 20.6983 15.4634 18.9505 15.4634 16.0647C15.4634 13.7901 14.2462 10.8217 12.6411 7.96645C11.2341 5.46336 9.57583 3.12764 8.33304 1.55808C7.09025 3.12764 5.43201 5.46336 4.02494 7.96645ZM12.2844 14.6612C12.6101 14.5961 12.9269 14.8073 12.992 15.1329C13.072 15.5327 13.1183 16.1593 13.0043 16.7919C12.8912 17.4202 12.6009 18.1472 11.9221 18.5997C10.7571 19.3764 9.49704 19.2569 8.95674 19.0768C8.64166 18.9718 8.47138 18.6312 8.57641 18.3161C8.68143 18.0011 9.02199 17.8308 9.33706 17.9358C9.61063 18.027 10.4666 18.1246 11.2549 17.599C11.5527 17.4005 11.7372 17.0423 11.8207 16.5787C11.9034 16.1194 11.8684 15.6472 11.8127 15.3688C11.7475 15.0431 11.9587 14.7263 12.2844 14.6612Z" fill="url(#paint0_linear)"/>
<path fill-rule="evenodd" clip-rule="evenodd" d="M8.33304 0C8.51241 0 8.68242 0.080073 8.79666 0.218363C10.1043 1.80134 12.0586 4.47574 13.6895 7.3771C15.306 10.2528 16.6661 13.4562 16.6661 16.0647C16.6661 19.2829 15.4758 21.401 13.7856 22.6968C12.1225 23.9718 10.046 24.3978 8.33304 24.3978C6.62003 24.3978 4.54353 23.9718 2.88052 22.6968C1.19032 21.401 0 19.2829 0 16.0647C0 13.4562 1.36003 10.2528 2.97653 7.3771C4.60747 4.47574 6.56174 1.80134 7.86942 0.218363C7.98366 0.0800731 8.15367 0 8.33304 0ZM4.02494 7.96645C2.4199 10.8217 1.20271 13.7901 1.20271 16.0647C1.20271 18.9505 2.25051 20.6983 3.61229 21.7423C5.00126 22.8072 6.7906 23.1951 8.33304 23.1951C9.87547 23.1951 11.6648 22.8072 13.0538 21.7423C14.4156 20.6983 15.4634 18.9505 15.4634 16.0647C15.4634 13.7901 14.2462 10.8217 12.6411 7.96645C11.2341 5.46336 9.57583 3.12764 8.33304 1.55808C7.09025 3.12764 5.43201 5.46336 4.02494 7.96645ZM12.2844 14.6612C12.6101 14.5961 12.9269 14.8073 12.992 15.1329C13.072 15.5327 13.1183 16.1593 13.0043 16.7919C12.8912 17.4202 12.6009 18.1472 11.9221 18.5997C10.7571 19.3764 9.49704 19.2569 8.95674 19.0768C8.64166 18.9718 8.47138 18.6312 8.57641 18.3161C8.68143 18.0011 9.02199 17.8308 9.33706 17.9358C9.61063 18.027 10.4666 18.1246 11.2549 17.599C11.5527 17.4005 11.7372 17.0423 11.8207 16.5787C11.9034 16.1194 11.8684 15.6472 11.8127 15.3688C11.7475 15.0431 11.9587 14.7263 12.2844 14.6612Z" fill="#9E035D"/>
<defs>
<linearGradient id="paint0_linear" x1="0" y1="0" x2="17.463" y2="0.58438" gradientUnits="userSpaceOnUse">
<stop stop-color="#AE2B88"/>
<stop offset="1" stop-color="#C54586"/>
</linearGradient>
</defs>
</svg>
