<svg width="25" height="28" viewBox="0 0 25 28" fill="none" xmlns="http://www.w3.org/2000/svg">
<path fill-rule="evenodd" clip-rule="evenodd" d="M0 0.644307C0 0.288466 0.288466 0 0.644307 0H23.8394C24.1952 0 24.4837 0.288466 24.4837 0.644307V3.82794C24.4837 4.13927 24.2629 4.39903 23.9693 4.45914L22.7624 16.6009C22.7272 16.955 22.4116 17.2136 22.0575 17.1784C21.7034 17.1432 21.4449 16.8276 21.4801 16.4735L22.673 4.47225H19.9735C19.6177 4.47225 19.3292 4.18378 19.3292 3.82794C19.3292 3.4721 19.6177 3.18364 19.9735 3.18364H23.1951V1.28861H1.28861V3.18364H11.5596C11.9155 3.18364 12.2039 3.4721 12.2039 3.82794C12.2039 4.18378 11.9155 4.47225 11.5596 4.47225H1.83724L4.39035 23.1951H9.2856C9.64144 23.1951 9.92991 23.4835 9.92991 23.8394C9.92991 24.1952 9.64144 24.4837 9.2856 24.4837H3.82794C3.50574 24.4837 3.23308 24.2457 3.18954 23.9264L0.535454 4.46309C0.23145 4.41137 0 4.14668 0 3.82794V0.644307Z" fill="url(#paint0_linear)"/>
<path fill-rule="evenodd" clip-rule="evenodd" d="M0 0.644307C0 0.288466 0.288466 0 0.644307 0H23.8394C24.1952 0 24.4837 0.288466 24.4837 0.644307V3.82794C24.4837 4.13927 24.2629 4.39903 23.9693 4.45914L22.7624 16.6009C22.7272 16.955 22.4116 17.2136 22.0575 17.1784C21.7034 17.1432 21.4449 16.8276 21.4801 16.4735L22.673 4.47225H19.9735C19.6177 4.47225 19.3292 4.18378 19.3292 3.82794C19.3292 3.4721 19.6177 3.18364 19.9735 3.18364H23.1951V1.28861H1.28861V3.18364H11.5596C11.9155 3.18364 12.2039 3.4721 12.2039 3.82794C12.2039 4.18378 11.9155 4.47225 11.5596 4.47225H1.83724L4.39035 23.1951H9.2856C9.64144 23.1951 9.92991 23.4835 9.92991 23.8394C9.92991 24.1952 9.64144 24.4837 9.2856 24.4837H3.82794C3.50574 24.4837 3.23308 24.2457 3.18954 23.9264L0.535454 4.46309C0.23145 4.41137 0 4.14668 0 3.82794V0.644307Z" fill="#9E035D"/>
<path fill-rule="evenodd" clip-rule="evenodd" d="M1.43234 3.44028C1.78601 3.40098 2.10457 3.65583 2.14386 4.00949C2.21401 4.6408 2.42918 5.70036 2.84339 6.77012C3.26144 7.84977 3.85357 8.86499 4.63482 9.48999C6.3093 10.8296 8.42735 11.168 9.23518 11.168C9.59102 11.168 9.87949 11.4565 9.87949 11.8123C9.87949 12.1682 9.59102 12.4566 9.23518 12.4566C8.22379 12.4566 5.79379 12.0674 3.82983 10.4962C2.79186 9.66585 2.09538 8.40705 1.64171 7.23541C1.18422 6.05389 0.944585 4.8849 0.863128 4.1518C0.823832 3.79813 1.07868 3.47957 1.43234 3.44028Z" fill="url(#paint1_linear)"/>
<path fill-rule="evenodd" clip-rule="evenodd" d="M1.43234 3.44028C1.78601 3.40098 2.10457 3.65583 2.14386 4.00949C2.21401 4.6408 2.42918 5.70036 2.84339 6.77012C3.26144 7.84977 3.85357 8.86499 4.63482 9.48999C6.3093 10.8296 8.42735 11.168 9.23518 11.168C9.59102 11.168 9.87949 11.4565 9.87949 11.8123C9.87949 12.1682 9.59102 12.4566 9.23518 12.4566C8.22379 12.4566 5.79379 12.0674 3.82983 10.4962C2.79186 9.66585 2.09538 8.40705 1.64171 7.23541C1.18422 6.05389 0.944585 4.8849 0.863128 4.1518C0.823832 3.79813 1.07868 3.47957 1.43234 3.44028Z" fill="#9E035D"/>
<path fill-rule="evenodd" clip-rule="evenodd" d="M13.8845 4.01326C13.919 3.68534 14.1955 3.4364 14.5253 3.4364H16.3339C16.6897 3.4364 16.9782 3.72487 16.9782 4.08071C16.9782 4.43655 16.6897 4.72502 16.3339 4.72502H15.1053L14.7139 8.44354C14.6904 8.66681 14.5524 8.86175 14.3496 8.95808C14.0529 9.09897 13.4419 9.43495 13.1605 9.70229L12.4567 10.3708V13.2539L13.1605 13.9225C13.3007 14.0558 13.3737 14.245 13.3592 14.4379L12.507 25.7724H16.3339C16.6897 25.7724 16.9782 26.0608 16.9782 26.4167C16.9782 26.7725 16.6897 27.061 16.3339 27.061H11.8124C11.6331 27.061 11.462 26.9863 11.34 26.8549C11.2181 26.7234 11.1565 26.5471 11.1699 26.3684L12.0513 14.6462L11.3686 13.9977C11.2406 13.876 11.1681 13.7072 11.1681 13.5305V10.0942C11.1681 9.91763 11.2406 9.74876 11.3686 9.62712L12.2729 8.76804C12.5977 8.45948 13.1026 8.15707 13.469 7.96065L13.8845 4.01326Z" fill="url(#paint2_linear)"/>
<path fill-rule="evenodd" clip-rule="evenodd" d="M13.8845 4.01326C13.919 3.68534 14.1955 3.4364 14.5253 3.4364H16.3339C16.6897 3.4364 16.9782 3.72487 16.9782 4.08071C16.9782 4.43655 16.6897 4.72502 16.3339 4.72502H15.1053L14.7139 8.44354C14.6904 8.66681 14.5524 8.86175 14.3496 8.95808C14.0529 9.09897 13.4419 9.43495 13.1605 9.70229L12.4567 10.3708V13.2539L13.1605 13.9225C13.3007 14.0558 13.3737 14.245 13.3592 14.4379L12.507 25.7724H16.3339C16.6897 25.7724 16.9782 26.0608 16.9782 26.4167C16.9782 26.7725 16.6897 27.061 16.3339 27.061H11.8124C11.6331 27.061 11.462 26.9863 11.34 26.8549C11.2181 26.7234 11.1565 26.5471 11.1699 26.3684L12.0513 14.6462L11.3686 13.9977C11.2406 13.876 11.1681 13.7072 11.1681 13.5305V10.0942C11.1681 9.91763 11.2406 9.74876 11.3686 9.62712L12.2729 8.76804C12.5977 8.45948 13.1026 8.15707 13.469 7.96065L13.8845 4.01326Z" fill="#9E035D"/>
<path fill-rule="evenodd" clip-rule="evenodd" d="M18.3312 4.01314C18.2967 3.68522 18.0202 3.43628 17.6904 3.43628H15.8818C15.526 3.43628 15.2375 3.72475 15.2375 4.08059C15.2375 4.43643 15.526 4.72489 15.8818 4.72489H17.1104L17.5018 8.44342C17.5253 8.66669 17.6633 8.86163 17.8661 8.95796C18.1628 9.09885 18.7738 9.43483 19.0552 9.70217L19.759 10.3707V13.2538L19.0552 13.9224C18.915 14.0556 18.842 14.2449 18.8565 14.4378L19.5993 24.3172C19.626 24.672 19.9353 24.938 20.2901 24.9114C20.645 24.8847 20.911 24.5754 20.8843 24.2206L20.1644 14.6461L20.8471 13.9975C20.9751 13.8759 21.0476 13.707 21.0476 13.5304V10.0941C21.0476 9.91751 20.9751 9.74864 20.8471 9.627L19.9428 8.76792C19.618 8.45936 19.1131 8.15694 18.7467 7.96053L18.3312 4.01314ZM21.0476 26.4166C21.0476 26.0607 20.7591 25.7723 20.4033 25.7723H15.8818C15.526 25.7723 15.2375 26.0607 15.2375 26.4166C15.2375 26.7724 15.526 27.0609 15.8818 27.0609H20.4033C20.7591 27.0609 21.0476 26.7724 21.0476 26.4166Z" fill="url(#paint3_linear)"/>
<path fill-rule="evenodd" clip-rule="evenodd" d="M18.3312 4.01314C18.2967 3.68522 18.0202 3.43628 17.6904 3.43628H15.8818C15.526 3.43628 15.2375 3.72475 15.2375 4.08059C15.2375 4.43643 15.526 4.72489 15.8818 4.72489H17.1104L17.5018 8.44342C17.5253 8.66669 17.6633 8.86163 17.8661 8.95796C18.1628 9.09885 18.7738 9.43483 19.0552 9.70217L19.759 10.3707V13.2538L19.0552 13.9224C18.915 14.0556 18.842 14.2449 18.8565 14.4378L19.5993 24.3172C19.626 24.672 19.9353 24.938 20.2901 24.9114C20.645 24.8847 20.911 24.5754 20.8843 24.2206L20.1644 14.6461L20.8471 13.9975C20.9751 13.8759 21.0476 13.707 21.0476 13.5304V10.0941C21.0476 9.91751 20.9751 9.74864 20.8471 9.627L19.9428 8.76792C19.618 8.45936 19.1131 8.15694 18.7467 7.96053L18.3312 4.01314ZM21.0476 26.4166C21.0476 26.0607 20.7591 25.7723 20.4033 25.7723H15.8818C15.526 25.7723 15.2375 26.0607 15.2375 26.4166C15.2375 26.7724 15.526 27.0609 15.8818 27.0609H20.4033C20.7591 27.0609 21.0476 26.7724 21.0476 26.4166Z" fill="#9E035D"/>
<path fill-rule="evenodd" clip-rule="evenodd" d="M13.4287 8.376C13.4287 8.02016 13.7172 7.73169 14.073 7.73169H16.3337C16.6896 7.73169 16.9781 8.02016 16.9781 8.376C16.9781 8.73184 16.6896 9.0203 16.3337 9.0203H14.073C13.7172 9.0203 13.4287 8.73184 13.4287 8.376Z" fill="url(#paint4_linear)"/>
<path fill-rule="evenodd" clip-rule="evenodd" d="M13.4287 8.376C13.4287 8.02016 13.7172 7.73169 14.073 7.73169H16.3337C16.6896 7.73169 16.9781 8.02016 16.9781 8.376C16.9781 8.73184 16.6896 9.0203 16.3337 9.0203H14.073C13.7172 9.0203 13.4287 8.73184 13.4287 8.376Z" fill="#9E035D"/>
<path fill-rule="evenodd" clip-rule="evenodd" d="M18.787 8.376C18.787 8.02016 18.4985 7.73169 18.1427 7.73169H15.882C15.5261 7.73169 15.2376 8.02016 15.2376 8.376C15.2376 8.73184 15.5261 9.0203 15.882 9.0203H18.1427C18.4985 9.0203 18.787 8.73184 18.787 8.376Z" fill="url(#paint5_linear)"/>
<path fill-rule="evenodd" clip-rule="evenodd" d="M18.787 8.376C18.787 8.02016 18.4985 7.73169 18.1427 7.73169H15.882C15.5261 7.73169 15.2376 8.02016 15.2376 8.376C15.2376 8.73184 15.5261 9.0203 15.882 9.0203H18.1427C18.4985 9.0203 18.787 8.73184 18.787 8.376Z" fill="#9E035D"/>
<path fill-rule="evenodd" clip-rule="evenodd" d="M11.1682 10.0941C11.1682 9.7383 11.4567 9.44983 11.8125 9.44983H16.334C16.6898 9.44983 16.9783 9.7383 16.9783 10.0941C16.9783 10.45 16.6898 10.7384 16.334 10.7384H11.8125C11.4567 10.7384 11.1682 10.45 11.1682 10.0941Z" fill="url(#paint6_linear)"/>
<path fill-rule="evenodd" clip-rule="evenodd" d="M11.1682 10.0941C11.1682 9.7383 11.4567 9.44983 11.8125 9.44983H16.334C16.6898 9.44983 16.9783 9.7383 16.9783 10.0941C16.9783 10.45 16.6898 10.7384 16.334 10.7384H11.8125C11.4567 10.7384 11.1682 10.45 11.1682 10.0941Z" fill="#9E035D"/>
<path fill-rule="evenodd" clip-rule="evenodd" d="M21.0476 10.0941C21.0476 9.7383 20.7591 9.44983 20.4033 9.44983H15.8818C15.526 9.44983 15.2375 9.7383 15.2375 10.0941C15.2375 10.45 15.526 10.7384 15.8818 10.7384H20.4033C20.7591 10.7384 21.0476 10.45 21.0476 10.0941Z" fill="url(#paint7_linear)"/>
<path fill-rule="evenodd" clip-rule="evenodd" d="M21.0476 10.0941C21.0476 9.7383 20.7591 9.44983 20.4033 9.44983H15.8818C15.526 9.44983 15.2375 9.7383 15.2375 10.0941C15.2375 10.45 15.526 10.7384 15.8818 10.7384H20.4033C20.7591 10.7384 21.0476 10.45 21.0476 10.0941Z" fill="#9E035D"/>
<path fill-rule="evenodd" clip-rule="evenodd" d="M13.7454 16.9668C13.7454 16.1365 14.4184 15.4634 15.2487 15.4634H16.9669C17.7972 15.4634 18.4703 16.1365 18.4703 16.9668V22.9803C18.4703 23.8106 17.7972 24.4837 16.9669 24.4837H15.2487C14.4184 24.4837 13.7454 23.8106 13.7454 22.9803V16.9668ZM15.2487 16.752C15.1301 16.752 15.034 16.8481 15.034 16.9668V22.9803C15.034 23.0989 15.1301 23.1951 15.2487 23.1951H16.9669C17.0855 23.1951 17.1817 23.0989 17.1817 22.9803V16.9668C17.1817 16.8481 17.0855 16.752 16.9669 16.752H15.2487Z" fill="url(#paint8_linear)"/>
<path fill-rule="evenodd" clip-rule="evenodd" d="M13.7454 16.9668C13.7454 16.1365 14.4184 15.4634 15.2487 15.4634H16.9669C17.7972 15.4634 18.4703 16.1365 18.4703 16.9668V22.9803C18.4703 23.8106 17.7972 24.4837 16.9669 24.4837H15.2487C14.4184 24.4837 13.7454 23.8106 13.7454 22.9803V16.9668ZM15.2487 16.752C15.1301 16.752 15.034 16.8481 15.034 16.9668V22.9803C15.034 23.0989 15.1301 23.1951 15.2487 23.1951H16.9669C17.0855 23.1951 17.1817 23.0989 17.1817 22.9803V16.9668C17.1817 16.8481 17.0855 16.752 16.9669 16.752H15.2487Z" fill="#9E035D"/>
<defs>
<linearGradient id="paint0_linear" x1="0" y1="0" x2="25.6216" y2="1.25516" gradientUnits="userSpaceOnUse">
<stop stop-color="#AE2B88"/>
<stop offset="1" stop-color="#C54586"/>
</linearGradient>
<linearGradient id="paint1_linear" x1="0.859131" y1="3.43628" x2="10.2987" y2="3.89871" gradientUnits="userSpaceOnUse">
<stop stop-color="#AE2B88"/>
<stop offset="1" stop-color="#C54586"/>
</linearGradient>
<linearGradient id="paint2_linear" x1="11.1681" y1="3.4364" x2="17.2619" y2="3.50982" gradientUnits="userSpaceOnUse">
<stop stop-color="#AE2B88"/>
<stop offset="1" stop-color="#C54586"/>
</linearGradient>
<linearGradient id="paint3_linear" x1="21.0476" y1="3.43628" x2="14.9538" y2="3.5097" gradientUnits="userSpaceOnUse">
<stop stop-color="#AE2B88"/>
<stop offset="1" stop-color="#C54586"/>
</linearGradient>
<linearGradient id="paint4_linear" x1="13.4287" y1="7.73169" x2="17.0854" y2="8.22509" gradientUnits="userSpaceOnUse">
<stop stop-color="#AE2B88"/>
<stop offset="1" stop-color="#C54586"/>
</linearGradient>
<linearGradient id="paint5_linear" x1="18.787" y1="7.73169" x2="15.1303" y2="8.22509" gradientUnits="userSpaceOnUse">
<stop stop-color="#AE2B88"/>
<stop offset="1" stop-color="#C54586"/>
</linearGradient>
<linearGradient id="paint6_linear" x1="11.1682" y1="9.44983" x2="16.9794" y2="10.7334" gradientUnits="userSpaceOnUse">
<stop stop-color="#AE2B88"/>
<stop offset="1" stop-color="#C54586"/>
</linearGradient>
<linearGradient id="paint7_linear" x1="21.0476" y1="9.44983" x2="15.2364" y2="10.7334" gradientUnits="userSpaceOnUse">
<stop stop-color="#AE2B88"/>
<stop offset="1" stop-color="#C54586"/>
</linearGradient>
<linearGradient id="paint8_linear" x1="13.7454" y1="15.4634" x2="18.6985" y2="15.5905" gradientUnits="userSpaceOnUse">
<stop stop-color="#AE2B88"/>
<stop offset="1" stop-color="#C54586"/>
</linearGradient>
</defs>
</svg>
