<svg xmlns="http://www.w3.org/2000/svg" width="44" height="44" viewBox="0 0 44 44">
  <g id="Group_968" data-name="Group 968" transform="translate(-4947 -803)">
    <g id="Group_728" data-name="Group 728" transform="translate(4947 803)">
      <path id="Path_3832" data-name="Path 3832" d="M15.6,117.127A15.585,15.585,0,0,1,0,101.536c0-2.411,1.167-5.542,3.566-9.574a88.1,88.1,0,0,1,6.525-9.295,7.027,7.027,0,0,1,9.826-1.184A1.719,1.719,0,1,1,17.8,84.191a3.583,3.583,0,0,0-5.009.607c-5.943,7.526-9.351,13.627-9.351,16.738a12.159,12.159,0,0,0,24.282.931,1.719,1.719,0,1,1,3.427.271A15.623,15.623,0,0,1,15.6,117.127Z" transform="translate(0 -73.127)" fill="#094fb9"/>
      <path id="Path_3833" data-name="Path 3833" d="M276.575,24.922a10.58,10.58,0,0,1-10.57-10.565c0-2.72,2.21-6.9,6.57-12.419a5.1,5.1,0,0,1,8,0c4.359,5.521,6.57,9.7,6.57,12.419A10.58,10.58,0,0,1,276.575,24.922Zm0-21.484a1.65,1.65,0,0,0-1.3.63c-3.651,4.623-5.83,8.469-5.83,10.289a7.133,7.133,0,0,0,14.265,0c0-1.82-2.179-5.666-5.83-10.289A1.65,1.65,0,0,0,276.575,3.437Z" transform="translate(-243.145 0)" fill="#29b6f6"/>
    </g>
    <g id="Group_729" data-name="Group 729" transform="translate(4955.148 827.467)">
      <path id="Path_3834" data-name="Path 3834" d="M15.133,358.319l-.025.025a2.906,2.906,0,0,1-4.1,0l-.025-.025a.861.861,0,0,0-1.215,0l-.025.025a2.906,2.906,0,0,1-4.1,0l-.019-.019a.854.854,0,0,0-.607-.251h0a.854.854,0,0,0-.608.254,2.88,2.88,0,0,1-4.108,0,1.021,1.021,0,0,1,1.442-1.445.873.873,0,0,0,.607.263h0a.857.857,0,0,0,.61-.26,2.882,2.882,0,0,1,2.052-.857h.007a2.882,2.882,0,0,1,2.049.847l.019.019a.861.861,0,0,0,1.215,0l.025-.025a2.906,2.906,0,0,1,4.1,0l.025.025a.861.861,0,0,0,1.215,0l.025-.025c.931-.929,2.452.071,1.488,1.374C15.22,358.142,15.192,358.26,15.133,358.319Zm-1.442,3.352-.025.025a.861.861,0,0,1-1.215,0l-.025-.025a2.906,2.906,0,0,0-4.1,0L8.3,361.7a.861.861,0,0,1-1.215,0l-.019-.019a2.882,2.882,0,0,0-2.049-.847H5.012a2.882,2.882,0,0,0-2.052.857.857.857,0,0,1-.61.26h0a.873.873,0,0,1-.607-.263A1.021,1.021,0,0,0,.3,363.129a2.89,2.89,0,0,0,2.048.86h0a2.885,2.885,0,0,0,2.059-.863.854.854,0,0,1,.608-.254h0a.854.854,0,0,1,.607.251l.019.019a2.906,2.906,0,0,0,4.1,0l.025-.025a.861.861,0,0,1,1.215,0l.025.025a2.906,2.906,0,0,0,4.1,0l.025-.025C16.282,361.973,14.821,360.544,13.691,361.671Z" transform="translate(0 -356.028)" fill="#094fb9"/>
    </g>
  </g>
</svg>
