<svg xmlns="http://www.w3.org/2000/svg" xmlns:xlink="http://www.w3.org/1999/xlink" width="60" height="60" viewBox="0 0 60 60">
  <defs>
    <linearGradient id="linear-gradient" x1="0.5" x2="0.5" y2="1" gradientUnits="objectBoundingBox">
      <stop offset="0" stop-color="#01f1fe"/>
      <stop offset="1" stop-color="#4fadfe"/>
    </linearGradient>
  </defs>
  <path id="web" d="M30,60A30,30,0,1,1,60,30,30.034,30.034,0,0,1,30,60Zm5.515-14.051a16.966,16.966,0,0,0,9.7-8.648H38.341A30.648,30.648,0,0,1,36.649,43.6,17.936,17.936,0,0,1,35.515,45.949ZM14.788,37.3a16.967,16.967,0,0,0,9.7,8.648A17.965,17.965,0,0,1,23.351,43.6,30.641,30.641,0,0,1,21.659,37.3Zm9.7-23.249a16.967,16.967,0,0,0-9.7,8.648h6.871A30.641,30.641,0,0,1,23.351,16.4a17.936,17.936,0,0,1,1.134-2.353ZM30,13.125c-1.23,0-2.674,1.7-3.767,4.432A26.9,26.9,0,0,0,24.808,22.7H35.192a26.89,26.89,0,0,0-1.425-5.142C32.674,14.823,31.23,13.125,30,13.125ZM13.125,30a16.85,16.85,0,0,0,.529,4.2h7.612c-.123-1.365-.189-2.77-.189-4.2s.065-2.832.189-4.2H13.654A16.85,16.85,0,0,0,13.125,30ZM24.38,34.2H35.62c.131-1.357.2-2.763.2-4.2s-.068-2.841-.2-4.2H24.38c-.131,1.357-.2,2.763-.2,4.2S24.249,32.841,24.38,34.2ZM30,46.875c1.23,0,2.674-1.7,3.767-4.432A26.888,26.888,0,0,0,35.192,37.3H24.808a26.9,26.9,0,0,0,1.425,5.142C27.326,45.177,28.77,46.875,30,46.875ZM46.875,30a16.849,16.849,0,0,0-.529-4.2H38.734c.123,1.365.189,2.77.189,4.2s-.065,2.832-.189,4.2h7.612A16.85,16.85,0,0,0,46.875,30Zm-1.663-7.3a16.966,16.966,0,0,0-9.7-8.648A17.959,17.959,0,0,1,36.649,16.4,30.639,30.639,0,0,1,38.341,22.7h6.871ZM49.978,30A19.978,19.978,0,1,1,30,10.022,20,20,0,0,1,49.978,30Z" fill-rule="evenodd" fill="url(#linear-gradient)"/>
</svg>
