<svg xmlns="http://www.w3.org/2000/svg" xmlns:xlink="http://www.w3.org/1999/xlink" width="60" height="60" viewBox="0 0 60 60">
  <defs>
    <linearGradient id="linear-gradient" x1="0.119" y1="0.881" x2="0.83" y2="0.17" gradientUnits="objectBoundingBox">
      <stop offset="0" stop-color="#fee411"/>
      <stop offset="0.052" stop-color="#fedb16"/>
      <stop offset="0.138" stop-color="#fec125"/>
      <stop offset="0.248" stop-color="#fe983d"/>
      <stop offset="0.376" stop-color="#fe5f5e"/>
      <stop offset="0.5" stop-color="#fe2181"/>
      <stop offset="1" stop-color="#9000dc"/>
    </linearGradient>
  </defs>
  <g id="instagram" transform="translate(-31 -31)">
    <circle id="Ellipse_281" data-name="Ellipse 281" cx="30" cy="30" r="30" transform="translate(31 31)" fill="url(#linear-gradient)"/>
    <g id="Group_1095" data-name="Group 1095" transform="translate(44.347 44.333)">
      <path id="Path_3917" data-name="Path 3917" d="M154.127,131H141.393A10.3,10.3,0,0,0,131.1,141.293v12.733a10.3,10.3,0,0,0,10.293,10.293h12.733a10.3,10.3,0,0,0,10.293-10.293V141.293A10.3,10.3,0,0,0,154.127,131Zm6.573,23.04a6.592,6.592,0,0,1-6.587,6.587H141.38a6.592,6.592,0,0,1-6.587-6.587V141.307a6.592,6.592,0,0,1,6.587-6.587h12.733a6.592,6.592,0,0,1,6.587,6.587Z" transform="translate(-131.1 -131)" fill="#fff"/>
      <path id="Path_3918" data-name="Path 3918" d="M200.62,192.1a8.52,8.52,0,1,0,8.52,8.52A8.536,8.536,0,0,0,200.62,192.1Zm0,13.693a5.173,5.173,0,1,1,5.173-5.173A5.178,5.178,0,0,1,200.62,205.793Z" transform="translate(-183.967 -183.953)" fill="#fff"/>
      <circle id="Ellipse_282" data-name="Ellipse 282" cx="1.44" cy="1.44" r="1.44" transform="matrix(0.987, -0.16, 0.16, 0.987, 23.94, 6.469)" fill="#fff"/>
    </g>
  </g>
</svg>
