<svg xmlns="http://www.w3.org/2000/svg" width="60" height="60" viewBox="0 0 60 60">
  <g id="twitter" transform="translate(-31 -31)">
    <circle id="Ellipse_284" data-name="Ellipse 284" cx="30" cy="30" r="30" transform="translate(31 31)" fill="#55acee"/>
    <path id="Path_3920" data-name="Path 3920" d="M158.94,157.8a6.3,6.3,0,0,0-4.827-2.027c-3.64.12-7.013,2.347-6.627,8.04,0,0-5.48,1.667-14-6.44,0,0-2.747,4.467,2.107,8.68a4.527,4.527,0,0,1-3.173-.64s-.973,3.773,5.267,6.64c0,0-2.107.6-3.053,0,0,0,.56,4.013,6.16,4.96,0,0-2.88,2.867-9.693,2.787,0,0,14.173,7.253,24-2.067a20.014,20.014,0,0,0,6.04-15.533,6.264,6.264,0,0,0,3.293-2.88,12.908,12.908,0,0,1-3.693.613s2.587-1.613,2.787-3.52A7.9,7.9,0,0,1,158.94,157.8Z" transform="translate(-86.753 -108.135)" fill="#fff"/>
  </g>
</svg>
