<svg width="27" height="29" viewBox="0 0 27 29" fill="none" xmlns="http://www.w3.org/2000/svg">
<path fill-rule="evenodd" clip-rule="evenodd" d="M0.161552 0.191232C0.275293 0.0692597 0.434579 0 0.601355 0H15.8298C15.9978 0 16.1581 0.0702666 16.272 0.193787C16.3858 0.317308 16.4428 0.482821 16.4291 0.650252L15.6453 10.2576C15.6183 10.5886 15.3281 10.8351 14.9971 10.8081C14.666 10.7811 14.4196 10.4908 14.4466 10.1598L14.6456 7.72015C14.047 8.00236 13.2607 8.22346 12.3155 8.22346C10.4085 8.22346 7.56018 7.61415 5.75189 7.22731C5.5404 7.18207 5.34314 7.13987 5.16327 7.10205C4.54338 6.97169 3.78185 6.96765 3.04902 7.04678C2.52936 7.10289 2.05003 7.19795 1.67297 7.30505L2.91925 25.1269H8.06914C8.40126 25.1269 8.6705 25.3961 8.6705 25.7283C8.6705 26.0604 8.40126 26.3296 8.06914 26.3296H2.35848C2.04264 26.3296 1.78063 26.0853 1.75859 25.7702L0.00146648 0.643304C-0.0101678 0.476934 0.0478114 0.313204 0.161552 0.191232ZM1.58754 6.08347C1.9919 5.98288 2.44922 5.90185 2.9199 5.85102C3.72699 5.76387 4.62497 5.75983 5.41078 5.92508C5.59567 5.96397 5.79478 6.00645 6.00536 6.05138C7.84088 6.44303 10.5484 7.02075 12.3155 7.02075C13.5761 7.02075 14.4187 6.53002 14.7665 6.23887L15.1774 1.20271H1.24623L1.58754 6.08347ZM22.3659 8.15475C22.2017 8.11454 21.8476 8.09853 21.1845 8.38645C20.7343 8.58195 20.4321 8.95544 20.2369 9.39337C20.094 9.71389 20.0206 10.0439 19.991 10.3029C20.163 10.2854 20.5045 10.1886 21.0723 9.82904C22.0531 9.208 22.3131 8.51813 22.3659 8.15475ZM20.7055 7.28326C22.0527 6.69827 23.0704 6.90005 23.468 7.5043C23.5144 7.57471 23.5454 7.65408 23.559 7.73724C23.6782 8.46128 23.3287 9.82381 21.7157 10.8452C20.958 11.325 20.3403 11.5362 19.8369 11.5061C19.2821 11.4728 18.8956 11.1387 18.7895 10.7086C18.7778 10.6615 18.772 10.6131 18.772 10.5646C18.772 10.1491 18.8644 9.51838 19.1384 8.90371C19.4147 8.28387 19.8984 7.63371 20.7055 7.28326ZM17.3526 8.14341C17.6847 8.14341 17.954 8.41265 17.954 8.74476V13.3928C18.1727 13.1848 18.4145 12.9855 18.6769 12.8077C19.5596 12.2101 20.7283 11.8281 22.0355 12.2696C25.0789 13.2974 26.7103 16.3522 26.7103 20.8011C26.7103 23.0837 25.9995 25.089 24.934 26.5079C23.8804 27.9108 22.4086 28.819 20.8898 28.6791C19.2318 28.5264 18.0373 27.6166 17.3526 26.8314C16.668 27.6166 15.4735 28.5264 13.8154 28.6792C12.2966 28.819 10.8248 27.9108 9.77127 26.5079C8.70574 25.089 7.99493 23.0837 7.99493 20.8011C7.99493 16.3523 9.6264 13.2974 12.6698 12.2696C13.977 11.8282 15.1457 12.2101 16.0283 12.8077C16.2908 12.9855 16.5325 13.1848 16.7513 13.3928V8.74476C16.7513 8.41265 17.0205 8.14341 17.3526 8.14341ZM19.3512 13.8036C18.6657 14.2678 18.1405 14.9414 17.8764 15.4096C17.7698 15.5986 17.5696 15.7155 17.3526 15.7155C17.1356 15.7155 16.9354 15.5986 16.8288 15.4096C16.5648 14.9414 16.0395 14.2678 15.354 13.8036C14.68 13.3473 13.9028 13.1226 13.0546 13.4091C10.7095 14.2011 9.19763 16.6057 9.19763 20.8011C9.19763 22.8405 9.83395 24.5885 10.733 25.7857C11.644 26.9987 12.7542 27.5691 13.7051 27.4815C15.4222 27.3234 16.5143 26.0836 16.8253 25.5164C16.9309 25.3239 17.133 25.2042 17.3526 25.2042C17.5722 25.2042 17.7743 25.3239 17.8799 25.5164C18.1909 26.0836 19.2831 27.3233 21.0001 27.4815C21.951 27.5691 23.0613 26.9987 23.9723 25.7856C24.8713 24.5885 25.5076 22.8405 25.5076 20.8011C25.5076 16.6057 23.9958 14.2011 21.6506 13.4091C20.8024 13.1226 20.0253 13.3473 19.3512 13.8036ZM20.3213 19.7041C20.2263 19.6597 20.0835 19.6368 19.8696 19.7452C19.0967 20.1367 18.8646 20.8776 18.8351 21.5655C18.925 21.556 19.0223 21.543 19.1236 21.5262C19.5301 21.4588 19.9344 21.3412 20.1946 21.1905C20.6914 20.9029 20.7681 20.4243 20.625 20.0614C20.5519 19.8759 20.4338 19.7566 20.3213 19.7041ZM21.744 19.6204C22.0774 20.4663 21.8721 21.6091 20.7972 22.2314C20.3546 22.4877 19.7859 22.6355 19.3204 22.7127C19.081 22.7524 18.8512 22.7764 18.6549 22.7848C18.4792 22.7924 18.2694 22.791 18.1031 22.7489C17.8555 22.6862 17.6746 22.474 17.6518 22.2197C17.574 21.3525 17.617 19.538 19.3261 18.6723C19.8431 18.4103 20.3746 18.4014 20.8306 18.6145C21.2692 18.8195 21.5788 19.2014 21.744 19.6204ZM13.8747 18.6145C14.3307 18.4014 14.8621 18.4104 15.3792 18.6723C17.0882 19.5381 17.1313 21.3525 17.0535 22.2197C17.0307 22.474 16.8497 22.6862 16.6022 22.7489C16.4358 22.791 16.2261 22.7924 16.0504 22.7848C15.854 22.7764 15.6243 22.7525 15.3848 22.7127C14.9193 22.6355 14.3507 22.4877 13.908 22.2314C12.8331 21.6091 12.6279 20.4663 12.9613 19.6204C13.1264 19.2015 13.4361 18.8195 13.8747 18.6145ZM14.0802 20.0614C13.9372 20.4243 14.0139 20.9029 14.5106 21.1905C14.7708 21.3412 15.1751 21.4588 15.5817 21.5262C15.683 21.5431 15.7802 21.556 15.8702 21.5655C15.8407 20.8776 15.6085 20.1367 14.8357 19.7452C14.6217 19.6368 14.479 19.6597 14.3839 19.7041C14.2715 19.7566 14.1533 19.876 14.0802 20.0614Z" fill="url(#paint0_linear)"/>
<path fill-rule="evenodd" clip-rule="evenodd" d="M0.161552 0.191232C0.275293 0.0692597 0.434579 0 0.601355 0H15.8298C15.9978 0 16.1581 0.0702666 16.272 0.193787C16.3858 0.317308 16.4428 0.482821 16.4291 0.650252L15.6453 10.2576C15.6183 10.5886 15.3281 10.8351 14.9971 10.8081C14.666 10.7811 14.4196 10.4908 14.4466 10.1598L14.6456 7.72015C14.047 8.00236 13.2607 8.22346 12.3155 8.22346C10.4085 8.22346 7.56018 7.61415 5.75189 7.22731C5.5404 7.18207 5.34314 7.13987 5.16327 7.10205C4.54338 6.97169 3.78185 6.96765 3.04902 7.04678C2.52936 7.10289 2.05003 7.19795 1.67297 7.30505L2.91925 25.1269H8.06914C8.40126 25.1269 8.6705 25.3961 8.6705 25.7283C8.6705 26.0604 8.40126 26.3296 8.06914 26.3296H2.35848C2.04264 26.3296 1.78063 26.0853 1.75859 25.7702L0.00146648 0.643304C-0.0101678 0.476934 0.0478114 0.313204 0.161552 0.191232ZM1.58754 6.08347C1.9919 5.98288 2.44922 5.90185 2.9199 5.85102C3.72699 5.76387 4.62497 5.75983 5.41078 5.92508C5.59567 5.96397 5.79478 6.00645 6.00536 6.05138C7.84088 6.44303 10.5484 7.02075 12.3155 7.02075C13.5761 7.02075 14.4187 6.53002 14.7665 6.23887L15.1774 1.20271H1.24623L1.58754 6.08347ZM22.3659 8.15475C22.2017 8.11454 21.8476 8.09853 21.1845 8.38645C20.7343 8.58195 20.4321 8.95544 20.2369 9.39337C20.094 9.71389 20.0206 10.0439 19.991 10.3029C20.163 10.2854 20.5045 10.1886 21.0723 9.82904C22.0531 9.208 22.3131 8.51813 22.3659 8.15475ZM20.7055 7.28326C22.0527 6.69827 23.0704 6.90005 23.468 7.5043C23.5144 7.57471 23.5454 7.65408 23.559 7.73724C23.6782 8.46128 23.3287 9.82381 21.7157 10.8452C20.958 11.325 20.3403 11.5362 19.8369 11.5061C19.2821 11.4728 18.8956 11.1387 18.7895 10.7086C18.7778 10.6615 18.772 10.6131 18.772 10.5646C18.772 10.1491 18.8644 9.51838 19.1384 8.90371C19.4147 8.28387 19.8984 7.63371 20.7055 7.28326ZM17.3526 8.14341C17.6847 8.14341 17.954 8.41265 17.954 8.74476V13.3928C18.1727 13.1848 18.4145 12.9855 18.6769 12.8077C19.5596 12.2101 20.7283 11.8281 22.0355 12.2696C25.0789 13.2974 26.7103 16.3522 26.7103 20.8011C26.7103 23.0837 25.9995 25.089 24.934 26.5079C23.8804 27.9108 22.4086 28.819 20.8898 28.6791C19.2318 28.5264 18.0373 27.6166 17.3526 26.8314C16.668 27.6166 15.4735 28.5264 13.8154 28.6792C12.2966 28.819 10.8248 27.9108 9.77127 26.5079C8.70574 25.089 7.99493 23.0837 7.99493 20.8011C7.99493 16.3523 9.6264 13.2974 12.6698 12.2696C13.977 11.8282 15.1457 12.2101 16.0283 12.8077C16.2908 12.9855 16.5325 13.1848 16.7513 13.3928V8.74476C16.7513 8.41265 17.0205 8.14341 17.3526 8.14341ZM19.3512 13.8036C18.6657 14.2678 18.1405 14.9414 17.8764 15.4096C17.7698 15.5986 17.5696 15.7155 17.3526 15.7155C17.1356 15.7155 16.9354 15.5986 16.8288 15.4096C16.5648 14.9414 16.0395 14.2678 15.354 13.8036C14.68 13.3473 13.9028 13.1226 13.0546 13.4091C10.7095 14.2011 9.19763 16.6057 9.19763 20.8011C9.19763 22.8405 9.83395 24.5885 10.733 25.7857C11.644 26.9987 12.7542 27.5691 13.7051 27.4815C15.4222 27.3234 16.5143 26.0836 16.8253 25.5164C16.9309 25.3239 17.133 25.2042 17.3526 25.2042C17.5722 25.2042 17.7743 25.3239 17.8799 25.5164C18.1909 26.0836 19.2831 27.3233 21.0001 27.4815C21.951 27.5691 23.0613 26.9987 23.9723 25.7856C24.8713 24.5885 25.5076 22.8405 25.5076 20.8011C25.5076 16.6057 23.9958 14.2011 21.6506 13.4091C20.8024 13.1226 20.0253 13.3473 19.3512 13.8036ZM20.3213 19.7041C20.2263 19.6597 20.0835 19.6368 19.8696 19.7452C19.0967 20.1367 18.8646 20.8776 18.8351 21.5655C18.925 21.556 19.0223 21.543 19.1236 21.5262C19.5301 21.4588 19.9344 21.3412 20.1946 21.1905C20.6914 20.9029 20.7681 20.4243 20.625 20.0614C20.5519 19.8759 20.4338 19.7566 20.3213 19.7041ZM21.744 19.6204C22.0774 20.4663 21.8721 21.6091 20.7972 22.2314C20.3546 22.4877 19.7859 22.6355 19.3204 22.7127C19.081 22.7524 18.8512 22.7764 18.6549 22.7848C18.4792 22.7924 18.2694 22.791 18.1031 22.7489C17.8555 22.6862 17.6746 22.474 17.6518 22.2197C17.574 21.3525 17.617 19.538 19.3261 18.6723C19.8431 18.4103 20.3746 18.4014 20.8306 18.6145C21.2692 18.8195 21.5788 19.2014 21.744 19.6204ZM13.8747 18.6145C14.3307 18.4014 14.8621 18.4104 15.3792 18.6723C17.0882 19.5381 17.1313 21.3525 17.0535 22.2197C17.0307 22.474 16.8497 22.6862 16.6022 22.7489C16.4358 22.791 16.2261 22.7924 16.0504 22.7848C15.854 22.7764 15.6243 22.7525 15.3848 22.7127C14.9193 22.6355 14.3507 22.4877 13.908 22.2314C12.8331 21.6091 12.6279 20.4663 12.9613 19.6204C13.1264 19.2015 13.4361 18.8195 13.8747 18.6145ZM14.0802 20.0614C13.9372 20.4243 14.0139 20.9029 14.5106 21.1905C14.7708 21.3412 15.1751 21.4588 15.5817 21.5262C15.683 21.5431 15.7802 21.556 15.8702 21.5655C15.8407 20.8776 15.6085 20.1367 14.8357 19.7452C14.6217 19.6368 14.479 19.6597 14.3839 19.7041C14.2715 19.7566 14.1533 19.876 14.0802 20.0614Z" fill="#9E035D"/>
<defs>
<linearGradient id="paint0_linear" x1="0" y1="0" x2="27.9607" y2="1.27509" gradientUnits="userSpaceOnUse">
<stop stop-color="#AE2B88"/>
<stop offset="1" stop-color="#C54586"/>
</linearGradient>
</defs>
</svg>
