<svg width="31" height="24" viewBox="0 0 31 24" fill="none" xmlns="http://www.w3.org/2000/svg">
<path fill-rule="evenodd" clip-rule="evenodd" d="M20.2277 2.3075C18.4713 3.12462 16.2873 4.05731 12.7102 3.8724C10.0289 3.73379 8.12633 4.08204 6.7364 4.6148C5.35088 5.14587 4.44213 5.87263 3.76015 6.54245C2.7746 7.51043 1.7973 9.26443 1.39389 11.1789C0.991244 13.0898 1.18121 15.0456 2.36098 16.5134C2.94624 17.2415 3.79637 17.879 4.99988 18.3387C11.1677 20.6946 17.7917 17.3553 22.4301 12.449C24.1167 10.6651 25.3607 8.7533 26.0689 7.01583C26.7754 5.28242 26.9127 3.8156 26.55 2.82194C26.2527 2.31982 26.0458 2.02828 25.8216 1.82545C25.6079 1.6321 25.3454 1.49067 24.8813 1.36635C23.2066 0.917739 22.0743 1.44602 20.4387 2.20912C20.3693 2.24151 20.299 2.27432 20.2277 2.3075ZM27.9054 4.77732C27.8108 5.63506 27.5584 6.54782 27.1827 7.46978C26.4097 9.36621 25.076 11.401 23.3041 13.2753C18.5399 18.3145 11.4218 22.0791 4.57073 19.4622C4.50742 19.4381 4.44484 19.4134 4.38298 19.3883C5.68864 20.7255 7.3407 21.6869 9.25305 22.1038C12.307 22.7695 16.1166 22.0652 20.3539 19.1172C24.6216 16.1481 26.9016 13.2016 28.0722 10.9022C28.6583 9.75075 28.9664 8.76152 29.1077 8.01123C29.2548 7.22955 29.2082 6.77816 29.1687 6.66188C29.1229 6.5267 29.0108 6.31882 28.8196 6.03103C28.6343 5.75198 28.4008 5.43608 28.1404 5.08934C28.0878 5.01936 28.0341 4.94811 27.9796 4.8758C27.955 4.84318 27.9303 4.81035 27.9054 4.77732ZM1.38272 17.2155C2.90547 20.2326 5.56516 22.5309 8.9969 23.2789C12.4524 24.0322 16.5987 23.1949 21.0407 20.1045C25.4523 17.0353 27.8735 13.9434 29.144 11.4478C29.7784 10.2016 30.1257 9.10406 30.2896 8.23377C30.4476 7.39487 30.449 6.69187 30.3076 6.27536C30.2089 5.98429 30.0226 5.66826 29.8215 5.36554C29.6146 5.05408 29.3618 4.71286 29.102 4.36697C29.0492 4.29671 28.9961 4.22622 28.9429 4.15557C28.4611 3.51585 27.9696 2.86327 27.6129 2.25662C27.2976 1.72048 27.007 1.27601 26.6285 0.933562C26.2329 0.575738 25.78 0.361975 25.1925 0.204606C23.0854 -0.359821 21.5809 0.34533 20.0024 1.08516C19.9087 1.12908 19.8147 1.17313 19.7203 1.21703C18.0411 1.99829 16.0663 2.84158 12.7723 2.6713C9.95677 2.52575 7.88141 2.88789 6.30594 3.49176C4.72607 4.09733 3.68199 4.93343 2.91739 5.68439C1.74079 6.84002 0.662502 8.8168 0.217023 10.931C-0.225096 13.0292 -0.0644143 15.3757 1.38272 17.2155ZM20.5587 4.81647C19.8174 5.16668 19.0113 5.5449 18.3054 5.71324C17.2492 5.9651 16.417 5.98302 15.8049 5.99619C15.7572 5.99722 15.7107 5.99822 15.6657 5.9993C14.9831 6.01563 14.8128 6.06746 14.7012 6.18054C14.2864 6.60102 14.2346 7.08059 14.5039 7.51005C14.8042 7.98891 15.5908 8.53926 17.1533 8.7585C17.3125 8.78084 17.4769 8.80507 17.6452 8.82989C18.8765 9.01139 20.3229 9.22461 21.5632 8.96544C22.2451 8.82294 22.8174 8.54418 23.2412 8.06806C23.6642 7.59273 23.9921 6.86129 24.0755 5.71457C24.1641 4.49622 23.9346 4.07015 23.7752 3.93342C23.6308 3.80957 23.3245 3.74291 22.6712 3.93016C22.0687 4.10282 21.3741 4.43111 20.6254 4.78494L20.5587 4.81647ZM24.5583 3.02058C25.19 3.56248 25.3673 4.53379 25.2751 5.80181C25.1777 7.14146 24.7809 8.14709 24.1395 8.86767C23.4989 9.58746 22.667 9.96346 21.8092 10.1427C20.34 10.4497 18.6571 10.1981 17.4514 10.0178C17.2868 9.99316 17.1312 9.96988 16.9862 9.94954C15.2524 9.70626 14.0528 9.05454 13.485 8.14903C12.8862 7.19413 13.0842 6.10704 13.8451 5.33585C14.3466 4.82751 15.0394 4.81109 15.6085 4.79761L15.6369 4.79693C15.6813 4.79587 15.7264 4.79488 15.7721 4.79387C16.3782 4.78054 17.0981 4.7647 18.0264 4.54334C18.5862 4.40985 19.2718 4.09429 20.0449 3.72902C20.0813 3.7118 20.118 3.69447 20.1548 3.67706C20.8655 3.3409 21.6402 2.9745 22.3398 2.774C23.0426 2.5726 23.9116 2.46581 24.5583 3.02058ZM12.4733 6.68022C12.6705 7.16452 12.7161 7.7253 12.6109 8.34517C12.5499 8.70467 12.6369 8.98047 12.822 9.22038C13.0215 9.47913 13.3536 9.71604 13.8002 9.91543C14.6957 10.3152 15.872 10.4848 16.7193 10.4848C17.2273 10.4848 17.7228 10.5592 18.1548 10.7051C18.5787 10.8482 18.9875 11.0761 19.265 11.4168C19.5627 11.7823 19.6849 12.2538 19.5327 12.7583C19.3918 13.2251 19.0369 13.6529 18.5374 14.0454C17.562 14.8118 14.589 16.447 11.5245 17.1767C9.989 17.5423 8.36928 17.696 6.93962 17.3541C5.47992 17.0051 4.23048 16.1389 3.51277 14.5276C2.39713 12.023 2.99926 9.78855 4.21506 8.14548C5.40769 6.53372 7.21633 5.44924 8.64744 5.16812C9.64205 4.97274 10.7187 5.05115 11.5254 5.56051C11.938 5.82099 12.2748 6.19279 12.4733 6.68022ZM10.8833 6.57747C10.4243 6.28764 9.69282 6.18846 8.87927 6.34827C7.76418 6.56732 6.20961 7.47195 5.18187 8.86087C4.1773 10.2185 3.7019 11.9963 4.61142 14.0382C5.15943 15.2685 6.0798 15.9119 7.21935 16.1844C8.38895 16.4641 9.79792 16.3515 11.2459 16.0067C14.1484 15.3156 16.9615 13.754 17.7943 13.0997C18.1989 12.7818 18.3412 12.5435 18.3812 12.4109C18.4098 12.3161 18.3964 12.2548 18.3325 12.1763C18.2483 12.0729 18.0694 11.9457 17.7701 11.8446C17.4788 11.7463 17.1155 11.6875 16.7193 11.6875C15.7585 11.6875 14.4033 11.5018 13.3099 11.0137C12.762 10.7691 12.2351 10.4288 11.8696 9.95493C11.4896 9.46225 11.3054 8.85005 11.4252 8.14396C11.5008 7.69824 11.456 7.37104 11.3594 7.13385C11.2641 6.89978 11.1037 6.71659 10.8833 6.57747ZM7.67844 12.3979C7.40115 12.3979 7.19489 12.6159 7.19489 12.8621C7.19489 13.1084 7.40115 13.3264 7.67844 13.3264C7.95573 13.3264 8.162 13.1084 8.162 12.8621C8.162 12.6159 7.95573 12.3979 7.67844 12.3979ZM5.99218 12.8621C5.99218 11.9314 6.75738 11.1952 7.67844 11.1952C8.59951 11.1952 9.3647 11.9314 9.3647 12.8621C9.3647 13.7929 8.59951 14.5291 7.67844 14.5291C6.75738 14.5291 5.99218 13.7929 5.99218 12.8621Z" fill="url(#paint0_linear)"/>
<path fill-rule="evenodd" clip-rule="evenodd" d="M20.2277 2.3075C18.4713 3.12462 16.2873 4.05731 12.7102 3.8724C10.0289 3.73379 8.12633 4.08204 6.7364 4.6148C5.35088 5.14587 4.44213 5.87263 3.76015 6.54245C2.7746 7.51043 1.7973 9.26443 1.39389 11.1789C0.991244 13.0898 1.18121 15.0456 2.36098 16.5134C2.94624 17.2415 3.79637 17.879 4.99988 18.3387C11.1677 20.6946 17.7917 17.3553 22.4301 12.449C24.1167 10.6651 25.3607 8.7533 26.0689 7.01583C26.7754 5.28242 26.9127 3.8156 26.55 2.82194C26.2527 2.31982 26.0458 2.02828 25.8216 1.82545C25.6079 1.6321 25.3454 1.49067 24.8813 1.36635C23.2066 0.917739 22.0743 1.44602 20.4387 2.20912C20.3693 2.24151 20.299 2.27432 20.2277 2.3075ZM27.9054 4.77732C27.8108 5.63506 27.5584 6.54782 27.1827 7.46978C26.4097 9.36621 25.076 11.401 23.3041 13.2753C18.5399 18.3145 11.4218 22.0791 4.57073 19.4622C4.50742 19.4381 4.44484 19.4134 4.38298 19.3883C5.68864 20.7255 7.3407 21.6869 9.25305 22.1038C12.307 22.7695 16.1166 22.0652 20.3539 19.1172C24.6216 16.1481 26.9016 13.2016 28.0722 10.9022C28.6583 9.75075 28.9664 8.76152 29.1077 8.01123C29.2548 7.22955 29.2082 6.77816 29.1687 6.66188C29.1229 6.5267 29.0108 6.31882 28.8196 6.03103C28.6343 5.75198 28.4008 5.43608 28.1404 5.08934C28.0878 5.01936 28.0341 4.94811 27.9796 4.8758C27.955 4.84318 27.9303 4.81035 27.9054 4.77732ZM1.38272 17.2155C2.90547 20.2326 5.56516 22.5309 8.9969 23.2789C12.4524 24.0322 16.5987 23.1949 21.0407 20.1045C25.4523 17.0353 27.8735 13.9434 29.144 11.4478C29.7784 10.2016 30.1257 9.10406 30.2896 8.23377C30.4476 7.39487 30.449 6.69187 30.3076 6.27536C30.2089 5.98429 30.0226 5.66826 29.8215 5.36554C29.6146 5.05408 29.3618 4.71286 29.102 4.36697C29.0492 4.29671 28.9961 4.22622 28.9429 4.15557C28.4611 3.51585 27.9696 2.86327 27.6129 2.25662C27.2976 1.72048 27.007 1.27601 26.6285 0.933562C26.2329 0.575738 25.78 0.361975 25.1925 0.204606C23.0854 -0.359821 21.5809 0.34533 20.0024 1.08516C19.9087 1.12908 19.8147 1.17313 19.7203 1.21703C18.0411 1.99829 16.0663 2.84158 12.7723 2.6713C9.95677 2.52575 7.88141 2.88789 6.30594 3.49176C4.72607 4.09733 3.68199 4.93343 2.91739 5.68439C1.74079 6.84002 0.662502 8.8168 0.217023 10.931C-0.225096 13.0292 -0.0644143 15.3757 1.38272 17.2155ZM20.5587 4.81647C19.8174 5.16668 19.0113 5.5449 18.3054 5.71324C17.2492 5.9651 16.417 5.98302 15.8049 5.99619C15.7572 5.99722 15.7107 5.99822 15.6657 5.9993C14.9831 6.01563 14.8128 6.06746 14.7012 6.18054C14.2864 6.60102 14.2346 7.08059 14.5039 7.51005C14.8042 7.98891 15.5908 8.53926 17.1533 8.7585C17.3125 8.78084 17.4769 8.80507 17.6452 8.82989C18.8765 9.01139 20.3229 9.22461 21.5632 8.96544C22.2451 8.82294 22.8174 8.54418 23.2412 8.06806C23.6642 7.59273 23.9921 6.86129 24.0755 5.71457C24.1641 4.49622 23.9346 4.07015 23.7752 3.93342C23.6308 3.80957 23.3245 3.74291 22.6712 3.93016C22.0687 4.10282 21.3741 4.43111 20.6254 4.78494L20.5587 4.81647ZM24.5583 3.02058C25.19 3.56248 25.3673 4.53379 25.2751 5.80181C25.1777 7.14146 24.7809 8.14709 24.1395 8.86767C23.4989 9.58746 22.667 9.96346 21.8092 10.1427C20.34 10.4497 18.6571 10.1981 17.4514 10.0178C17.2868 9.99316 17.1312 9.96988 16.9862 9.94954C15.2524 9.70626 14.0528 9.05454 13.485 8.14903C12.8862 7.19413 13.0842 6.10704 13.8451 5.33585C14.3466 4.82751 15.0394 4.81109 15.6085 4.79761L15.6369 4.79693C15.6813 4.79587 15.7264 4.79488 15.7721 4.79387C16.3782 4.78054 17.0981 4.7647 18.0264 4.54334C18.5862 4.40985 19.2718 4.09429 20.0449 3.72902C20.0813 3.7118 20.118 3.69447 20.1548 3.67706C20.8655 3.3409 21.6402 2.9745 22.3398 2.774C23.0426 2.5726 23.9116 2.46581 24.5583 3.02058ZM12.4733 6.68022C12.6705 7.16452 12.7161 7.7253 12.6109 8.34517C12.5499 8.70467 12.6369 8.98047 12.822 9.22038C13.0215 9.47913 13.3536 9.71604 13.8002 9.91543C14.6957 10.3152 15.872 10.4848 16.7193 10.4848C17.2273 10.4848 17.7228 10.5592 18.1548 10.7051C18.5787 10.8482 18.9875 11.0761 19.265 11.4168C19.5627 11.7823 19.6849 12.2538 19.5327 12.7583C19.3918 13.2251 19.0369 13.6529 18.5374 14.0454C17.562 14.8118 14.589 16.447 11.5245 17.1767C9.989 17.5423 8.36928 17.696 6.93962 17.3541C5.47992 17.0051 4.23048 16.1389 3.51277 14.5276C2.39713 12.023 2.99926 9.78855 4.21506 8.14548C5.40769 6.53372 7.21633 5.44924 8.64744 5.16812C9.64205 4.97274 10.7187 5.05115 11.5254 5.56051C11.938 5.82099 12.2748 6.19279 12.4733 6.68022ZM10.8833 6.57747C10.4243 6.28764 9.69282 6.18846 8.87927 6.34827C7.76418 6.56732 6.20961 7.47195 5.18187 8.86087C4.1773 10.2185 3.7019 11.9963 4.61142 14.0382C5.15943 15.2685 6.0798 15.9119 7.21935 16.1844C8.38895 16.4641 9.79792 16.3515 11.2459 16.0067C14.1484 15.3156 16.9615 13.754 17.7943 13.0997C18.1989 12.7818 18.3412 12.5435 18.3812 12.4109C18.4098 12.3161 18.3964 12.2548 18.3325 12.1763C18.2483 12.0729 18.0694 11.9457 17.7701 11.8446C17.4788 11.7463 17.1155 11.6875 16.7193 11.6875C15.7585 11.6875 14.4033 11.5018 13.3099 11.0137C12.762 10.7691 12.2351 10.4288 11.8696 9.95493C11.4896 9.46225 11.3054 8.85005 11.4252 8.14396C11.5008 7.69824 11.456 7.37104 11.3594 7.13385C11.2641 6.89978 11.1037 6.71659 10.8833 6.57747ZM7.67844 12.3979C7.40115 12.3979 7.19489 12.6159 7.19489 12.8621C7.19489 13.1084 7.40115 13.3264 7.67844 13.3264C7.95573 13.3264 8.162 13.1084 8.162 12.8621C8.162 12.6159 7.95573 12.3979 7.67844 12.3979ZM5.99218 12.8621C5.99218 11.9314 6.75738 11.1952 7.67844 11.1952C8.59951 11.1952 9.3647 11.9314 9.3647 12.8621C9.3647 13.7929 8.59951 14.5291 7.67844 14.5291C6.75738 14.5291 5.99218 13.7929 5.99218 12.8621Z" fill="#9E035D"/>
<defs>
<linearGradient id="paint0_linear" x1="0" y1="0" x2="31.7735" y2="2.01101" gradientUnits="userSpaceOnUse">
<stop stop-color="#AE2B88"/>
<stop offset="1" stop-color="#C54586"/>
</linearGradient>
</defs>
</svg>
