<svg width="200" height="200" viewBox="0 0 200 200" fill="none" xmlns="http://www.w3.org/2000/svg">
<circle cx="101" cy="100" r="75" fill="#E8D3E8" fill-opacity="0.3"/>
<path d="M118.219 114.645L116.444 124.172L107.992 169.461L92.7666 166.618L102.529 114.302L102.993 111.809L118.219 114.645Z" fill="#9E035D"/>
<path d="M155.716 91.8614L150.466 120.008C150.451 120.09 150.419 120.169 150.373 120.239C150.328 120.31 150.268 120.37 150.199 120.418C150.13 120.465 150.052 120.498 149.97 120.516C149.888 120.533 149.803 120.534 149.72 120.519L75.9619 106.762L84.6433 60.2153L140.653 70.6618C150.804 72.5547 157.547 82.0442 155.716 91.8614Z" fill="#D975A7"/>
<path d="M100.397 82.4159L95.1884 110.344L56.4722 103.123L61.681 75.1949C63.5988 64.9123 73.8208 58.1928 84.5118 60.1868C95.2028 62.1807 102.315 72.133 100.397 82.4159Z" fill="#9E035D"/>
<path d="M118.421 95.4713C115.568 94.9392 113.686 92.1663 114.223 89.2868C114.76 86.4073 117.515 84.4988 120.368 85.0313C121.278 85.2021 122.126 85.6108 122.826 86.2157C123.526 86.8206 124.054 87.6003 124.355 88.4753L160.394 95.1969L159.421 100.417L123.382 93.6954C122.785 94.4032 122.012 94.9403 121.141 95.2523C120.27 95.5642 119.331 95.6398 118.421 95.4713Z" fill="#9E035D"/>
<path d="M99.1126 82.9291L94.0375 110.139L57.5654 103.337L62.6408 76.1266C64.5093 66.1084 74.1889 59.5093 84.2603 61.3878C94.3317 63.2662 100.981 72.9108 99.1126 82.9291Z" fill="#9E035D"/>
<path d="M119.443 92.8342C120.91 92.8342 122.098 91.6455 122.098 90.1791C122.098 88.7127 120.91 87.5239 119.443 87.5239C117.977 87.5239 116.788 88.7127 116.788 90.1791C116.788 91.6455 117.977 92.8342 119.443 92.8342Z" fill="white"/>
<path d="M160.811 95.1782L157.628 112.247C157.614 112.32 157.571 112.385 157.51 112.428C157.448 112.47 157.372 112.486 157.299 112.472L148.93 110.911C148.916 110.909 148.903 110.9 148.895 110.888C148.886 110.876 148.883 110.861 148.886 110.847L152.111 93.5555C152.113 93.541 152.122 93.5282 152.134 93.5198C152.146 93.5115 152.161 93.5083 152.176 93.511L160.767 95.1133C160.781 95.116 160.794 95.1244 160.802 95.1366C160.811 95.1487 160.814 95.1637 160.811 95.1782Z" fill="#9E035D"/>
<path d="M69.6351 93.5725C69.9875 96.1649 72.8322 99.2461 72.8322 99.2461C68.4976 99.5533 66.1501 97.102 65.14 95.6124C63.8911 95.9733 62.6076 96.2011 61.3108 96.292C52.412 96.9227 44.7514 91.113 44.1982 83.309C43.6449 75.505 50.4095 68.6726 59.3084 68.042C68.2072 67.4113 75.8673 73.2208 76.4204 81.0249C76.7803 86.1011 74.0411 90.767 69.6351 93.5725Z" fill="white"/>
<path d="M95.2255 110.361C94.8225 111.381 87.4532 141.767 63.6058 137.32C37.4556 132.892 56.3707 103.114 56.3707 103.114L95.2255 110.361Z" fill="#D975A7"/>
<path d="M60.3092 84.8441C61.5312 84.8441 62.5218 83.8535 62.5218 82.6315C62.5218 81.4095 61.5312 80.4189 60.3092 80.4189C59.0873 80.4189 58.0967 81.4095 58.0967 82.6315C58.0967 83.8535 59.0873 84.8441 60.3092 84.8441Z" fill="#9E035D"/>
<path d="M50.4036 83.8793C51.633 83.8793 52.6295 82.8827 52.6295 81.6534C52.6295 80.4241 51.633 79.4275 50.4036 79.4275C49.1743 79.4275 48.1777 80.4241 48.1777 81.6534C48.1777 82.8827 49.1743 83.8793 50.4036 83.8793Z" fill="#9E035D"/>
<path d="M70.1195 85.787C71.3488 85.787 72.3454 84.7904 72.3454 83.5611C72.3454 82.3318 71.3488 81.3352 70.1195 81.3352C68.8901 81.3352 67.8936 82.3318 67.8936 83.5611C67.8936 84.7904 68.8901 85.787 70.1195 85.787Z" fill="#9E035D"/>
<path d="M118.219 114.645L116.445 124.172L102.529 114.302L102.994 111.809L118.219 114.645Z" fill="#9E035D"/>
</svg>
