<svg width="200" height="200" viewBox="0 0 200 200" fill="none" xmlns="http://www.w3.org/2000/svg">
<circle cx="101" cy="100" r="61" fill="#E8D3E8" fill-opacity="0.3"/>
<path d="M140.288 44.943L90.7841 36.8312C87.1533 36.2362 83.7277 38.6972 83.1327 42.328L66.0101 146.821C65.4151 150.452 67.8761 153.877 71.5069 154.472L121.011 162.584C124.641 163.179 128.067 160.718 128.662 157.087L145.784 52.5944C146.379 48.9636 143.918 45.538 140.288 44.943Z" fill="#9E035D"/>
<path d="M137.536 49.6645L91.8834 42.1838C89.5458 41.8007 87.3404 43.3852 86.9573 45.7227L70.7181 144.825C70.3351 147.162 71.9195 149.368 74.257 149.751L119.909 157.231C122.247 157.615 124.452 156.03 124.835 153.693L141.075 54.5906C141.458 52.253 139.873 50.0476 137.536 49.6645Z" fill="#D974A7"/>
<path d="M45.2767 124.255C45.0832 124.927 45.0934 125.641 45.3058 126.308C45.5183 126.974 45.9236 127.562 46.4704 127.998C47.0171 128.434 47.6809 128.698 48.3777 128.756C49.0745 128.815 49.7731 128.666 50.385 128.327C50.997 127.989 51.4949 127.477 51.8157 126.856C52.1366 126.234 52.266 125.532 52.1876 124.837C52.1092 124.142 51.8265 123.486 51.3753 122.952C50.9241 122.418 50.3246 122.029 49.6527 121.836C48.7515 121.576 47.7843 121.686 46.9637 122.139C46.1431 122.593 45.5362 123.354 45.2767 124.255Z" fill="#D974A7"/>
<path d="M53.1868 116.881C53.178 117.027 53.1523 117.172 53.1102 117.312C53.035 117.574 52.9087 117.818 52.7387 118.03C52.5687 118.243 52.3583 118.42 52.1196 118.551C51.8823 118.683 51.6211 118.767 51.3512 118.797C51.0813 118.827 50.8081 118.803 50.5476 118.726C49.6933 118.48 48.7987 118.404 47.9152 118.504C47.0316 118.603 46.1764 118.876 45.3984 119.307C44.6204 119.738 43.935 120.317 43.3813 121.013C42.8277 121.709 42.4167 122.507 42.1718 123.362C42.0964 123.623 41.9703 123.867 41.8007 124.079C41.6311 124.291 41.4213 124.468 41.1833 124.6C40.7028 124.865 40.1365 124.928 39.6092 124.776C39.0818 124.624 38.6366 124.268 38.3714 123.788C38.1062 123.307 38.0427 122.741 38.195 122.213C38.5871 120.835 39.2491 119.549 40.1425 118.429C41.036 117.309 42.143 116.378 43.3993 115.69C44.341 115.167 45.3538 114.785 46.4059 114.555L53.1868 116.881Z" fill="#D974A7"/>
<path d="M37.4762 111.5L42.4099 113.192C42.3043 113.238 42.2015 113.291 42.1019 113.349C40.5378 114.207 39.1596 115.367 38.0471 116.762C36.9346 118.157 36.11 119.758 35.621 121.474C35.5473 121.736 35.4225 121.982 35.2537 122.196C35.0848 122.41 34.8753 122.588 34.6373 122.721C34.3992 122.853 34.1372 122.938 33.8664 122.969C33.5956 123 33.3214 122.977 33.0594 122.902C32.7975 122.827 32.553 122.7 32.3401 122.53C32.1272 122.36 31.95 122.149 31.8188 121.91C31.6876 121.671 31.6049 121.409 31.5755 121.138C31.5461 120.867 31.5706 120.593 31.6476 120.331C32.634 116.857 34.6697 113.773 37.4762 111.5Z" fill="#D974A7"/>
<path d="M54.9916 110.764C54.8387 111.291 54.4839 111.736 54.0045 112.002C53.525 112.268 52.9599 112.333 52.4322 112.184C51.4752 111.906 50.4905 111.735 49.4959 111.672L41.6143 108.977C45.3874 107.323 49.6221 107.049 53.5772 108.202C54.104 108.355 54.5487 108.711 54.8139 109.191C55.079 109.671 55.1429 110.237 54.9916 110.764Z" fill="#D974A7"/>
<path d="M30.2211 109.021L34.5439 110.496C31.9404 112.984 30.0477 116.121 29.0611 119.584C28.9859 119.846 28.8597 120.09 28.6897 120.303C28.5197 120.515 28.3093 120.692 28.0707 120.823C27.8344 120.956 27.5739 121.041 27.3045 121.072C27.0351 121.103 26.7623 121.08 26.5019 121.004C26.2405 120.929 25.9965 120.804 25.7836 120.635C25.5708 120.466 25.3933 120.257 25.2615 120.019C25.1296 119.781 25.0459 119.52 25.0152 119.25C24.9845 118.98 25.0073 118.706 25.0824 118.445C26.0745 114.961 27.8299 111.742 30.2211 109.021Z" fill="#D974A7"/>
<path d="M56.8829 104.205C56.7298 104.731 56.3741 105.176 55.8937 105.441C55.4134 105.706 54.8476 105.77 54.3203 105.619C51.7453 104.87 49.0476 104.64 46.3832 104.941C43.7187 105.242 41.1404 106.069 38.7974 107.373C38.561 107.505 38.3311 107.635 38.1101 107.782L33.2627 106.119C36.3344 103.648 39.955 101.952 43.8196 101.172C47.6841 100.393 51.6793 100.554 55.4686 101.642C55.9955 101.795 56.4402 102.151 56.7053 102.631C56.9704 103.111 57.0343 103.677 56.8829 104.205Z" fill="#D974A7"/>
<path d="M25.47 109.305L25.47 109.305C25.1368 110.279 25.6559 111.338 26.6294 111.671L53.3622 120.82C54.3357 121.154 55.395 120.634 55.7282 119.661L55.7282 119.661C56.0614 118.687 55.5423 117.628 54.5688 117.295L27.836 108.146C26.8625 107.813 25.8032 108.332 25.47 109.305Z" fill="#D974A7"/>
<path d="M166.832 36.7891C163.236 35.2866 160.694 36.7279 160.093 38.1664C159.659 39.2054 160.337 40.0521 161.057 40.3527C162.495 40.9536 162.766 38.6575 165.483 39.7926C166.815 40.349 167.635 41.3804 167.123 42.6058C166.522 44.0444 164.685 44.247 163.495 44.6256C162.444 44.9689 160.976 45.6383 160.018 47.9293C159.44 49.3145 159.645 49.8699 160.738 50.3262C162.043 50.8715 162.554 50.3967 162.765 49.8906C163.344 48.5052 163.705 47.7172 165.648 47.1838C166.601 46.9248 169.622 46.0591 170.668 43.5551C171.715 41.051 170.241 38.2136 166.832 36.7891Z" fill="#9E035D"/>
<path d="M159.996 52.1757C159.453 51.9562 158.846 51.9595 158.306 52.1849C157.766 52.4103 157.336 52.8396 157.111 53.3796C156.885 53.9196 156.882 54.5268 157.101 55.0695C157.32 55.6121 157.744 56.0464 158.282 56.2782C158.825 56.5017 159.435 56.5011 159.978 56.2765C160.521 56.0518 160.952 55.6214 161.179 55.0793C161.405 54.5372 161.408 53.9275 161.186 53.3834C160.965 52.8393 160.537 52.4051 159.996 52.1757Z" fill="#9E035D"/>
<path d="M99.1957 84.5492C99.5202 82.5515 98.9436 80.7957 97.9077 80.6274C96.8719 80.4591 95.7691 81.9421 95.4445 83.9398C95.12 85.9375 95.6967 87.6933 96.7325 87.8616C97.7684 88.0298 98.8712 86.5468 99.1957 84.5492Z" fill="white"/>
<path d="M120.796 88.0947C121.124 86.0772 120.549 84.3053 119.514 84.137C118.478 83.9687 117.372 85.4678 117.045 87.4854C116.717 89.5029 117.291 91.2748 118.327 91.4431C119.363 91.6114 120.468 90.1123 120.796 88.0947Z" fill="white"/>
<path d="M111.978 105.487C111.903 105.487 111.828 105.472 111.759 105.442C111.69 105.412 111.628 105.369 111.576 105.314L110.795 104.492C109.541 103.176 107.89 102.308 106.096 102.022C104.301 101.736 102.463 102.048 100.863 102.909L99.8644 103.448C99.8003 103.483 99.7299 103.504 99.6574 103.512C99.5849 103.519 99.5116 103.512 99.4417 103.491C99.3718 103.471 99.3068 103.436 99.2502 103.39C99.1937 103.344 99.1467 103.287 99.1121 103.223C99.0774 103.159 99.0558 103.089 99.0483 103.016C99.0409 102.944 99.0478 102.87 99.0686 102.801C99.0895 102.731 99.1239 102.666 99.1699 102.609C99.2159 102.552 99.2727 102.506 99.3368 102.471L100.335 101.932C102.15 100.955 104.235 100.602 106.27 100.926C108.306 101.251 110.178 102.234 111.599 103.727L112.381 104.549C112.455 104.628 112.505 104.727 112.525 104.834C112.544 104.941 112.531 105.051 112.488 105.151C112.445 105.25 112.374 105.335 112.284 105.395C112.193 105.455 112.087 105.487 111.978 105.487V105.487Z" fill="white"/>
</svg>
