<svg width="28" height="28" viewBox="0 0 28 28" fill="none" xmlns="http://www.w3.org/2000/svg">
<path fill-rule="evenodd" clip-rule="evenodd" d="M27.1926 14.9203L25.1815 11.6838C25.0221 11.4272 24.9684 11.1174 25.0316 10.8212L25.83 7.08231C25.9545 6.49964 25.6221 5.91642 25.0624 5.73429L21.4704 4.56608C21.1857 4.47343 20.9481 4.2713 20.8088 4.00313L19.0506 0.618695C18.7767 0.091077 18.1525 -0.139172 17.6082 0.0861337L14.1159 1.53293C13.8392 1.64731 13.5291 1.64731 13.2524 1.53293L9.76058 0.0864059C9.2163 -0.1389 8.5921 0.0913495 8.31796 0.618968L6.5598 4.00309C6.42046 4.27125 6.18286 4.47338 5.89817 4.56604L2.30619 5.73424C1.7462 5.91637 1.41411 6.49964 1.53861 7.08227L2.33673 10.8211C2.40014 11.1174 2.34616 11.4272 2.18683 11.6838L0.17591 14.9203C-0.137621 15.4247 -0.021975 16.0879 0.44262 16.4534L3.42382 18.797C3.66026 18.9829 3.8153 19.2552 3.85586 19.5558L4.36674 23.3459C4.44612 23.9367 4.95525 24.3696 5.54238 24.3465L9.31173 24.1985C9.61041 24.1866 9.90167 24.2944 10.1236 24.4979L12.9169 27.0683C13.3523 27.4688 14.0168 27.4688 14.452 27.0683L17.2456 24.4979C17.4669 24.294 17.7585 24.1866 18.0575 24.1985L21.8265 24.3465C22.4142 24.3696 22.9228 23.9364 23.0024 23.3459L23.5133 19.5558C23.5538 19.2552 23.7089 18.983 23.945 18.797L26.9263 16.4534C27.3908 16.0879 27.5062 15.4247 27.1926 14.9203ZM6.37275 16.5239V13.3605H6.42178L8.56673 16.5239H9.69436V10.9234H8.3461V14.0498H8.29299L6.15621 10.9234H5.02041V16.5239H6.37275ZM14.5522 15.3709H12.1825V14.2427H14.401V13.1841H12.1825V12.0764H14.5522V10.9234H10.7321V16.5239H14.5522V15.3709ZM18.6174 13.1144L17.7103 16.5239H16.3417L14.928 10.9234H16.452L17.1179 14.5668H17.1792L18.0576 10.9234H19.2261L20.1045 14.5668H20.1699L20.8277 10.9234H22.3516L20.938 16.5239H19.5693L18.6664 13.1144H18.6174Z" fill="url(#paint0_linear)"/>
<path fill-rule="evenodd" clip-rule="evenodd" d="M27.1926 14.9203L25.1815 11.6838C25.0221 11.4272 24.9684 11.1174 25.0316 10.8212L25.83 7.08231C25.9545 6.49964 25.6221 5.91642 25.0624 5.73429L21.4704 4.56608C21.1857 4.47343 20.9481 4.2713 20.8088 4.00313L19.0506 0.618695C18.7767 0.091077 18.1525 -0.139172 17.6082 0.0861337L14.1159 1.53293C13.8392 1.64731 13.5291 1.64731 13.2524 1.53293L9.76058 0.0864059C9.2163 -0.1389 8.5921 0.0913495 8.31796 0.618968L6.5598 4.00309C6.42046 4.27125 6.18286 4.47338 5.89817 4.56604L2.30619 5.73424C1.7462 5.91637 1.41411 6.49964 1.53861 7.08227L2.33673 10.8211C2.40014 11.1174 2.34616 11.4272 2.18683 11.6838L0.17591 14.9203C-0.137621 15.4247 -0.021975 16.0879 0.44262 16.4534L3.42382 18.797C3.66026 18.9829 3.8153 19.2552 3.85586 19.5558L4.36674 23.3459C4.44612 23.9367 4.95525 24.3696 5.54238 24.3465L9.31173 24.1985C9.61041 24.1866 9.90167 24.2944 10.1236 24.4979L12.9169 27.0683C13.3523 27.4688 14.0168 27.4688 14.452 27.0683L17.2456 24.4979C17.4669 24.294 17.7585 24.1866 18.0575 24.1985L21.8265 24.3465C22.4142 24.3696 22.9228 23.9364 23.0024 23.3459L23.5133 19.5558C23.5538 19.2552 23.7089 18.983 23.945 18.797L26.9263 16.4534C27.3908 16.0879 27.5062 15.4247 27.1926 14.9203ZM6.37275 16.5239V13.3605H6.42178L8.56673 16.5239H9.69436V10.9234H8.3461V14.0498H8.29299L6.15621 10.9234H5.02041V16.5239H6.37275ZM14.5522 15.3709H12.1825V14.2427H14.401V13.1841H12.1825V12.0764H14.5522V10.9234H10.7321V16.5239H14.5522V15.3709ZM18.6174 13.1144L17.7103 16.5239H16.3417L14.928 10.9234H16.452L17.1179 14.5668H17.1792L18.0576 10.9234H19.2261L20.1045 14.5668H20.1699L20.8277 10.9234H22.3516L20.938 16.5239H19.5693L18.6664 13.1144H18.6174Z" fill="url(#paint1_linear)" fill-opacity="0.8"/>
<path fill-rule="evenodd" clip-rule="evenodd" d="M27.1926 14.9203L25.1815 11.6838C25.0221 11.4272 24.9684 11.1174 25.0316 10.8212L25.83 7.08231C25.9545 6.49964 25.6221 5.91642 25.0624 5.73429L21.4704 4.56608C21.1857 4.47343 20.9481 4.2713 20.8088 4.00313L19.0506 0.618695C18.7767 0.091077 18.1525 -0.139172 17.6082 0.0861337L14.1159 1.53293C13.8392 1.64731 13.5291 1.64731 13.2524 1.53293L9.76058 0.0864059C9.2163 -0.1389 8.5921 0.0913495 8.31796 0.618968L6.5598 4.00309C6.42046 4.27125 6.18286 4.47338 5.89817 4.56604L2.30619 5.73424C1.7462 5.91637 1.41411 6.49964 1.53861 7.08227L2.33673 10.8211C2.40014 11.1174 2.34616 11.4272 2.18683 11.6838L0.17591 14.9203C-0.137621 15.4247 -0.021975 16.0879 0.44262 16.4534L3.42382 18.797C3.66026 18.9829 3.8153 19.2552 3.85586 19.5558L4.36674 23.3459C4.44612 23.9367 4.95525 24.3696 5.54238 24.3465L9.31173 24.1985C9.61041 24.1866 9.90167 24.2944 10.1236 24.4979L12.9169 27.0683C13.3523 27.4688 14.0168 27.4688 14.452 27.0683L17.2456 24.4979C17.4669 24.294 17.7585 24.1866 18.0575 24.1985L21.8265 24.3465C22.4142 24.3696 22.9228 23.9364 23.0024 23.3459L23.5133 19.5558C23.5538 19.2552 23.7089 18.983 23.945 18.797L26.9263 16.4534C27.3908 16.0879 27.5062 15.4247 27.1926 14.9203ZM6.37275 16.5239V13.3605H6.42178L8.56673 16.5239H9.69436V10.9234H8.3461V14.0498H8.29299L6.15621 10.9234H5.02041V16.5239H6.37275ZM14.5522 15.3709H12.1825V14.2427H14.401V13.1841H12.1825V12.0764H14.5522V10.9234H10.7321V16.5239H14.5522V15.3709ZM18.6174 13.1144L17.7103 16.5239H16.3417L14.928 10.9234H16.452L17.1179 14.5668H17.1792L18.0576 10.9234H19.2261L20.1045 14.5668H20.1699L20.8277 10.9234H22.3516L20.938 16.5239H19.5693L18.6664 13.1144H18.6174Z" fill="url(#paint2_linear)"/>
<defs>
<linearGradient id="paint0_linear" x1="0" y1="27.3686" x2="27.3686" y2="-2.45945e-06" gradientUnits="userSpaceOnUse">
<stop stop-color="#6C2891"/>
<stop offset="1" stop-color="#E02EA1"/>
</linearGradient>
<linearGradient id="paint1_linear" x1="27.3686" y1="0" x2="5.72205e-06" y2="27.3686" gradientUnits="userSpaceOnUse">
<stop stop-color="#F17E7E"/>
<stop offset="1" stop-color="#B02386"/>
</linearGradient>
<linearGradient id="paint2_linear" x1="13.6843" y1="0" x2="13.6843" y2="27.3686" gradientUnits="userSpaceOnUse">
<stop stop-color="#B02386"/>
<stop offset="1" stop-color="#B02386" stop-opacity="0"/>
</linearGradient>
</defs>
</svg>
