<svg width="200" height="200" viewBox="0 0 200 200" fill="none" xmlns="http://www.w3.org/2000/svg">
<circle cx="101" cy="100" r="75" fill="#E8D3E8" fill-opacity="0.3"/>
<path d="M138.556 143.846C138.45 144.456 138.226 145.039 137.894 145.562C137.563 146.086 137.132 146.538 136.625 146.894C136.118 147.25 135.547 147.503 134.942 147.638C134.338 147.772 133.713 147.787 133.103 147.679L58.7637 134.727C58.1537 134.621 57.5706 134.396 57.0478 134.064C56.5249 133.733 56.0725 133.302 55.7164 132.795C55.3604 132.289 55.1077 131.717 54.9728 131.113C54.8379 130.509 54.8234 129.884 54.9302 129.274L64.039 77.0044L109.726 58.4336C109.93 58.35 110.154 58.3254 110.372 58.3627C110.59 58.4001 110.793 58.4978 110.957 58.6448L146.806 90.8081L147.665 91.576L147.517 92.4121L138.556 143.846Z" fill="#9E035D"/>
<path d="M145.436 69.3674L73.3153 56.6506C73.1433 56.6203 72.9793 56.7351 72.949 56.9071L59.3413 134.08C59.311 134.252 59.4258 134.416 59.5978 134.447L131.718 147.163C131.89 147.194 132.054 147.079 132.085 146.907L145.692 69.7338C145.723 69.5618 145.608 69.3978 145.436 69.3674Z" fill="white"/>
<path d="M133.041 147.592L101.115 112.965C101.089 112.937 101.071 112.904 101.06 112.867C101.05 112.831 101.049 112.792 101.056 112.755C101.064 112.718 101.08 112.683 101.104 112.653C101.127 112.624 101.158 112.6 101.192 112.584L147.253 91.7373C147.292 91.7194 147.336 91.7126 147.38 91.7177C147.423 91.7228 147.464 91.7396 147.498 91.7663C147.533 91.793 147.559 91.8285 147.575 91.8692C147.591 91.9098 147.595 91.9539 147.588 91.9968L138.557 143.82C138.345 145.037 137.663 146.123 136.659 146.843C135.655 147.563 134.408 147.86 133.187 147.671C133.131 147.662 133.08 147.634 133.041 147.592Z" fill="#D974A7"/>
<path d="M58.8392 134.661L100.596 112.875C100.63 112.858 100.659 112.832 100.681 112.801C100.703 112.77 100.717 112.735 100.723 112.697C100.728 112.66 100.724 112.621 100.712 112.585C100.7 112.55 100.679 112.517 100.652 112.491L64.3593 77.2918C64.328 77.2615 64.2891 77.2403 64.2466 77.2305C64.2042 77.2206 64.1599 77.2225 64.1185 77.236C64.077 77.2494 64.04 77.2739 64.0115 77.3068C63.9829 77.3397 63.9639 77.3797 63.9564 77.4226L54.9256 129.246C54.7134 130.463 54.9875 131.715 55.6888 132.732C56.3901 133.75 57.4626 134.451 58.6757 134.686C58.7314 134.696 58.789 134.688 58.8392 134.661Z" fill="#D974A7"/>
<path d="M133.1 147.656L58.7614 134.702C57.6374 134.503 56.6234 133.904 55.9065 133.015C55.1897 132.127 54.8186 131.009 54.8615 129.868C54.8697 129.674 54.9258 129.485 55.0246 129.317C55.1235 129.15 55.2622 129.009 55.4284 128.908L102.281 100.197C102.526 100.047 102.817 99.9913 103.1 100.041C103.383 100.09 103.638 100.241 103.817 100.464L138.196 143.331C138.318 143.483 138.401 143.662 138.438 143.853C138.474 144.044 138.463 144.241 138.405 144.427C138.059 145.515 137.332 146.441 136.357 147.035C135.382 147.628 134.225 147.849 133.1 147.656Z" fill="#9E035D"/>
</svg>
