<svg xmlns="http://www.w3.org/2000/svg" width="24" height="24" viewBox="0 0 24 24">
  <path id="no-signal" d="M13.5,20.3a1.547,1.547,0,1,1-1.547-1.547A1.547,1.547,0,0,1,13.5,20.3ZM8.832,4.335A14.394,14.394,0,0,1,12,3.984a14.051,14.051,0,0,1,10.377,4.53.938.938,0,1,0,1.372-1.278A15.907,15.907,0,0,0,12,2.109a16.261,16.261,0,0,0-3.581.4.937.937,0,1,0,.413,1.829Zm4.074,4.149a.938.938,0,0,0,.756,1.089,10,10,0,0,1,5.314,2.855.938.938,0,0,0,1.331-1.321,11.863,11.863,0,0,0-6.311-3.379A.937.937,0,0,0,12.906,8.484ZM23.725,22.4,1.6.275A.937.937,0,0,0,.275,1.6L3.325,4.651A16.386,16.386,0,0,0,.252,7.236.937.937,0,0,0,1.623,8.514a14.457,14.457,0,0,1,3.061-2.5L7.267,8.593a12.333,12.333,0,0,0-3.574,2.514.938.938,0,0,0,1.331,1.321,10.165,10.165,0,0,1,3.675-2.4l3.01,3.01A6.819,6.819,0,0,0,7.359,14.99a.938.938,0,0,0,1.32,1.332,4.9,4.9,0,0,1,3.243-1.416h.069a4.579,4.579,0,0,1,2.215.64l.028.014L22.4,23.726A.937.937,0,1,0,23.725,22.4Zm0,0" fill="#fff"/>
</svg>
