<svg width="24" height="24" viewBox="0 0 24 24" fill="none" xmlns="http://www.w3.org/2000/svg">
<path d="M6 2L3 6V20C3 20.5304 3.21071 21.0391 3.58579 21.4142C3.96086 21.7893 4.46957 22 5 22H19C19.5304 22 20.0391 21.7893 20.4142 21.4142C20.7893 21.0391 21 20.5304 21 20V6L18 2H6Z" stroke="url(#paint0_linear)" stroke-width="2" stroke-linecap="round" stroke-linejoin="round"/>
<path d="M3 6H21" stroke="url(#paint1_linear)" stroke-width="2" stroke-linecap="round" stroke-linejoin="round"/>
<path d="M16 10C16 11.0609 15.5786 12.0783 14.8284 12.8284C14.0783 13.5786 13.0609 14 12 14C10.9391 14 9.92172 13.5786 9.17157 12.8284C8.42143 12.0783 8 11.0609 8 10" stroke="url(#paint2_linear)" stroke-width="2" stroke-linecap="round" stroke-linejoin="round"/>
<defs>
<linearGradient id="paint0_linear" x1="3" y1="2" x2="21.8452" y2="2.83088" gradientUnits="userSpaceOnUse">
<stop stop-color="#AE2B88"/>
<stop offset="1" stop-color="#C54586"/>
</linearGradient>
<linearGradient id="paint1_linear" x1="3" y1="6" x2="13.6223" y2="15.3667" gradientUnits="userSpaceOnUse">
<stop stop-color="#AE2B88"/>
<stop offset="1" stop-color="#C54586"/>
</linearGradient>
<linearGradient id="paint2_linear" x1="8" y1="10" x2="16.3121" y2="10.8144" gradientUnits="userSpaceOnUse">
<stop stop-color="#AE2B88"/>
<stop offset="1" stop-color="#C54586"/>
</linearGradient>
</defs>
</svg>
