<svg width="200" height="200" viewBox="0 0 200 200" fill="none" xmlns="http://www.w3.org/2000/svg">
<circle cx="101" cy="100" r="75" fill="#E8D3E8" fill-opacity="0.3"/>
<path d="M86.0325 50.7697C85.6493 50.7454 85.2905 50.5734 85.0316 50.2899C84.7726 50.0064 84.6337 49.6336 84.6441 49.2497L84.7507 34.7867C84.7483 34.5856 84.7864 34.386 84.8628 34.1999C84.9391 34.0138 85.0522 33.845 85.1952 33.7035C85.3382 33.5621 85.5082 33.4508 85.6951 33.3765C85.882 33.3021 86.082 33.2661 86.2831 33.2706L87.4392 33.3223C87.6396 33.3355 87.8352 33.3891 88.0144 33.4799C88.1935 33.5707 88.3525 33.6968 88.4816 33.8506C88.6108 34.0044 88.7075 34.1827 88.7659 34.3749C88.8244 34.567 88.8433 34.769 88.8217 34.9686L87.559 49.38C87.5326 49.7637 87.3591 50.1223 87.0747 50.3812C86.7903 50.6401 86.417 50.7793 86.0325 50.7697Z" fill="#9E035D"/>
<path d="M79.2708 52.3367C79.0347 52.4184 78.7758 52.4029 78.5511 52.2937C78.3263 52.1845 78.1542 51.9905 78.0725 51.7544L74.8271 42.9141C74.7329 42.6628 74.7423 42.3844 74.8532 42.14C74.9641 41.8956 75.1675 41.7052 75.4186 41.6106L76.1385 41.3556C76.2621 41.3131 76.3931 41.2967 76.5233 41.3074C76.6536 41.3181 76.7802 41.3557 76.8951 41.4178C77.0101 41.4799 77.111 41.5651 77.1913 41.6682C77.2717 41.7712 77.3298 41.8898 77.362 42.0164L79.8876 51.1116C79.9575 51.3559 79.9329 51.6176 79.8186 51.8446C79.7043 52.0716 79.5087 52.2473 79.2708 52.3367Z" fill="#9E035D"/>
<path d="M75.7107 57.6916C75.235 58.3417 74.2183 58.3824 73.4059 57.7838L58.9812 47.1563C58.1196 46.5214 57.822 45.4176 58.3266 44.7282L59.0299 43.7671C59.5346 43.0775 60.6382 43.0796 61.458 43.7722L75.1792 55.3607C75.952 56.0134 76.1863 57.0415 75.7107 57.6916Z" fill="#9E035D"/>
<path d="M177.028 80.6544L88.0331 59.4691C84.7351 58.684 81.4251 60.7212 80.64 64.0191L67.5527 118.996C66.7676 122.294 68.8047 125.604 72.1027 126.39L161.098 147.575C164.396 148.36 167.706 146.323 168.491 143.025L181.578 88.0474C182.363 84.7494 180.326 81.4394 177.028 80.6544Z" fill="#EC9EC5"/>
<path d="M180.343 93.237L79.4043 69.2087L76.6657 80.7131L177.604 104.741L180.343 93.237Z" fill="#9E035D"/>
<path d="M164.163 136.209L144.093 131.431C144.029 131.416 143.965 131.455 143.95 131.519L142.678 136.861C142.663 136.925 142.702 136.989 142.766 137.004L162.837 141.782C162.901 141.797 162.965 141.758 162.98 141.694L164.252 136.352C164.267 136.288 164.227 136.224 164.163 136.209Z" fill="white"/>
<path d="M125.468 51.7984L21.8144 87.5052C18.6091 88.6094 16.9058 92.1029 18.01 95.3082L40.3355 160.117C41.4396 163.322 44.9331 165.025 48.1384 163.921L151.792 128.214C154.997 127.11 156.7 123.617 155.596 120.411L133.27 55.6029C132.166 52.3976 128.673 50.6943 125.468 51.7984Z" fill="white"/>
<path d="M123.314 60.1765L111.223 64.3416C109.3 65.0041 108.278 67.1002 108.941 69.0234L113.106 81.1141C113.768 83.0373 115.864 84.0592 117.788 83.3967L129.878 79.2317C131.802 78.5692 132.823 76.4731 132.161 74.5499L127.996 62.4592C127.333 60.536 125.237 59.514 123.314 60.1765Z" fill="#EC9EC5"/>
<path d="M80.9661 118.12L40.7491 131.974C40.6339 132.014 40.5727 132.14 40.6124 132.255L42.6609 138.201C42.7006 138.317 42.8261 138.378 42.9413 138.338L83.1583 124.484C83.2735 124.444 83.3348 124.319 83.2951 124.203L81.2466 118.257C81.2069 118.142 81.0813 118.08 80.9661 118.12Z" fill="#EC9EC5"/>
<path d="M102.378 124.49L44.981 144.262C44.8658 144.302 44.8046 144.427 44.8443 144.543L46.8928 150.489C46.9325 150.604 47.0581 150.666 47.1733 150.626L104.57 130.854C104.685 130.814 104.746 130.689 104.707 130.573L102.658 124.627C102.618 124.512 102.493 124.45 102.378 124.49Z" fill="#EC9EC5"/>
</svg>
