<svg width="32" height="14" viewBox="0 0 32 14" fill="none" xmlns="http://www.w3.org/2000/svg">
<path d="M27.6875 13.6562C26.4656 13.6562 25.5312 12.7219 25.5312 11.5C25.5312 10.2781 26.4656 9.34375 27.6875 9.34375C28.9094 9.34375 29.8438 10.2781 29.8438 11.5C29.8438 12.7219 28.9094 13.6562 27.6875 13.6562Z" fill="url(#paint0_linear)"/>
<path d="M27.6875 13.6562C26.4656 13.6562 25.5312 12.7219 25.5312 11.5C25.5312 10.2781 26.4656 9.34375 27.6875 9.34375C28.9094 9.34375 29.8438 10.2781 29.8438 11.5C29.8438 12.7219 28.9094 13.6562 27.6875 13.6562Z" fill="url(#paint1_linear)" fill-opacity="0.8"/>
<path d="M27.6875 13.6562C26.4656 13.6562 25.5312 12.7219 25.5312 11.5C25.5312 10.2781 26.4656 9.34375 27.6875 9.34375C28.9094 9.34375 29.8438 10.2781 29.8438 11.5C29.8438 12.7219 28.9094 13.6562 27.6875 13.6562Z" fill="url(#paint2_linear)"/>
<path d="M11.1875 13.6562C9.96562 13.6562 9.03125 12.7219 9.03125 11.5C9.03125 10.2781 9.96562 9.34375 11.1875 9.34375C12.4094 9.34375 13.3438 10.2781 13.3438 11.5C13.3438 12.7219 12.4094 13.6562 11.1875 13.6562Z" fill="url(#paint3_linear)"/>
<path d="M11.1875 13.6562C9.96562 13.6562 9.03125 12.7219 9.03125 11.5C9.03125 10.2781 9.96562 9.34375 11.1875 9.34375C12.4094 9.34375 13.3438 10.2781 13.3438 11.5C13.3438 12.7219 12.4094 13.6562 11.1875 13.6562Z" fill="url(#paint4_linear)" fill-opacity="0.8"/>
<path d="M11.1875 13.6562C9.96562 13.6562 9.03125 12.7219 9.03125 11.5C9.03125 10.2781 9.96562 9.34375 11.1875 9.34375C12.4094 9.34375 13.3438 10.2781 13.3438 11.5C13.3438 12.7219 12.4094 13.6562 11.1875 13.6562Z" fill="url(#paint5_linear)"/>
<path d="M31.8562 6.75625L28.9812 3.1625C28.8375 2.94687 28.6219 2.875 28.4062 2.875H24.8125V0.71875C24.8125 0.2875 24.525 0 24.0938 0H7.59375C7.1625 0 6.875 0.2875 6.875 0.71875V1.4375H7.59375C8.025 1.4375 8.3125 1.725 8.3125 2.15625C8.3125 2.5875 8.025 2.875 7.59375 2.875H6.875H4.15625C3.725 2.875 3.4375 3.1625 3.4375 3.59375C3.4375 4.025 3.725 4.3125 4.15625 4.3125H6.875H8.3125C8.74375 4.3125 9.03125 4.6 9.03125 5.03125C9.03125 5.4625 8.74375 5.75 8.3125 5.75H6.875H0.71875C0.2875 5.75 0 6.0375 0 6.46875C0 6.9 0.2875 7.1875 0.71875 7.1875H6.875V11.5C6.875 11.9312 7.1625 12.2188 7.59375 12.2188H7.66562C7.59375 12.0031 7.59375 11.7156 7.59375 11.5C7.59375 9.4875 9.175 7.90625 11.1875 7.90625C13.2 7.90625 14.7812 9.4875 14.7812 11.5C14.7812 11.7156 14.7812 12.0031 14.7094 12.2188H24.0938H24.1656C24.0938 12.0031 24.0938 11.7156 24.0938 11.5C24.0938 9.4875 25.675 7.90625 27.6875 7.90625C29.7 7.90625 31.2812 9.4875 31.2812 11.5C31.2812 11.7156 31.2812 12.0031 31.2094 12.2188H31.2812C31.7125 12.2188 32 11.9312 32 11.5V7.1875C32 7.04375 31.9281 6.9 31.8562 6.75625Z" fill="url(#paint6_linear)"/>
<path d="M31.8562 6.75625L28.9812 3.1625C28.8375 2.94687 28.6219 2.875 28.4062 2.875H24.8125V0.71875C24.8125 0.2875 24.525 0 24.0938 0H7.59375C7.1625 0 6.875 0.2875 6.875 0.71875V1.4375H7.59375C8.025 1.4375 8.3125 1.725 8.3125 2.15625C8.3125 2.5875 8.025 2.875 7.59375 2.875H6.875H4.15625C3.725 2.875 3.4375 3.1625 3.4375 3.59375C3.4375 4.025 3.725 4.3125 4.15625 4.3125H6.875H8.3125C8.74375 4.3125 9.03125 4.6 9.03125 5.03125C9.03125 5.4625 8.74375 5.75 8.3125 5.75H6.875H0.71875C0.2875 5.75 0 6.0375 0 6.46875C0 6.9 0.2875 7.1875 0.71875 7.1875H6.875V11.5C6.875 11.9312 7.1625 12.2188 7.59375 12.2188H7.66562C7.59375 12.0031 7.59375 11.7156 7.59375 11.5C7.59375 9.4875 9.175 7.90625 11.1875 7.90625C13.2 7.90625 14.7812 9.4875 14.7812 11.5C14.7812 11.7156 14.7812 12.0031 14.7094 12.2188H24.0938H24.1656C24.0938 12.0031 24.0938 11.7156 24.0938 11.5C24.0938 9.4875 25.675 7.90625 27.6875 7.90625C29.7 7.90625 31.2812 9.4875 31.2812 11.5C31.2812 11.7156 31.2812 12.0031 31.2094 12.2188H31.2812C31.7125 12.2188 32 11.9312 32 11.5V7.1875C32 7.04375 31.9281 6.9 31.8562 6.75625Z" fill="url(#paint7_linear)" fill-opacity="0.8"/>
<path d="M31.8562 6.75625L28.9812 3.1625C28.8375 2.94687 28.6219 2.875 28.4062 2.875H24.8125V0.71875C24.8125 0.2875 24.525 0 24.0938 0H7.59375C7.1625 0 6.875 0.2875 6.875 0.71875V1.4375H7.59375C8.025 1.4375 8.3125 1.725 8.3125 2.15625C8.3125 2.5875 8.025 2.875 7.59375 2.875H6.875H4.15625C3.725 2.875 3.4375 3.1625 3.4375 3.59375C3.4375 4.025 3.725 4.3125 4.15625 4.3125H6.875H8.3125C8.74375 4.3125 9.03125 4.6 9.03125 5.03125C9.03125 5.4625 8.74375 5.75 8.3125 5.75H6.875H0.71875C0.2875 5.75 0 6.0375 0 6.46875C0 6.9 0.2875 7.1875 0.71875 7.1875H6.875V11.5C6.875 11.9312 7.1625 12.2188 7.59375 12.2188H7.66562C7.59375 12.0031 7.59375 11.7156 7.59375 11.5C7.59375 9.4875 9.175 7.90625 11.1875 7.90625C13.2 7.90625 14.7812 9.4875 14.7812 11.5C14.7812 11.7156 14.7812 12.0031 14.7094 12.2188H24.0938H24.1656C24.0938 12.0031 24.0938 11.7156 24.0938 11.5C24.0938 9.4875 25.675 7.90625 27.6875 7.90625C29.7 7.90625 31.2812 9.4875 31.2812 11.5C31.2812 11.7156 31.2812 12.0031 31.2094 12.2188H31.2812C31.7125 12.2188 32 11.9312 32 11.5V7.1875C32 7.04375 31.9281 6.9 31.8562 6.75625Z" fill="url(#paint8_linear)"/>
<defs>
<linearGradient id="paint0_linear" x1="25.5312" y1="13.6562" x2="29.8438" y2="9.34375" gradientUnits="userSpaceOnUse">
<stop stop-color="#6C2891"/>
<stop offset="1" stop-color="#E02EA1"/>
</linearGradient>
<linearGradient id="paint1_linear" x1="29.8438" y1="9.34375" x2="25.5312" y2="13.6562" gradientUnits="userSpaceOnUse">
<stop stop-color="#F17E7E"/>
<stop offset="1" stop-color="#B02386"/>
</linearGradient>
<linearGradient id="paint2_linear" x1="27.6875" y1="9.34375" x2="27.6875" y2="13.6562" gradientUnits="userSpaceOnUse">
<stop stop-color="#B02386"/>
<stop offset="1" stop-color="#B02386" stop-opacity="0"/>
</linearGradient>
<linearGradient id="paint3_linear" x1="9.03125" y1="13.6562" x2="13.3438" y2="9.34375" gradientUnits="userSpaceOnUse">
<stop stop-color="#6C2891"/>
<stop offset="1" stop-color="#E02EA1"/>
</linearGradient>
<linearGradient id="paint4_linear" x1="13.3438" y1="9.34375" x2="9.03125" y2="13.6562" gradientUnits="userSpaceOnUse">
<stop stop-color="#F17E7E"/>
<stop offset="1" stop-color="#B02386"/>
</linearGradient>
<linearGradient id="paint5_linear" x1="11.1875" y1="9.34375" x2="11.1875" y2="13.6562" gradientUnits="userSpaceOnUse">
<stop stop-color="#B02386"/>
<stop offset="1" stop-color="#B02386" stop-opacity="0"/>
</linearGradient>
<linearGradient id="paint6_linear" x1="0" y1="12.2188" x2="8.14377" y2="-9.10917" gradientUnits="userSpaceOnUse">
<stop stop-color="#6C2891"/>
<stop offset="1" stop-color="#E02EA1"/>
</linearGradient>
<linearGradient id="paint7_linear" x1="32" y1="0" x2="23.8562" y2="21.3279" gradientUnits="userSpaceOnUse">
<stop stop-color="#F17E7E"/>
<stop offset="1" stop-color="#B02386"/>
</linearGradient>
<linearGradient id="paint8_linear" x1="16" y1="0" x2="16" y2="12.2188" gradientUnits="userSpaceOnUse">
<stop stop-color="#B02386"/>
<stop offset="1" stop-color="#B02386" stop-opacity="0"/>
</linearGradient>
</defs>
</svg>
