<svg width="30" height="27" viewBox="0 0 30 27" fill="none" xmlns="http://www.w3.org/2000/svg">
<path fill-rule="evenodd" clip-rule="evenodd" d="M6.75288 2.43792C6.32349 3.12585 6.26323 3.98141 6.3523 4.55793C6.38788 4.78822 6.28722 5.01833 6.09396 5.14851C5.90069 5.27869 5.64961 5.2855 5.44958 5.16599C5.00477 4.90024 4.27046 4.63993 3.54326 4.70382C2.86348 4.76355 2.13556 5.10724 1.60429 6.16526C1.06373 7.24181 1.13392 8.20599 1.4332 8.98965C1.7027 9.69532 2.16016 10.2551 2.53484 10.5881H7.51772L3.54897 7.95349C3.27227 7.76981 3.19686 7.39659 3.38055 7.11989C3.56423 6.84319 3.93745 6.76779 4.21415 6.95148L8.90954 10.0685V4.33833C8.90954 4.00622 9.17877 3.73698 9.51089 3.73698C9.84301 3.73698 10.1122 4.00622 10.1122 4.33833V10.0317L14.4817 6.96051C14.7534 6.76952 15.1285 6.83496 15.3195 7.10668C15.5105 7.37839 15.445 7.75348 15.1733 7.94446L11.4122 10.5881H15.8566C16.3456 10.1503 16.9228 9.45438 17.2298 8.66034C17.5591 7.80868 17.5739 6.87392 16.8555 5.95417C16.4956 5.49335 16.1349 5.20159 15.7967 5.02228C14.7009 4.44122 13.5777 4.94029 13.0333 5.41456C12.8324 5.58962 12.5403 5.61157 12.3154 5.4685C12.0906 5.32542 11.9868 5.05146 12.0603 4.79531C12.2471 4.14419 12.3131 3.21006 11.9933 2.47668C11.8394 2.1239 11.5972 1.81719 11.2256 1.5933C10.8499 1.36694 10.304 1.20271 9.51089 1.20271C7.93793 1.20271 7.15491 1.79383 6.75288 2.43792ZM17.491 10.5881H19.6411L24.8021 6.96051C25.0738 6.76952 25.4489 6.83496 25.6399 7.10668C25.8309 7.37839 25.7655 7.75348 25.4937 7.94446L21.7326 10.5881H26.5239C27.0669 10.1965 27.718 9.55573 28.0778 8.81043C28.2704 8.4114 28.3711 8.0005 28.3456 7.58892C28.3204 7.18314 28.1706 6.73826 27.8014 6.26558C27.019 5.26386 26.1976 4.91146 25.5182 4.83468C24.8157 4.75528 24.2152 4.96538 23.902 5.1603C23.7025 5.28447 23.4489 5.28105 23.2528 5.15154C23.0567 5.02203 22.954 4.79017 22.9899 4.55793C23.0804 3.97211 23.0322 3.10788 22.6393 2.41673C22.2747 1.77558 21.571 1.20271 20.1441 1.20271C18.7028 1.20271 17.866 1.7653 17.3721 2.42158C16.9512 2.98082 16.7562 3.6415 16.6987 4.16263C17.084 4.4211 17.4548 4.76763 17.8033 5.21382C18.8363 6.53626 18.7989 7.93711 18.3516 9.09408C18.1365 9.65036 17.8261 10.1564 17.491 10.5881ZM15.5608 3.65176C15.6803 3.02965 15.9392 2.3254 16.4111 1.69837C17.1369 0.733961 18.3328 0 20.1441 0C21.9697 0 23.0903 0.776597 23.6848 1.82228C24.0377 2.443 24.1884 3.12758 24.2232 3.74018C24.6437 3.63158 25.131 3.58055 25.6533 3.63958C26.6731 3.75484 27.7803 4.28478 28.7493 5.52524C29.2557 6.17366 29.5047 6.84728 29.546 7.51458C29.587 8.17608 29.4218 8.79285 29.1609 9.33326C28.7828 10.1166 28.1865 10.7766 27.6255 11.2516C27.6203 12.1302 27.504 13.5578 27.1749 15.1132C26.8387 16.702 26.2717 18.4666 25.3419 19.9215C24.4352 21.3403 23.5329 22.2993 22.7571 22.9234C22.2414 23.3384 21.7656 23.6178 21.3709 23.7781V25.5146C21.3709 25.8467 21.1017 26.1159 20.7696 26.1159H8.57267C8.24055 26.1159 7.97131 25.8467 7.97131 25.5146V23.6788C7.62853 23.4545 7.2171 23.1192 6.76532 22.6871C6.1453 22.094 5.42029 21.2907 4.65217 20.2709C3.83919 19.1915 3.11089 17.4782 2.58805 15.798C2.1054 14.247 1.77188 12.6398 1.72277 11.4753C1.22315 11.0276 0.652845 10.3174 0.309642 9.41874C-0.0947453 8.35986 -0.180919 7.04033 0.529476 5.62556C1.24918 4.19226 2.34558 3.60171 3.438 3.50573C4.04252 3.45261 4.62721 3.55154 5.12842 3.71351C5.17544 3.10014 5.34741 2.41822 5.73262 1.80108C6.38348 0.758342 7.58116 0 9.51089 0C10.4691 0 11.242 0.199082 11.8462 0.563118C12.4545 0.929615 12.8534 1.44037 13.0957 1.99588C13.3529 2.58568 13.434 3.22368 13.4174 3.81202C14.0306 3.57532 14.7749 3.45695 15.5608 3.65176ZM2.94895 11.7908C3.0376 12.7772 3.32002 14.1025 3.73644 15.4407C4.24565 17.0771 4.92468 18.6336 5.61286 19.5473C6.3459 20.5205 7.02822 21.2743 7.59662 21.8179C8.09092 22.2907 8.47911 22.5854 8.72655 22.7333H20.7108C20.9092 22.6864 21.372 22.4942 22.0032 21.9864C22.6661 21.453 23.4838 20.5955 24.3285 19.2738C25.1501 17.9883 25.6776 16.3793 25.9982 14.8642C26.2476 13.6858 26.3663 12.5901 26.4066 11.7908H19.8395C19.8344 11.7909 19.8293 11.7909 19.8243 11.7908H2.94895ZM20.1682 23.936H9.17402V24.9132H20.1682V23.936ZM20.1441 3.38261C19.9556 3.38261 19.8072 3.53406 19.8072 3.7155C19.8072 3.89695 19.9556 4.0484 20.1441 4.0484C20.3325 4.0484 20.481 3.89695 20.481 3.7155C20.481 3.53406 20.3325 3.38261 20.1441 3.38261ZM18.6045 3.7155C18.6045 2.86501 19.2962 2.17991 20.1441 2.17991C20.992 2.17991 21.6837 2.86501 21.6837 3.7155C21.6837 4.566 20.992 5.2511 20.1441 5.2511C19.2962 5.2511 18.6045 4.566 18.6045 3.7155ZM6.15933 14.3684C6.46751 14.2446 6.8177 14.3941 6.9415 14.7023C7.13897 15.1939 7.7203 16.4284 8.42753 17.3674C9.11122 18.2751 10.2666 19.0996 10.7575 19.3929C11.0427 19.5632 11.1357 19.9324 10.9653 20.2175C10.795 20.5026 10.4258 20.5957 10.1407 20.4253C9.58912 20.0958 8.28431 19.1763 7.46684 18.091C6.67292 17.0369 6.04498 15.6971 5.82547 15.1506C5.70167 14.8424 5.85115 14.4922 6.15933 14.3684Z" fill="url(#paint0_linear)"/>
<path fill-rule="evenodd" clip-rule="evenodd" d="M6.75288 2.43792C6.32349 3.12585 6.26323 3.98141 6.3523 4.55793C6.38788 4.78822 6.28722 5.01833 6.09396 5.14851C5.90069 5.27869 5.64961 5.2855 5.44958 5.16599C5.00477 4.90024 4.27046 4.63993 3.54326 4.70382C2.86348 4.76355 2.13556 5.10724 1.60429 6.16526C1.06373 7.24181 1.13392 8.20599 1.4332 8.98965C1.7027 9.69532 2.16016 10.2551 2.53484 10.5881H7.51772L3.54897 7.95349C3.27227 7.76981 3.19686 7.39659 3.38055 7.11989C3.56423 6.84319 3.93745 6.76779 4.21415 6.95148L8.90954 10.0685V4.33833C8.90954 4.00622 9.17877 3.73698 9.51089 3.73698C9.84301 3.73698 10.1122 4.00622 10.1122 4.33833V10.0317L14.4817 6.96051C14.7534 6.76952 15.1285 6.83496 15.3195 7.10668C15.5105 7.37839 15.445 7.75348 15.1733 7.94446L11.4122 10.5881H15.8566C16.3456 10.1503 16.9228 9.45438 17.2298 8.66034C17.5591 7.80868 17.5739 6.87392 16.8555 5.95417C16.4956 5.49335 16.1349 5.20159 15.7967 5.02228C14.7009 4.44122 13.5777 4.94029 13.0333 5.41456C12.8324 5.58962 12.5403 5.61157 12.3154 5.4685C12.0906 5.32542 11.9868 5.05146 12.0603 4.79531C12.2471 4.14419 12.3131 3.21006 11.9933 2.47668C11.8394 2.1239 11.5972 1.81719 11.2256 1.5933C10.8499 1.36694 10.304 1.20271 9.51089 1.20271C7.93793 1.20271 7.15491 1.79383 6.75288 2.43792ZM17.491 10.5881H19.6411L24.8021 6.96051C25.0738 6.76952 25.4489 6.83496 25.6399 7.10668C25.8309 7.37839 25.7655 7.75348 25.4937 7.94446L21.7326 10.5881H26.5239C27.0669 10.1965 27.718 9.55573 28.0778 8.81043C28.2704 8.4114 28.3711 8.0005 28.3456 7.58892C28.3204 7.18314 28.1706 6.73826 27.8014 6.26558C27.019 5.26386 26.1976 4.91146 25.5182 4.83468C24.8157 4.75528 24.2152 4.96538 23.902 5.1603C23.7025 5.28447 23.4489 5.28105 23.2528 5.15154C23.0567 5.02203 22.954 4.79017 22.9899 4.55793C23.0804 3.97211 23.0322 3.10788 22.6393 2.41673C22.2747 1.77558 21.571 1.20271 20.1441 1.20271C18.7028 1.20271 17.866 1.7653 17.3721 2.42158C16.9512 2.98082 16.7562 3.6415 16.6987 4.16263C17.084 4.4211 17.4548 4.76763 17.8033 5.21382C18.8363 6.53626 18.7989 7.93711 18.3516 9.09408C18.1365 9.65036 17.8261 10.1564 17.491 10.5881ZM15.5608 3.65176C15.6803 3.02965 15.9392 2.3254 16.4111 1.69837C17.1369 0.733961 18.3328 0 20.1441 0C21.9697 0 23.0903 0.776597 23.6848 1.82228C24.0377 2.443 24.1884 3.12758 24.2232 3.74018C24.6437 3.63158 25.131 3.58055 25.6533 3.63958C26.6731 3.75484 27.7803 4.28478 28.7493 5.52524C29.2557 6.17366 29.5047 6.84728 29.546 7.51458C29.587 8.17608 29.4218 8.79285 29.1609 9.33326C28.7828 10.1166 28.1865 10.7766 27.6255 11.2516C27.6203 12.1302 27.504 13.5578 27.1749 15.1132C26.8387 16.702 26.2717 18.4666 25.3419 19.9215C24.4352 21.3403 23.5329 22.2993 22.7571 22.9234C22.2414 23.3384 21.7656 23.6178 21.3709 23.7781V25.5146C21.3709 25.8467 21.1017 26.1159 20.7696 26.1159H8.57267C8.24055 26.1159 7.97131 25.8467 7.97131 25.5146V23.6788C7.62853 23.4545 7.2171 23.1192 6.76532 22.6871C6.1453 22.094 5.42029 21.2907 4.65217 20.2709C3.83919 19.1915 3.11089 17.4782 2.58805 15.798C2.1054 14.247 1.77188 12.6398 1.72277 11.4753C1.22315 11.0276 0.652845 10.3174 0.309642 9.41874C-0.0947453 8.35986 -0.180919 7.04033 0.529476 5.62556C1.24918 4.19226 2.34558 3.60171 3.438 3.50573C4.04252 3.45261 4.62721 3.55154 5.12842 3.71351C5.17544 3.10014 5.34741 2.41822 5.73262 1.80108C6.38348 0.758342 7.58116 0 9.51089 0C10.4691 0 11.242 0.199082 11.8462 0.563118C12.4545 0.929615 12.8534 1.44037 13.0957 1.99588C13.3529 2.58568 13.434 3.22368 13.4174 3.81202C14.0306 3.57532 14.7749 3.45695 15.5608 3.65176ZM2.94895 11.7908C3.0376 12.7772 3.32002 14.1025 3.73644 15.4407C4.24565 17.0771 4.92468 18.6336 5.61286 19.5473C6.3459 20.5205 7.02822 21.2743 7.59662 21.8179C8.09092 22.2907 8.47911 22.5854 8.72655 22.7333H20.7108C20.9092 22.6864 21.372 22.4942 22.0032 21.9864C22.6661 21.453 23.4838 20.5955 24.3285 19.2738C25.1501 17.9883 25.6776 16.3793 25.9982 14.8642C26.2476 13.6858 26.3663 12.5901 26.4066 11.7908H19.8395C19.8344 11.7909 19.8293 11.7909 19.8243 11.7908H2.94895ZM20.1682 23.936H9.17402V24.9132H20.1682V23.936ZM20.1441 3.38261C19.9556 3.38261 19.8072 3.53406 19.8072 3.7155C19.8072 3.89695 19.9556 4.0484 20.1441 4.0484C20.3325 4.0484 20.481 3.89695 20.481 3.7155C20.481 3.53406 20.3325 3.38261 20.1441 3.38261ZM18.6045 3.7155C18.6045 2.86501 19.2962 2.17991 20.1441 2.17991C20.992 2.17991 21.6837 2.86501 21.6837 3.7155C21.6837 4.566 20.992 5.2511 20.1441 5.2511C19.2962 5.2511 18.6045 4.566 18.6045 3.7155ZM6.15933 14.3684C6.46751 14.2446 6.8177 14.3941 6.9415 14.7023C7.13897 15.1939 7.7203 16.4284 8.42753 17.3674C9.11122 18.2751 10.2666 19.0996 10.7575 19.3929C11.0427 19.5632 11.1357 19.9324 10.9653 20.2175C10.795 20.5026 10.4258 20.5957 10.1407 20.4253C9.58912 20.0958 8.28431 19.1763 7.46684 18.091C6.67292 17.0369 6.04498 15.6971 5.82547 15.1506C5.70167 14.8424 5.85115 14.4922 6.15933 14.3684Z" fill="#9E035D"/>
<defs>
<linearGradient id="paint0_linear" x1="0" y1="0" x2="30.905" y2="1.71319" gradientUnits="userSpaceOnUse">
<stop stop-color="#AE2B88"/>
<stop offset="1" stop-color="#C54586"/>
</linearGradient>
</defs>
</svg>
