<svg id="Group_546" data-name="Group 546" xmlns="http://www.w3.org/2000/svg" width="62" height="62" viewBox="0 0 62 62">
  <g id="Group_545" data-name="Group 545">
    <g id="Group_544" data-name="Group 544">
      <path id="Path_3686" data-name="Path 3686" d="M31,0A31,31,0,1,0,62,31,31.036,31.036,0,0,0,31,0Zm0,59.417A28.459,28.459,0,0,1,3.667,38.75H22.05A10.848,10.848,0,0,0,31,43.917a10.848,10.848,0,0,0,8.95-5.167H58.333A28.459,28.459,0,0,1,31,59.417Zm8.233-23.25a1.292,1.292,0,0,0-1.115.638A8.45,8.45,0,0,1,31,41.333,8.45,8.45,0,0,1,23.882,36.8a1.291,1.291,0,0,0-1.115-.638H3.063a28.417,28.417,0,1,1,55.875,0Z" fill="#202020"/>
      <path id="Path_3687" data-name="Path 3687" d="M227.92,149.827l-7.691,7.691a5.106,5.106,0,0,0-1.73-.319,5.227,5.227,0,1,0,3.893,1.808l7.353-7.353a1.292,1.292,0,0,0-1.826-1.826Zm-9.42,15.121a2.583,2.583,0,1,1,2.583-2.583A2.583,2.583,0,0,1,218.5,164.948Z" transform="translate(-187.5 -131.365)" fill="#202020"/>
      <path id="Path_3688" data-name="Path 3688" d="M246.625,39.75a1.292,1.292,0,0,0,1.292-1.292V33.292a1.292,1.292,0,0,0-2.583,0v5.167A1.292,1.292,0,0,0,246.625,39.75Z" transform="translate(-215.625 -28.125)" fill="#29b6f6"/>
      <path id="Path_3689" data-name="Path 3689" d="M422.457,245.333h-5.167a1.292,1.292,0,0,0,0,2.583h5.167a1.292,1.292,0,1,0,0-2.583Z" transform="translate(-365.624 -215.625)" fill="#202020"/>
      <path id="Path_3690" data-name="Path 3690" d="M38.458,245.333H33.292a1.292,1.292,0,0,0,0,2.583h5.167a1.292,1.292,0,0,0,0-2.583Z" transform="translate(-28.125 -215.625)" fill="#29b6f6"/>
      <path id="Path_3691" data-name="Path 3691" d="M145.511,68.851l-2.2-3.812a1.292,1.292,0,0,0-2.237,1.292l2.2,3.812a1.292,1.292,0,0,0,2.246-1.277Z" transform="translate(-123.846 -56.602)" fill="#29b6f6"/>
      <path id="Path_3692" data-name="Path 3692" d="M401.091,141.491a1.292,1.292,0,0,0-1.761-.484l-.015.008-3.812,2.2a1.292,1.292,0,1,0,1.292,2.237l3.812-2.2A1.292,1.292,0,0,0,401.091,141.491Z" transform="translate(-347.043 -123.783)" fill="#202020"/>
      <path id="Path_3693" data-name="Path 3693" d="M70.051,143.189l-.015-.009-3.812-2.2a1.292,1.292,0,0,0-1.306,2.229l.015.008h0l3.812,2.2a1.292,1.292,0,0,0,1.307-2.229Z" transform="translate(-56.495 -123.756)" fill="#29b6f6"/>
      <path id="Path_3694" data-name="Path 3694" d="M335.779,64.58a1.292,1.292,0,0,0-1.753.47l-2.2,3.812a1.292,1.292,0,0,0,2.237,1.292l2.2-3.812A1.292,1.292,0,0,0,335.779,64.58Z" transform="translate(-291.496 -56.611)" fill="#29b6f6"/>
    </g>
  </g>
</svg>
