<svg xmlns="http://www.w3.org/2000/svg" width="90" height="90" viewBox="0 0 90 90">
  <rect id="Rectangle_524" data-name="Rectangle 524" width="90" height="90" rx="30" fill="#29b6f6" opacity="0.12"/>
  <g id="barometer" transform="translate(20 20)">
    <g id="Group_497" data-name="Group 497" transform="translate(0 0)">
      <g id="Group_496" data-name="Group 496">
        <path id="Path_3615" data-name="Path 3615" d="M209.814,158.125c-.092.035-2.28.859-4.695,1.886-4.571,1.945-5.809,2.847-6.378,3.416a5.859,5.859,0,0,0,8.286,8.286c.569-.569,1.471-1.807,3.416-6.378,1.027-2.415,1.852-4.6,1.886-4.695a1.953,1.953,0,0,0-2.516-2.516Zm-5.549,10.826a1.953,1.953,0,0,1-2.763-2.761,29.6,29.6,0,0,1,5.5-2.734A29.586,29.586,0,0,1,204.265,168.951Z" transform="translate(-177.786 -142.57)" fill="#29b6f6"/>
        <path id="Path_3616" data-name="Path 3616" d="M42.678,7.322A25,25,0,0,0,7.322,42.678,25.01,25.01,0,0,0,37.936,46.4a1.953,1.953,0,0,0-2.024-3.341,21.08,21.08,0,0,1-25.979-3.31H43.848c.046,0,.091,0,.136-.007a1.952,1.952,0,0,0,1.78-.861A24.939,24.939,0,0,0,42.678,7.322Zm.389,28.518H7.031c-.039,0-.078,0-.117.006A20.946,20.946,0,0,1,4,26.953H6.836a1.953,1.953,0,0,0,0-3.906H4a21,21,0,0,1,4.777-11.51l2,2a1.953,1.953,0,1,0,2.762-2.762l-2-2A21,21,0,0,1,23.047,4V6.836a1.953,1.953,0,0,0,3.906,0V4a21,21,0,0,1,11.51,4.777l-2,2a1.953,1.953,0,0,0,2.762,2.762l2-2A21,21,0,0,1,46,23.047H43.164a1.953,1.953,0,0,0,0,3.906H46A21.009,21.009,0,0,1,43.067,35.84Z" transform="translate(0 0)" fill="#094fb9"/>
      </g>
    </g>
  </g>
</svg>
