<svg id="barometer" xmlns="http://www.w3.org/2000/svg" width="44" height="44" viewBox="0 0 44 44">
  <g id="Group_497" data-name="Group 497" transform="translate(0 0)">
    <g id="Group_496" data-name="Group 496">
      <path id="Path_3615" data-name="Path 3615" d="M208.279,158.11c-.081.03-2.007.756-4.131,1.66-4.022,1.712-5.112,2.505-5.613,3.006a5.156,5.156,0,0,0,7.292,7.292c.5-.5,1.294-1.59,3.006-5.613.9-2.125,1.63-4.051,1.66-4.132a1.719,1.719,0,0,0-2.214-2.214Zm-4.883,9.527a1.719,1.719,0,0,1-2.431-2.43A26.042,26.042,0,0,1,205.8,162.8,26.034,26.034,0,0,1,203.4,167.637Z" transform="translate(-180.095 -144.422)" fill="#29b6f6"/>
      <path id="Path_3616" data-name="Path 3616" d="M37.556,6.444A22,22,0,0,0,6.444,37.556a22.009,22.009,0,0,0,26.94,3.273,1.719,1.719,0,0,0-1.781-2.94A18.551,18.551,0,0,1,8.741,34.977H38.586c.04,0,.08,0,.12-.006a1.717,1.717,0,0,0,1.567-.757,21.946,21.946,0,0,0-2.716-27.77Zm.342,25.1H6.188c-.035,0-.068,0-.1.005a18.432,18.432,0,0,1-2.567-7.826h2.5a1.719,1.719,0,0,0,0-3.438h-2.5a18.479,18.479,0,0,1,4.2-10.129l1.761,1.761a1.719,1.719,0,1,0,2.431-2.431l-1.761-1.76a18.48,18.48,0,0,1,10.129-4.2v2.5a1.719,1.719,0,0,0,3.438,0v-2.5a18.479,18.479,0,0,1,10.129,4.2l-1.761,1.76a1.719,1.719,0,0,0,2.431,2.431l1.761-1.761a18.48,18.48,0,0,1,4.2,10.129h-2.5a1.719,1.719,0,0,0,0,3.438h2.5A18.488,18.488,0,0,1,37.9,31.539Z" transform="translate(0 0)" fill="#094fb9"/>
    </g>
  </g>
</svg>
