<svg width="55" height="15" viewBox="0 0 55 15" fill="none" xmlns="http://www.w3.org/2000/svg">
<path fill-rule="evenodd" clip-rule="evenodd" d="M55 0H0V1L5 8L0 15H55V0Z" fill="#00B3ED"/>
<path d="M9.63 11H13.86V9.857H10.854V8.192H13.32V7.049H10.854V5.663H13.86V4.52H9.63V11ZM14.3986 11H15.9106L17.3416 8.768L18.7636 11H20.2666L18.0976 7.724L20.2126 4.52H18.7006L17.3416 6.68L15.9646 4.52H14.4616L16.5766 7.724L14.3986 11ZM20.9855 11H22.2095V8.804H23.7215C23.7815 8.804 23.8655 8.801 23.9735 8.795C24.0815 8.789 24.1775 8.78 24.2615 8.768C24.8375 8.678 25.2605 8.441 25.5305 8.057C25.8005 7.67 25.9355 7.205 25.9355 6.662C25.9355 6.116 25.802 5.651 25.535 5.267C25.268 4.883 24.8435 4.646 24.2615 4.556C24.1775 4.541 24.0815 4.532 23.9735 4.529C23.8685 4.523 23.7845 4.52 23.7215 4.52H20.9855V11ZM22.2095 7.661V5.663H23.6675C23.7305 5.663 23.7995 5.666 23.8745 5.672C23.9495 5.678 24.0185 5.69 24.0815 5.708C24.2465 5.753 24.374 5.8295 24.464 5.9375C24.554 6.0425 24.6155 6.161 24.6485 6.293C24.6845 6.422 24.7025 6.545 24.7025 6.662C24.7025 6.779 24.6845 6.9035 24.6485 7.0355C24.6155 7.1645 24.554 7.283 24.464 7.391C24.374 7.496 24.2465 7.571 24.0815 7.616C24.0185 7.634 23.9495 7.646 23.8745 7.652C23.7995 7.658 23.7305 7.661 23.6675 7.661H22.2095ZM26.839 11H28.063V8.804H29.4265L30.493 11H31.879L30.709 8.597C31.078 8.429 31.3495 8.1755 31.5235 7.8365C31.7005 7.4945 31.789 7.103 31.789 6.662C31.789 6.116 31.6555 5.651 31.3885 5.267C31.1215 4.883 30.697 4.646 30.115 4.556C30.031 4.541 29.935 4.532 29.827 4.529C29.722 4.523 29.638 4.52 29.575 4.52H26.839V11ZM28.063 7.661V5.663H29.521C29.584 5.663 29.653 5.666 29.728 5.672C29.803 5.678 29.872 5.69 29.935 5.708C30.1 5.753 30.2275 5.8295 30.3175 5.9375C30.4075 6.0425 30.469 6.161 30.502 6.293C30.538 6.422 30.556 6.545 30.556 6.662C30.556 6.779 30.538 6.9035 30.502 7.0355C30.469 7.1645 30.4075 7.283 30.3175 7.391C30.2275 7.496 30.1 7.571 29.935 7.616C29.872 7.634 29.803 7.646 29.728 7.652C29.653 7.658 29.584 7.661 29.521 7.661H28.063ZM32.8683 11H37.0983V9.857H34.0923V8.192H36.5583V7.049H34.0923V5.663H37.0983V4.52H32.8683V11ZM40.6249 11.135C40.9549 11.135 41.2744 11.093 41.5834 11.009C41.8954 10.925 42.1744 10.799 42.4204 10.631C42.6664 10.46 42.8614 10.2455 43.0054 9.9875C43.1524 9.7265 43.2259 9.422 43.2259 9.074C43.2259 8.747 43.1644 8.477 43.0414 8.264C42.9214 8.051 42.7669 7.88 42.5779 7.751C42.3919 7.619 42.1969 7.517 41.9929 7.445C41.7889 7.37 41.6029 7.31 41.4349 7.265L40.3099 6.959C40.1719 6.923 40.0369 6.878 39.9049 6.824C39.7729 6.77 39.6634 6.6995 39.5764 6.6125C39.4894 6.5225 39.4459 6.407 39.4459 6.266C39.4459 6.113 39.4984 5.981 39.6034 5.87C39.7114 5.759 39.8494 5.675 40.0174 5.618C40.1884 5.558 40.3699 5.531 40.5619 5.537C40.8559 5.546 41.1259 5.633 41.3719 5.798C41.6179 5.963 41.7769 6.203 41.8489 6.518L43.1719 6.293C43.0159 5.684 42.7129 5.2175 42.2629 4.8935C41.8129 4.5695 41.2519 4.403 40.5799 4.394C40.1359 4.391 39.7309 4.46 39.3649 4.601C38.9989 4.742 38.7064 4.9565 38.4874 5.2445C38.2684 5.5325 38.1589 5.894 38.1589 6.329C38.1589 6.638 38.2099 6.8945 38.3119 7.0985C38.4169 7.2995 38.5474 7.4615 38.7034 7.5845C38.8594 7.7075 39.0199 7.802 39.1849 7.868C39.3529 7.934 39.4999 7.985 39.6259 8.021L41.3089 8.516C41.5609 8.591 41.7289 8.6855 41.8129 8.7995C41.8969 8.9105 41.9389 9.032 41.9389 9.164C41.9389 9.344 41.8774 9.4955 41.7544 9.6185C41.6344 9.7415 41.4799 9.8345 41.2909 9.8975C41.1019 9.9605 40.9069 9.992 40.7059 9.992C40.3459 9.992 40.0249 9.8915 39.7429 9.6905C39.4609 9.4895 39.2749 9.203 39.1849 8.831L37.9069 9.02C37.9729 9.458 38.1289 9.836 38.3749 10.154C38.6239 10.469 38.9404 10.712 39.3244 10.883C39.7114 11.051 40.1449 11.135 40.6249 11.135ZM46.7948 11.135C47.1248 11.135 47.4443 11.093 47.7533 11.009C48.0653 10.925 48.3443 10.799 48.5903 10.631C48.8363 10.46 49.0313 10.2455 49.1753 9.9875C49.3223 9.7265 49.3958 9.422 49.3958 9.074C49.3958 8.747 49.3343 8.477 49.2113 8.264C49.0913 8.051 48.9368 7.88 48.7478 7.751C48.5618 7.619 48.3668 7.517 48.1628 7.445C47.9588 7.37 47.7728 7.31 47.6048 7.265L46.4798 6.959C46.3418 6.923 46.2068 6.878 46.0748 6.824C45.9428 6.77 45.8333 6.6995 45.7463 6.6125C45.6593 6.5225 45.6158 6.407 45.6158 6.266C45.6158 6.113 45.6683 5.981 45.7733 5.87C45.8813 5.759 46.0193 5.675 46.1873 5.618C46.3583 5.558 46.5398 5.531 46.7318 5.537C47.0258 5.546 47.2958 5.633 47.5418 5.798C47.7878 5.963 47.9468 6.203 48.0188 6.518L49.3418 6.293C49.1858 5.684 48.8828 5.2175 48.4328 4.8935C47.9828 4.5695 47.4218 4.403 46.7498 4.394C46.3058 4.391 45.9008 4.46 45.5348 4.601C45.1688 4.742 44.8763 4.9565 44.6573 5.2445C44.4383 5.5325 44.3288 5.894 44.3288 6.329C44.3288 6.638 44.3798 6.8945 44.4818 7.0985C44.5868 7.2995 44.7173 7.4615 44.8733 7.5845C45.0293 7.7075 45.1898 7.802 45.3548 7.868C45.5228 7.934 45.6698 7.985 45.7958 8.021L47.4788 8.516C47.7308 8.591 47.8988 8.6855 47.9828 8.7995C48.0668 8.9105 48.1088 9.032 48.1088 9.164C48.1088 9.344 48.0473 9.4955 47.9243 9.6185C47.8043 9.7415 47.6498 9.8345 47.4608 9.8975C47.2718 9.9605 47.0768 9.992 46.8758 9.992C46.5158 9.992 46.1948 9.8915 45.9128 9.6905C45.6308 9.4895 45.4448 9.203 45.3548 8.831L44.0768 9.02C44.1428 9.458 44.2988 9.836 44.5448 10.154C44.7938 10.469 45.1103 10.712 45.4943 10.883C45.8813 11.051 46.3148 11.135 46.7948 11.135Z" fill="white"/>
</svg>
