<svg width="32" height="32" viewBox="0 0 32 32" fill="none" xmlns="http://www.w3.org/2000/svg">
<path d="M21.88 11.8913C22.1434 12.1548 22.7492 12.8396 23.0653 13.4718M23.8555 15.4473C23.9872 15.9741 24.1716 17.2648 23.8555 18.213M15.9535 11.1011C17.0071 10.0475 19.9835 8.2564 23.4604 9.52073C27.8066 11.1011 27.8066 17.0277 25.8311 22.5592C23.8555 28.0906 21.0898 29.671 18.7192 29.2759C16.3486 28.8808 16.7437 28.4857 14.7682 28.4857C12.7926 28.4857 12.0024 30.8563 7.65629 26.9053C3.31015 22.9543 3.31015 11.8913 8.05139 9.52073C11.8444 7.62424 14.8999 9.78414 15.9535 11.1011Z" stroke="url(#paint0_linear)" stroke-width="1.5" stroke-linecap="round" stroke-linejoin="round"/>
<path d="M15.9534 11.1011C15.69 10.0475 15.3212 7.62421 15.9534 6.35987C16.5855 5.09554 18.324 4.25265 19.1142 3.98925M15.5582 8.7305C13.9778 8.9939 10.4219 9.20462 8.84148 7.94029C7.26107 6.67596 6.86597 4.51606 6.86597 3.59415C8.57808 3.46245 12.3184 3.59415 13.5827 5.17456C14.8471 6.75498 15.4265 8.20369 15.5582 8.7305Z" stroke="url(#paint1_linear)" stroke-width="1.5" stroke-linecap="round" stroke-linejoin="round"/>
<defs>
<linearGradient id="paint0_linear" x1="4.44446" y1="8.77417" x2="28.1426" y2="10.0536" gradientUnits="userSpaceOnUse">
<stop stop-color="#AE2B88"/>
<stop offset="1" stop-color="#C54586"/>
</linearGradient>
<linearGradient id="paint1_linear" x1="6.86597" y1="3.55554" x2="19.6335" y2="4.57081" gradientUnits="userSpaceOnUse">
<stop stop-color="#AE2B88"/>
<stop offset="1" stop-color="#C54586"/>
</linearGradient>
</defs>
</svg>
