<svg width="200" height="200" viewBox="0 0 200 200" fill="none" xmlns="http://www.w3.org/2000/svg">
<circle cx="101" cy="100" r="75" fill="#E8D3E8" fill-opacity="0.3"/>
<path d="M100.987 88.3651V156.959L47.7295 133.956L47.9836 65.6096L100.987 88.3651Z" fill="#9E035D"/>
<path d="M100.988 88.4061V157L153.986 134.791V65.8286L100.988 88.4061Z" fill="#D974A7"/>
<path d="M100.987 88.365L154.245 66.0582L101.405 42.636L47.7295 65.5005L100.987 88.365Z" fill="#EC9EC5"/>
<path d="M67.8057 56.9487L120.86 80.0413L121.342 96.8696L136.186 90.7446L135.737 73.8101L81.1132 51.28L67.8057 56.9487Z" fill="#9E035D"/>
<path d="M117.838 113.016C118.679 113.016 119.361 111.772 119.361 110.237C119.361 108.703 118.679 107.458 117.838 107.458C116.998 107.458 116.316 108.703 116.316 110.237C116.316 111.772 116.998 113.016 117.838 113.016Z" fill="white"/>
<path d="M142.367 103.023C143.208 103.023 143.889 101.779 143.889 100.244C143.889 98.7095 143.208 97.4653 142.367 97.4653C141.526 97.4653 140.844 98.7095 140.844 100.244C140.844 101.779 141.526 103.023 142.367 103.023Z" fill="white"/>
<path d="M126.661 127.687L125.672 127.303C127.863 121.664 130.61 118.557 133.837 118.069C136.924 117.602 139.524 119.729 140.468 120.919L139.637 121.578C138.985 120.755 136.7 118.709 133.996 119.118C131.211 119.538 128.675 122.502 126.661 127.687Z" fill="white"/>
</svg>
