<svg xmlns="http://www.w3.org/2000/svg" width="90" height="90" viewBox="0 0 90 90">
  <rect id="Rectangle_526" data-name="Rectangle 526" width="90" height="90" rx="30" fill="#29b6f6" opacity="0.12"/>
  <g id="Group_733" data-name="Group 733" transform="translate(-23.513 17)">
    <path id="Path_3829" data-name="Path 3829" d="M56.559,9.848V2.188a2.188,2.188,0,0,1,4.375,0v7.66a2.187,2.187,0,0,1-4.375,0ZM68.59,8.041a2.187,2.187,0,0,0,2.188-2.187V2.188a2.188,2.188,0,0,0-4.375,0V5.854A2.188,2.188,0,0,0,68.59,8.041ZM88.278,16.41a2.187,2.187,0,0,0,2.188-2.187V2.188a2.188,2.188,0,0,0-4.375,0V14.223A2.188,2.188,0,0,0,88.278,16.41Zm-9.844-4.375a2.187,2.187,0,0,0,2.188-2.187V2.188a2.187,2.187,0,1,0-4.375,0v7.66A2.188,2.188,0,0,0,78.434,12.035ZM48.9,16.41a2.187,2.187,0,0,0,2.188-2.187V2.188a2.188,2.188,0,0,0-4.375,0V14.223A2.187,2.187,0,0,0,48.9,16.41Zm19.631,4.98A18.816,18.816,0,0,1,87.116,35.54a2.394,2.394,0,0,1-.374,1.954A2.444,2.444,0,0,1,85,38.536c-2.21.256-4.853.448-7.856.57a2.188,2.188,0,0,0,.087,4.373l.091,0c3.111-.127,5.863-.327,8.181-.6a6.831,6.831,0,0,0,5.869-8.364,23.067,23.067,0,0,0-20.592-17.4V15.759a2.188,2.188,0,0,0-4.375,0v1.348a23.075,23.075,0,0,0-20.7,17.4,6.832,6.832,0,0,0,5.876,8.366A144.2,144.2,0,0,0,66.4,43.63v5.807a2.188,2.188,0,0,1-4.375,0,2.188,2.188,0,1,0-4.375,0,6.563,6.563,0,0,0,13.125,0V41.452a2.187,2.187,0,0,0-2.187-2.187,150.115,150.115,0,0,1-16.511-.738,2.453,2.453,0,0,1-1.752-1.045,2.389,2.389,0,0,1-.373-1.951,18.818,18.818,0,0,1,18.58-14.14" transform="translate(0)" fill="#094fb9"/>
    <path id="Path_3830" data-name="Path 3830" d="M187.688,241.6a2.188,2.188,0,0,1-2.154-1.824,12,12,0,0,0-2.634-5.127,2.188,2.188,0,0,1,3.234-2.947,16.387,16.387,0,0,1,3.714,7.346,2.189,2.189,0,0,1-2.159,2.552Zm-11.84-1.824a11.275,11.275,0,0,1,2.6-4.987,2.187,2.187,0,0,0-3.175-3.01,15.672,15.672,0,0,0-3.743,7.268,2.187,2.187,0,1,0,4.314.728Z" transform="translate(-112.21 -205.724)" fill="#29b6f6"/>
  </g>
</svg>
