<svg width="17" height="17" viewBox="0 0 17 17" fill="none" xmlns="http://www.w3.org/2000/svg">
<path d="M12 6.33337H12.6667C13.3739 6.33337 14.0522 6.61433 14.5523 7.11442C15.0524 7.61452 15.3333 8.2928 15.3333 9.00004C15.3333 9.70728 15.0524 10.3856 14.5523 10.8857C14.0522 11.3858 13.3739 11.6667 12.6667 11.6667H12" stroke="#B02386" stroke-width="1.7" stroke-linecap="round" stroke-linejoin="round"/>
<path d="M1.33337 6.33337H12V12.3334C12 13.0406 11.7191 13.7189 11.219 14.219C10.7189 14.7191 10.0406 15 9.33337 15H4.00004C3.2928 15 2.61452 14.7191 2.11442 14.219C1.61433 13.7189 1.33337 13.0406 1.33337 12.3334V6.33337Z" stroke="#B02386" stroke-width="1.7" stroke-linecap="round" stroke-linejoin="round"/>
<path d="M4 1.66663V3.66663" stroke="#B02386" stroke-width="1.7" stroke-linecap="round" stroke-linejoin="round"/>
<path d="M6.66663 1.66663V3.66663" stroke="#B02386" stroke-width="1.7" stroke-linecap="round" stroke-linejoin="round"/>
<path d="M9.33337 1.66663V3.66663" stroke="#B02386" stroke-width="1.7" stroke-linecap="round" stroke-linejoin="round"/>
</svg>
