<svg width="54" height="54" viewBox="0 0 54 54" fill="none" xmlns="http://www.w3.org/2000/svg">
<rect x="4" y="4" width="46" height="46" rx="23" fill="url(#paint0_linear)"/>
<path d="M22.1304 36.1305V37.3479H18.4782C17.9939 37.3479 17.5294 37.1555 17.1869 36.813C16.8445 36.4706 16.6521 36.0061 16.6521 35.5218V31.8696H17.8695V35.5218C17.8695 35.6832 17.9336 35.8381 18.0478 35.9522C18.1619 36.0664 18.3168 36.1305 18.4782 36.1305H22.1304Z" fill="white"/>
<path d="M37.3479 31.8696V35.5218C37.3479 36.0061 37.1555 36.4706 36.813 36.813C36.4706 37.1555 36.0061 37.3479 35.5218 37.3479H31.8696V36.1305H35.5218C35.6832 36.1305 35.8381 36.0664 35.9522 35.9522C36.0664 35.8381 36.1305 35.6832 36.1305 35.5218V31.8696H37.3479Z" fill="white"/>
<path d="M37.3479 18.4783V22.1305H36.1305V18.4783C36.1305 18.3169 36.0664 18.162 35.9522 18.0479C35.8381 17.9337 35.6832 17.8696 35.5218 17.8696H31.8696V16.6522H35.5218C36.0061 16.6522 36.4706 16.8446 36.813 17.1871C37.1555 17.5295 37.3479 17.994 37.3479 18.4783Z" fill="white"/>
<path d="M22.1304 16.6522V17.8696H18.4782C18.3168 17.8696 18.1619 17.9337 18.0478 18.0479C17.9336 18.162 17.8695 18.3169 17.8695 18.4783V22.1305H16.6521V18.4783C16.6521 17.994 16.8445 17.5295 17.1869 17.1871C17.5294 16.8446 17.9939 16.6522 18.4782 16.6522H22.1304Z" fill="white"/>
<path d="M20.913 19.6957H19.0869V31.2609H20.913V19.6957Z" fill="white"/>
<path d="M20.913 32.4783H19.0869V34.3044H20.913V32.4783Z" fill="white"/>
<path d="M22.1304 19.6957H21.5217V34.3044H22.1304V19.6957Z" fill="white"/>
<path d="M24.5653 19.6957H22.7393V34.3044H24.5653V19.6957Z" fill="white"/>
<path d="M25.7825 19.6957H25.1738V34.3044H25.7825V19.6957Z" fill="white"/>
<path d="M28.2174 19.6957H26.3914V34.3044H28.2174V19.6957Z" fill="white"/>
<path d="M29.4349 19.6957H28.8262V34.3044H29.4349V19.6957Z" fill="white"/>
<path d="M31.8695 19.6957H30.0435V34.3044H31.8695V19.6957Z" fill="white"/>
<path d="M33.087 19.6957H32.4783V34.3044H33.087V19.6957Z" fill="white"/>
<path d="M34.9129 19.6957H33.6956V34.3044H34.9129V19.6957Z" fill="white"/>
<rect x="2" y="2" width="50" height="50" rx="25" stroke="#9E035D" stroke-opacity="0.05" stroke-width="4"/>
<defs>
<linearGradient id="paint0_linear" x1="4" y1="4" x2="52.1379" y2="6.3582" gradientUnits="userSpaceOnUse">
<stop stop-color="#AE2B88"/>
<stop offset="1" stop-color="#C54586"/>
</linearGradient>
</defs>
</svg>
