<svg width="200" height="200" viewBox="0 0 200 200" fill="none" xmlns="http://www.w3.org/2000/svg">
<g clip-path="url(#clip0)">
<circle cx="101" cy="100" r="75" fill="#E8D3E8" fill-opacity="0.3"/>
<path d="M160.47 81.6346C161.98 82.1956 163.63 82.2329 165.2 81.8726C171.777 80.3628 194.393 76.3654 190.463 93.891C189.608 97.3681 176.362 116.841 195.225 123.95C196.608 124.477 198.07 124.765 199.549 124.801C205.356 124.921 216.866 123.549 221.683 118.646C227.501 112.723 221.144 115.532 221.144 115.532C221.144 115.532 199.023 125.185 191.209 114.943C190.339 113.804 189.786 112.149 189.627 110.724C189.352 108.253 190.449 104.989 191.89 102.147C193.84 98.3008 203.203 80.9988 182.874 75.9585C178.191 74.8432 171.39 73.8415 162.62 77.5339C157.504 79.6876 158.637 80.9536 160.47 81.6346Z" fill="#EC9EC5"/>
<path d="M164.996 75.1755L159.108 77.3792C157.075 78.1399 156.044 80.4043 156.805 82.4368L157.097 83.2167C157.858 85.2492 160.122 86.2802 162.155 85.5195L168.043 83.3159C170.075 82.5552 171.106 80.2908 170.345 78.2583L170.054 77.4784C169.293 75.4459 167.029 74.4148 164.996 75.1755Z" fill="#9E035D"/>
<path d="M128.853 81.5518L109.435 88.8194C108.419 89.1997 107.903 90.3319 108.283 91.3482L108.36 91.5526C108.74 92.5688 109.872 93.0843 110.889 92.704L130.307 85.4364C131.323 85.056 131.839 83.9239 131.459 82.9076L131.382 82.7032C131.002 81.6869 129.87 81.1714 128.853 81.5518Z" fill="white"/>
<path d="M134.274 96.0319L114.856 103.3C113.839 103.68 113.324 104.812 113.704 105.828L113.781 106.033C114.161 107.049 115.293 107.565 116.31 107.184L135.728 99.9166C136.744 99.5362 137.26 98.404 136.88 97.3878L136.803 97.1834C136.423 96.1671 135.291 95.6516 134.274 96.0319Z" fill="white"/>
<path d="M152.202 71.6699L136.463 77.5601C134.431 78.3208 133.4 80.5852 134.161 82.6178L139.534 96.9748C140.295 99.0073 142.559 100.038 144.592 99.2777L160.33 93.3874C162.362 92.6267 163.393 90.3623 162.633 88.3298L157.259 73.9728C156.499 71.9402 154.234 70.9092 152.202 71.6699Z" fill="#EC9EC5"/>
<path d="M138.088 75.4367L122.35 81.327C120.318 82.0877 119.287 84.3521 120.047 86.3846L126.458 103.513C127.219 105.546 129.483 106.577 131.516 105.816L147.254 99.9258C149.286 99.1651 150.317 96.9007 149.557 94.8681L143.146 77.7396C142.385 75.707 140.121 74.676 138.088 75.4367Z" fill="#9E035D"/>
<path d="M140.552 71.9604L140.429 72.0066C139.074 72.5137 138.387 74.0233 138.894 75.3783L147.874 99.3735C148.382 100.729 149.891 101.416 151.246 100.909L151.37 100.863C152.725 100.355 153.412 98.8459 152.905 97.4908L143.924 73.4956C143.417 72.1406 141.908 71.4532 140.552 71.9604Z" fill="#D974A7"/>
<path d="M-19.9261 87.302C-19.9261 87.302 11.6818 78.4193 7.09281 98.8841C6.2959 102.122 -5.17567 118.795 8.48873 126.8C11.4228 128.519 14.8088 129.281 18.209 129.263C24.3055 129.231 33.9702 128.058 38.312 123.639C44.1309 117.715 37.7739 120.524 37.7739 120.524C37.7739 120.524 19.621 127.991 10.282 122.039C7.09321 120.007 5.64778 116.071 6.51373 112.39C6.95634 110.562 7.63032 108.797 8.51937 107.139C10.5504 103.335 19.8328 85.9912 -0.496088 80.9509C-5.17908 79.8357 -11.9808 78.8339 -20.7509 82.5264C-29.521 86.2189 -19.9261 87.302 -19.9261 87.302Z" fill="#EC9EC5"/>
<path d="M42.5619 115.945L36.6739 118.148C34.6414 118.909 33.6103 121.173 34.371 123.206L34.6629 123.986C35.4236 126.018 37.688 127.049 39.7205 126.289L45.6086 124.085C47.6411 123.324 48.6721 121.06 47.9114 119.027L47.6196 118.247C46.8589 116.215 44.5945 115.184 42.5619 115.945Z" fill="#9E035D"/>
<path d="M52.5101 106.257L43.7838 109.523C41.7512 110.284 40.7202 112.548 41.4809 114.581L45.6887 125.824C46.4494 127.856 48.7138 128.887 50.7463 128.126L59.4727 124.861C61.5052 124.1 62.5363 121.835 61.7756 119.803L57.5678 108.56C56.8071 106.527 54.5427 105.496 52.5101 106.257Z" fill="#EC9EC5"/>
<path d="M67.0375 97.601L54.024 102.471C51.9915 103.232 50.9604 105.497 51.7211 107.529L58.1317 124.658C58.8924 126.69 61.1568 127.721 63.1893 126.961L76.2028 122.09C78.2353 121.329 79.2664 119.065 78.5057 117.032L72.0951 99.9039C71.3344 97.8713 69.07 96.8403 67.0375 97.601Z" fill="#9E035D"/>
<path d="M69.7947 94.0536L69.6713 94.0998C68.3162 94.607 67.6289 96.1165 68.136 97.4716L77.1166 121.467C77.6237 122.822 79.1333 123.509 80.4883 123.002L80.6117 122.956C81.9668 122.449 82.6541 120.939 82.147 119.584L73.1664 95.5889C72.6593 94.2338 71.1497 93.5465 69.7947 94.0536Z" fill="#D974A7"/>
<path d="M103.025 78.767C102.556 78.715 102.126 78.4832 101.825 78.1204C101.524 77.7576 101.375 77.2921 101.41 76.8219L102.381 59.0864C102.439 58.027 103.334 57.2221 104.349 57.3158L105.764 57.4467C106.779 57.5404 107.506 58.4946 107.364 59.5466L104.978 77.151C104.923 77.62 104.689 78.0497 104.326 78.3507C103.962 78.6517 103.496 78.8008 103.025 78.767Z" fill="#D974A7"/>
<path d="M94.6399 80.2962C94.4941 80.339 94.3414 80.3527 94.1903 80.3365C94.0392 80.3203 93.8929 80.2745 93.7595 80.2017C93.6262 80.1289 93.5085 80.0305 93.4131 79.9122C93.3178 79.7939 93.2467 79.658 93.2039 79.5123L89.7364 68.4799C89.6356 68.1661 89.6633 67.8252 89.8136 67.5319C89.9638 67.2385 90.2243 67.0168 90.5378 66.9153L91.4356 66.6444C91.5896 66.5994 91.7513 66.5869 91.9104 66.6076C92.0695 66.6283 92.2227 66.6817 92.3601 66.7645C92.4975 66.8474 92.6163 66.9578 92.7089 67.0889C92.8015 67.2199 92.8659 67.3687 92.898 67.5259L95.468 78.8293C95.5396 79.1331 95.4942 79.4528 95.3407 79.7246C95.1872 79.9965 94.937 80.2005 94.6399 80.2962Z" fill="#D974A7"/>
<path d="M89.9618 86.6583C89.3405 87.4281 88.0911 87.4189 87.1293 86.6375L70.0527 72.7633C69.0327 71.9345 68.7317 70.5627 69.3908 69.7467L70.3094 68.6087C70.9685 67.7923 72.3223 67.8592 73.2875 68.7559L89.4455 83.7682C90.3554 84.6136 90.5831 85.8885 89.9618 86.6583Z" fill="#D974A7"/>
<path d="M97.856 122.494C98.2958 122.664 98.6525 122.998 98.8511 123.425C99.0496 123.853 99.0745 124.341 98.9205 124.787L93.4523 141.685C93.1256 142.695 92.0552 143.244 91.0974 142.895L89.7625 142.407C88.8049 142.057 88.3453 140.949 88.7517 139.968L95.5547 123.557C95.7274 123.118 96.0631 122.762 96.4918 122.563C96.9206 122.365 97.4092 122.34 97.856 122.494Z" fill="#D974A7"/>
<path d="M106.352 123.156C106.504 123.152 106.655 123.178 106.797 123.232C106.939 123.287 107.068 123.368 107.179 123.473C107.289 123.577 107.378 123.702 107.44 123.841C107.502 123.98 107.536 124.129 107.54 124.281L108.075 135.833C108.092 136.162 107.978 136.485 107.758 136.73C107.538 136.975 107.23 137.123 106.901 137.141L105.963 137.174C105.803 137.178 105.643 137.149 105.495 137.088C105.346 137.028 105.212 136.937 105.1 136.822C104.988 136.706 104.902 136.569 104.846 136.419C104.79 136.269 104.765 136.108 104.774 135.948L105.177 124.363C105.185 124.051 105.311 123.754 105.528 123.53C105.746 123.307 106.04 123.173 106.352 123.156Z" fill="#D974A7"/>
<path d="M112.5 118.2C113.298 117.615 114.503 117.943 115.234 118.944L128.201 136.718C128.975 137.78 128.916 139.183 128.07 139.804L126.891 140.67C126.045 141.291 124.753 140.88 124.049 139.767L112.26 121.126C111.598 120.076 111.703 118.786 112.5 118.2Z" fill="#D974A7"/>
</g>
<defs>
<clipPath id="clip0">
<rect width="200" height="200" fill="white"/>
</clipPath>
</defs>
</svg>
