<svg xmlns="http://www.w3.org/2000/svg" width="42.6" height="45.4" viewBox="0 0 42.6 45.4">
  <g id="Group_744" data-name="Group 744" transform="translate(-15.7 0.3)">
    <g id="Group_493" data-name="Group 493" transform="translate(16)">
      <path id="Path_3594" data-name="Path 3594" d="M50.125,29.05a7.869,7.869,0,0,0-6.333,3.2L31.431,25.933a7.875,7.875,0,0,0-.256-5.174L44.13,12.975a7.843,7.843,0,1,0-1.347-2.253L29.8,18.525a7.874,7.874,0,1,0,.483,9.766L42.6,34.59a7.875,7.875,0,1,0,7.522-5.54Zm0-26.425a5.25,5.25,0,1,1-5.25,5.25A5.256,5.256,0,0,1,50.125,2.625ZM23.875,28.962a5.25,5.25,0,1,1,5.25-5.25A5.256,5.256,0,0,1,23.875,28.962Zm26.25,13.212a5.25,5.25,0,1,1,5.25-5.25A5.256,5.256,0,0,1,50.125,42.175Z" transform="translate(-16)" fill="#fff" stroke="#fff" stroke-width="0.6"/>
    </g>
  </g>
</svg>
