<svg width="20" height="29" viewBox="0 0 20 29" fill="none" xmlns="http://www.w3.org/2000/svg">
<path fill-rule="evenodd" clip-rule="evenodd" d="M1.38806 4.64563C1.7377 4.56159 2.0761 4.53284 2.29675 4.53284H10.1394C10.4952 4.53284 10.7837 4.8213 10.7837 5.17714C10.7837 5.53298 10.4952 5.82145 10.1394 5.82145H2.29675C2.16884 5.82145 1.93212 5.84017 1.68921 5.89856C1.52551 5.93791 1.39232 5.98741 1.29377 6.03966C1.30448 6.1525 1.33218 6.31397 1.38157 6.53521C1.45537 6.86582 1.56061 7.26003 1.68564 7.72839C1.7638 8.02114 1.84968 8.34285 1.94046 8.69612C2.4022 10.493 2.94106 12.929 2.94106 15.6217C2.94106 18.2994 2.53848 20.4876 2.14074 22.2333C2.0364 22.6913 1.94044 23.0864 1.85136 23.4532C1.76188 23.8217 1.67935 24.1615 1.60228 24.5076C1.45636 25.1628 1.37262 25.6674 1.37262 26.0663C1.37262 26.4527 1.452 26.6851 1.53933 26.8279C1.62429 26.9667 1.74439 27.0662 1.90964 27.1412C2.28234 27.3104 2.78714 27.321 3.34251 27.321H10.1394C10.4952 27.321 10.7837 27.6094 10.7837 27.9653C10.7837 28.3211 10.4952 28.6096 10.1394 28.6096H3.34251C3.327 28.6096 3.31117 28.6096 3.29504 28.6096C2.80155 28.6099 2.02861 28.6104 1.37692 28.3146C1.01932 28.1522 0.681947 27.8956 0.440129 27.5004C0.200683 27.109 0.0840012 26.6293 0.0840012 26.0663C0.0840012 25.5156 0.196314 24.8927 0.34448 24.2275C0.415823 23.9071 0.506906 23.5305 0.603267 23.1321C0.696373 22.7471 0.794407 22.3417 0.884323 21.9471C1.2708 20.2508 1.65245 18.1662 1.65245 15.6217C1.65245 13.0922 1.14563 10.7806 0.692393 9.01683C0.610539 8.6983 0.528632 8.39116 0.451573 8.10221C0.320135 7.60934 0.202803 7.16937 0.123909 6.81596C0.060983 6.53408 0.0113957 6.26156 0.00176003 6.02908C-0.00307469 5.91243 0.000576942 5.7768 0.0315692 5.64118C0.0623505 5.50649 0.131439 5.3235 0.2951 5.17489C0.622219 4.87786 1.05103 4.72664 1.38806 4.64563Z" fill="url(#paint0_linear)"/>
<path fill-rule="evenodd" clip-rule="evenodd" d="M1.38806 4.64563C1.7377 4.56159 2.0761 4.53284 2.29675 4.53284H10.1394C10.4952 4.53284 10.7837 4.8213 10.7837 5.17714C10.7837 5.53298 10.4952 5.82145 10.1394 5.82145H2.29675C2.16884 5.82145 1.93212 5.84017 1.68921 5.89856C1.52551 5.93791 1.39232 5.98741 1.29377 6.03966C1.30448 6.1525 1.33218 6.31397 1.38157 6.53521C1.45537 6.86582 1.56061 7.26003 1.68564 7.72839C1.7638 8.02114 1.84968 8.34285 1.94046 8.69612C2.4022 10.493 2.94106 12.929 2.94106 15.6217C2.94106 18.2994 2.53848 20.4876 2.14074 22.2333C2.0364 22.6913 1.94044 23.0864 1.85136 23.4532C1.76188 23.8217 1.67935 24.1615 1.60228 24.5076C1.45636 25.1628 1.37262 25.6674 1.37262 26.0663C1.37262 26.4527 1.452 26.6851 1.53933 26.8279C1.62429 26.9667 1.74439 27.0662 1.90964 27.1412C2.28234 27.3104 2.78714 27.321 3.34251 27.321H10.1394C10.4952 27.321 10.7837 27.6094 10.7837 27.9653C10.7837 28.3211 10.4952 28.6096 10.1394 28.6096H3.34251C3.327 28.6096 3.31117 28.6096 3.29504 28.6096C2.80155 28.6099 2.02861 28.6104 1.37692 28.3146C1.01932 28.1522 0.681947 27.8956 0.440129 27.5004C0.200683 27.109 0.0840012 26.6293 0.0840012 26.0663C0.0840012 25.5156 0.196314 24.8927 0.34448 24.2275C0.415823 23.9071 0.506906 23.5305 0.603267 23.1321C0.696373 22.7471 0.794407 22.3417 0.884323 21.9471C1.2708 20.2508 1.65245 18.1662 1.65245 15.6217C1.65245 13.0922 1.14563 10.7806 0.692393 9.01683C0.610539 8.6983 0.528632 8.39116 0.451573 8.10221C0.320135 7.60934 0.202803 7.16937 0.123909 6.81596C0.060983 6.53408 0.0113957 6.26156 0.00176003 6.02908C-0.00307469 5.91243 0.000576942 5.7768 0.0315692 5.64118C0.0623505 5.50649 0.131439 5.3235 0.2951 5.17489C0.622219 4.87786 1.05103 4.72664 1.38806 4.64563Z" fill="#9E035D"/>
<path fill-rule="evenodd" clip-rule="evenodd" d="M15.0309 3.17468C14.6368 3.5612 14.4183 4.07508 14.3541 4.33181C14.3015 4.54226 14.1002 4.68045 13.8849 4.65395C13.6696 4.62744 13.5079 4.44456 13.5079 4.22763C13.5079 3.97986 13.43 3.59865 13.209 3.29173C13.0038 3.0067 12.658 2.75816 12.0384 2.75816C10.8072 2.75816 10.2181 3.7847 10.0813 4.33181C10.0287 4.54226 9.82745 4.68045 9.61215 4.65395C9.39684 4.62744 9.23509 4.44456 9.23509 4.22763C9.23509 3.97986 9.15723 3.59865 8.93624 3.29173C8.73102 3.0067 8.38523 2.75816 7.76562 2.75816C6.67207 2.75816 6.12083 3.08212 5.82159 3.39632C5.54068 3.69128 5.43624 4.01672 5.35453 4.27133C5.3443 4.30322 5.33442 4.33399 5.3246 4.36346C5.27408 4.51502 5.14361 4.62603 4.98591 4.65162C4.82821 4.67721 4.66934 4.61317 4.57348 4.48536C4.50527 4.39442 4.43929 4.29516 4.37762 4.20158C4.37028 4.19043 4.36297 4.17934 4.3557 4.16828C4.29981 4.0834 4.24569 4.00117 4.18749 3.91848C4.05651 3.73236 3.91989 3.5661 3.75665 3.43395C3.45886 3.19289 3.00811 3.01123 2.1727 3.22008C1.82423 3.3072 1.6214 3.44092 1.49974 3.57608C1.37863 3.71063 1.30976 3.8779 1.28307 4.08181C1.22638 4.51478 1.36702 5.0375 1.52654 5.51605C1.60156 5.74111 1.47993 5.98436 1.25488 6.05938C1.02982 6.1344 0.786566 6.01277 0.711548 5.78772C0.554565 5.31677 0.346037 4.62121 0.43126 3.97028C0.475519 3.63224 0.600373 3.29116 0.861228 3.00135C1.12153 2.71216 1.48891 2.50552 1.96434 2.38666C3.02797 2.12075 3.76412 2.33473 4.29717 2.76623C4.51098 2.93931 4.67993 3.13763 4.81837 3.32468C4.91372 3.15364 5.03737 2.97409 5.1995 2.80386C5.69151 2.28724 6.4854 1.89908 7.76562 1.89908C8.66522 1.89908 9.26892 2.28353 9.63341 2.78976C9.69026 2.86872 9.74081 2.9499 9.78562 3.03216C10.2292 2.44243 10.9527 1.89908 12.0384 1.89908C12.938 1.89908 13.5417 2.28353 13.9062 2.78977C13.9586 2.86251 14.0056 2.93716 14.0477 3.01279C14.1572 2.85733 14.2841 2.70386 14.4294 2.56137C14.9794 2.02192 15.8003 1.63944 16.8901 1.9119C17.4224 2.04498 17.8339 2.26468 18.1356 2.5664C18.4386 2.86948 18.605 3.22939 18.6885 3.59892C18.8303 4.2269 18.7372 4.93517 18.6626 5.50214C18.6534 5.5721 18.6445 5.63992 18.6364 5.70516C18.607 5.94056 18.3923 6.10753 18.1569 6.07811C17.9215 6.04868 17.7545 5.834 17.7839 5.59861C17.7925 5.53037 17.8012 5.4627 17.8098 5.39563C17.886 4.80217 17.9562 4.25621 17.8505 3.78814C17.7955 3.54445 17.6948 3.34059 17.5281 3.17386C17.36 3.00578 17.0989 2.84963 16.6817 2.74533C15.9293 2.55721 15.405 2.80774 15.0309 3.17468Z" fill="url(#paint1_linear)"/>
<path fill-rule="evenodd" clip-rule="evenodd" d="M15.0309 3.17468C14.6368 3.5612 14.4183 4.07508 14.3541 4.33181C14.3015 4.54226 14.1002 4.68045 13.8849 4.65395C13.6696 4.62744 13.5079 4.44456 13.5079 4.22763C13.5079 3.97986 13.43 3.59865 13.209 3.29173C13.0038 3.0067 12.658 2.75816 12.0384 2.75816C10.8072 2.75816 10.2181 3.7847 10.0813 4.33181C10.0287 4.54226 9.82745 4.68045 9.61215 4.65395C9.39684 4.62744 9.23509 4.44456 9.23509 4.22763C9.23509 3.97986 9.15723 3.59865 8.93624 3.29173C8.73102 3.0067 8.38523 2.75816 7.76562 2.75816C6.67207 2.75816 6.12083 3.08212 5.82159 3.39632C5.54068 3.69128 5.43624 4.01672 5.35453 4.27133C5.3443 4.30322 5.33442 4.33399 5.3246 4.36346C5.27408 4.51502 5.14361 4.62603 4.98591 4.65162C4.82821 4.67721 4.66934 4.61317 4.57348 4.48536C4.50527 4.39442 4.43929 4.29516 4.37762 4.20158C4.37028 4.19043 4.36297 4.17934 4.3557 4.16828C4.29981 4.0834 4.24569 4.00117 4.18749 3.91848C4.05651 3.73236 3.91989 3.5661 3.75665 3.43395C3.45886 3.19289 3.00811 3.01123 2.1727 3.22008C1.82423 3.3072 1.6214 3.44092 1.49974 3.57608C1.37863 3.71063 1.30976 3.8779 1.28307 4.08181C1.22638 4.51478 1.36702 5.0375 1.52654 5.51605C1.60156 5.74111 1.47993 5.98436 1.25488 6.05938C1.02982 6.1344 0.786566 6.01277 0.711548 5.78772C0.554565 5.31677 0.346037 4.62121 0.43126 3.97028C0.475519 3.63224 0.600373 3.29116 0.861228 3.00135C1.12153 2.71216 1.48891 2.50552 1.96434 2.38666C3.02797 2.12075 3.76412 2.33473 4.29717 2.76623C4.51098 2.93931 4.67993 3.13763 4.81837 3.32468C4.91372 3.15364 5.03737 2.97409 5.1995 2.80386C5.69151 2.28724 6.4854 1.89908 7.76562 1.89908C8.66522 1.89908 9.26892 2.28353 9.63341 2.78976C9.69026 2.86872 9.74081 2.9499 9.78562 3.03216C10.2292 2.44243 10.9527 1.89908 12.0384 1.89908C12.938 1.89908 13.5417 2.28353 13.9062 2.78977C13.9586 2.86251 14.0056 2.93716 14.0477 3.01279C14.1572 2.85733 14.2841 2.70386 14.4294 2.56137C14.9794 2.02192 15.8003 1.63944 16.8901 1.9119C17.4224 2.04498 17.8339 2.26468 18.1356 2.5664C18.4386 2.86948 18.605 3.22939 18.6885 3.59892C18.8303 4.2269 18.7372 4.93517 18.6626 5.50214C18.6534 5.5721 18.6445 5.63992 18.6364 5.70516C18.607 5.94056 18.3923 6.10753 18.1569 6.07811C17.9215 6.04868 17.7545 5.834 17.7839 5.59861C17.7925 5.53037 17.8012 5.4627 17.8098 5.39563C17.886 4.80217 17.9562 4.25621 17.8505 3.78814C17.7955 3.54445 17.6948 3.34059 17.5281 3.17386C17.36 3.00578 17.0989 2.84963 16.6817 2.74533C15.9293 2.55721 15.405 2.80774 15.0309 3.17468Z" fill="#9E035D"/>
<path fill-rule="evenodd" clip-rule="evenodd" d="M18.0463 4.6496C17.7213 4.5628 17.4063 4.53284 17.1977 4.53284H10.1394C9.78352 4.53284 9.49505 4.8213 9.49505 5.17714C9.49505 5.53298 9.78352 5.82145 10.1394 5.82145H17.1977C17.3029 5.82145 17.5055 5.83896 17.7138 5.89458C17.8494 5.93081 17.9577 5.9753 18.0376 6.02129C18.0293 6.1397 18.0033 6.31152 17.9556 6.54867C17.889 6.88025 17.7939 7.27636 17.6811 7.74581C17.6108 8.03843 17.5336 8.35954 17.4523 8.7113C17.037 10.5071 16.5534 12.9371 16.5534 15.6217C16.5534 17.984 16.836 19.9645 17.1489 21.5982C17.2159 21.9477 17.5535 22.1767 17.903 22.1098C18.2524 22.0428 18.4815 21.7053 18.4145 21.3558C18.1116 19.774 17.842 17.8784 17.842 15.6217C17.842 13.084 18.2996 10.7665 18.7077 9.00165C18.7817 8.68169 18.8556 8.37391 18.925 8.08476C19.0431 7.59289 19.1482 7.15491 19.219 6.80249C19.2755 6.5211 19.3192 6.25299 19.3277 6.02641C19.3319 5.91295 19.3286 5.78347 19.3022 5.65492C19.2767 5.53092 19.218 5.35072 19.067 5.19833C18.7628 4.89139 18.3613 4.73373 18.0463 4.6496ZM18.2327 23.6051C17.8842 23.6766 17.6595 24.0171 17.731 24.3657C17.8776 25.0812 17.965 25.6318 17.965 26.0663C17.965 26.4632 17.8912 26.7053 17.8096 26.8533C17.732 26.9944 17.6281 27.0858 17.4956 27.1526C17.1864 27.3086 16.7613 27.321 16.2565 27.321H10.1394C9.78352 27.321 9.49505 27.6094 9.49505 27.9653C9.49505 28.3211 9.78352 28.6096 10.1394 28.6096H16.2565C16.2718 28.6096 16.2875 28.6096 16.3035 28.6096C16.7454 28.61 17.4663 28.6107 18.076 28.3031C18.4141 28.1326 18.722 27.868 18.9384 27.4749C19.151 27.0889 19.2536 26.6188 19.2536 26.0663C19.2536 25.4889 19.1406 24.8255 18.9933 24.1069C18.9219 23.7583 18.5813 23.5336 18.2327 23.6051Z" fill="url(#paint2_linear)"/>
<path fill-rule="evenodd" clip-rule="evenodd" d="M18.0463 4.6496C17.7213 4.5628 17.4063 4.53284 17.1977 4.53284H10.1394C9.78352 4.53284 9.49505 4.8213 9.49505 5.17714C9.49505 5.53298 9.78352 5.82145 10.1394 5.82145H17.1977C17.3029 5.82145 17.5055 5.83896 17.7138 5.89458C17.8494 5.93081 17.9577 5.9753 18.0376 6.02129C18.0293 6.1397 18.0033 6.31152 17.9556 6.54867C17.889 6.88025 17.7939 7.27636 17.6811 7.74581C17.6108 8.03843 17.5336 8.35954 17.4523 8.7113C17.037 10.5071 16.5534 12.9371 16.5534 15.6217C16.5534 17.984 16.836 19.9645 17.1489 21.5982C17.2159 21.9477 17.5535 22.1767 17.903 22.1098C18.2524 22.0428 18.4815 21.7053 18.4145 21.3558C18.1116 19.774 17.842 17.8784 17.842 15.6217C17.842 13.084 18.2996 10.7665 18.7077 9.00165C18.7817 8.68169 18.8556 8.37391 18.925 8.08476C19.0431 7.59289 19.1482 7.15491 19.219 6.80249C19.2755 6.5211 19.3192 6.25299 19.3277 6.02641C19.3319 5.91295 19.3286 5.78347 19.3022 5.65492C19.2767 5.53092 19.218 5.35072 19.067 5.19833C18.7628 4.89139 18.3613 4.73373 18.0463 4.6496ZM18.2327 23.6051C17.8842 23.6766 17.6595 24.0171 17.731 24.3657C17.8776 25.0812 17.965 25.6318 17.965 26.0663C17.965 26.4632 17.8912 26.7053 17.8096 26.8533C17.732 26.9944 17.6281 27.0858 17.4956 27.1526C17.1864 27.3086 16.7613 27.321 16.2565 27.321H10.1394C9.78352 27.321 9.49505 27.6094 9.49505 27.9653C9.49505 28.3211 9.78352 28.6096 10.1394 28.6096H16.2565C16.2718 28.6096 16.2875 28.6096 16.3035 28.6096C16.7454 28.61 17.4663 28.6107 18.076 28.3031C18.4141 28.1326 18.722 27.868 18.9384 27.4749C19.151 27.0889 19.2536 26.6188 19.2536 26.0663C19.2536 25.4889 19.1406 24.8255 18.9933 24.1069C18.9219 23.7583 18.5813 23.5336 18.2327 23.6051Z" fill="#9E035D"/>
<path fill-rule="evenodd" clip-rule="evenodd" d="M10.2737 11.2724C10.5143 11.4181 10.6327 11.703 10.5661 11.9762C10.4534 12.4384 10.4103 13.8353 11.3596 15.1335C11.7809 15.7097 12.4106 16.032 13.0788 16.1899C13.7508 16.3487 14.405 16.3263 14.7783 16.2625C15.0612 16.2142 15.342 16.3588 15.4669 16.6172C15.5918 16.8755 15.5308 17.1854 15.3172 17.3771C14.7937 17.847 13.9911 18.4036 13.0773 18.7574C12.3847 19.0256 11.5897 19.192 10.7878 19.0782C9.96762 18.9618 9.18447 18.5577 8.5406 17.7652C7.58699 16.5914 7.45099 15.3416 7.71441 14.2463C8.02361 12.9606 8.87358 11.9034 9.51466 11.3398C9.72588 11.154 10.0331 11.1268 10.2737 11.2724ZM9.32552 13.6299C9.17176 13.9158 9.04482 14.2253 8.96731 14.5476C8.78688 15.2978 8.86828 16.1249 9.54075 16.9526C9.98069 17.4941 10.4718 17.7319 10.9688 17.8024C11.4841 17.8755 12.0492 17.7737 12.6121 17.5557C12.6909 17.5252 12.7689 17.4927 12.8459 17.4585C12.8247 17.4538 12.8036 17.4489 12.7825 17.4439C11.9217 17.2405 10.9774 16.794 10.3194 15.8941C9.76229 15.1322 9.46541 14.339 9.32552 13.6299Z" fill="url(#paint3_linear)"/>
<path fill-rule="evenodd" clip-rule="evenodd" d="M10.2737 11.2724C10.5143 11.4181 10.6327 11.703 10.5661 11.9762C10.4534 12.4384 10.4103 13.8353 11.3596 15.1335C11.7809 15.7097 12.4106 16.032 13.0788 16.1899C13.7508 16.3487 14.405 16.3263 14.7783 16.2625C15.0612 16.2142 15.342 16.3588 15.4669 16.6172C15.5918 16.8755 15.5308 17.1854 15.3172 17.3771C14.7937 17.847 13.9911 18.4036 13.0773 18.7574C12.3847 19.0256 11.5897 19.192 10.7878 19.0782C9.96762 18.9618 9.18447 18.5577 8.5406 17.7652C7.58699 16.5914 7.45099 15.3416 7.71441 14.2463C8.02361 12.9606 8.87358 11.9034 9.51466 11.3398C9.72588 11.154 10.0331 11.1268 10.2737 11.2724ZM9.32552 13.6299C9.17176 13.9158 9.04482 14.2253 8.96731 14.5476C8.78688 15.2978 8.86828 16.1249 9.54075 16.9526C9.98069 17.4941 10.4718 17.7319 10.9688 17.8024C11.4841 17.8755 12.0492 17.7737 12.6121 17.5557C12.6909 17.5252 12.7689 17.4927 12.8459 17.4585C12.8247 17.4538 12.8036 17.4489 12.7825 17.4439C11.9217 17.2405 10.9774 16.794 10.3194 15.8941C9.76229 15.1322 9.46541 14.339 9.32552 13.6299Z" fill="#9E035D"/>
<path fill-rule="evenodd" clip-rule="evenodd" d="M5.3919 0.859076C4.16074 0.859076 3.57163 1.88562 3.43485 2.43273C3.37732 2.66287 3.14411 2.8028 2.91396 2.74526C2.68382 2.68773 2.54389 2.45451 2.60143 2.22437C2.78115 1.50547 3.58466 0 5.3919 0C6.2915 0 6.89521 0.384454 7.2597 0.890686C7.31654 0.969639 7.3671 1.05082 7.41191 1.13308C7.85548 0.543354 8.57894 0 9.66468 0C10.8555 0 11.6105 0.653607 12.0384 1.30515C12.4664 0.653607 13.2214 0 14.4122 0C16.2194 0 17.023 1.50547 17.2027 2.22437C17.2602 2.45451 17.1203 2.68773 16.8901 2.74526C16.66 2.8028 16.4268 2.66287 16.3693 2.43273C16.2325 1.88562 15.6434 0.859076 14.4122 0.859076C13.181 0.859076 12.5919 1.88562 12.4552 2.43273C12.4073 2.62394 12.2355 2.75809 12.0384 2.75809C11.8413 2.75809 11.6695 2.62394 11.6217 2.43273C11.485 1.88562 10.8958 0.859076 9.66468 0.859076C8.43351 0.859076 7.8444 1.88562 7.70763 2.43273C7.65501 2.64318 7.45374 2.78137 7.23843 2.75487C7.02313 2.72836 6.86138 2.54548 6.86138 2.32855C6.86138 2.08078 6.78351 1.69957 6.56253 1.39265C6.35731 1.10763 6.01151 0.859076 5.3919 0.859076ZM3.06336 7.55083C3.06336 7.3136 3.25567 7.12129 3.49289 7.12129H16.3112C16.5484 7.12129 16.7408 7.3136 16.7408 7.55083C16.7408 7.78805 16.5484 7.98037 16.3112 7.98037H3.49289C3.25567 7.98037 3.06336 7.78805 3.06336 7.55083ZM3.06336 25.3427C3.06336 25.1055 3.25567 24.9132 3.49289 24.9132H15.8365C16.0737 24.9132 16.266 25.1055 16.266 25.3427C16.266 25.58 16.0737 25.7723 15.8365 25.7723H3.49289C3.25567 25.7723 3.06336 25.58 3.06336 25.3427Z" fill="url(#paint4_linear)"/>
<path fill-rule="evenodd" clip-rule="evenodd" d="M5.3919 0.859076C4.16074 0.859076 3.57163 1.88562 3.43485 2.43273C3.37732 2.66287 3.14411 2.8028 2.91396 2.74526C2.68382 2.68773 2.54389 2.45451 2.60143 2.22437C2.78115 1.50547 3.58466 0 5.3919 0C6.2915 0 6.89521 0.384454 7.2597 0.890686C7.31654 0.969639 7.3671 1.05082 7.41191 1.13308C7.85548 0.543354 8.57894 0 9.66468 0C10.8555 0 11.6105 0.653607 12.0384 1.30515C12.4664 0.653607 13.2214 0 14.4122 0C16.2194 0 17.023 1.50547 17.2027 2.22437C17.2602 2.45451 17.1203 2.68773 16.8901 2.74526C16.66 2.8028 16.4268 2.66287 16.3693 2.43273C16.2325 1.88562 15.6434 0.859076 14.4122 0.859076C13.181 0.859076 12.5919 1.88562 12.4552 2.43273C12.4073 2.62394 12.2355 2.75809 12.0384 2.75809C11.8413 2.75809 11.6695 2.62394 11.6217 2.43273C11.485 1.88562 10.8958 0.859076 9.66468 0.859076C8.43351 0.859076 7.8444 1.88562 7.70763 2.43273C7.65501 2.64318 7.45374 2.78137 7.23843 2.75487C7.02313 2.72836 6.86138 2.54548 6.86138 2.32855C6.86138 2.08078 6.78351 1.69957 6.56253 1.39265C6.35731 1.10763 6.01151 0.859076 5.3919 0.859076ZM3.06336 7.55083C3.06336 7.3136 3.25567 7.12129 3.49289 7.12129H16.3112C16.5484 7.12129 16.7408 7.3136 16.7408 7.55083C16.7408 7.78805 16.5484 7.98037 16.3112 7.98037H3.49289C3.25567 7.98037 3.06336 7.78805 3.06336 7.55083ZM3.06336 25.3427C3.06336 25.1055 3.25567 24.9132 3.49289 24.9132H15.8365C16.0737 24.9132 16.266 25.1055 16.266 25.3427C16.266 25.58 16.0737 25.7723 15.8365 25.7723H3.49289C3.25567 25.7723 3.06336 25.58 3.06336 25.3427Z" fill="#9E035D"/>
<path fill-rule="evenodd" clip-rule="evenodd" d="M8.36081 14.2221C7.1066 14.5411 6.18702 15.6645 6.18702 16.9926C6.18702 18.5772 7.43928 19.8536 9.03693 19.8536C10.3107 19.8536 11.3896 19.0446 11.7806 17.9243L12.7539 18.2639C12.2208 19.7914 10.7562 20.8845 9.03693 20.8845C6.86114 20.8845 5.15613 19.1377 5.15613 16.9926C5.15613 15.1742 6.414 13.6536 8.10666 13.223L8.36081 14.2221Z" fill="url(#paint5_linear)"/>
<path fill-rule="evenodd" clip-rule="evenodd" d="M8.36081 14.2221C7.1066 14.5411 6.18702 15.6645 6.18702 16.9926C6.18702 18.5772 7.43928 19.8536 9.03693 19.8536C10.3107 19.8536 11.3896 19.0446 11.7806 17.9243L12.7539 18.2639C12.2208 19.7914 10.7562 20.8845 9.03693 20.8845C6.86114 20.8845 5.15613 19.1377 5.15613 16.9926C5.15613 15.1742 6.414 13.6536 8.10666 13.223L8.36081 14.2221Z" fill="#9E035D"/>
<defs>
<linearGradient id="paint0_linear" x1="0" y1="4.53284" x2="11.3065" y2="4.78092" gradientUnits="userSpaceOnUse">
<stop stop-color="#AE2B88"/>
<stop offset="1" stop-color="#C54586"/>
</linearGradient>
<linearGradient id="paint1_linear" x1="0.411499" y1="1.82178" x2="18.8405" y2="5.71101" gradientUnits="userSpaceOnUse">
<stop stop-color="#AE2B88"/>
<stop offset="1" stop-color="#C54586"/>
</linearGradient>
<linearGradient id="paint2_linear" x1="19.3292" y1="4.53284" x2="9.01742" y2="4.73917" gradientUnits="userSpaceOnUse">
<stop stop-color="#AE2B88"/>
<stop offset="1" stop-color="#C54586"/>
</linearGradient>
<linearGradient id="paint3_linear" x1="7.59619" y1="11.1793" x2="15.9" y2="11.5861" gradientUnits="userSpaceOnUse">
<stop stop-color="#AE2B88"/>
<stop offset="1" stop-color="#C54586"/>
</linearGradient>
<linearGradient id="paint4_linear" x1="2.5885" y1="0" x2="17.9203" y2="0.426278" gradientUnits="userSpaceOnUse">
<stop stop-color="#AE2B88"/>
<stop offset="1" stop-color="#C54586"/>
</linearGradient>
<linearGradient id="paint5_linear" x1="5.15613" y1="13.223" x2="13.1074" y2="13.6093" gradientUnits="userSpaceOnUse">
<stop stop-color="#AE2B88"/>
<stop offset="1" stop-color="#C54586"/>
</linearGradient>
</defs>
</svg>
