<svg width="32" height="32" viewBox="0 0 32 32" fill="none" xmlns="http://www.w3.org/2000/svg">
<path d="M24.9998 5.33337C27.3931 5.33337 29.3332 7.27347 29.3332 9.66671V22.3395C29.3332 24.7327 27.3931 26.6728 24.9998 26.6728H6.99984C4.6066 26.6728 2.6665 24.7327 2.6665 22.3395V9.66671C2.6665 7.356 4.47511 5.46771 6.75394 5.34023L6.99984 5.33337H24.9998ZM24.9998 7.33337H6.99984L6.80847 7.34111C5.60932 7.43845 4.6665 8.44248 4.6665 9.66671V22.3395C4.6665 23.6282 5.71117 24.6728 6.99984 24.6728H24.9998C26.2885 24.6728 27.3332 23.6282 27.3332 22.3395V9.66671C27.3332 8.37804 26.2885 7.33337 24.9998 7.33337ZM12.3366 16.6667C12.8889 16.6667 13.3366 17.1144 13.3366 17.6667V18.443C13.3366 20.139 12.0453 21 10.0016 21C7.95771 21 6.6665 20.1382 6.6665 18.4414V17.6667C6.6665 17.1144 7.11422 16.6667 7.6665 16.6667H12.3366ZM14.4445 16.6648L16.3332 16.6667C16.8855 16.6667 17.3332 17.1144 17.3332 17.6667V18.1103C17.3332 19.395 16.3132 20 14.8332 20C14.6783 20 14.5285 19.9934 14.3844 19.9801C14.5337 19.6215 14.6268 19.2215 14.6581 18.7809L14.6699 18.443V17.6667C14.6699 17.3081 14.589 16.9684 14.4445 16.6648ZM20.3327 16.6667H24.3332C24.8855 16.6667 25.3332 17.1144 25.3332 17.6667C25.3332 18.173 24.957 18.5914 24.4689 18.6576L24.3332 18.6667H20.3327C19.7804 18.6667 19.3327 18.219 19.3327 17.6667C19.3327 17.1604 19.7089 16.7421 20.197 16.6758L20.3327 16.6667H24.3332H20.3327ZM10.0008 11.3334C11.1059 11.3334 12.0017 12.2292 12.0017 13.3343C12.0017 14.4394 11.1059 15.3353 10.0008 15.3353C8.89569 15.3353 7.99984 14.4394 7.99984 13.3343C7.99984 12.2292 8.89569 11.3334 10.0008 11.3334ZM15.1598 12.003C16.0786 12.003 16.8235 12.7479 16.8235 13.6667C16.8235 14.5855 16.0786 15.3304 15.1598 15.3304C14.241 15.3304 13.4962 14.5855 13.4962 13.6667C13.4962 12.7479 14.241 12.003 15.1598 12.003ZM20.3327 12.6667H24.3332C24.8855 12.6667 25.3332 13.1144 25.3332 13.6667C25.3332 14.173 24.957 14.5914 24.4689 14.6576L24.3332 14.6667H20.3327C19.7804 14.6667 19.3327 14.219 19.3327 13.6667C19.3327 13.1604 19.7089 12.7421 20.197 12.6758L20.3327 12.6667H24.3332H20.3327Z" fill="white"/>
</svg>
