<svg xmlns="http://www.w3.org/2000/svg" width="35.77" height="36" viewBox="0 0 35.77 36">
  <g id="Group_708" data-name="Group 708" transform="translate(-1.634)">
    <path id="Path_3653" data-name="Path 3653" d="M37.227,21.207l-3.851-3.4,3.715-3.544a.525.525,0,0,0-.219-.885l-4.944-1.427,1.827-4.785a.524.524,0,0,0-.085-.52.531.531,0,0,0-.495-.187l-5.082.819-.413-5.1a.526.526,0,0,0-.3-.433.532.532,0,0,0-.528.042L22.615,4.7,20.041.263a.531.531,0,0,0-.917,0L16.169,5.351,11.058,2.4a.532.532,0,0,0-.529,0,.526.526,0,0,0-.266.455L10.25,7.974,5.12,7.551a.531.531,0,0,0-.479.225A.523.523,0,0,0,4.6,8.3l2.2,4.629L1.977,14.735a.525.525,0,0,0-.149.9l3.981,3.245L2.237,22.564a.525.525,0,0,0,.253.876l5,1.234L5.848,29.527a.524.524,0,0,0,.105.516.531.531,0,0,0,.5.167L11.5,29.195l.613,5.082a.527.527,0,0,0,.317.421.532.532,0,0,0,.526-.063l4.12-3.069,2.746,4.188A.53.53,0,0,0,20.27,36h.021a.53.53,0,0,0,.448-.281l2.4-4.388,4.348,2.74a.532.532,0,0,0,.529.022.526.526,0,0,0,.283-.445l.213-5.114,5.11.622a.531.531,0,0,0,.487-.206.524.524,0,0,0,.064-.522l-2.013-4.711L37.043,22.1a.525.525,0,0,0,.184-.893Z" fill="#ffa600"/>
    <ellipse id="Ellipse_62" data-name="Ellipse 62" cx="10.903" cy="10.895" rx="10.903" ry="10.895" transform="translate(8.5 7.013)" fill="#ffdb2d"/>
    <path id="Path_3654" data-name="Path 3654" d="M243.623,99.743q-.41,0-.812.03a10.894,10.894,0,0,1,0,21.73q.4.03.812.03a10.895,10.895,0,1,0,0-21.79Z" transform="translate(-224.219 -92.73)" fill="#ffca00"/>
  </g>
</svg>
