<svg xmlns="http://www.w3.org/2000/svg" width="90" height="90" viewBox="0 0 90 90">
  <rect id="Rectangle_525" data-name="Rectangle 525" width="90" height="90" rx="30" fill="#29b6f6" opacity="0.12"/>
  <g id="_011-high_temperature" data-name="011-high temperature" transform="translate(-93.5 18)">
    <path id="Path_3596" data-name="Path 3596" d="M150.129,21.2H145.91a2.109,2.109,0,1,1,0-4.219h4.219a2.109,2.109,0,0,1,0,4.219Zm-3.547,29.065a12.974,12.974,0,0,0,1.9-16.1,3.1,3.1,0,0,1-.462-1.646V29.637h2.109a2.109,2.109,0,0,0,0-4.219H148.02a4.224,4.224,0,0,0-4.219,4.219v2.882a7.314,7.314,0,0,0,1.1,3.881,8.754,8.754,0,0,1-7.555,13.381,8.818,8.818,0,0,1-8.629-8.589,8.722,8.722,0,0,1,1.318-4.788,7.331,7.331,0,0,0,1.106-3.886V10.653a6.477,6.477,0,0,1,6.28-6.434h.047a6.337,6.337,0,0,1,6.2,5.057,4.234,4.234,0,0,0,4.134,3.38h2.321a2.109,2.109,0,0,0,0-4.219l-2.321,0A10.564,10.564,0,0,0,137.472,0h-.079a10.4,10.4,0,0,0-7.408,3.193,10.637,10.637,0,0,0-3.059,7.459V32.518a3.116,3.116,0,0,1-.467,1.653A12.987,12.987,0,0,0,137.291,54h.184A12.879,12.879,0,0,0,146.582,50.264Z" transform="translate(0)" fill="#094fb9"/>
    <path id="Path_3597" data-name="Path 3597" d="M222.5,112.59a2.637,2.637,0,1,1,2.637,2.637A2.637,2.637,0,0,1,222.5,112.59Zm4.746-8.965V82.109a2.109,2.109,0,1,0-4.219,0v21.516a2.109,2.109,0,1,0,4.219,0Z" transform="translate(-87.664 -71.562)" fill="#29b6f6"/>
  </g>
</svg>
