<svg xmlns="http://www.w3.org/2000/svg" width="22.602" height="44" viewBox="0 0 22.602 44">
  <g id="_011-high_temperature" data-name="011-high temperature" transform="translate(-124.5 0)">
    <path id="Path_3596" data-name="Path 3596" d="M145.383,17.274h-3.438a1.719,1.719,0,1,1,0-3.438h3.438a1.719,1.719,0,0,1,0,3.438Zm-2.89,23.682a10.572,10.572,0,0,0,1.548-13.118,2.525,2.525,0,0,1-.377-1.341V24.149h1.719a1.719,1.719,0,0,0,0-3.438h-1.719a3.441,3.441,0,0,0-3.438,3.438V26.5a5.96,5.96,0,0,0,.9,3.162,7.133,7.133,0,0,1-6.156,10.9,7.185,7.185,0,0,1-7.031-7,7.107,7.107,0,0,1,1.074-3.9,5.974,5.974,0,0,0,.9-3.166V8.68a5.278,5.278,0,0,1,5.117-5.242h.038a5.164,5.164,0,0,1,5.053,4.121,3.45,3.45,0,0,0,3.368,2.754h1.892a1.719,1.719,0,0,0,0-3.438l-1.892,0A8.607,8.607,0,0,0,135.07,0h-.064a8.478,8.478,0,0,0-6.036,2.6,8.667,8.667,0,0,0-2.492,6.078V26.5a2.539,2.539,0,0,1-.38,1.347A10.582,10.582,0,0,0,134.922,44h.15A10.494,10.494,0,0,0,142.493,40.956Z" transform="translate(0)" fill="#094fb9"/>
    <path id="Path_3597" data-name="Path 3597" d="M222.5,106.555a2.148,2.148,0,1,1,2.148,2.148A2.148,2.148,0,0,1,222.5,106.555Zm3.867-7.3V81.719a1.719,1.719,0,1,0-3.437,0V99.25a1.719,1.719,0,0,0,3.438,0Z" transform="translate(-89.578 -73.125)" fill="#29b6f6"/>
  </g>
</svg>
