<svg width="24" height="24" viewBox="0 0 24 24" fill="none" xmlns="http://www.w3.org/2000/svg">
<path d="M14 2H6C5.46957 2 4.96086 2.21071 4.58579 2.58579C4.21071 2.96086 4 3.46957 4 4V20C4 20.5304 4.21071 21.0391 4.58579 21.4142C4.96086 21.7893 5.46957 22 6 22H18C18.5304 22 19.0391 21.7893 19.4142 21.4142C19.7893 21.0391 20 20.5304 20 20V8L14 2Z" stroke="url(#paint0_linear)" stroke-width="2" stroke-linecap="round" stroke-linejoin="round"/>
<path d="M14 2V8H20" stroke="url(#paint1_linear)" stroke-width="2" stroke-linecap="round" stroke-linejoin="round"/>
<path d="M16 13H8" stroke="url(#paint2_linear)" stroke-width="2" stroke-linecap="round" stroke-linejoin="round"/>
<path d="M16 17H8" stroke="url(#paint3_linear)" stroke-width="2" stroke-linecap="round" stroke-linejoin="round"/>
<path d="M10 9H9H8" stroke="url(#paint4_linear)" stroke-width="2" stroke-linecap="round" stroke-linejoin="round"/>
<defs>
<linearGradient id="paint0_linear" x1="4" y1="2" x2="20.7581" y2="2.65676" gradientUnits="userSpaceOnUse">
<stop stop-color="#AE2B88"/>
<stop offset="1" stop-color="#C54586"/>
</linearGradient>
<linearGradient id="paint1_linear" x1="14" y1="2" x2="20.2789" y2="2.30759" gradientUnits="userSpaceOnUse">
<stop stop-color="#AE2B88"/>
<stop offset="1" stop-color="#C54586"/>
</linearGradient>
<linearGradient id="paint2_linear" x1="8" y1="13" x2="15.2746" y2="15.851" gradientUnits="userSpaceOnUse">
<stop stop-color="#AE2B88"/>
<stop offset="1" stop-color="#C54586"/>
</linearGradient>
<linearGradient id="paint3_linear" x1="8" y1="17" x2="15.2746" y2="19.851" gradientUnits="userSpaceOnUse">
<stop stop-color="#AE2B88"/>
<stop offset="1" stop-color="#C54586"/>
</linearGradient>
<linearGradient id="paint4_linear" x1="8" y1="9" x2="10.078" y2="9.2036" gradientUnits="userSpaceOnUse">
<stop stop-color="#AE2B88"/>
<stop offset="1" stop-color="#C54586"/>
</linearGradient>
</defs>
</svg>
