<svg xmlns="http://www.w3.org/2000/svg" width="90" height="90" viewBox="0 0 90 90">
  <rect id="Rectangle_527" data-name="Rectangle 527" width="90" height="90" rx="30" fill="#29b6f6" opacity="0.12"/>
  <g id="_021-summer" data-name="021-summer" transform="translate(18 18)">
    <path id="Path_3602" data-name="Path 3602" d="M51.891,29.108H49.781a2.109,2.109,0,0,1,0-4.219h2.109a2.109,2.109,0,0,1,0,4.219ZM6.328,27A2.109,2.109,0,0,0,4.219,24.89H2.109a2.109,2.109,0,0,0,0,4.219H4.219A2.109,2.109,0,0,0,6.328,27ZM16.663,9.1a2.109,2.109,0,0,0,.772-2.882L16.38,4.389A2.109,2.109,0,0,0,12.726,6.5l1.055,1.827a2.109,2.109,0,0,0,2.882.772Zm33.85,31.149a2.109,2.109,0,0,0-.8-2.873l-1.838-1.035a2.109,2.109,0,1,0-2.07,3.676l1.838,1.035a2.108,2.108,0,0,0,2.873-.8ZM8.974,16.856a2.109,2.109,0,0,0-.8-2.873L6.333,12.948a2.109,2.109,0,1,0-2.07,3.676L6.1,17.659a2.108,2.108,0,0,0,2.873-.8ZM28.793,4.219V2.109a2.109,2.109,0,1,0-4.219,0V4.219a2.109,2.109,0,0,0,4.219,0ZM6.247,40.921,8.091,39.9a2.109,2.109,0,0,0-2.047-3.689L4.2,37.233a2.109,2.109,0,1,0,2.047,3.689ZM41.1,50.029a2.109,2.109,0,0,0,.7-2.9l-1.1-1.8a2.109,2.109,0,1,0-3.6,2.2l1.1,1.8a2.108,2.108,0,0,0,2.9.7ZM16.38,49.611l1.055-1.827a2.109,2.109,0,1,0-3.653-2.11L12.726,47.5a2.109,2.109,0,1,0,3.653,2.11Zm12.413,2.28V49.781a2.109,2.109,0,1,0-4.219,0v2.109a2.109,2.109,0,0,0,4.219,0ZM43.453,27v0A16.453,16.453,0,1,0,27,43.454,16.472,16.472,0,0,0,43.453,27Zm-4.219,0v0A12.234,12.234,0,1,1,27,14.765,12.248,12.248,0,0,1,39.234,27Z" transform="translate(0 0)" fill="#094fb9"/>
    <path id="Path_3603" data-name="Path 3603" d="M350.88,40.726a2.11,2.11,0,0,1-1.8-3.211l1.1-1.8a2.109,2.109,0,1,1,3.6,2.2l-1.1,1.8A2.108,2.108,0,0,1,350.88,40.726Zm9.019,8.068,1.842-1.027a2.109,2.109,0,1,0-2.054-3.685l-1.842,1.027a2.109,2.109,0,1,0,2.054,3.685Z" transform="translate(-311.988 -31.047)" fill="#29b6f6"/>
  </g>
</svg>
