<svg id="_021-summer" data-name="021-summer" xmlns="http://www.w3.org/2000/svg" width="44" height="44" viewBox="0 0 44 44">
  <path id="Path_3602" data-name="Path 3602" d="M42.281,23.718H40.563a1.719,1.719,0,0,1,0-3.437h1.719a1.719,1.719,0,0,1,0,3.438ZM5.156,22A1.719,1.719,0,0,0,3.438,20.28H1.719a1.719,1.719,0,1,0,0,3.438H3.438A1.719,1.719,0,0,0,5.156,22ZM13.577,7.413a1.719,1.719,0,0,0,.629-2.348l-.859-1.488A1.719,1.719,0,0,0,10.37,5.3l.859,1.488a1.718,1.718,0,0,0,2.348.629ZM41.159,32.793a1.719,1.719,0,0,0-.654-2.341l-1.5-.843a1.719,1.719,0,1,0-1.687,3l1.5.843a1.718,1.718,0,0,0,2.341-.654ZM7.312,13.734a1.719,1.719,0,0,0-.654-2.341l-1.5-.843a1.719,1.719,0,1,0-1.687,3l1.5.843a1.718,1.718,0,0,0,2.341-.654Zm16.149-10.3V1.719a1.719,1.719,0,0,0-3.437,0V3.437a1.719,1.719,0,0,0,3.438,0ZM5.09,33.343l1.5-.834A1.719,1.719,0,0,0,4.925,29.5l-1.5.834A1.719,1.719,0,1,0,5.09,33.343Zm28.4,7.421a1.719,1.719,0,0,0,.568-2.363l-.9-1.466a1.719,1.719,0,1,0-2.932,1.795l.9,1.466a1.718,1.718,0,0,0,2.363.568Zm-20.14-.34.859-1.488a1.719,1.719,0,0,0-2.977-1.719L10.37,38.7a1.719,1.719,0,1,0,2.977,1.719Zm10.114,1.858V40.563a1.719,1.719,0,1,0-3.437,0v1.719a1.719,1.719,0,0,0,3.438,0ZM35.406,22v0A13.406,13.406,0,1,0,22,35.407,13.421,13.421,0,0,0,35.406,22Zm-3.438,0h0A9.969,9.969,0,1,1,22,12.03,9.98,9.98,0,0,1,31.969,22Z" transform="translate(0 0)" fill="#094fb9"/>
  <path id="Path_3603" data-name="Path 3603" d="M350.49,39.611a1.719,1.719,0,0,1-1.464-2.616l.9-1.466a1.719,1.719,0,0,1,2.932,1.795l-.9,1.466A1.718,1.718,0,0,1,350.49,39.611Zm7.349,6.574,1.5-.837a1.719,1.719,0,1,0-1.674-3l-1.5.837a1.719,1.719,0,1,0,1.674,3Z" transform="translate(-318.8 -31.725)" fill="#29b6f6"/>
</svg>
