<svg xmlns="http://www.w3.org/2000/svg" width="90" height="90" viewBox="0 0 90 90">
  <rect id="Rectangle_523" data-name="Rectangle 523" width="90" height="90" rx="30" fill="#29b6f6" opacity="0.12"/>
  <g id="view" transform="translate(13.176 19)">
    <path id="Path_3617" data-name="Path 3617" d="M28,44.134c-14.627,0-26.134-16.588-26.617-17.294a2.3,2.3,0,0,1,0-2.546C1.866,23.588,13.373,7,28,7S54.134,23.588,54.617,24.294a2.3,2.3,0,0,1,0,2.546C54.134,27.545,42.627,44.134,28,44.134ZM5.163,25.567C8.078,29.309,17.335,40.008,28,40.008s19.922-10.7,22.837-14.441C47.922,21.825,38.665,11.126,28,11.126S8.078,21.825,5.163,25.567Z" transform="translate(3.824 0)" fill="#094fb9"/>
    <path id="Path_3618" data-name="Path 3618" d="M21.315,31.63A10.315,10.315,0,1,1,31.63,21.315,10.315,10.315,0,0,1,21.315,31.63Zm0-16.5A6.189,6.189,0,1,0,27.5,21.315,6.189,6.189,0,0,0,21.315,15.126Z" transform="translate(10.509 4.252)" fill="#29b6f6"/>
  </g>
</svg>
