<svg xmlns="http://www.w3.org/2000/svg" width="44" height="32.9" viewBox="0 0 44 32.9">
  <g id="view" transform="translate(-6.993 -7)">
    <path id="Path_3617" data-name="Path 3617" d="M23,39.9C11.082,39.9,1.705,25.2,1.312,24.578a2.191,2.191,0,0,1,0-2.255C1.705,21.7,11.082,7,23,7S44.294,21.7,44.688,22.322a2.191,2.191,0,0,1,0,2.255C44.294,25.2,34.918,39.9,23,39.9ZM4.392,23.45C6.767,26.766,14.31,36.245,23,36.245S39.233,26.766,41.608,23.45C39.233,20.135,31.69,10.656,23,10.656S6.767,20.135,4.392,23.45Z" transform="translate(5.994 0)" fill="#094fb9"/>
    <path id="Path_3618" data-name="Path 3618" d="M20.139,29.278a9.139,9.139,0,1,1,9.139-9.139,9.139,9.139,0,0,1-9.139,9.139Zm0-14.622a5.483,5.483,0,1,0,5.483,5.483A5.483,5.483,0,0,0,20.139,14.656Z" transform="translate(8.855 3.311)" fill="#29b6f6"/>
  </g>
</svg>
