<svg width="27" height="24" viewBox="0 0 27 24" fill="none" xmlns="http://www.w3.org/2000/svg">
<path fill-rule="evenodd" clip-rule="evenodd" d="M9.08902 1.41306C7.4256 0.963399 5.50025 1.14033 3.60971 2.86128C1.67712 4.62051 1.14503 6.40163 1.20752 7.8905C1.27075 9.39699 1.9464 10.6663 2.54268 11.3655L3.4505 12.2555H7.20755L9.2583 7.22952C9.34939 7.00629 9.56499 6.85905 9.80606 6.85542C10.0471 6.8518 10.2671 6.99251 10.3648 7.2129L13.4566 14.184L15.4991 9.03502C15.5863 8.81542 15.7939 8.66717 16.0299 8.65607C16.2659 8.64497 16.4865 8.77307 16.5938 8.98353L18.2626 12.2555L23.5245 12.2555L24.4323 11.3655C25.0286 10.6663 25.7042 9.39699 25.7675 7.8905C25.83 6.40163 25.2979 4.62051 23.3653 2.86128C21.4747 1.14032 19.5494 0.9634 17.886 1.41305C16.1841 1.87311 14.737 2.99981 13.9362 3.89705C13.8221 4.02487 13.6589 4.09796 13.4875 4.09796C13.3162 4.09796 13.153 4.02487 13.0389 3.89705C12.2381 2.99981 10.7909 1.87311 9.08902 1.41306ZM22.2977 13.4582L17.8943 13.4582C17.6683 13.4582 17.4613 13.3314 17.3586 13.1301L16.1267 10.7147L14.0465 15.9587C13.9572 16.1838 13.7416 16.3333 13.4995 16.3382C13.2574 16.343 13.036 16.2021 12.9378 15.9807L9.83815 8.99195L8.16846 13.084C8.07613 13.3103 7.85605 13.4582 7.61167 13.4582H4.67735L13.4875 22.095L22.2977 13.4582ZM13.4875 2.63105C12.5341 1.71147 11.094 0.709159 9.40287 0.252021C7.38168 -0.294348 5.02261 -0.0512643 2.80009 1.97188C0.619631 3.95675 -0.0724088 6.07573 0.00587576 7.94094C0.0828641 9.77526 0.901489 11.3049 1.64796 12.1697C1.65887 12.1824 1.6703 12.1946 1.68222 12.2062L13.0666 23.3665C13.3004 23.5958 13.6747 23.5958 13.9085 23.3665L25.2928 12.2062C25.3047 12.1946 25.3161 12.1824 25.327 12.1697C26.0735 11.3049 26.8921 9.77526 26.9691 7.94094C27.0474 6.07573 26.3554 3.95675 24.1749 1.97188C21.9524 -0.0512631 19.5933 -0.294349 17.5722 0.252021C15.8811 0.70916 14.441 1.71147 13.4875 2.63105Z" fill="url(#paint0_linear)"/>
<path fill-rule="evenodd" clip-rule="evenodd" d="M9.08902 1.41306C7.4256 0.963399 5.50025 1.14033 3.60971 2.86128C1.67712 4.62051 1.14503 6.40163 1.20752 7.8905C1.27075 9.39699 1.9464 10.6663 2.54268 11.3655L3.4505 12.2555H7.20755L9.2583 7.22952C9.34939 7.00629 9.56499 6.85905 9.80606 6.85542C10.0471 6.8518 10.2671 6.99251 10.3648 7.2129L13.4566 14.184L15.4991 9.03502C15.5863 8.81542 15.7939 8.66717 16.0299 8.65607C16.2659 8.64497 16.4865 8.77307 16.5938 8.98353L18.2626 12.2555L23.5245 12.2555L24.4323 11.3655C25.0286 10.6663 25.7042 9.39699 25.7675 7.8905C25.83 6.40163 25.2979 4.62051 23.3653 2.86128C21.4747 1.14032 19.5494 0.9634 17.886 1.41305C16.1841 1.87311 14.737 2.99981 13.9362 3.89705C13.8221 4.02487 13.6589 4.09796 13.4875 4.09796C13.3162 4.09796 13.153 4.02487 13.0389 3.89705C12.2381 2.99981 10.7909 1.87311 9.08902 1.41306ZM22.2977 13.4582L17.8943 13.4582C17.6683 13.4582 17.4613 13.3314 17.3586 13.1301L16.1267 10.7147L14.0465 15.9587C13.9572 16.1838 13.7416 16.3333 13.4995 16.3382C13.2574 16.343 13.036 16.2021 12.9378 15.9807L9.83815 8.99195L8.16846 13.084C8.07613 13.3103 7.85605 13.4582 7.61167 13.4582H4.67735L13.4875 22.095L22.2977 13.4582ZM13.4875 2.63105C12.5341 1.71147 11.094 0.709159 9.40287 0.252021C7.38168 -0.294348 5.02261 -0.0512643 2.80009 1.97188C0.619631 3.95675 -0.0724088 6.07573 0.00587576 7.94094C0.0828641 9.77526 0.901489 11.3049 1.64796 12.1697C1.65887 12.1824 1.6703 12.1946 1.68222 12.2062L13.0666 23.3665C13.3004 23.5958 13.6747 23.5958 13.9085 23.3665L25.2928 12.2062C25.3047 12.1946 25.3161 12.1824 25.327 12.1697C26.0735 11.3049 26.8921 9.77526 26.9691 7.94094C27.0474 6.07573 26.3554 3.95675 24.1749 1.97188C21.9524 -0.0512631 19.5933 -0.294349 17.5722 0.252021C15.8811 0.70916 14.441 1.71147 13.4875 2.63105Z" fill="#9E035D"/>
<defs>
<linearGradient id="paint0_linear" x1="0" y1="0" x2="28.2076" y2="1.58359" gradientUnits="userSpaceOnUse">
<stop stop-color="#AE2B88"/>
<stop offset="1" stop-color="#C54586"/>
</linearGradient>
</defs>
</svg>
