<svg xmlns="http://www.w3.org/2000/svg" width="44" height="44" viewBox="0 0 44 44">
  <g id="_005-windy" data-name="005-windy" transform="translate(0)">
    <path id="Path_3608" data-name="Path 3608" d="M37.039,44a6.994,6.994,0,0,1-6.3-3.993A1.719,1.719,0,1,1,33.85,38.54a3.526,3.526,0,1,0,3.189-5.033l-28.187.008A8.942,8.942,0,0,1,2.287,31,8.169,8.169,0,0,1,0,25.223a7.925,7.925,0,0,1,3.051-6.261A9.246,9.246,0,0,1,11.664,7.743,11,11,0,0,1,32.988,8.987a12.119,12.119,0,0,1,1.4.209,1.719,1.719,0,0,1-.707,3.364,8.752,8.752,0,0,0-1.8-.185c-.11,0-.23,0-.366.008a1.719,1.719,0,0,1-1.788-1.657,7.563,7.563,0,0,0-15.022-.942A1.719,1.719,0,0,1,12.8,11.217a5.9,5.9,0,0,0-.724-.045,5.8,5.8,0,0,0-5.408,7.9,1.719,1.719,0,0,1-.8,2.147,4.5,4.5,0,0,0-2.425,4c0,2.24,1.418,4.855,5.414,4.855l28.187-.008a6.965,6.965,0,0,1,0,13.93Z" transform="translate(0 0)" fill="#094fb9"/>
    <path id="Path_3609" data-name="Path 3609" d="M267.418,180.031l-14.7-.007a1.719,1.719,0,0,1,0-3.437h0l14.7.007a2.578,2.578,0,1,0-2.331-3.678,1.719,1.719,0,1,1-3.109-1.467,6.014,6.014,0,1,1,5.439,8.583Z" transform="translate(-229.43 -153.562)" fill="#29b6f6"/>
  </g>
</svg>
