<svg xmlns="http://www.w3.org/2000/svg" width="43.595" height="47.982" viewBox="0 0 43.595 47.982">
  <g id="Group_784" data-name="Group 784" transform="translate(-5589.206 -2326)">
    <path id="Path_3838" data-name="Path 3838" d="M176.953,47.378a2.053,2.053,0,0,0,2.288.428L198.152,39.4l18.911,8.4a2.053,2.053,0,0,0,2.705-2.718L200.024,1.21a2.053,2.053,0,0,0-3.743,0L176.536,45.088A2.052,2.052,0,0,0,176.953,47.378Z" transform="translate(5412.852 2326)" fill="#29b6f6"/>
    <path id="Path_3839" data-name="Path 3839" d="M190.28,39.4l18.911,8.4a2.053,2.053,0,0,0,2.705-2.718L192.152,1.21A2.053,2.053,0,0,0,190.28,0C189.472,0,190.28,39.4,190.28,39.4Z" transform="translate(5420.724 2326)" fill="#039be5"/>
  </g>
</svg>
