<svg xmlns="http://www.w3.org/2000/svg" width="90" height="90" viewBox="0 0 90 90">
  <rect id="Rectangle_521" data-name="Rectangle 521" width="90" height="90" rx="30" fill="#29b6f6" opacity="0.12"/>
  <g id="_005-windy" data-name="005-windy" transform="translate(21 21)">
    <path id="Path_3608" data-name="Path 3608" d="M42.09,50a7.947,7.947,0,0,1-7.157-4.538A1.953,1.953,0,1,1,38.466,43.8a4.006,4.006,0,1,0,3.624-5.719l-32.031.009A10.162,10.162,0,0,1,2.6,35.233,9.283,9.283,0,0,1,0,28.662a9.005,9.005,0,0,1,3.467-7.115A10.507,10.507,0,0,1,13.254,8.8a12.5,12.5,0,0,1,24.232,1.414,13.772,13.772,0,0,1,1.587.237,1.953,1.953,0,0,1-.8,3.823,9.945,9.945,0,0,0-2.04-.211c-.125,0-.261,0-.416.009a1.953,1.953,0,0,1-2.032-1.882,8.594,8.594,0,0,0-17.07-1.071,1.954,1.954,0,0,1-2.169,1.627,6.709,6.709,0,0,0-.823-.051,6.6,6.6,0,0,0-6.145,8.983,1.953,1.953,0,0,1-.914,2.439,5.117,5.117,0,0,0-2.755,4.545c0,2.545,1.611,5.518,6.152,5.518l32.031-.009a7.915,7.915,0,0,1,0,15.83Z" transform="translate(0 0)" fill="#094fb9"/>
    <path id="Path_3609" data-name="Path 3609" d="M269.656,181.672l-16.7-.008a1.953,1.953,0,0,1,0-3.906h0l16.7.008a2.93,2.93,0,1,0-2.649-4.18,1.953,1.953,0,1,1-3.533-1.667,6.834,6.834,0,1,1,6.181,9.753Z" transform="translate(-226.488 -151.594)" fill="#29b6f6"/>
  </g>
</svg>
