<svg xmlns="http://www.w3.org/2000/svg" width="72.7" height="72.35" viewBox="0 0 72.7 72.35">
  <g id="Group_542" data-name="Group 542" transform="translate(0.35)">
    <path id="Path_3681" data-name="Path 3681" d="M176.733,29.981a1.3,1.3,0,0,0,1.448.271l11.967-5.319,11.967,5.319a1.3,1.3,0,0,0,1.712-1.72L191.333.766a1.3,1.3,0,0,0-2.369,0L176.469,28.532A1.3,1.3,0,0,0,176.733,29.981Zm14.714-7.314V7.351L200.063,26.5Zm-2.6-15.317V22.667L180.234,26.5Z" transform="translate(-154.148 0)" fill="#29b6f6"/>
    <path id="Path_3682" data-name="Path 3682" d="M233.756,177.806v8.054l-6.693-8.924a1.451,1.451,0,0,0-2.612.871v12.407a1.451,1.451,0,0,0,2.9,0v-8.054l6.693,8.924a1.451,1.451,0,0,0,2.612-.871V177.806a1.451,1.451,0,1,0-2.9,0Z" transform="translate(-194.555 -143.555)" fill="#29b6f6"/>
    <g id="Group_543" data-name="Group 543">
      <path id="Path_3683" data-name="Path 3683" d="M307.877,42.163a29.383,29.383,0,0,1,21.1,23.937,1.055,1.055,0,0,0,2.086-.31,31.5,31.5,0,0,0-22.621-25.658,1.055,1.055,0,1,0-.57,2.031Z" transform="translate(-263.92 -34.455)" fill="#202020" stroke="#202020" stroke-width="0.7"/>
      <path id="Path_3684" data-name="Path 3684" d="M7.818,70.919a1.055,1.055,0,1,0,0-2.109H6.639A29.414,29.414,0,0,1,28.382,41.48a1.055,1.055,0,1,0-.545-2.038A31.527,31.527,0,0,0,4.528,68.81H1.055a1.055,1.055,0,1,0,0,2.109Z" transform="translate(0 -33.865)" fill="#202020" stroke="#202020" stroke-width="0.7"/>
      <path id="Path_3685" data-name="Path 3685" d="M100.527,248.5H93.764a1.055,1.055,0,1,0,0,2.109h1.179a29.417,29.417,0,0,1-28.306,28.306v-1.179a1.055,1.055,0,0,0-2.109,0v1.179a29.385,29.385,0,0,1-28.007-25.007,1.055,1.055,0,1,0-2.086.31,31.494,31.494,0,0,0,30.093,26.807V284.5a1.055,1.055,0,0,0,2.109,0v-3.474a31.485,31.485,0,0,0,30.417-30.417h3.474a1.055,1.055,0,1,0,0-2.109Z" transform="translate(-29.582 -213.555)" fill="#202020" stroke="#202020" stroke-width="0.7"/>
    </g>
  </g>
</svg>
