<svg xmlns="http://www.w3.org/2000/svg" width="320" height="235" viewBox="0 0 320 235">
  <rect id="Rectangle_361" data-name="Rectangle 361" width="320" height="235" rx="30" fill="#f5f6fa"/>
  <g id="_x32_3_x2C__windmill_x2C__Energy_x2C__power_x2C__turbine_x2C__wind" transform="translate(50 21.5)">
    <g id="Group_541" data-name="Group 541" transform="translate(21 8.5)">
      <g id="Group_540" data-name="Group 540">
        <g id="Group_523" data-name="Group 523" transform="translate(4.141 39.343)">
          <g id="Group_522" data-name="Group 522">
            <path id="Path_3666" data-name="Path 3666" d="M45.495,132.49a14.495,14.495,0,1,1,0-28.99h62.328a2.071,2.071,0,1,1,0,4.141H45.495a10.354,10.354,0,1,0,0,20.707,2.071,2.071,0,0,1,0,4.141Z" transform="translate(-31 -103.5)" fill="#29b6f6"/>
          </g>
        </g>
        <g id="Group_525" data-name="Group 525" transform="translate(16.566 14.495)">
          <g id="Group_524" data-name="Group 524" transform="translate(0)">
            <path id="Path_3667" data-name="Path 3667" d="M104.485,47.641H63.071a2.071,2.071,0,1,1,0-4.141h41.414a2.071,2.071,0,1,1,0,4.141Z" transform="translate(-61 -43.5)" fill="#29b6f6"/>
          </g>
        </g>
        <g id="Group_527" data-name="Group 527" transform="translate(37.273 60.051)">
          <g id="Group_526" data-name="Group 526">
            <path id="Path_3668" data-name="Path 3668" d="M129.636,157.641H113.071a2.071,2.071,0,1,1,0-4.141h16.566a2.071,2.071,0,0,1,0,4.141Z" transform="translate(-111 -153.5)" fill="#29b6f6"/>
          </g>
        </g>
        <path id="Path_3669" data-name="Path 3669" d="M313.23,227.068c-2.862,4.953-25.25-2.622-50.008-16.918-4.144-2.395-8.192-4.872-12.192-7.5a14.462,14.462,0,0,0,3.061-1.317s.008,0,.012-.008a14.306,14.306,0,0,0,3.524-2.845c.137-.137.665-.769.679-.812a14.458,14.458,0,0,0,2.675-12.259c29.351,14.795,55.721,35.639,52.248,41.659Z" transform="translate(-155.765 -112.144)" fill="#b2e5fb"/>
        <path id="Path_3670" data-name="Path 3670" d="M219.131,230.974,231.556,322.9l-22.778,7.094L186,322.9l12.424-91.923q3.205-1.969,6.2-3.934a14.566,14.566,0,0,0,8.308,0Q215.92,229,219.131,230.974Z" transform="translate(-117.667 -136.534)" fill="#33485d"/>
        <path id="Path_3671" data-name="Path 3671" d="M236.707,60.268c0,4.961-.137,9.765-.4,14.309a14.5,14.5,0,0,0-19.9,0c-.47-8.195-.518-16.758-.195-24.662C217.168,26.283,221.346,8.5,226.353,8.5,232.073,8.5,236.707,31.675,236.707,60.268Z" transform="translate(-135.242 -8.5)" fill="#b2e5fb"/>
        <path id="Path_3672" data-name="Path 3672" d="M142.559,202.651c-3.67,2.411-7.876,5.012-12.188,7.5-24.757,14.3-47.15,21.871-50.008,16.918s14.9-20.554,39.654-34.85c4.3-2.485,8.527-4.758,12.59-6.808a14.508,14.508,0,0,0,9.952,17.241Z" transform="translate(-55.602 -112.144)" fill="#b2e5fb"/>
        <g id="Group_529" data-name="Group 529" transform="translate(115.96 14.495)">
          <g id="Group_528" data-name="Group 528">
            <path id="Path_3673" data-name="Path 3673" d="M352.768,72.49a2.071,2.071,0,1,1,0-4.141,10.354,10.354,0,1,0,0-20.707h-49.7a2.071,2.071,0,1,1,0-4.141h49.7a14.495,14.495,0,0,1,0,28.99Z" transform="translate(-301 -43.5)" fill="#29b6f6"/>
          </g>
        </g>
        <g id="Group_531" data-name="Group 531" transform="translate(132.525 60.051)">
          <g id="Group_530" data-name="Group 530">
            <path id="Path_3674" data-name="Path 3674" d="M367.919,157.641H343.071a2.071,2.071,0,1,1,0-4.141h24.848a2.071,2.071,0,1,1,0,4.141Z" transform="translate(-341 -153.5)" fill="#29b6f6"/>
          </g>
        </g>
        <g id="Group_533" data-name="Group 533" transform="translate(0 84.899)">
          <g id="Group_532" data-name="Group 532">
            <path id="Path_3675" data-name="Path 3675" d="M43.778,217.641H23.071a2.071,2.071,0,1,1,0-4.141H43.778a2.071,2.071,0,1,1,0,4.141Z" transform="translate(-21 -213.5)" fill="#29b6f6"/>
          </g>
        </g>
        <g id="Group_535" data-name="Group 535" transform="translate(161.515 80.758)">
          <g id="Group_534" data-name="Group 534">
            <path id="Path_3676" data-name="Path 3676" d="M442.061,207.641h-28.99a2.071,2.071,0,1,1,0-4.141h28.99a2.071,2.071,0,0,1,0,4.141Z" transform="translate(-411 -203.5)" fill="#29b6f6"/>
          </g>
        </g>
        <g id="Group_537" data-name="Group 537" transform="translate(89.04 142.879)">
          <g id="Group_536" data-name="Group 536">
            <path id="Path_3677" data-name="Path 3677" d="M238.071,378.348A2.071,2.071,0,0,1,236,376.278V355.571a2.071,2.071,0,0,1,4.141,0v20.707A2.071,2.071,0,0,1,238.071,378.348Z" transform="translate(-236 -353.5)" fill="#2c3e50"/>
          </g>
        </g>
        <path id="Path_3678" data-name="Path 3678" d="M223.916,186.584s0,0,.009,0a15.213,15.213,0,0,1-8.677,0s0,0,.009,0a15.125,15.125,0,0,1-10.394-18.007s0,0-.009,0a15.137,15.137,0,0,1,4.339-7.509v.009a15.116,15.116,0,0,1,20.788,0v-.009a15.137,15.137,0,0,1,4.339,7.509s0,0-.009,0A15.115,15.115,0,0,1,223.916,186.584Z" transform="translate(-128.475 -95.465)" fill="#29b6f6"/>
        <path id="Path_3679" data-name="Path 3679" d="M227.576,458.5v16.566H158V458.5Z" transform="translate(-101.263 -272.136)" fill="#2c3e50"/>
        <g id="Group_539" data-name="Group 539" transform="translate(41.414 200.859)">
          <g id="Group_538" data-name="Group 538">
            <path id="Path_3680" data-name="Path 3680" d="M218.323,497.641H123.071a2.071,2.071,0,1,1,0-4.141h95.252a2.071,2.071,0,1,1,0,4.141Z" transform="translate(-121 -493.5)" fill="#f7c22b"/>
          </g>
        </g>
      </g>
    </g>
  </g>
</svg>
