<svg width="32" height="32" viewBox="0 0 32 32" fill="none" xmlns="http://www.w3.org/2000/svg">
<path d="M4 7.66667C4 5.64163 5.64163 4 7.66667 4H24.3333C26.3584 4 28 5.64163 28 7.66667V24.3333C28 26.3584 26.3584 28 24.3333 28H7.66667C5.64163 28 4 26.3584 4 24.3333V7.66667ZM17 26H24.3333C25.2539 26 26 25.2539 26 24.3333V17H17V26ZM15 17H6V24.3333C6 25.2539 6.74619 26 7.66667 26H15V17ZM17 15H26V7.66667C26 6.74619 25.2539 6 24.3333 6H17V15ZM15 6H7.66667C6.74619 6 6 6.74619 6 7.66667V15H15V6Z" fill="white"/>
</svg>
