<svg width="32" height="32" viewBox="0 0 32 32" fill="none" xmlns="http://www.w3.org/2000/svg">
<path d="M23.9999 2.66663C24.2317 2.66663 24.4548 2.74712 24.6323 2.89199L24.7329 2.98651L29.096 7.69095L29.1369 7.74281C29.2725 7.92371 29.3337 8.12883 29.3337 8.33029L29.3317 10.8889C29.3317 12.2145 28.8269 13.4222 27.9992 14.3304L27.9981 28.3333C27.9981 28.8396 27.622 29.258 27.1339 29.3242L26.9981 29.3333H5.0015C4.49525 29.3333 4.07685 28.957 4.01064 28.469L4.0015 28.3333L4.00046 14.3304C3.23638 13.4921 2.74756 12.3985 2.67686 11.1927L2.668 10.8889L2.66773 8.38792C2.65697 8.20484 2.6965 8.01647 2.79564 7.84413L2.88265 7.71685L2.93489 7.65587L7.26674 2.98651C7.42444 2.81653 7.6352 2.70771 7.86208 2.67616L7.99985 2.66663H23.9999ZM20.1091 13.9228L20.0932 13.9464C19.1613 15.1925 17.674 15.999 15.9983 15.999C14.3132 15.999 12.8186 15.1834 11.8877 13.9254C10.9578 15.1834 9.4632 15.999 7.77809 15.999C7.15261 15.999 6.55338 15.8866 5.99949 15.681L6.00118 27.332H7.99934L7.99985 18.3346C7.99985 17.8284 8.37605 17.41 8.86416 17.3438L8.99985 17.3346H14.9944C15.5007 17.3346 15.9191 17.7109 15.9853 18.1989L15.9944 18.3346L15.994 27.332H25.9972L25.9975 15.682C25.4444 15.887 24.8461 15.999 24.2216 15.999C22.5353 15.999 21.0399 15.1822 20.1091 13.9228ZM13.9932 19.3346H9.99985V27.332H13.9932V19.3346ZM23.0061 17.3346C23.5124 17.3346 23.9308 17.7109 23.9971 18.1989L24.0061 18.3346V23.004C24.0061 23.5102 23.63 23.9286 23.1419 23.9949L23.0061 24.004H18.3376C17.8313 24.004 17.4129 23.6278 17.3467 23.1397L17.3376 23.004V18.3346C17.3376 17.8284 17.7137 17.41 18.2019 17.3438L18.3376 17.3346H23.0061ZM22.0052 19.3346H19.3372V22.004H22.0052V19.3346ZM10.8879 9.33596H4.66785L4.668 10.8889L4.67622 11.117L4.71406 11.4253L4.75773 11.6337L4.82357 11.863L4.89604 12.0601L4.95028 12.1854C4.99184 12.2759 5.03761 12.3641 5.08734 12.4497L5.22461 12.6649L5.29698 12.7645L5.46868 12.9721L5.65772 13.1642L5.78604 13.2774L5.84216 13.3232C6.26153 13.6572 6.76914 13.885 7.32438 13.9662L7.56516 13.9918L7.77809 13.999C9.42417 13.999 10.7716 12.7202 10.881 11.1019L10.8882 10.8889L10.8879 9.33596ZM19.1079 9.33596H12.8879L12.8882 10.8889C12.8882 12.4635 14.0583 13.7648 15.5763 13.9706L15.7853 13.9918L15.9983 13.999C17.6444 13.999 18.9917 12.7202 19.1012 11.1019L19.1084 10.8889L19.1079 9.33596ZM27.3305 9.33596H21.1105L21.1115 10.8889C21.1115 12.4635 22.2816 13.7648 23.7996 13.9706L24.0087 13.9918L24.2216 13.999C24.974 13.999 25.664 13.7318 26.2019 13.2872L26.3216 13.183L26.476 13.0314L26.6709 12.8058C26.7429 12.7139 26.81 12.6178 26.8715 12.5179L27.0095 12.269L27.0933 12.0851L27.1711 11.8783L27.2108 11.7508L27.2617 11.5481L27.2996 11.338L27.3236 11.1157L27.3317 10.8889L27.3305 9.33596ZM12.082 4.66529H8.43585L5.95852 7.33596H11.2607L12.082 4.66529ZM17.8247 4.66529H14.174L13.3527 7.33596H18.646L17.8247 4.66529ZM23.5625 4.66529H19.9167L20.738 7.33596H26.0399L23.5625 4.66529Z" fill="white"/>
</svg>
