<svg xmlns="http://www.w3.org/2000/svg" width="58" height="58" viewBox="0 0 58 58">
  <g id="Group_1226" data-name="Group 1226" transform="translate(-474 -310)">
    <rect id="Rectangle_880" data-name="Rectangle 880" width="58" height="58" rx="18" transform="translate(474 310)" fill="#fff" opacity="0.9"/>
    <g id="Cloudy_day" data-name="Cloudy day" transform="translate(484.875 319.969)">
      <g id="Group_499" data-name="Group 499" transform="translate(13.617 0)">
        <path id="Path_3619" data-name="Path 3619" d="M20.28,5.839A1.28,1.28,0,0,1,19,4.559V3.28a1.28,1.28,0,1,1,2.559,0v1.28A1.28,1.28,0,0,1,20.28,5.839Z" transform="translate(-10.854 -2)" fill="#ffb300"/>
        <path id="Path_3620" data-name="Path 3620" d="M20.28,5.839A1.28,1.28,0,0,1,19,4.559V3.28a1.28,1.28,0,1,1,2.559,0v1.28A1.28,1.28,0,0,1,20.28,5.839Z" transform="translate(-10.854 -2)" fill="#ffb300"/>
        <path id="Path_3621" data-name="Path 3621" d="M14.758,8.038a1.28,1.28,0,0,1-.9-.376l-.843-.841A1.28,1.28,0,1,1,14.82,5.01l.842.842a1.28,1.28,0,0,1-.9,2.186Z" transform="translate(-12.635 -1.263)" fill="#ffb300"/>
        <path id="Path_3622" data-name="Path 3622" d="M29.54,13.559H28.349a1.28,1.28,0,1,1,0-2.559H29.54a1.28,1.28,0,0,1,0,2.559Z" transform="translate(-8.597 0.518)" fill="#ffb300"/>
        <path id="Path_3623" data-name="Path 3623" d="M25.986,8.037a1.28,1.28,0,0,1-.9-2.186l.842-.841a1.28,1.28,0,1,1,1.81,1.811l-.843.84A1.28,1.28,0,0,1,25.986,8.037Z" transform="translate(-9.258 -1.263)" fill="#ffb300"/>
      </g>
      <path id="Path_3624" data-name="Path 3624" d="M21.651,6a7.678,7.678,0,0,0-7.536,6.252,1.293,1.293,0,0,0,.348,1.106,1.357,1.357,0,0,0,1.112.4,8.137,8.137,0,0,1,.957-.076,8.958,8.958,0,0,1,8.163,5.3,1.28,1.28,0,0,0,.9.727,1.214,1.214,0,0,0,.271.029,1.28,1.28,0,0,0,.846-.32A7.654,7.654,0,0,0,21.651,6Z" transform="translate(1.391 -0.881)" fill="#ffd54f"/>
      <path id="Path_3625" data-name="Path 3625" d="M36,21.209A9.055,9.055,0,0,0,30.841,17.9a11.506,11.506,0,0,0-21.635-.608,1.341,1.341,0,0,1-.856.783,8.931,8.931,0,0,0-6.26,9.839,9.119,9.119,0,0,0,9.137,7.678H28.6a9.121,9.121,0,0,0,9.139-7.678A8.919,8.919,0,0,0,36,21.209Z" transform="translate(-1.995 0.238)" fill="#29b6f6"/>
      <path id="Path_3626" data-name="Path 3626" d="M33.48,19.517a9.041,9.041,0,0,0-6-3.455,1.176,1.176,0,0,0-.15-.01c-.289-.017-6.862,0-8.355,5.416a1.3,1.3,0,0,1-1.024.957c-2.192.308-7.435,2.034-6.911,11.479h15.05a9.121,9.121,0,0,0,9.139-7.678,8.919,8.919,0,0,0-1.744-6.708Z" transform="translate(0.524 1.93)" fill="#039be5"/>
    </g>
  </g>
</svg>
