<svg xmlns="http://www.w3.org/2000/svg" width="64" height="64" viewBox="0 0 64 64">
  <g id="Group_722" data-name="Group 722" transform="translate(-662 -109)">
    <circle id="Ellipse_85" data-name="Ellipse 85" cx="32" cy="32" r="32" transform="translate(662 109)" fill="#29b6f6" opacity="0.274"/>
    <g id="Group_690" data-name="Group 690" transform="translate(671.481 118.481)">
      <g id="Group_576" data-name="Group 576" transform="translate(0)">
        <g id="Group_575" data-name="Group 575" transform="translate(0)">
          <path id="Path_3709" data-name="Path 3709" d="M31.632,6.6a18.284,18.284,0,0,0-4.2-1.747v-1.5A3.364,3.364,0,0,0,24.072,0H21.083a3.364,3.364,0,0,0-3.357,3.357v1.5a17.886,17.886,0,0,0-4.2,1.747L12.457,5.546a3.353,3.353,0,0,0-4.746,0L5.6,7.661a3.353,3.353,0,0,0,0,4.746l1.058,1.058a18.284,18.284,0,0,0-1.747,4.2h-1.5A3.364,3.364,0,0,0,.05,21.024v2.989A3.364,3.364,0,0,0,3.407,27.37h1.5a17.886,17.886,0,0,0,1.747,4.2L5.6,32.64a3.364,3.364,0,0,0,0,4.746L7.711,39.5a3.353,3.353,0,0,0,4.746,0l1.058-1.058a18.283,18.283,0,0,0,4.2,1.747v1.5a3.364,3.364,0,0,0,3.357,3.357h2.989a3.364,3.364,0,0,0,3.357-3.357v-1.5a17.886,17.886,0,0,0,4.2-1.747L32.68,39.5a3.353,3.353,0,0,0,4.746,0l2.115-2.115a3.364,3.364,0,0,0,0-4.746l-1.058-1.058a18.284,18.284,0,0,0,1.747-4.2h1.5a3.364,3.364,0,0,0,3.357-3.357V21.033a3.364,3.364,0,0,0-3.357-3.357h-1.5a17.886,17.886,0,0,0-1.747-4.2l1.058-1.058a3.364,3.364,0,0,0,0-4.746L37.426,5.555a3.353,3.353,0,0,0-4.746,0Zm3.292,1.168a.2.2,0,0,1,.285,0l2.115,2.115a.2.2,0,0,1,0,.285l-1.941,1.941a1.575,1.575,0,0,0-.193,2,14.911,14.911,0,0,1,2.253,5.445,1.576,1.576,0,0,0,1.545,1.269h2.75a.2.2,0,0,1,.2.2v2.989a.2.2,0,0,1-.2.2H38.99a1.576,1.576,0,0,0-1.545,1.269,15,15,0,0,1-2.253,5.445,1.575,1.575,0,0,0,.193,2l1.941,1.941a.2.2,0,0,1,0,.285L35.21,37.266a.2.2,0,0,1-.285,0l-1.941-1.941a1.575,1.575,0,0,0-2-.193,14.977,14.977,0,0,1-5.445,2.253,1.576,1.576,0,0,0-1.269,1.545v2.75a.2.2,0,0,1-.2.2H21.083a.2.2,0,0,1-.2-.2V38.93a1.576,1.576,0,0,0-1.269-1.545,15.071,15.071,0,0,1-5.445-2.253,1.6,1.6,0,0,0-.874-.267,1.574,1.574,0,0,0-1.113.46L10.24,37.266a.2.2,0,0,1-.285,0L7.84,35.15a.2.2,0,0,1,0-.285L9.78,32.925a1.575,1.575,0,0,0,.193-2A14.977,14.977,0,0,1,7.72,25.485a1.576,1.576,0,0,0-1.545-1.269H3.407a.2.2,0,0,1-.2-.2V21.024a.2.2,0,0,1,.2-.2h2.75A1.576,1.576,0,0,0,7.7,19.553a15.072,15.072,0,0,1,2.253-5.445,1.586,1.586,0,0,0-.193-2L7.821,10.172a.194.194,0,0,1-.055-.147.187.187,0,0,1,.055-.138L9.937,7.771a.2.2,0,0,1,.285,0l1.941,1.941a1.575,1.575,0,0,0,2,.193A14.977,14.977,0,0,1,19.6,7.652a1.576,1.576,0,0,0,1.269-1.545V3.357a.2.2,0,0,1,.2-.2h2.989a.2.2,0,0,1,.2.2v2.75a1.576,1.576,0,0,0,1.269,1.545,15.072,15.072,0,0,1,5.445,2.253,1.586,1.586,0,0,0,2-.193Z" transform="translate(-0.05)" fill="#094fb9"/>
          <path id="Path_3710" data-name="Path 3710" d="M154.51,145.3a9.16,9.16,0,1,0,9.16,9.16A9.173,9.173,0,0,0,154.51,145.3Zm0,15.166a6.006,6.006,0,1,1,6.006-6.006A6.013,6.013,0,0,1,154.51,160.466Z" transform="translate(-131.987 -131.937)" fill="#094fb9"/>
        </g>
      </g>
    </g>
  </g>
</svg>
